%TF.GenerationSoftware,KiCad,Pcbnew,5.1.5+dfsg1-2build2*%
%TF.CreationDate,2021-04-16T14:35:20-05:00*%
%TF.ProjectId,Mercury 2021,4d657263-7572-4792-9032-3032312e6b69,rev?*%
%TF.SameCoordinates,Original*%
%TF.FileFunction,Legend,Bot*%
%TF.FilePolarity,Positive*%
%FSLAX46Y46*%
G04 Gerber Fmt 4.6, Leading zero omitted, Abs format (unit mm)*
G04 Created by KiCad (PCBNEW 5.1.5+dfsg1-2build2) date 2021-04-16 14:35:20*
%MOMM*%
%LPD*%
G04 APERTURE LIST*
%ADD10C,0.125000*%
%ADD11C,0.150000*%
G04 APERTURE END LIST*
D10*
X57417933Y-45390571D02*
X57441742Y-45414380D01*
X57513171Y-45438190D01*
X57560790Y-45438190D01*
X57632219Y-45414380D01*
X57679838Y-45366761D01*
X57703647Y-45319142D01*
X57727457Y-45223904D01*
X57727457Y-45152476D01*
X57703647Y-45057238D01*
X57679838Y-45009619D01*
X57632219Y-44962000D01*
X57560790Y-44938190D01*
X57513171Y-44938190D01*
X57441742Y-44962000D01*
X57417933Y-44985809D01*
X57203647Y-45438190D02*
X57203647Y-45104857D01*
X57203647Y-45200095D02*
X57179838Y-45152476D01*
X57156028Y-45128666D01*
X57108409Y-45104857D01*
X57060790Y-45104857D01*
X56703647Y-45414380D02*
X56751266Y-45438190D01*
X56846504Y-45438190D01*
X56894123Y-45414380D01*
X56917933Y-45366761D01*
X56917933Y-45176285D01*
X56894123Y-45128666D01*
X56846504Y-45104857D01*
X56751266Y-45104857D01*
X56703647Y-45128666D01*
X56679838Y-45176285D01*
X56679838Y-45223904D01*
X56917933Y-45271523D01*
X56251266Y-45438190D02*
X56251266Y-45176285D01*
X56275076Y-45128666D01*
X56322695Y-45104857D01*
X56417933Y-45104857D01*
X56465552Y-45128666D01*
X56251266Y-45414380D02*
X56298885Y-45438190D01*
X56417933Y-45438190D01*
X56465552Y-45414380D01*
X56489361Y-45366761D01*
X56489361Y-45319142D01*
X56465552Y-45271523D01*
X56417933Y-45247714D01*
X56298885Y-45247714D01*
X56251266Y-45223904D01*
X56084600Y-45104857D02*
X55894123Y-45104857D01*
X56013171Y-44938190D02*
X56013171Y-45366761D01*
X55989361Y-45414380D01*
X55941742Y-45438190D01*
X55894123Y-45438190D01*
X55536980Y-45414380D02*
X55584600Y-45438190D01*
X55679838Y-45438190D01*
X55727457Y-45414380D01*
X55751266Y-45366761D01*
X55751266Y-45176285D01*
X55727457Y-45128666D01*
X55679838Y-45104857D01*
X55584600Y-45104857D01*
X55536980Y-45128666D01*
X55513171Y-45176285D01*
X55513171Y-45223904D01*
X55751266Y-45271523D01*
X55084600Y-45438190D02*
X55084600Y-44938190D01*
X55084600Y-45414380D02*
X55132219Y-45438190D01*
X55227457Y-45438190D01*
X55275076Y-45414380D01*
X55298885Y-45390571D01*
X55322695Y-45342952D01*
X55322695Y-45200095D01*
X55298885Y-45152476D01*
X55275076Y-45128666D01*
X55227457Y-45104857D01*
X55132219Y-45104857D01*
X55084600Y-45128666D01*
X54465552Y-45438190D02*
X54465552Y-45104857D01*
X54465552Y-44938190D02*
X54489361Y-44962000D01*
X54465552Y-44985809D01*
X54441742Y-44962000D01*
X54465552Y-44938190D01*
X54465552Y-44985809D01*
X54227457Y-45104857D02*
X54227457Y-45438190D01*
X54227457Y-45152476D02*
X54203647Y-45128666D01*
X54156028Y-45104857D01*
X54084600Y-45104857D01*
X54036980Y-45128666D01*
X54013171Y-45176285D01*
X54013171Y-45438190D01*
X53394123Y-45438190D02*
X53394123Y-44938190D01*
X53108409Y-45438190D02*
X53322695Y-45152476D01*
X53108409Y-44938190D02*
X53394123Y-45223904D01*
X52894123Y-45438190D02*
X52894123Y-45104857D01*
X52894123Y-44938190D02*
X52917933Y-44962000D01*
X52894123Y-44985809D01*
X52870314Y-44962000D01*
X52894123Y-44938190D01*
X52894123Y-44985809D01*
X52370314Y-45390571D02*
X52394123Y-45414380D01*
X52465552Y-45438190D01*
X52513171Y-45438190D01*
X52584600Y-45414380D01*
X52632219Y-45366761D01*
X52656028Y-45319142D01*
X52679838Y-45223904D01*
X52679838Y-45152476D01*
X52656028Y-45057238D01*
X52632219Y-45009619D01*
X52584600Y-44962000D01*
X52513171Y-44938190D01*
X52465552Y-44938190D01*
X52394123Y-44962000D01*
X52370314Y-44985809D01*
X52179838Y-45295333D02*
X51941742Y-45295333D01*
X52227457Y-45438190D02*
X52060790Y-44938190D01*
X51894123Y-45438190D01*
X51727457Y-45438190D02*
X51727457Y-44938190D01*
X51608409Y-44938190D01*
X51536980Y-44962000D01*
X51489361Y-45009619D01*
X51465552Y-45057238D01*
X51441742Y-45152476D01*
X51441742Y-45223904D01*
X51465552Y-45319142D01*
X51489361Y-45366761D01*
X51536980Y-45414380D01*
X51608409Y-45438190D01*
X51727457Y-45438190D01*
D11*
X82532190Y-54833780D02*
X82532190Y-53833780D01*
X81960761Y-54833780D02*
X82389333Y-54262352D01*
X81960761Y-53833780D02*
X82532190Y-54405209D01*
X81103619Y-54833780D02*
X81103619Y-54309971D01*
X81151238Y-54214733D01*
X81246476Y-54167114D01*
X81436952Y-54167114D01*
X81532190Y-54214733D01*
X81103619Y-54786161D02*
X81198857Y-54833780D01*
X81436952Y-54833780D01*
X81532190Y-54786161D01*
X81579809Y-54690923D01*
X81579809Y-54595685D01*
X81532190Y-54500447D01*
X81436952Y-54452828D01*
X81198857Y-54452828D01*
X81103619Y-54405209D01*
X80627428Y-54167114D02*
X80627428Y-54833780D01*
X80627428Y-54262352D02*
X80579809Y-54214733D01*
X80484571Y-54167114D01*
X80341714Y-54167114D01*
X80246476Y-54214733D01*
X80198857Y-54309971D01*
X80198857Y-54833780D01*
X79770285Y-54786161D02*
X79675047Y-54833780D01*
X79484571Y-54833780D01*
X79389333Y-54786161D01*
X79341714Y-54690923D01*
X79341714Y-54643304D01*
X79389333Y-54548066D01*
X79484571Y-54500447D01*
X79627428Y-54500447D01*
X79722666Y-54452828D01*
X79770285Y-54357590D01*
X79770285Y-54309971D01*
X79722666Y-54214733D01*
X79627428Y-54167114D01*
X79484571Y-54167114D01*
X79389333Y-54214733D01*
X78484571Y-54833780D02*
X78484571Y-54309971D01*
X78532190Y-54214733D01*
X78627428Y-54167114D01*
X78817904Y-54167114D01*
X78913142Y-54214733D01*
X78484571Y-54786161D02*
X78579809Y-54833780D01*
X78817904Y-54833780D01*
X78913142Y-54786161D01*
X78960761Y-54690923D01*
X78960761Y-54595685D01*
X78913142Y-54500447D01*
X78817904Y-54452828D01*
X78579809Y-54452828D01*
X78484571Y-54405209D01*
X78056000Y-54786161D02*
X77960761Y-54833780D01*
X77770285Y-54833780D01*
X77675047Y-54786161D01*
X77627428Y-54690923D01*
X77627428Y-54643304D01*
X77675047Y-54548066D01*
X77770285Y-54500447D01*
X77913142Y-54500447D01*
X78008380Y-54452828D01*
X78056000Y-54357590D01*
X78056000Y-54309971D01*
X78008380Y-54214733D01*
X77913142Y-54167114D01*
X77770285Y-54167114D01*
X77675047Y-54214733D01*
X76484571Y-54786161D02*
X76341714Y-54833780D01*
X76103619Y-54833780D01*
X76008380Y-54786161D01*
X75960761Y-54738542D01*
X75913142Y-54643304D01*
X75913142Y-54548066D01*
X75960761Y-54452828D01*
X76008380Y-54405209D01*
X76103619Y-54357590D01*
X76294095Y-54309971D01*
X76389333Y-54262352D01*
X76436952Y-54214733D01*
X76484571Y-54119495D01*
X76484571Y-54024257D01*
X76436952Y-53929019D01*
X76389333Y-53881400D01*
X76294095Y-53833780D01*
X76056000Y-53833780D01*
X75913142Y-53881400D01*
X75627428Y-54167114D02*
X75246476Y-54167114D01*
X75484571Y-53833780D02*
X75484571Y-54690923D01*
X75436952Y-54786161D01*
X75341714Y-54833780D01*
X75246476Y-54833780D01*
X74484571Y-54833780D02*
X74484571Y-54309971D01*
X74532190Y-54214733D01*
X74627428Y-54167114D01*
X74817904Y-54167114D01*
X74913142Y-54214733D01*
X74484571Y-54786161D02*
X74579809Y-54833780D01*
X74817904Y-54833780D01*
X74913142Y-54786161D01*
X74960761Y-54690923D01*
X74960761Y-54595685D01*
X74913142Y-54500447D01*
X74817904Y-54452828D01*
X74579809Y-54452828D01*
X74484571Y-54405209D01*
X74151238Y-54167114D02*
X73770285Y-54167114D01*
X74008380Y-53833780D02*
X74008380Y-54690923D01*
X73960761Y-54786161D01*
X73865523Y-54833780D01*
X73770285Y-54833780D01*
X73056000Y-54786161D02*
X73151238Y-54833780D01*
X73341714Y-54833780D01*
X73436952Y-54786161D01*
X73484571Y-54690923D01*
X73484571Y-54309971D01*
X73436952Y-54214733D01*
X73341714Y-54167114D01*
X73151238Y-54167114D01*
X73056000Y-54214733D01*
X73008380Y-54309971D01*
X73008380Y-54405209D01*
X73484571Y-54500447D01*
X71246476Y-54833780D02*
X71579809Y-54357590D01*
X71817904Y-54833780D02*
X71817904Y-53833780D01*
X71436952Y-53833780D01*
X71341714Y-53881400D01*
X71294095Y-53929019D01*
X71246476Y-54024257D01*
X71246476Y-54167114D01*
X71294095Y-54262352D01*
X71341714Y-54309971D01*
X71436952Y-54357590D01*
X71817904Y-54357590D01*
X70675047Y-54833780D02*
X70770285Y-54786161D01*
X70817904Y-54738542D01*
X70865523Y-54643304D01*
X70865523Y-54357590D01*
X70817904Y-54262352D01*
X70770285Y-54214733D01*
X70675047Y-54167114D01*
X70532190Y-54167114D01*
X70436952Y-54214733D01*
X70389333Y-54262352D01*
X70341714Y-54357590D01*
X70341714Y-54643304D01*
X70389333Y-54738542D01*
X70436952Y-54786161D01*
X70532190Y-54833780D01*
X70675047Y-54833780D01*
X69913142Y-54833780D02*
X69913142Y-53833780D01*
X69913142Y-54214733D02*
X69817904Y-54167114D01*
X69627428Y-54167114D01*
X69532190Y-54214733D01*
X69484571Y-54262352D01*
X69436952Y-54357590D01*
X69436952Y-54643304D01*
X69484571Y-54738542D01*
X69532190Y-54786161D01*
X69627428Y-54833780D01*
X69817904Y-54833780D01*
X69913142Y-54786161D01*
X68865523Y-54833780D02*
X68960761Y-54786161D01*
X69008380Y-54738542D01*
X69056000Y-54643304D01*
X69056000Y-54357590D01*
X69008380Y-54262352D01*
X68960761Y-54214733D01*
X68865523Y-54167114D01*
X68722666Y-54167114D01*
X68627428Y-54214733D01*
X68579809Y-54262352D01*
X68532190Y-54357590D01*
X68532190Y-54643304D01*
X68579809Y-54738542D01*
X68627428Y-54786161D01*
X68722666Y-54833780D01*
X68865523Y-54833780D01*
X68246476Y-54167114D02*
X67865523Y-54167114D01*
X68103619Y-53833780D02*
X68103619Y-54690923D01*
X68056000Y-54786161D01*
X67960761Y-54833780D01*
X67865523Y-54833780D01*
X67532190Y-54833780D02*
X67532190Y-54167114D01*
X67532190Y-53833780D02*
X67579809Y-53881400D01*
X67532190Y-53929019D01*
X67484571Y-53881400D01*
X67532190Y-53833780D01*
X67532190Y-53929019D01*
X66627428Y-54786161D02*
X66722666Y-54833780D01*
X66913142Y-54833780D01*
X67008380Y-54786161D01*
X67056000Y-54738542D01*
X67103619Y-54643304D01*
X67103619Y-54357590D01*
X67056000Y-54262352D01*
X67008380Y-54214733D01*
X66913142Y-54167114D01*
X66722666Y-54167114D01*
X66627428Y-54214733D01*
X66246476Y-54786161D02*
X66151238Y-54833780D01*
X65960761Y-54833780D01*
X65865523Y-54786161D01*
X65817904Y-54690923D01*
X65817904Y-54643304D01*
X65865523Y-54548066D01*
X65960761Y-54500447D01*
X66103619Y-54500447D01*
X66198857Y-54452828D01*
X66246476Y-54357590D01*
X66246476Y-54309971D01*
X66198857Y-54214733D01*
X66103619Y-54167114D01*
X65960761Y-54167114D01*
X65865523Y-54214733D01*
X64056000Y-54738542D02*
X64103619Y-54786161D01*
X64246476Y-54833780D01*
X64341714Y-54833780D01*
X64484571Y-54786161D01*
X64579809Y-54690923D01*
X64627428Y-54595685D01*
X64675047Y-54405209D01*
X64675047Y-54262352D01*
X64627428Y-54071876D01*
X64579809Y-53976638D01*
X64484571Y-53881400D01*
X64341714Y-53833780D01*
X64246476Y-53833780D01*
X64103619Y-53881400D01*
X64056000Y-53929019D01*
X63484571Y-54833780D02*
X63579809Y-54786161D01*
X63627428Y-54738542D01*
X63675047Y-54643304D01*
X63675047Y-54357590D01*
X63627428Y-54262352D01*
X63579809Y-54214733D01*
X63484571Y-54167114D01*
X63341714Y-54167114D01*
X63246476Y-54214733D01*
X63198857Y-54262352D01*
X63151238Y-54357590D01*
X63151238Y-54643304D01*
X63198857Y-54738542D01*
X63246476Y-54786161D01*
X63341714Y-54833780D01*
X63484571Y-54833780D01*
X62722666Y-54833780D02*
X62722666Y-54167114D01*
X62722666Y-54262352D02*
X62675047Y-54214733D01*
X62579809Y-54167114D01*
X62436952Y-54167114D01*
X62341714Y-54214733D01*
X62294095Y-54309971D01*
X62294095Y-54833780D01*
X62294095Y-54309971D02*
X62246476Y-54214733D01*
X62151238Y-54167114D01*
X62008380Y-54167114D01*
X61913142Y-54214733D01*
X61865523Y-54309971D01*
X61865523Y-54833780D01*
X61389333Y-54167114D02*
X61389333Y-55167114D01*
X61389333Y-54214733D02*
X61294095Y-54167114D01*
X61103619Y-54167114D01*
X61008380Y-54214733D01*
X60960761Y-54262352D01*
X60913142Y-54357590D01*
X60913142Y-54643304D01*
X60960761Y-54738542D01*
X61008380Y-54786161D01*
X61103619Y-54833780D01*
X61294095Y-54833780D01*
X61389333Y-54786161D01*
X60103619Y-54786161D02*
X60198857Y-54833780D01*
X60389333Y-54833780D01*
X60484571Y-54786161D01*
X60532190Y-54690923D01*
X60532190Y-54309971D01*
X60484571Y-54214733D01*
X60389333Y-54167114D01*
X60198857Y-54167114D01*
X60103619Y-54214733D01*
X60056000Y-54309971D01*
X60056000Y-54405209D01*
X60532190Y-54500447D01*
X59770285Y-54167114D02*
X59389333Y-54167114D01*
X59627428Y-53833780D02*
X59627428Y-54690923D01*
X59579809Y-54786161D01*
X59484571Y-54833780D01*
X59389333Y-54833780D01*
X59056000Y-54833780D02*
X59056000Y-54167114D01*
X59056000Y-53833780D02*
X59103619Y-53881400D01*
X59056000Y-53929019D01*
X59008380Y-53881400D01*
X59056000Y-53833780D01*
X59056000Y-53929019D01*
X58722666Y-54167114D02*
X58341714Y-54167114D01*
X58579809Y-53833780D02*
X58579809Y-54690923D01*
X58532190Y-54786161D01*
X58436952Y-54833780D01*
X58341714Y-54833780D01*
X58008380Y-54833780D02*
X58008380Y-54167114D01*
X58008380Y-53833780D02*
X58056000Y-53881400D01*
X58008380Y-53929019D01*
X57960761Y-53881400D01*
X58008380Y-53833780D01*
X58008380Y-53929019D01*
X57389333Y-54833780D02*
X57484571Y-54786161D01*
X57532190Y-54738542D01*
X57579809Y-54643304D01*
X57579809Y-54357590D01*
X57532190Y-54262352D01*
X57484571Y-54214733D01*
X57389333Y-54167114D01*
X57246476Y-54167114D01*
X57151238Y-54214733D01*
X57103619Y-54262352D01*
X57056000Y-54357590D01*
X57056000Y-54643304D01*
X57103619Y-54738542D01*
X57151238Y-54786161D01*
X57246476Y-54833780D01*
X57389333Y-54833780D01*
X56627428Y-54167114D02*
X56627428Y-54833780D01*
X56627428Y-54262352D02*
X56579809Y-54214733D01*
X56484571Y-54167114D01*
X56341714Y-54167114D01*
X56246476Y-54214733D01*
X56198857Y-54309971D01*
X56198857Y-54833780D01*
X55103619Y-53833780D02*
X54532190Y-53833780D01*
X54817904Y-54833780D02*
X54817904Y-53833780D01*
X53817904Y-54786161D02*
X53913142Y-54833780D01*
X54103619Y-54833780D01*
X54198857Y-54786161D01*
X54246476Y-54690923D01*
X54246476Y-54309971D01*
X54198857Y-54214733D01*
X54103619Y-54167114D01*
X53913142Y-54167114D01*
X53817904Y-54214733D01*
X53770285Y-54309971D01*
X53770285Y-54405209D01*
X54246476Y-54500447D01*
X52913142Y-54833780D02*
X52913142Y-54309971D01*
X52960761Y-54214733D01*
X53056000Y-54167114D01*
X53246476Y-54167114D01*
X53341714Y-54214733D01*
X52913142Y-54786161D02*
X53008380Y-54833780D01*
X53246476Y-54833780D01*
X53341714Y-54786161D01*
X53389333Y-54690923D01*
X53389333Y-54595685D01*
X53341714Y-54500447D01*
X53246476Y-54452828D01*
X53008380Y-54452828D01*
X52913142Y-54405209D01*
X52436952Y-54833780D02*
X52436952Y-54167114D01*
X52436952Y-54262352D02*
X52389333Y-54214733D01*
X52294095Y-54167114D01*
X52151238Y-54167114D01*
X52056000Y-54214733D01*
X52008380Y-54309971D01*
X52008380Y-54833780D01*
X52008380Y-54309971D02*
X51960761Y-54214733D01*
X51865523Y-54167114D01*
X51722666Y-54167114D01*
X51627428Y-54214733D01*
X51579809Y-54309971D01*
X51579809Y-54833780D01*
X76787685Y-52596171D02*
X76787685Y-51096171D01*
X75930542Y-52596171D02*
X76573400Y-51739028D01*
X75930542Y-51096171D02*
X76787685Y-51953314D01*
X75359114Y-52524742D02*
X75144828Y-52596171D01*
X74787685Y-52596171D01*
X74644828Y-52524742D01*
X74573400Y-52453314D01*
X74501971Y-52310457D01*
X74501971Y-52167600D01*
X74573400Y-52024742D01*
X74644828Y-51953314D01*
X74787685Y-51881885D01*
X75073400Y-51810457D01*
X75216257Y-51739028D01*
X75287685Y-51667600D01*
X75359114Y-51524742D01*
X75359114Y-51381885D01*
X75287685Y-51239028D01*
X75216257Y-51167600D01*
X75073400Y-51096171D01*
X74716257Y-51096171D01*
X74501971Y-51167600D01*
X73859114Y-51096171D02*
X73859114Y-52310457D01*
X73787685Y-52453314D01*
X73716257Y-52524742D01*
X73573400Y-52596171D01*
X73287685Y-52596171D01*
X73144828Y-52524742D01*
X73073400Y-52453314D01*
X73001971Y-52310457D01*
X73001971Y-51096171D01*
X71144828Y-52596171D02*
X71144828Y-51096171D01*
X70644828Y-52167600D01*
X70144828Y-51096171D01*
X70144828Y-52596171D01*
X68859114Y-52524742D02*
X69001971Y-52596171D01*
X69287685Y-52596171D01*
X69430542Y-52524742D01*
X69501971Y-52381885D01*
X69501971Y-51810457D01*
X69430542Y-51667600D01*
X69287685Y-51596171D01*
X69001971Y-51596171D01*
X68859114Y-51667600D01*
X68787685Y-51810457D01*
X68787685Y-51953314D01*
X69501971Y-52096171D01*
X68144828Y-52596171D02*
X68144828Y-51596171D01*
X68144828Y-51881885D02*
X68073400Y-51739028D01*
X68001971Y-51667600D01*
X67859114Y-51596171D01*
X67716257Y-51596171D01*
X66573400Y-52524742D02*
X66716257Y-52596171D01*
X67001971Y-52596171D01*
X67144828Y-52524742D01*
X67216257Y-52453314D01*
X67287685Y-52310457D01*
X67287685Y-51881885D01*
X67216257Y-51739028D01*
X67144828Y-51667600D01*
X67001971Y-51596171D01*
X66716257Y-51596171D01*
X66573400Y-51667600D01*
X65287685Y-51596171D02*
X65287685Y-52596171D01*
X65930542Y-51596171D02*
X65930542Y-52381885D01*
X65859114Y-52524742D01*
X65716257Y-52596171D01*
X65501971Y-52596171D01*
X65359114Y-52524742D01*
X65287685Y-52453314D01*
X64573400Y-52596171D02*
X64573400Y-51596171D01*
X64573400Y-51881885D02*
X64501971Y-51739028D01*
X64430542Y-51667600D01*
X64287685Y-51596171D01*
X64144828Y-51596171D01*
X63787685Y-51596171D02*
X63430542Y-52596171D01*
X63073400Y-51596171D02*
X63430542Y-52596171D01*
X63573400Y-52953314D01*
X63644828Y-53024742D01*
X63787685Y-53096171D01*
X61430542Y-51239028D02*
X61359114Y-51167600D01*
X61216257Y-51096171D01*
X60859114Y-51096171D01*
X60716257Y-51167600D01*
X60644828Y-51239028D01*
X60573400Y-51381885D01*
X60573400Y-51524742D01*
X60644828Y-51739028D01*
X61501971Y-52596171D01*
X60573400Y-52596171D01*
X59644828Y-51096171D02*
X59501971Y-51096171D01*
X59359114Y-51167600D01*
X59287685Y-51239028D01*
X59216257Y-51381885D01*
X59144828Y-51667600D01*
X59144828Y-52024742D01*
X59216257Y-52310457D01*
X59287685Y-52453314D01*
X59359114Y-52524742D01*
X59501971Y-52596171D01*
X59644828Y-52596171D01*
X59787685Y-52524742D01*
X59859114Y-52453314D01*
X59930542Y-52310457D01*
X60001971Y-52024742D01*
X60001971Y-51667600D01*
X59930542Y-51381885D01*
X59859114Y-51239028D01*
X59787685Y-51167600D01*
X59644828Y-51096171D01*
X58573400Y-51239028D02*
X58501971Y-51167600D01*
X58359114Y-51096171D01*
X58001971Y-51096171D01*
X57859114Y-51167600D01*
X57787685Y-51239028D01*
X57716257Y-51381885D01*
X57716257Y-51524742D01*
X57787685Y-51739028D01*
X58644828Y-52596171D01*
X57716257Y-52596171D01*
X56287685Y-52596171D02*
X57144828Y-52596171D01*
X56716257Y-52596171D02*
X56716257Y-51096171D01*
X56859114Y-51310457D01*
X57001971Y-51453314D01*
X57144828Y-51524742D01*
X107358571Y-59657142D02*
X105858571Y-59657142D01*
X107358571Y-60299999D02*
X106572857Y-60299999D01*
X106430000Y-60228571D01*
X106358571Y-60085714D01*
X106358571Y-59871428D01*
X106430000Y-59728571D01*
X106501428Y-59657142D01*
X106358571Y-60799999D02*
X106358571Y-61371428D01*
X105858571Y-61014285D02*
X107144285Y-61014285D01*
X107287142Y-61085714D01*
X107358571Y-61228571D01*
X107358571Y-61371428D01*
X106358571Y-61657142D02*
X106358571Y-62228571D01*
X105858571Y-61871428D02*
X107144285Y-61871428D01*
X107287142Y-61942857D01*
X107358571Y-62085714D01*
X107358571Y-62228571D01*
X106358571Y-62728571D02*
X107858571Y-62728571D01*
X106430000Y-62728571D02*
X106358571Y-62871428D01*
X106358571Y-63157142D01*
X106430000Y-63299999D01*
X106501428Y-63371428D01*
X106644285Y-63442857D01*
X107072857Y-63442857D01*
X107215714Y-63371428D01*
X107287142Y-63299999D01*
X107358571Y-63157142D01*
X107358571Y-62871428D01*
X107287142Y-62728571D01*
X107287142Y-64014285D02*
X107358571Y-64157142D01*
X107358571Y-64442857D01*
X107287142Y-64585714D01*
X107144285Y-64657142D01*
X107072857Y-64657142D01*
X106930000Y-64585714D01*
X106858571Y-64442857D01*
X106858571Y-64228571D01*
X106787142Y-64085714D01*
X106644285Y-64014285D01*
X106572857Y-64014285D01*
X106430000Y-64085714D01*
X106358571Y-64228571D01*
X106358571Y-64442857D01*
X106430000Y-64585714D01*
X107215714Y-65300000D02*
X107287142Y-65371428D01*
X107358571Y-65300000D01*
X107287142Y-65228571D01*
X107215714Y-65300000D01*
X107358571Y-65300000D01*
X106430000Y-65300000D02*
X106501428Y-65371428D01*
X106572857Y-65300000D01*
X106501428Y-65228571D01*
X106430000Y-65300000D01*
X106572857Y-65300000D01*
X105787142Y-67085714D02*
X107715714Y-65800000D01*
X105787142Y-68657142D02*
X107715714Y-67371428D01*
X106358571Y-69800000D02*
X107572857Y-69800000D01*
X107715714Y-69728571D01*
X107787142Y-69657142D01*
X107858571Y-69514285D01*
X107858571Y-69300000D01*
X107787142Y-69157142D01*
X107287142Y-69800000D02*
X107358571Y-69657142D01*
X107358571Y-69371428D01*
X107287142Y-69228571D01*
X107215714Y-69157142D01*
X107072857Y-69085714D01*
X106644285Y-69085714D01*
X106501428Y-69157142D01*
X106430000Y-69228571D01*
X106358571Y-69371428D01*
X106358571Y-69657142D01*
X106430000Y-69800000D01*
X107358571Y-70514285D02*
X106358571Y-70514285D01*
X105858571Y-70514285D02*
X105930000Y-70442857D01*
X106001428Y-70514285D01*
X105930000Y-70585714D01*
X105858571Y-70514285D01*
X106001428Y-70514285D01*
X106358571Y-71014285D02*
X106358571Y-71585714D01*
X105858571Y-71228571D02*
X107144285Y-71228571D01*
X107287142Y-71300000D01*
X107358571Y-71442857D01*
X107358571Y-71585714D01*
X107358571Y-72085714D02*
X105858571Y-72085714D01*
X107358571Y-72728571D02*
X106572857Y-72728571D01*
X106430000Y-72657142D01*
X106358571Y-72514285D01*
X106358571Y-72300000D01*
X106430000Y-72157142D01*
X106501428Y-72085714D01*
X106358571Y-74085714D02*
X107358571Y-74085714D01*
X106358571Y-73442857D02*
X107144285Y-73442857D01*
X107287142Y-73514285D01*
X107358571Y-73657142D01*
X107358571Y-73871428D01*
X107287142Y-74014285D01*
X107215714Y-74085714D01*
X107358571Y-74800000D02*
X105858571Y-74800000D01*
X106430000Y-74800000D02*
X106358571Y-74942857D01*
X106358571Y-75228571D01*
X106430000Y-75371428D01*
X106501428Y-75442857D01*
X106644285Y-75514285D01*
X107072857Y-75514285D01*
X107215714Y-75442857D01*
X107287142Y-75371428D01*
X107358571Y-75228571D01*
X107358571Y-74942857D01*
X107287142Y-74800000D01*
X107215714Y-76157142D02*
X107287142Y-76228571D01*
X107358571Y-76157142D01*
X107287142Y-76085714D01*
X107215714Y-76157142D01*
X107358571Y-76157142D01*
X107287142Y-77514285D02*
X107358571Y-77371428D01*
X107358571Y-77085714D01*
X107287142Y-76942857D01*
X107215714Y-76871428D01*
X107072857Y-76800000D01*
X106644285Y-76800000D01*
X106501428Y-76871428D01*
X106430000Y-76942857D01*
X106358571Y-77085714D01*
X106358571Y-77371428D01*
X106430000Y-77514285D01*
X107358571Y-78371428D02*
X107287142Y-78228571D01*
X107215714Y-78157142D01*
X107072857Y-78085714D01*
X106644285Y-78085714D01*
X106501428Y-78157142D01*
X106430000Y-78228571D01*
X106358571Y-78371428D01*
X106358571Y-78585714D01*
X106430000Y-78728571D01*
X106501428Y-78800000D01*
X106644285Y-78871428D01*
X107072857Y-78871428D01*
X107215714Y-78800000D01*
X107287142Y-78728571D01*
X107358571Y-78585714D01*
X107358571Y-78371428D01*
X107358571Y-79514285D02*
X106358571Y-79514285D01*
X106501428Y-79514285D02*
X106430000Y-79585714D01*
X106358571Y-79728571D01*
X106358571Y-79942857D01*
X106430000Y-80085714D01*
X106572857Y-80157142D01*
X107358571Y-80157142D01*
X106572857Y-80157142D02*
X106430000Y-80228571D01*
X106358571Y-80371428D01*
X106358571Y-80585714D01*
X106430000Y-80728571D01*
X106572857Y-80800000D01*
X107358571Y-80800000D01*
X105787142Y-82585714D02*
X107715714Y-81300000D01*
X107358571Y-83085714D02*
X105858571Y-83085714D01*
X106787142Y-83228571D02*
X107358571Y-83657142D01*
X106358571Y-83657142D02*
X106930000Y-83085714D01*
X107287142Y-84228571D02*
X107358571Y-84371428D01*
X107358571Y-84657142D01*
X107287142Y-84800000D01*
X107144285Y-84871428D01*
X107072857Y-84871428D01*
X106930000Y-84800000D01*
X106858571Y-84657142D01*
X106858571Y-84442857D01*
X106787142Y-84300000D01*
X106644285Y-84228571D01*
X106572857Y-84228571D01*
X106430000Y-84300000D01*
X106358571Y-84442857D01*
X106358571Y-84657142D01*
X106430000Y-84800000D01*
X106358571Y-86157142D02*
X107358571Y-86157142D01*
X106358571Y-85514285D02*
X107144285Y-85514285D01*
X107287142Y-85585714D01*
X107358571Y-85728571D01*
X107358571Y-85942857D01*
X107287142Y-86085714D01*
X107215714Y-86157142D01*
X107358571Y-86871428D02*
X106358571Y-86871428D01*
X106644285Y-86871428D02*
X106501428Y-86942857D01*
X106430000Y-87014285D01*
X106358571Y-87157142D01*
X106358571Y-87300000D01*
X107287142Y-88442857D02*
X107358571Y-88300000D01*
X107358571Y-88014285D01*
X107287142Y-87871428D01*
X107215714Y-87800000D01*
X107072857Y-87728571D01*
X106644285Y-87728571D01*
X106501428Y-87800000D01*
X106430000Y-87871428D01*
X106358571Y-88014285D01*
X106358571Y-88300000D01*
X106430000Y-88442857D01*
X106358571Y-88871428D02*
X106358571Y-89442857D01*
X105858571Y-89085714D02*
X107144285Y-89085714D01*
X107287142Y-89157142D01*
X107358571Y-89300000D01*
X107358571Y-89442857D01*
X105787142Y-91014285D02*
X107715714Y-89728571D01*
X107358571Y-91514285D02*
X106358571Y-91514285D01*
X106501428Y-91514285D02*
X106430000Y-91585714D01*
X106358571Y-91728571D01*
X106358571Y-91942857D01*
X106430000Y-92085714D01*
X106572857Y-92157142D01*
X107358571Y-92157142D01*
X106572857Y-92157142D02*
X106430000Y-92228571D01*
X106358571Y-92371428D01*
X106358571Y-92585714D01*
X106430000Y-92728571D01*
X106572857Y-92800000D01*
X107358571Y-92800000D01*
X107287142Y-94085714D02*
X107358571Y-93942857D01*
X107358571Y-93657142D01*
X107287142Y-93514285D01*
X107144285Y-93442857D01*
X106572857Y-93442857D01*
X106430000Y-93514285D01*
X106358571Y-93657142D01*
X106358571Y-93942857D01*
X106430000Y-94085714D01*
X106572857Y-94157142D01*
X106715714Y-94157142D01*
X106858571Y-93442857D01*
X107358571Y-94800000D02*
X106358571Y-94800000D01*
X106644285Y-94800000D02*
X106501428Y-94871428D01*
X106430000Y-94942857D01*
X106358571Y-95085714D01*
X106358571Y-95228571D01*
X107287142Y-96371428D02*
X107358571Y-96228571D01*
X107358571Y-95942857D01*
X107287142Y-95800000D01*
X107215714Y-95728571D01*
X107072857Y-95657142D01*
X106644285Y-95657142D01*
X106501428Y-95728571D01*
X106430000Y-95800000D01*
X106358571Y-95942857D01*
X106358571Y-96228571D01*
X106430000Y-96371428D01*
X106358571Y-97657142D02*
X107358571Y-97657142D01*
X106358571Y-97014285D02*
X107144285Y-97014285D01*
X107287142Y-97085714D01*
X107358571Y-97228571D01*
X107358571Y-97442857D01*
X107287142Y-97585714D01*
X107215714Y-97657142D01*
X107358571Y-98371428D02*
X106358571Y-98371428D01*
X106644285Y-98371428D02*
X106501428Y-98442857D01*
X106430000Y-98514285D01*
X106358571Y-98657142D01*
X106358571Y-98800000D01*
X106358571Y-99157142D02*
X107358571Y-99514285D01*
X106358571Y-99871428D02*
X107358571Y-99514285D01*
X107715714Y-99371428D01*
X107787142Y-99300000D01*
X107858571Y-99157142D01*
X106001428Y-100371428D02*
X105930000Y-100442857D01*
X105858571Y-100585714D01*
X105858571Y-100942857D01*
X105930000Y-101085714D01*
X106001428Y-101157142D01*
X106144285Y-101228571D01*
X106287142Y-101228571D01*
X106501428Y-101157142D01*
X107358571Y-100300000D01*
X107358571Y-101228571D01*
X105858571Y-102157142D02*
X105858571Y-102300000D01*
X105930000Y-102442857D01*
X106001428Y-102514285D01*
X106144285Y-102585714D01*
X106430000Y-102657142D01*
X106787142Y-102657142D01*
X107072857Y-102585714D01*
X107215714Y-102514285D01*
X107287142Y-102442857D01*
X107358571Y-102300000D01*
X107358571Y-102157142D01*
X107287142Y-102014285D01*
X107215714Y-101942857D01*
X107072857Y-101871428D01*
X106787142Y-101800000D01*
X106430000Y-101800000D01*
X106144285Y-101871428D01*
X106001428Y-101942857D01*
X105930000Y-102014285D01*
X105858571Y-102157142D01*
X106001428Y-103228571D02*
X105930000Y-103300000D01*
X105858571Y-103442857D01*
X105858571Y-103800000D01*
X105930000Y-103942857D01*
X106001428Y-104014285D01*
X106144285Y-104085714D01*
X106287142Y-104085714D01*
X106501428Y-104014285D01*
X107358571Y-103157142D01*
X107358571Y-104085714D01*
X107358571Y-105514285D02*
X107358571Y-104657142D01*
X107358571Y-105085714D02*
X105858571Y-105085714D01*
X106072857Y-104942857D01*
X106215714Y-104800000D01*
X106287142Y-104657142D01*
X99882142Y-67883333D02*
X99977380Y-68169047D01*
X100072619Y-68264285D01*
X100263095Y-68359523D01*
X100548809Y-68359523D01*
X100739285Y-68264285D01*
X100834523Y-68169047D01*
X100929761Y-67978571D01*
X100929761Y-67216666D01*
X98929761Y-67216666D01*
X98929761Y-67883333D01*
X99025000Y-68073809D01*
X99120238Y-68169047D01*
X99310714Y-68264285D01*
X99501190Y-68264285D01*
X99691666Y-68169047D01*
X99786904Y-68073809D01*
X99882142Y-67883333D01*
X99882142Y-67216666D01*
X100929761Y-69502380D02*
X100834523Y-69311904D01*
X100739285Y-69216666D01*
X100548809Y-69121428D01*
X99977380Y-69121428D01*
X99786904Y-69216666D01*
X99691666Y-69311904D01*
X99596428Y-69502380D01*
X99596428Y-69788095D01*
X99691666Y-69978571D01*
X99786904Y-70073809D01*
X99977380Y-70169047D01*
X100548809Y-70169047D01*
X100739285Y-70073809D01*
X100834523Y-69978571D01*
X100929761Y-69788095D01*
X100929761Y-69502380D01*
X100929761Y-71883333D02*
X99882142Y-71883333D01*
X99691666Y-71788095D01*
X99596428Y-71597619D01*
X99596428Y-71216666D01*
X99691666Y-71026190D01*
X100834523Y-71883333D02*
X100929761Y-71692857D01*
X100929761Y-71216666D01*
X100834523Y-71026190D01*
X100644047Y-70930952D01*
X100453571Y-70930952D01*
X100263095Y-71026190D01*
X100167857Y-71216666D01*
X100167857Y-71692857D01*
X100072619Y-71883333D01*
X100929761Y-72835714D02*
X99596428Y-72835714D01*
X99977380Y-72835714D02*
X99786904Y-72930952D01*
X99691666Y-73026190D01*
X99596428Y-73216666D01*
X99596428Y-73407142D01*
X100929761Y-74930952D02*
X98929761Y-74930952D01*
X100834523Y-74930952D02*
X100929761Y-74740476D01*
X100929761Y-74359523D01*
X100834523Y-74169047D01*
X100739285Y-74073809D01*
X100548809Y-73978571D01*
X99977380Y-73978571D01*
X99786904Y-74073809D01*
X99691666Y-74169047D01*
X99596428Y-74359523D01*
X99596428Y-74740476D01*
X99691666Y-74930952D01*
X100929761Y-77407142D02*
X98929761Y-77407142D01*
X99691666Y-77407142D02*
X99596428Y-77597619D01*
X99596428Y-77978571D01*
X99691666Y-78169047D01*
X99786904Y-78264285D01*
X99977380Y-78359523D01*
X100548809Y-78359523D01*
X100739285Y-78264285D01*
X100834523Y-78169047D01*
X100929761Y-77978571D01*
X100929761Y-77597619D01*
X100834523Y-77407142D01*
X99596428Y-79026190D02*
X100929761Y-79502380D01*
X99596428Y-79978571D02*
X100929761Y-79502380D01*
X101405952Y-79311904D01*
X101501190Y-79216666D01*
X101596428Y-79026190D01*
X100739285Y-80740476D02*
X100834523Y-80835714D01*
X100929761Y-80740476D01*
X100834523Y-80645238D01*
X100739285Y-80740476D01*
X100929761Y-80740476D01*
X99691666Y-80740476D02*
X99786904Y-80835714D01*
X99882142Y-80740476D01*
X99786904Y-80645238D01*
X99691666Y-80740476D01*
X99882142Y-80740476D01*
X100929761Y-83216666D02*
X98929761Y-83216666D01*
X100358333Y-83883333D01*
X98929761Y-84549999D01*
X100929761Y-84549999D01*
X100929761Y-86359523D02*
X99882142Y-86359523D01*
X99691666Y-86264285D01*
X99596428Y-86073809D01*
X99596428Y-85692857D01*
X99691666Y-85502380D01*
X100834523Y-86359523D02*
X100929761Y-86169047D01*
X100929761Y-85692857D01*
X100834523Y-85502380D01*
X100644047Y-85407142D01*
X100453571Y-85407142D01*
X100263095Y-85502380D01*
X100167857Y-85692857D01*
X100167857Y-86169047D01*
X100072619Y-86359523D01*
X100929761Y-87121428D02*
X99596428Y-88169047D01*
X99596428Y-87121428D02*
X100929761Y-88169047D01*
X100929761Y-90454761D02*
X98929761Y-90454761D01*
X100358333Y-91121428D01*
X98929761Y-91788095D01*
X100929761Y-91788095D01*
X99596428Y-92549999D02*
X100929761Y-93026190D01*
X99596428Y-93502380D02*
X100929761Y-93026190D01*
X101405952Y-92835714D01*
X101501190Y-92740476D01*
X101596428Y-92549999D01*
X99596428Y-94073809D02*
X99596428Y-95121428D01*
X100929761Y-94073809D01*
X100929761Y-95121428D01*
X100834523Y-96645238D02*
X100929761Y-96454761D01*
X100929761Y-96073809D01*
X100834523Y-95883333D01*
X100644047Y-95788095D01*
X99882142Y-95788095D01*
X99691666Y-95883333D01*
X99596428Y-96073809D01*
X99596428Y-96454761D01*
X99691666Y-96645238D01*
X99882142Y-96740476D01*
X100072619Y-96740476D01*
X100263095Y-95788095D01*
X100929761Y-97597619D02*
X99596428Y-97597619D01*
X99977380Y-97597619D02*
X99786904Y-97692857D01*
X99691666Y-97788095D01*
X99596428Y-97978571D01*
X99596428Y-98169047D01*
X102079761Y-59311904D02*
X104079761Y-59788095D01*
X102651190Y-60169047D01*
X104079761Y-60550000D01*
X102079761Y-61026190D01*
X104079761Y-61788095D02*
X102746428Y-61788095D01*
X102079761Y-61788095D02*
X102175000Y-61692857D01*
X102270238Y-61788095D01*
X102175000Y-61883333D01*
X102079761Y-61788095D01*
X102270238Y-61788095D01*
X102746428Y-62454761D02*
X102746428Y-63216666D01*
X102079761Y-62740476D02*
X103794047Y-62740476D01*
X103984523Y-62835714D01*
X104079761Y-63026190D01*
X104079761Y-63216666D01*
X104079761Y-63883333D02*
X102079761Y-63883333D01*
X104079761Y-64740476D02*
X103032142Y-64740476D01*
X102841666Y-64645238D01*
X102746428Y-64454761D01*
X102746428Y-64169047D01*
X102841666Y-63978571D01*
X102936904Y-63883333D01*
X103984523Y-68073809D02*
X104079761Y-67883333D01*
X104079761Y-67502380D01*
X103984523Y-67311904D01*
X103889285Y-67216666D01*
X103698809Y-67121428D01*
X103127380Y-67121428D01*
X102936904Y-67216666D01*
X102841666Y-67311904D01*
X102746428Y-67502380D01*
X102746428Y-67883333D01*
X102841666Y-68073809D01*
X104079761Y-69216666D02*
X103984523Y-69026190D01*
X103889285Y-68930952D01*
X103698809Y-68835714D01*
X103127380Y-68835714D01*
X102936904Y-68930952D01*
X102841666Y-69026190D01*
X102746428Y-69216666D01*
X102746428Y-69502380D01*
X102841666Y-69692857D01*
X102936904Y-69788095D01*
X103127380Y-69883333D01*
X103698809Y-69883333D01*
X103889285Y-69788095D01*
X103984523Y-69692857D01*
X104079761Y-69502380D01*
X104079761Y-69216666D01*
X102746428Y-70740476D02*
X104079761Y-70740476D01*
X102936904Y-70740476D02*
X102841666Y-70835714D01*
X102746428Y-71026190D01*
X102746428Y-71311904D01*
X102841666Y-71502380D01*
X103032142Y-71597619D01*
X104079761Y-71597619D01*
X102746428Y-72264285D02*
X102746428Y-73026190D01*
X102079761Y-72549999D02*
X103794047Y-72549999D01*
X103984523Y-72645238D01*
X104079761Y-72835714D01*
X104079761Y-73026190D01*
X104079761Y-73692857D02*
X102746428Y-73692857D01*
X103127380Y-73692857D02*
X102936904Y-73788095D01*
X102841666Y-73883333D01*
X102746428Y-74073809D01*
X102746428Y-74264285D01*
X104079761Y-74930952D02*
X102746428Y-74930952D01*
X102079761Y-74930952D02*
X102175000Y-74835714D01*
X102270238Y-74930952D01*
X102175000Y-75026190D01*
X102079761Y-74930952D01*
X102270238Y-74930952D01*
X104079761Y-75883333D02*
X102079761Y-75883333D01*
X102841666Y-75883333D02*
X102746428Y-76073809D01*
X102746428Y-76454761D01*
X102841666Y-76645238D01*
X102936904Y-76740476D01*
X103127380Y-76835714D01*
X103698809Y-76835714D01*
X103889285Y-76740476D01*
X103984523Y-76645238D01*
X104079761Y-76454761D01*
X104079761Y-76073809D01*
X103984523Y-75883333D01*
X102746428Y-78549999D02*
X104079761Y-78549999D01*
X102746428Y-77692857D02*
X103794047Y-77692857D01*
X103984523Y-77788095D01*
X104079761Y-77978571D01*
X104079761Y-78264285D01*
X103984523Y-78454761D01*
X103889285Y-78549999D01*
X102746428Y-79216666D02*
X102746428Y-79978571D01*
X102079761Y-79502380D02*
X103794047Y-79502380D01*
X103984523Y-79597619D01*
X104079761Y-79788095D01*
X104079761Y-79978571D01*
X104079761Y-80645238D02*
X102746428Y-80645238D01*
X102079761Y-80645238D02*
X102175000Y-80549999D01*
X102270238Y-80645238D01*
X102175000Y-80740476D01*
X102079761Y-80645238D01*
X102270238Y-80645238D01*
X104079761Y-81883333D02*
X103984523Y-81692857D01*
X103889285Y-81597619D01*
X103698809Y-81502380D01*
X103127380Y-81502380D01*
X102936904Y-81597619D01*
X102841666Y-81692857D01*
X102746428Y-81883333D01*
X102746428Y-82169047D01*
X102841666Y-82359523D01*
X102936904Y-82454761D01*
X103127380Y-82549999D01*
X103698809Y-82549999D01*
X103889285Y-82454761D01*
X103984523Y-82359523D01*
X104079761Y-82169047D01*
X104079761Y-81883333D01*
X102746428Y-83407142D02*
X104079761Y-83407142D01*
X102936904Y-83407142D02*
X102841666Y-83502380D01*
X102746428Y-83692857D01*
X102746428Y-83978571D01*
X102841666Y-84169047D01*
X103032142Y-84264285D01*
X104079761Y-84264285D01*
X103984523Y-85121428D02*
X104079761Y-85311904D01*
X104079761Y-85692857D01*
X103984523Y-85883333D01*
X103794047Y-85978571D01*
X103698809Y-85978571D01*
X103508333Y-85883333D01*
X103413095Y-85692857D01*
X103413095Y-85407142D01*
X103317857Y-85216666D01*
X103127380Y-85121428D01*
X103032142Y-85121428D01*
X102841666Y-85216666D01*
X102746428Y-85407142D01*
X102746428Y-85692857D01*
X102841666Y-85883333D01*
X102746428Y-88073809D02*
X102746428Y-88835714D01*
X104079761Y-88359523D02*
X102365476Y-88359523D01*
X102175000Y-88454761D01*
X102079761Y-88645238D01*
X102079761Y-88835714D01*
X104079761Y-89502380D02*
X102746428Y-89502380D01*
X103127380Y-89502380D02*
X102936904Y-89597619D01*
X102841666Y-89692857D01*
X102746428Y-89883333D01*
X102746428Y-90073809D01*
X104079761Y-91026190D02*
X103984523Y-90835714D01*
X103889285Y-90740476D01*
X103698809Y-90645238D01*
X103127380Y-90645238D01*
X102936904Y-90740476D01*
X102841666Y-90835714D01*
X102746428Y-91026190D01*
X102746428Y-91311904D01*
X102841666Y-91502380D01*
X102936904Y-91597619D01*
X103127380Y-91692857D01*
X103698809Y-91692857D01*
X103889285Y-91597619D01*
X103984523Y-91502380D01*
X104079761Y-91311904D01*
X104079761Y-91026190D01*
X104079761Y-92549999D02*
X102746428Y-92549999D01*
X102936904Y-92549999D02*
X102841666Y-92645238D01*
X102746428Y-92835714D01*
X102746428Y-93121428D01*
X102841666Y-93311904D01*
X103032142Y-93407142D01*
X104079761Y-93407142D01*
X103032142Y-93407142D02*
X102841666Y-93502380D01*
X102746428Y-93692857D01*
X102746428Y-93978571D01*
X102841666Y-94169047D01*
X103032142Y-94264285D01*
X104079761Y-94264285D01*
X103889285Y-95216666D02*
X103984523Y-95311904D01*
X104079761Y-95216666D01*
X103984523Y-95121428D01*
X103889285Y-95216666D01*
X104079761Y-95216666D01*
X102841666Y-95216666D02*
X102936904Y-95311904D01*
X103032142Y-95216666D01*
X102936904Y-95121428D01*
X102841666Y-95216666D01*
X103032142Y-95216666D01*
X103984523Y-98549999D02*
X104079761Y-98359523D01*
X104079761Y-97978571D01*
X103984523Y-97788095D01*
X103889285Y-97692857D01*
X103698809Y-97597619D01*
X103127380Y-97597619D01*
X102936904Y-97692857D01*
X102841666Y-97788095D01*
X102746428Y-97978571D01*
X102746428Y-98359523D01*
X102841666Y-98549999D01*
X102079761Y-99216666D02*
X102079761Y-100454761D01*
X102841666Y-99788095D01*
X102841666Y-100073809D01*
X102936904Y-100264285D01*
X103032142Y-100359523D01*
X103222619Y-100454761D01*
X103698809Y-100454761D01*
X103889285Y-100359523D01*
X103984523Y-100264285D01*
X104079761Y-100073809D01*
X104079761Y-99502380D01*
X103984523Y-99311904D01*
X103889285Y-99216666D01*
X102746428Y-101311904D02*
X104079761Y-101311904D01*
X102936904Y-101311904D02*
X102841666Y-101407142D01*
X102746428Y-101597619D01*
X102746428Y-101883333D01*
X102841666Y-102073809D01*
X103032142Y-102169047D01*
X104079761Y-102169047D01*
X102079761Y-102930952D02*
X102079761Y-104169047D01*
X102841666Y-103502380D01*
X102841666Y-103788095D01*
X102936904Y-103978571D01*
X103032142Y-104073809D01*
X103222619Y-104169047D01*
X103698809Y-104169047D01*
X103889285Y-104073809D01*
X103984523Y-103978571D01*
X104079761Y-103788095D01*
X104079761Y-103216666D01*
X103984523Y-103026190D01*
X103889285Y-102930952D01*
M02*
