%TF.GenerationSoftware,KiCad,Pcbnew,5.1.5+dfsg1-2build2*%
%TF.CreationDate,2021-04-16T14:35:20-05:00*%
%TF.ProjectId,Mercury 2021,4d657263-7572-4792-9032-3032312e6b69,rev?*%
%TF.SameCoordinates,Original*%
%TF.FileFunction,Soldermask,Top*%
%TF.FilePolarity,Negative*%
%FSLAX46Y46*%
G04 Gerber Fmt 4.6, Leading zero omitted, Abs format (unit mm)*
G04 Created by KiCad (PCBNEW 5.1.5+dfsg1-2build2) date 2021-04-16 14:35:20*
%MOMM*%
%LPD*%
G04 APERTURE LIST*
%ADD10R,1.700000X1.700000*%
%ADD11O,1.700000X1.700000*%
%ADD12C,7.500000*%
%ADD13C,4.700000*%
%ADD14O,3.960000X1.980000*%
%ADD15R,3.960000X1.980000*%
%ADD16O,1.980000X3.960000*%
%ADD17R,1.980000X3.960000*%
%ADD18O,1.700000X1.950000*%
%ADD19C,0.100000*%
%ADD20C,1.524000*%
%ADD21C,1.600000*%
%ADD22R,1.600000X1.600000*%
%ADD23C,1.780000*%
%ADD24O,1.600000X1.600000*%
G04 APERTURE END LIST*
D10*
%TO.C,U12*%
X106680000Y-77470000D03*
D11*
X104140000Y-77470000D03*
X101600000Y-77470000D03*
X99060000Y-77470000D03*
X96520000Y-77470000D03*
X93980000Y-77470000D03*
%TD*%
D12*
%TO.C,H5*%
X48244760Y-83098640D03*
D13*
X48244760Y-83098640D03*
%TD*%
D12*
%TO.C,H4*%
X44246800Y-54889400D03*
D13*
X44246800Y-54889400D03*
%TD*%
D12*
%TO.C,H3*%
X94742000Y-92354400D03*
D13*
X94742000Y-92354400D03*
%TD*%
D12*
%TO.C,H2*%
X98755200Y-61976000D03*
D13*
X98755200Y-61976000D03*
%TD*%
D12*
%TO.C,H1*%
X58623200Y-38836600D03*
D13*
X58623200Y-38836600D03*
%TD*%
D14*
%TO.C,J31*%
X27457400Y-41601400D03*
D15*
X27457400Y-36601400D03*
%TD*%
D14*
%TO.C,J4*%
X110388400Y-85728800D03*
D15*
X110388400Y-90728800D03*
%TD*%
D14*
%TO.C,J5*%
X108788200Y-24972000D03*
D15*
X108788200Y-29972000D03*
%TD*%
D16*
%TO.C,U12C1*%
X96490800Y-34163000D03*
D17*
X91490800Y-34163000D03*
%TD*%
D18*
%TO.C,U13*%
X49436000Y-103708200D03*
X51936000Y-103708200D03*
X54436000Y-103708200D03*
X56936000Y-103708200D03*
D19*
G36*
X60060504Y-102734404D02*
G01*
X60084773Y-102738004D01*
X60108571Y-102743965D01*
X60131671Y-102752230D01*
X60153849Y-102762720D01*
X60174893Y-102775333D01*
X60194598Y-102789947D01*
X60212777Y-102806423D01*
X60229253Y-102824602D01*
X60243867Y-102844307D01*
X60256480Y-102865351D01*
X60266970Y-102887529D01*
X60275235Y-102910629D01*
X60281196Y-102934427D01*
X60284796Y-102958696D01*
X60286000Y-102983200D01*
X60286000Y-104433200D01*
X60284796Y-104457704D01*
X60281196Y-104481973D01*
X60275235Y-104505771D01*
X60266970Y-104528871D01*
X60256480Y-104551049D01*
X60243867Y-104572093D01*
X60229253Y-104591798D01*
X60212777Y-104609977D01*
X60194598Y-104626453D01*
X60174893Y-104641067D01*
X60153849Y-104653680D01*
X60131671Y-104664170D01*
X60108571Y-104672435D01*
X60084773Y-104678396D01*
X60060504Y-104681996D01*
X60036000Y-104683200D01*
X58836000Y-104683200D01*
X58811496Y-104681996D01*
X58787227Y-104678396D01*
X58763429Y-104672435D01*
X58740329Y-104664170D01*
X58718151Y-104653680D01*
X58697107Y-104641067D01*
X58677402Y-104626453D01*
X58659223Y-104609977D01*
X58642747Y-104591798D01*
X58628133Y-104572093D01*
X58615520Y-104551049D01*
X58605030Y-104528871D01*
X58596765Y-104505771D01*
X58590804Y-104481973D01*
X58587204Y-104457704D01*
X58586000Y-104433200D01*
X58586000Y-102983200D01*
X58587204Y-102958696D01*
X58590804Y-102934427D01*
X58596765Y-102910629D01*
X58605030Y-102887529D01*
X58615520Y-102865351D01*
X58628133Y-102844307D01*
X58642747Y-102824602D01*
X58659223Y-102806423D01*
X58677402Y-102789947D01*
X58697107Y-102775333D01*
X58718151Y-102762720D01*
X58740329Y-102752230D01*
X58763429Y-102743965D01*
X58787227Y-102738004D01*
X58811496Y-102734404D01*
X58836000Y-102733200D01*
X60036000Y-102733200D01*
X60060504Y-102734404D01*
G37*
%TD*%
D18*
%TO.C,U11*%
X77448400Y-103428800D03*
X79948400Y-103428800D03*
X82448400Y-103428800D03*
X84948400Y-103428800D03*
D19*
G36*
X88072904Y-102455004D02*
G01*
X88097173Y-102458604D01*
X88120971Y-102464565D01*
X88144071Y-102472830D01*
X88166249Y-102483320D01*
X88187293Y-102495933D01*
X88206998Y-102510547D01*
X88225177Y-102527023D01*
X88241653Y-102545202D01*
X88256267Y-102564907D01*
X88268880Y-102585951D01*
X88279370Y-102608129D01*
X88287635Y-102631229D01*
X88293596Y-102655027D01*
X88297196Y-102679296D01*
X88298400Y-102703800D01*
X88298400Y-104153800D01*
X88297196Y-104178304D01*
X88293596Y-104202573D01*
X88287635Y-104226371D01*
X88279370Y-104249471D01*
X88268880Y-104271649D01*
X88256267Y-104292693D01*
X88241653Y-104312398D01*
X88225177Y-104330577D01*
X88206998Y-104347053D01*
X88187293Y-104361667D01*
X88166249Y-104374280D01*
X88144071Y-104384770D01*
X88120971Y-104393035D01*
X88097173Y-104398996D01*
X88072904Y-104402596D01*
X88048400Y-104403800D01*
X86848400Y-104403800D01*
X86823896Y-104402596D01*
X86799627Y-104398996D01*
X86775829Y-104393035D01*
X86752729Y-104384770D01*
X86730551Y-104374280D01*
X86709507Y-104361667D01*
X86689802Y-104347053D01*
X86671623Y-104330577D01*
X86655147Y-104312398D01*
X86640533Y-104292693D01*
X86627920Y-104271649D01*
X86617430Y-104249471D01*
X86609165Y-104226371D01*
X86603204Y-104202573D01*
X86599604Y-104178304D01*
X86598400Y-104153800D01*
X86598400Y-102703800D01*
X86599604Y-102679296D01*
X86603204Y-102655027D01*
X86609165Y-102631229D01*
X86617430Y-102608129D01*
X86627920Y-102585951D01*
X86640533Y-102564907D01*
X86655147Y-102545202D01*
X86671623Y-102527023D01*
X86689802Y-102510547D01*
X86709507Y-102495933D01*
X86730551Y-102483320D01*
X86752729Y-102472830D01*
X86775829Y-102464565D01*
X86799627Y-102458604D01*
X86823896Y-102455004D01*
X86848400Y-102453800D01*
X88048400Y-102453800D01*
X88072904Y-102455004D01*
G37*
%TD*%
D20*
%TO.C,U10*%
X53086000Y-48031400D03*
X55626000Y-48031400D03*
X58166000Y-48031400D03*
X60706000Y-48031400D03*
X63246000Y-48031400D03*
X65786000Y-48031400D03*
X68326000Y-48031400D03*
X70866000Y-48031400D03*
X73406000Y-48031400D03*
X75946000Y-48031400D03*
X78486000Y-48031400D03*
X81026000Y-48031400D03*
X81026000Y-63271400D03*
X78486000Y-63271400D03*
X75946000Y-63271400D03*
X73406000Y-63271400D03*
X70866000Y-63271400D03*
X68326000Y-63271400D03*
X65786000Y-63271400D03*
X63246000Y-63271400D03*
X60706000Y-63271400D03*
X58166000Y-63271400D03*
X55626000Y-63271400D03*
X53086000Y-63271400D03*
%TD*%
D11*
%TO.C,U9*%
X89611200Y-23444200D03*
X92151200Y-23444200D03*
X99771200Y-23444200D03*
D10*
X87071200Y-23444200D03*
D11*
X94691200Y-23444200D03*
X97231200Y-23444200D03*
%TD*%
%TO.C,U8*%
X22961600Y-57962800D03*
X22961600Y-55422800D03*
X22961600Y-47802800D03*
D10*
X22961600Y-60502800D03*
D11*
X22961600Y-52882800D03*
X22961600Y-50342800D03*
%TD*%
%TO.C,U7*%
X113944400Y-50977800D03*
X113944400Y-53517800D03*
X113944400Y-61137800D03*
D10*
X113944400Y-48437800D03*
D11*
X113944400Y-56057800D03*
X113944400Y-58597800D03*
%TD*%
%TO.C,U6*%
X38963600Y-23596600D03*
X41503600Y-23596600D03*
X49123600Y-23596600D03*
D10*
X36423600Y-23596600D03*
D11*
X44043600Y-23596600D03*
X46583600Y-23596600D03*
%TD*%
%TO.C,U5*%
X114046000Y-75463400D03*
X114046000Y-72923400D03*
X114046000Y-65303400D03*
D10*
X114046000Y-78003400D03*
D11*
X114046000Y-70383400D03*
X114046000Y-67843400D03*
%TD*%
%TO.C,U4*%
X55905400Y-23596600D03*
X58445400Y-23596600D03*
X66065400Y-23596600D03*
D10*
X53365400Y-23596600D03*
D11*
X60985400Y-23596600D03*
X63525400Y-23596600D03*
%TD*%
%TO.C,U3*%
X23241000Y-74498200D03*
X23241000Y-71958200D03*
X23241000Y-64338200D03*
D10*
X23241000Y-77038200D03*
D11*
X23241000Y-69418200D03*
X23241000Y-66878200D03*
%TD*%
%TO.C,U2*%
X72466200Y-23596600D03*
X75006200Y-23596600D03*
X82626200Y-23596600D03*
D10*
X69926200Y-23596600D03*
D11*
X77546200Y-23596600D03*
X80086200Y-23596600D03*
%TD*%
D20*
%TO.C,U1*%
X106578400Y-116205000D03*
X106578400Y-113665000D03*
X106578400Y-111125000D03*
%TD*%
D11*
%TO.C,J37*%
X39166800Y-72085200D03*
X39166800Y-74625200D03*
X39166800Y-77165200D03*
X39166800Y-79705200D03*
X39166800Y-82245200D03*
X39166800Y-84785200D03*
X39166800Y-87325200D03*
X39166800Y-89865200D03*
X39166800Y-92405200D03*
X39166800Y-94945200D03*
D10*
X39166800Y-97485200D03*
%TD*%
D11*
%TO.C,J36*%
X89585800Y-45186600D03*
X89585800Y-47726600D03*
X89585800Y-50266600D03*
X89585800Y-52806600D03*
X89585800Y-55346600D03*
X89585800Y-57886600D03*
X89585800Y-60426600D03*
X89585800Y-62966600D03*
X89585800Y-65506600D03*
X89585800Y-68046600D03*
D10*
X89585800Y-70586600D03*
%TD*%
D14*
%TO.C,J33*%
X108469700Y-36716800D03*
D15*
X108469700Y-41716800D03*
%TD*%
D14*
%TO.C,J32*%
X27051000Y-86940400D03*
D15*
X27051000Y-81940400D03*
%TD*%
D14*
%TO.C,J30*%
X26771600Y-99538800D03*
D15*
X26771600Y-94538800D03*
%TD*%
D11*
%TO.C,J21*%
X73710800Y-66624200D03*
X71170800Y-66624200D03*
X68630800Y-66624200D03*
D10*
X66090800Y-66624200D03*
%TD*%
D11*
%TO.C,J20*%
X59664600Y-71526400D03*
X62204600Y-71526400D03*
X64744600Y-71526400D03*
X67284600Y-71526400D03*
X69824600Y-71526400D03*
X72364600Y-71526400D03*
X74904600Y-71526400D03*
D10*
X77444600Y-71526400D03*
%TD*%
D11*
%TO.C,J19*%
X59893200Y-93522800D03*
X62433200Y-93522800D03*
X64973200Y-93522800D03*
X67513200Y-93522800D03*
X70053200Y-93522800D03*
X72593200Y-93522800D03*
X75133200Y-93522800D03*
X77673200Y-93522800D03*
D10*
X80213200Y-93522800D03*
%TD*%
D11*
%TO.C,J18*%
X49580800Y-93370400D03*
D10*
X52120800Y-93370400D03*
%TD*%
D11*
%TO.C,J17*%
X55880000Y-71272400D03*
X53340000Y-71272400D03*
X50800000Y-71272400D03*
X48260000Y-71272400D03*
X45720000Y-71272400D03*
D10*
X43180000Y-71272400D03*
%TD*%
D11*
%TO.C,J16*%
X85572600Y-28346400D03*
X83032600Y-28346400D03*
X80492600Y-28346400D03*
X77952600Y-28346400D03*
X75412600Y-28346400D03*
X72872600Y-28346400D03*
X70332600Y-28346400D03*
X67792600Y-28346400D03*
X65252600Y-28346400D03*
X62712600Y-28346400D03*
X60172600Y-28346400D03*
X57632600Y-28346400D03*
X55092600Y-28346400D03*
X52552600Y-28346400D03*
X50012600Y-28346400D03*
D10*
X47472600Y-28346400D03*
%TD*%
D11*
%TO.C,J15*%
X88950800Y-114706400D03*
X88950800Y-112166400D03*
X86410800Y-114706400D03*
X86410800Y-112166400D03*
X83870800Y-114706400D03*
X83870800Y-112166400D03*
X81330800Y-114706400D03*
X81330800Y-112166400D03*
X78790800Y-114706400D03*
X78790800Y-112166400D03*
X76250800Y-114706400D03*
X76250800Y-112166400D03*
X73710800Y-114706400D03*
X73710800Y-112166400D03*
X71170800Y-114706400D03*
X71170800Y-112166400D03*
X68630800Y-114706400D03*
X68630800Y-112166400D03*
X66090800Y-114706400D03*
X66090800Y-112166400D03*
X63550800Y-114706400D03*
X63550800Y-112166400D03*
X61010800Y-114706400D03*
X61010800Y-112166400D03*
X58470800Y-114706400D03*
X58470800Y-112166400D03*
X55930800Y-114706400D03*
X55930800Y-112166400D03*
X53390800Y-114706400D03*
X53390800Y-112166400D03*
X50850800Y-114706400D03*
X50850800Y-112166400D03*
X48310800Y-114706400D03*
X48310800Y-112166400D03*
X45770800Y-114706400D03*
X45770800Y-112166400D03*
X43230800Y-114706400D03*
X43230800Y-112166400D03*
X40690800Y-114706400D03*
D10*
X40690800Y-112166400D03*
%TD*%
D14*
%TO.C,J14*%
X27457400Y-29083000D03*
D15*
X27457400Y-24083000D03*
%TD*%
D14*
%TO.C,J13*%
X110490000Y-97539800D03*
D15*
X110490000Y-102539800D03*
%TD*%
D11*
%TO.C,J10*%
X85674200Y-45313600D03*
X85674200Y-47853600D03*
X85674200Y-50393600D03*
X85674200Y-52933600D03*
X85674200Y-55473600D03*
X85674200Y-58013600D03*
X85674200Y-60553600D03*
X85674200Y-63093600D03*
X85674200Y-65633600D03*
X85674200Y-68173600D03*
D10*
X85674200Y-70713600D03*
%TD*%
D11*
%TO.C,J9*%
X35433000Y-76225400D03*
X35433000Y-78765400D03*
X35433000Y-81305400D03*
X35433000Y-83845400D03*
X35433000Y-86385400D03*
X35433000Y-88925400D03*
X35433000Y-91465400D03*
X35433000Y-94005400D03*
X35433000Y-96545400D03*
X35433000Y-99085400D03*
D10*
X35433000Y-101625400D03*
%TD*%
D11*
%TO.C,J8*%
X35636200Y-46786800D03*
X35636200Y-49326800D03*
X35636200Y-51866800D03*
X35636200Y-54406800D03*
X35636200Y-56946800D03*
X35636200Y-59486800D03*
X35636200Y-62026800D03*
X35636200Y-64566800D03*
X35636200Y-67106800D03*
X35636200Y-69646800D03*
D10*
X35636200Y-72186800D03*
%TD*%
D11*
%TO.C,J7*%
X31673800Y-46583600D03*
X31673800Y-49123600D03*
X31673800Y-51663600D03*
X31673800Y-54203600D03*
X31673800Y-56743600D03*
X31673800Y-59283600D03*
X31673800Y-61823600D03*
X31673800Y-64363600D03*
X31673800Y-66903600D03*
X31673800Y-69443600D03*
D10*
X31673800Y-71983600D03*
%TD*%
D21*
%TO.C,C2*%
X43089200Y-35077400D03*
D22*
X40589200Y-35077400D03*
%TD*%
D21*
%TO.C,C1*%
X25135200Y-109524800D03*
D22*
X27635200Y-109524800D03*
%TD*%
D23*
%TO.C,A1*%
X87680800Y-89941400D03*
X87680800Y-74701400D03*
X47040800Y-74701400D03*
X47040800Y-89941400D03*
D24*
X85140800Y-74701400D03*
X85140800Y-89941400D03*
X49580800Y-74701400D03*
X82600800Y-89941400D03*
X52120800Y-74701400D03*
X80060800Y-89941400D03*
X54660800Y-74701400D03*
X77520800Y-89941400D03*
X57200800Y-74701400D03*
X74980800Y-89941400D03*
X59740800Y-74701400D03*
X72440800Y-89941400D03*
X62280800Y-74701400D03*
X69900800Y-89941400D03*
X64820800Y-74701400D03*
X67360800Y-89941400D03*
X67360800Y-74701400D03*
X64820800Y-89941400D03*
X69900800Y-74701400D03*
X62280800Y-89941400D03*
X72440800Y-74701400D03*
X59740800Y-89941400D03*
X74980800Y-74701400D03*
X57200800Y-89941400D03*
X77520800Y-74701400D03*
X54660800Y-89941400D03*
X80060800Y-74701400D03*
X52120800Y-89941400D03*
X82600800Y-74701400D03*
D22*
X49580800Y-89941400D03*
%TD*%
D17*
%TO.C,J1*%
X94716600Y-113157000D03*
D16*
X99716600Y-113157000D03*
%TD*%
D11*
%TO.C,J2*%
X88849200Y-108534200D03*
X86309200Y-108534200D03*
X83769200Y-108534200D03*
X81229200Y-108534200D03*
X78689200Y-108534200D03*
X76149200Y-108534200D03*
X73609200Y-108534200D03*
X71069200Y-108534200D03*
X68529200Y-108534200D03*
X65989200Y-108534200D03*
X63449200Y-108534200D03*
X60909200Y-108534200D03*
X58369200Y-108534200D03*
X55829200Y-108534200D03*
X53289200Y-108534200D03*
X50749200Y-108534200D03*
X48209200Y-108534200D03*
X45669200Y-108534200D03*
X43129200Y-108534200D03*
D10*
X40589200Y-108534200D03*
%TD*%
%TO.C,J3*%
X40614600Y-117830600D03*
D11*
X43154600Y-117830600D03*
X45694600Y-117830600D03*
X48234600Y-117830600D03*
X50774600Y-117830600D03*
X53314600Y-117830600D03*
X55854600Y-117830600D03*
X58394600Y-117830600D03*
X60934600Y-117830600D03*
X63474600Y-117830600D03*
X66014600Y-117830600D03*
X68554600Y-117830600D03*
X71094600Y-117830600D03*
X73634600Y-117830600D03*
X76174600Y-117830600D03*
X78714600Y-117830600D03*
X81254600Y-117830600D03*
X83794600Y-117830600D03*
X86334600Y-117830600D03*
X88874600Y-117830600D03*
%TD*%
M02*
