M48
; DRILL file {KiCad 5.1.5+dfsg1-2build2} date Fri 16 Apr 2021 02:35:57 PM CDT
; FORMAT={-:-/ absolute / metric / decimal}
; #@! TF.CreationDate,2021-04-16T14:35:57-05:00
; #@! TF.GenerationSoftware,Kicad,Pcbnew,5.1.5+dfsg1-2build2
; #@! TF.FileFunction,Plated,1,2,PTH
FMAT,2
METRIC
T1C0.400
T2C0.750
T3C0.762
T4C0.800
T5C0.950
T6C1.000
T7C1.320
T8C4.300
%
G90
G05
T1
X27.178Y-47.244
X28.194Y-46.228
X41.148Y-46.736
X41.427Y-63.271
X43.18Y-98.298
X43.688Y-46.736
X56.896Y-100.838
X66.878Y-36.525
X67.107Y-32.512
X78.08Y-33.147
X80.277Y-33.185
X100.838Y-50.292
X109.728Y-69.342
T2
X41.402Y-76.454
T3
X53.086Y-48.031
X53.086Y-63.271
X55.626Y-48.031
X55.626Y-63.271
X58.166Y-48.031
X58.166Y-63.271
X60.706Y-48.031
X60.706Y-63.271
X63.246Y-48.031
X63.246Y-63.271
X65.786Y-48.031
X65.786Y-63.271
X68.326Y-48.031
X68.326Y-63.271
X70.866Y-48.031
X70.866Y-63.271
X73.406Y-48.031
X73.406Y-63.271
X75.946Y-48.031
X75.946Y-63.271
X78.486Y-48.031
X78.486Y-63.271
X81.026Y-48.031
X81.026Y-63.271
X106.578Y-111.125
X106.578Y-113.665
X106.578Y-116.205
T4
X40.589Y-35.077
X43.089Y-35.077
X25.135Y-109.525
X27.635Y-109.525
T5
X77.448Y-103.429
X79.948Y-103.429
X82.448Y-103.429
X84.948Y-103.429
X87.448Y-103.429
X49.436Y-103.708
X51.936Y-103.708
X54.436Y-103.708
X56.936Y-103.708
X59.436Y-103.708
T6
X87.071Y-23.444
X89.611Y-23.444
X92.151Y-23.444
X94.691Y-23.444
X97.231Y-23.444
X99.771Y-23.444
X93.98Y-77.47
X96.52Y-77.47
X99.06Y-77.47
X101.6Y-77.47
X104.14Y-77.47
X106.68Y-77.47
X40.691Y-112.166
X40.691Y-114.706
X43.231Y-112.166
X43.231Y-114.706
X45.771Y-112.166
X45.771Y-114.706
X48.311Y-112.166
X48.311Y-114.706
X50.851Y-112.166
X50.851Y-114.706
X53.391Y-112.166
X53.391Y-114.706
X55.931Y-112.166
X55.931Y-114.706
X58.471Y-112.166
X58.471Y-114.706
X61.011Y-112.166
X61.011Y-114.706
X63.551Y-112.166
X63.551Y-114.706
X66.091Y-112.166
X66.091Y-114.706
X68.631Y-112.166
X68.631Y-114.706
X71.171Y-112.166
X71.171Y-114.706
X73.711Y-112.166
X73.711Y-114.706
X76.251Y-112.166
X76.251Y-114.706
X78.791Y-112.166
X78.791Y-114.706
X81.331Y-112.166
X81.331Y-114.706
X83.871Y-112.166
X83.871Y-114.706
X86.411Y-112.166
X86.411Y-114.706
X88.951Y-112.166
X88.951Y-114.706
X113.944Y-48.438
X113.944Y-50.978
X113.944Y-53.518
X113.944Y-56.058
X113.944Y-58.598
X113.944Y-61.138
X36.424Y-23.597
X38.964Y-23.597
X41.504Y-23.597
X44.044Y-23.597
X46.584Y-23.597
X49.124Y-23.597
X59.893Y-93.523
X62.433Y-93.523
X64.973Y-93.523
X67.513Y-93.523
X70.053Y-93.523
X72.593Y-93.523
X75.133Y-93.523
X77.673Y-93.523
X80.213Y-93.523
X31.674Y-46.584
X31.674Y-49.124
X31.674Y-51.664
X31.674Y-54.204
X31.674Y-56.744
X31.674Y-59.284
X31.674Y-61.824
X31.674Y-64.364
X31.674Y-66.904
X31.674Y-69.444
X31.674Y-71.984
X89.586Y-45.187
X89.586Y-47.727
X89.586Y-50.267
X89.586Y-52.807
X89.586Y-55.347
X89.586Y-57.887
X89.586Y-60.427
X89.586Y-62.967
X89.586Y-65.507
X89.586Y-68.047
X89.586Y-70.587
X43.18Y-71.272
X45.72Y-71.272
X48.26Y-71.272
X50.8Y-71.272
X53.34Y-71.272
X55.88Y-71.272
X40.615Y-117.831
X43.155Y-117.831
X45.695Y-117.831
X48.235Y-117.831
X50.775Y-117.831
X53.315Y-117.831
X55.855Y-117.831
X58.395Y-117.831
X60.935Y-117.831
X63.475Y-117.831
X66.015Y-117.831
X68.555Y-117.831
X71.095Y-117.831
X73.635Y-117.831
X76.175Y-117.831
X78.715Y-117.831
X81.255Y-117.831
X83.795Y-117.831
X86.335Y-117.831
X88.875Y-117.831
X66.091Y-66.624
X68.631Y-66.624
X71.171Y-66.624
X73.711Y-66.624
X22.962Y-47.803
X22.962Y-50.343
X22.962Y-52.883
X22.962Y-55.423
X22.962Y-57.963
X22.962Y-60.503
X23.241Y-64.338
X23.241Y-66.878
X23.241Y-69.418
X23.241Y-71.958
X23.241Y-74.498
X23.241Y-77.038
X59.665Y-71.526
X62.205Y-71.526
X64.745Y-71.526
X67.285Y-71.526
X69.825Y-71.526
X72.365Y-71.526
X74.905Y-71.526
X77.445Y-71.526
X49.581Y-93.37
X52.121Y-93.37
X49.581Y-74.701
X49.581Y-89.941
X52.121Y-74.701
X52.121Y-89.941
X54.661Y-74.701
X54.661Y-89.941
X57.201Y-74.701
X57.201Y-89.941
X59.741Y-74.701
X59.741Y-89.941
X62.281Y-74.701
X62.281Y-89.941
X64.821Y-74.701
X64.821Y-89.941
X67.361Y-74.701
X67.361Y-89.941
X69.901Y-74.701
X69.901Y-89.941
X72.441Y-74.701
X72.441Y-89.941
X74.981Y-74.701
X74.981Y-89.941
X77.521Y-74.701
X77.521Y-89.941
X80.061Y-74.701
X80.061Y-89.941
X82.601Y-74.701
X82.601Y-89.941
X85.141Y-74.701
X85.141Y-89.941
X47.473Y-28.346
X50.013Y-28.346
X52.553Y-28.346
X55.093Y-28.346
X57.633Y-28.346
X60.173Y-28.346
X62.713Y-28.346
X65.253Y-28.346
X67.793Y-28.346
X70.333Y-28.346
X72.873Y-28.346
X75.413Y-28.346
X77.953Y-28.346
X80.493Y-28.346
X83.033Y-28.346
X85.573Y-28.346
X39.167Y-72.085
X39.167Y-74.625
X39.167Y-77.165
X39.167Y-79.705
X39.167Y-82.245
X39.167Y-84.785
X39.167Y-87.325
X39.167Y-89.865
X39.167Y-92.405
X39.167Y-94.945
X39.167Y-97.485
X114.046Y-65.303
X114.046Y-67.843
X114.046Y-70.383
X114.046Y-72.923
X114.046Y-75.463
X114.046Y-78.003
X40.589Y-108.534
X43.129Y-108.534
X45.669Y-108.534
X48.209Y-108.534
X50.749Y-108.534
X53.289Y-108.534
X55.829Y-108.534
X58.369Y-108.534
X60.909Y-108.534
X63.449Y-108.534
X65.989Y-108.534
X68.529Y-108.534
X71.069Y-108.534
X73.609Y-108.534
X76.149Y-108.534
X78.689Y-108.534
X81.229Y-108.534
X83.769Y-108.534
X86.309Y-108.534
X88.849Y-108.534
X69.926Y-23.597
X72.466Y-23.597
X75.006Y-23.597
X77.546Y-23.597
X80.086Y-23.597
X82.626Y-23.597
X35.636Y-46.787
X35.636Y-49.327
X35.636Y-51.867
X35.636Y-54.407
X35.636Y-56.947
X35.636Y-59.487
X35.636Y-62.027
X35.636Y-64.567
X35.636Y-67.107
X35.636Y-69.647
X35.636Y-72.187
X85.674Y-45.314
X85.674Y-47.854
X85.674Y-50.394
X85.674Y-52.934
X85.674Y-55.474
X85.674Y-58.014
X85.674Y-60.554
X85.674Y-63.094
X85.674Y-65.634
X85.674Y-68.174
X85.674Y-70.714
X53.365Y-23.597
X55.905Y-23.597
X58.445Y-23.597
X60.985Y-23.597
X63.525Y-23.597
X66.065Y-23.597
X35.433Y-76.225
X35.433Y-78.765
X35.433Y-81.305
X35.433Y-83.845
X35.433Y-86.385
X35.433Y-88.925
X35.433Y-91.465
X35.433Y-94.005
X35.433Y-96.545
X35.433Y-99.085
X35.433Y-101.625
T7
X91.491Y-34.163
X96.491Y-34.163
X108.47Y-36.717
X108.47Y-41.717
X27.051Y-81.94
X27.051Y-86.94
X108.788Y-24.972
X108.788Y-29.972
X27.457Y-24.083
X27.457Y-29.083
X27.457Y-36.601
X27.457Y-41.601
X110.49Y-97.54
X110.49Y-102.54
X110.388Y-85.729
X110.388Y-90.729
X94.717Y-113.157
X99.717Y-113.157
X26.772Y-94.539
X26.772Y-99.539
T8
X58.623Y-38.837
X94.742Y-92.354
X98.755Y-61.976
X44.247Y-54.889
X48.245Y-83.099
T0
M30
