%TF.GenerationSoftware,KiCad,Pcbnew,(5.1.6)-1*%
%TF.CreationDate,2020-11-05T12:41:25-06:00*%
%TF.ProjectId,power_board,706f7765-725f-4626-9f61-72642e6b6963,rev?*%
%TF.SameCoordinates,Original*%
%TF.FileFunction,Legend,Top*%
%TF.FilePolarity,Positive*%
%FSLAX46Y46*%
G04 Gerber Fmt 4.6, Leading zero omitted, Abs format (unit mm)*
G04 Created by KiCad (PCBNEW (5.1.6)-1) date 2020-11-05 12:41:25*
%MOMM*%
%LPD*%
G01*
G04 APERTURE LIST*
%ADD10C,0.250000*%
%ADD11C,0.125000*%
%ADD12C,0.120000*%
%ADD13C,0.100000*%
%ADD14C,0.150000*%
G04 APERTURE END LIST*
D10*
X236013809Y-90638380D02*
X236632857Y-90638380D01*
X236299523Y-91019333D01*
X236442380Y-91019333D01*
X236537619Y-91066952D01*
X236585238Y-91114571D01*
X236632857Y-91209809D01*
X236632857Y-91447904D01*
X236585238Y-91543142D01*
X236537619Y-91590761D01*
X236442380Y-91638380D01*
X236156666Y-91638380D01*
X236061428Y-91590761D01*
X236013809Y-91543142D01*
X237061428Y-91543142D02*
X237109047Y-91590761D01*
X237061428Y-91638380D01*
X237013809Y-91590761D01*
X237061428Y-91543142D01*
X237061428Y-91638380D01*
X237442380Y-90638380D02*
X238061428Y-90638380D01*
X237728095Y-91019333D01*
X237870952Y-91019333D01*
X237966190Y-91066952D01*
X238013809Y-91114571D01*
X238061428Y-91209809D01*
X238061428Y-91447904D01*
X238013809Y-91543142D01*
X237966190Y-91590761D01*
X237870952Y-91638380D01*
X237585238Y-91638380D01*
X237490000Y-91590761D01*
X237442380Y-91543142D01*
X238347142Y-90638380D02*
X238680476Y-91638380D01*
X239013809Y-90638380D01*
D11*
X242602571Y-91057000D02*
X242888285Y-91057000D01*
X242545428Y-91271285D02*
X242745428Y-90521285D01*
X242945428Y-91271285D01*
X243402571Y-90521285D02*
X243288285Y-90521285D01*
X243231142Y-90557000D01*
X243202571Y-90592714D01*
X243145428Y-90699857D01*
X243116857Y-90842714D01*
X243116857Y-91128428D01*
X243145428Y-91199857D01*
X243174000Y-91235571D01*
X243231142Y-91271285D01*
X243345428Y-91271285D01*
X243402571Y-91235571D01*
X243431142Y-91199857D01*
X243459714Y-91128428D01*
X243459714Y-90949857D01*
X243431142Y-90878428D01*
X243402571Y-90842714D01*
X243345428Y-90807000D01*
X243231142Y-90807000D01*
X243174000Y-90842714D01*
X243145428Y-90878428D01*
X243116857Y-90949857D01*
X245059714Y-91057000D02*
X245345428Y-91057000D01*
X245002571Y-91271285D02*
X245202571Y-90521285D01*
X245402571Y-91271285D01*
X245545428Y-90521285D02*
X245945428Y-90521285D01*
X245688285Y-91271285D01*
X247516857Y-91057000D02*
X247802571Y-91057000D01*
X247459714Y-91271285D02*
X247659714Y-90521285D01*
X247859714Y-91271285D01*
X248174000Y-90521285D02*
X248231142Y-90521285D01*
X248288285Y-90557000D01*
X248316857Y-90592714D01*
X248345428Y-90664142D01*
X248374000Y-90807000D01*
X248374000Y-90985571D01*
X248345428Y-91128428D01*
X248316857Y-91199857D01*
X248288285Y-91235571D01*
X248231142Y-91271285D01*
X248174000Y-91271285D01*
X248116857Y-91235571D01*
X248088285Y-91199857D01*
X248059714Y-91128428D01*
X248031142Y-90985571D01*
X248031142Y-90807000D01*
X248059714Y-90664142D01*
X248088285Y-90592714D01*
X248116857Y-90557000D01*
X248174000Y-90521285D01*
X249974000Y-91057000D02*
X250259714Y-91057000D01*
X249916857Y-91271285D02*
X250116857Y-90521285D01*
X250316857Y-91271285D01*
X250831142Y-91271285D02*
X250488285Y-91271285D01*
X250659714Y-91271285D02*
X250659714Y-90521285D01*
X250602571Y-90628428D01*
X250545428Y-90699857D01*
X250488285Y-90735571D01*
X252431142Y-91057000D02*
X252716857Y-91057000D01*
X252374000Y-91271285D02*
X252574000Y-90521285D01*
X252774000Y-91271285D01*
X252945428Y-90592714D02*
X252974000Y-90557000D01*
X253031142Y-90521285D01*
X253174000Y-90521285D01*
X253231142Y-90557000D01*
X253259714Y-90592714D01*
X253288285Y-90664142D01*
X253288285Y-90735571D01*
X253259714Y-90842714D01*
X252916857Y-91271285D01*
X253288285Y-91271285D01*
X254888285Y-91057000D02*
X255173999Y-91057000D01*
X254831142Y-91271285D02*
X255031142Y-90521285D01*
X255231142Y-91271285D01*
X255373999Y-90521285D02*
X255745428Y-90521285D01*
X255545428Y-90807000D01*
X255631142Y-90807000D01*
X255688285Y-90842714D01*
X255716857Y-90878428D01*
X255745428Y-90949857D01*
X255745428Y-91128428D01*
X255716857Y-91199857D01*
X255688285Y-91235571D01*
X255631142Y-91271285D01*
X255459714Y-91271285D01*
X255402571Y-91235571D01*
X255373999Y-91199857D01*
X223748857Y-91525285D02*
X223748857Y-90775285D01*
X223891714Y-90775285D01*
X223977428Y-90811000D01*
X224034571Y-90882428D01*
X224063142Y-90953857D01*
X224091714Y-91096714D01*
X224091714Y-91203857D01*
X224063142Y-91346714D01*
X224034571Y-91418142D01*
X223977428Y-91489571D01*
X223891714Y-91525285D01*
X223748857Y-91525285D01*
X224663142Y-91525285D02*
X224320285Y-91525285D01*
X224491714Y-91525285D02*
X224491714Y-90775285D01*
X224434571Y-90882428D01*
X224377428Y-90953857D01*
X224320285Y-90989571D01*
X224863142Y-90775285D02*
X225234571Y-90775285D01*
X225034571Y-91061000D01*
X225120285Y-91061000D01*
X225177428Y-91096714D01*
X225206000Y-91132428D01*
X225234571Y-91203857D01*
X225234571Y-91382428D01*
X225206000Y-91453857D01*
X225177428Y-91489571D01*
X225120285Y-91525285D01*
X224948857Y-91525285D01*
X224891714Y-91489571D01*
X224863142Y-91453857D01*
X226406000Y-91525285D02*
X226406000Y-90775285D01*
X226548857Y-90775285D01*
X226634571Y-90811000D01*
X226691714Y-90882428D01*
X226720285Y-90953857D01*
X226748857Y-91096714D01*
X226748857Y-91203857D01*
X226720285Y-91346714D01*
X226691714Y-91418142D01*
X226634571Y-91489571D01*
X226548857Y-91525285D01*
X226406000Y-91525285D01*
X227320285Y-91525285D02*
X226977428Y-91525285D01*
X227148857Y-91525285D02*
X227148857Y-90775285D01*
X227091714Y-90882428D01*
X227034571Y-90953857D01*
X226977428Y-90989571D01*
X227548857Y-90846714D02*
X227577428Y-90811000D01*
X227634571Y-90775285D01*
X227777428Y-90775285D01*
X227834571Y-90811000D01*
X227863142Y-90846714D01*
X227891714Y-90918142D01*
X227891714Y-90989571D01*
X227863142Y-91096714D01*
X227520285Y-91525285D01*
X227891714Y-91525285D01*
X225237428Y-60029285D02*
X225237428Y-59279285D01*
X225380285Y-59279285D01*
X225466000Y-59315000D01*
X225523142Y-59386428D01*
X225551714Y-59457857D01*
X225580285Y-59600714D01*
X225580285Y-59707857D01*
X225551714Y-59850714D01*
X225523142Y-59922142D01*
X225466000Y-59993571D01*
X225380285Y-60029285D01*
X225237428Y-60029285D01*
X226151714Y-60029285D02*
X225808857Y-60029285D01*
X225980285Y-60029285D02*
X225980285Y-59279285D01*
X225923142Y-59386428D01*
X225866000Y-59457857D01*
X225808857Y-59493571D01*
X226523142Y-59279285D02*
X226580285Y-59279285D01*
X226637428Y-59315000D01*
X226666000Y-59350714D01*
X226694571Y-59422142D01*
X226723142Y-59565000D01*
X226723142Y-59743571D01*
X226694571Y-59886428D01*
X226666000Y-59957857D01*
X226637428Y-59993571D01*
X226580285Y-60029285D01*
X226523142Y-60029285D01*
X226466000Y-59993571D01*
X226437428Y-59957857D01*
X226408857Y-59886428D01*
X226380285Y-59743571D01*
X226380285Y-59565000D01*
X226408857Y-59422142D01*
X226437428Y-59350714D01*
X226466000Y-59315000D01*
X226523142Y-59279285D01*
X227894571Y-60029285D02*
X227894571Y-59279285D01*
X228037428Y-59279285D01*
X228123142Y-59315000D01*
X228180285Y-59386428D01*
X228208857Y-59457857D01*
X228237428Y-59600714D01*
X228237428Y-59707857D01*
X228208857Y-59850714D01*
X228180285Y-59922142D01*
X228123142Y-59993571D01*
X228037428Y-60029285D01*
X227894571Y-60029285D01*
X228808857Y-60029285D02*
X228466000Y-60029285D01*
X228637428Y-60029285D02*
X228637428Y-59279285D01*
X228580285Y-59386428D01*
X228523142Y-59457857D01*
X228466000Y-59493571D01*
X229380285Y-60029285D02*
X229037428Y-60029285D01*
X229208857Y-60029285D02*
X229208857Y-59279285D01*
X229151714Y-59386428D01*
X229094571Y-59457857D01*
X229037428Y-59493571D01*
X231008857Y-60029285D02*
X231008857Y-59279285D01*
X231151714Y-59279285D01*
X231237428Y-59315000D01*
X231294571Y-59386428D01*
X231323142Y-59457857D01*
X231351714Y-59600714D01*
X231351714Y-59707857D01*
X231323142Y-59850714D01*
X231294571Y-59922142D01*
X231237428Y-59993571D01*
X231151714Y-60029285D01*
X231008857Y-60029285D01*
X231637428Y-60029285D02*
X231751714Y-60029285D01*
X231808857Y-59993571D01*
X231837428Y-59957857D01*
X231894571Y-59850714D01*
X231923142Y-59707857D01*
X231923142Y-59422142D01*
X231894571Y-59350714D01*
X231866000Y-59315000D01*
X231808857Y-59279285D01*
X231694571Y-59279285D01*
X231637428Y-59315000D01*
X231608857Y-59350714D01*
X231580285Y-59422142D01*
X231580285Y-59600714D01*
X231608857Y-59672142D01*
X231637428Y-59707857D01*
X231694571Y-59743571D01*
X231808857Y-59743571D01*
X231866000Y-59707857D01*
X231894571Y-59672142D01*
X231923142Y-59600714D01*
X233094571Y-60029285D02*
X233094571Y-59279285D01*
X233237428Y-59279285D01*
X233323142Y-59315000D01*
X233380285Y-59386428D01*
X233408857Y-59457857D01*
X233437428Y-59600714D01*
X233437428Y-59707857D01*
X233408857Y-59850714D01*
X233380285Y-59922142D01*
X233323142Y-59993571D01*
X233237428Y-60029285D01*
X233094571Y-60029285D01*
X233780285Y-59600714D02*
X233723142Y-59565000D01*
X233694571Y-59529285D01*
X233666000Y-59457857D01*
X233666000Y-59422142D01*
X233694571Y-59350714D01*
X233723142Y-59315000D01*
X233780285Y-59279285D01*
X233894571Y-59279285D01*
X233951714Y-59315000D01*
X233980285Y-59350714D01*
X234008857Y-59422142D01*
X234008857Y-59457857D01*
X233980285Y-59529285D01*
X233951714Y-59565000D01*
X233894571Y-59600714D01*
X233780285Y-59600714D01*
X233723142Y-59636428D01*
X233694571Y-59672142D01*
X233666000Y-59743571D01*
X233666000Y-59886428D01*
X233694571Y-59957857D01*
X233723142Y-59993571D01*
X233780285Y-60029285D01*
X233894571Y-60029285D01*
X233951714Y-59993571D01*
X233980285Y-59957857D01*
X234008857Y-59886428D01*
X234008857Y-59743571D01*
X233980285Y-59672142D01*
X233951714Y-59636428D01*
X233894571Y-59600714D01*
X235637428Y-60029285D02*
X235637428Y-59279285D01*
X235780285Y-59279285D01*
X235866000Y-59315000D01*
X235923142Y-59386428D01*
X235951714Y-59457857D01*
X235980285Y-59600714D01*
X235980285Y-59707857D01*
X235951714Y-59850714D01*
X235923142Y-59922142D01*
X235866000Y-59993571D01*
X235780285Y-60029285D01*
X235637428Y-60029285D01*
X236180285Y-59279285D02*
X236580285Y-59279285D01*
X236323142Y-60029285D01*
X238180285Y-60029285D02*
X238180285Y-59279285D01*
X238323142Y-59279285D01*
X238408857Y-59315000D01*
X238466000Y-59386428D01*
X238494571Y-59457857D01*
X238523142Y-59600714D01*
X238523142Y-59707857D01*
X238494571Y-59850714D01*
X238466000Y-59922142D01*
X238408857Y-59993571D01*
X238323142Y-60029285D01*
X238180285Y-60029285D01*
X239037428Y-59279285D02*
X238923142Y-59279285D01*
X238866000Y-59315000D01*
X238837428Y-59350714D01*
X238780285Y-59457857D01*
X238751714Y-59600714D01*
X238751714Y-59886428D01*
X238780285Y-59957857D01*
X238808857Y-59993571D01*
X238866000Y-60029285D01*
X238980285Y-60029285D01*
X239037428Y-59993571D01*
X239066000Y-59957857D01*
X239094571Y-59886428D01*
X239094571Y-59707857D01*
X239066000Y-59636428D01*
X239037428Y-59600714D01*
X238980285Y-59565000D01*
X238866000Y-59565000D01*
X238808857Y-59600714D01*
X238780285Y-59636428D01*
X238751714Y-59707857D01*
X240723142Y-60029285D02*
X240723142Y-59279285D01*
X240866000Y-59279285D01*
X240951714Y-59315000D01*
X241008857Y-59386428D01*
X241037428Y-59457857D01*
X241066000Y-59600714D01*
X241066000Y-59707857D01*
X241037428Y-59850714D01*
X241008857Y-59922142D01*
X240951714Y-59993571D01*
X240866000Y-60029285D01*
X240723142Y-60029285D01*
X241608857Y-59279285D02*
X241323142Y-59279285D01*
X241294571Y-59636428D01*
X241323142Y-59600714D01*
X241380285Y-59565000D01*
X241523142Y-59565000D01*
X241580285Y-59600714D01*
X241608857Y-59636428D01*
X241637428Y-59707857D01*
X241637428Y-59886428D01*
X241608857Y-59957857D01*
X241580285Y-59993571D01*
X241523142Y-60029285D01*
X241380285Y-60029285D01*
X241323142Y-59993571D01*
X241294571Y-59957857D01*
X243266000Y-60029285D02*
X243266000Y-59279285D01*
X243408857Y-59279285D01*
X243494571Y-59315000D01*
X243551714Y-59386428D01*
X243580285Y-59457857D01*
X243608857Y-59600714D01*
X243608857Y-59707857D01*
X243580285Y-59850714D01*
X243551714Y-59922142D01*
X243494571Y-59993571D01*
X243408857Y-60029285D01*
X243266000Y-60029285D01*
X244123142Y-59529285D02*
X244123142Y-60029285D01*
X243980285Y-59243571D02*
X243837428Y-59779285D01*
X244208857Y-59779285D01*
X245808857Y-60029285D02*
X245808857Y-59279285D01*
X245951714Y-59279285D01*
X246037428Y-59315000D01*
X246094571Y-59386428D01*
X246123142Y-59457857D01*
X246151714Y-59600714D01*
X246151714Y-59707857D01*
X246123142Y-59850714D01*
X246094571Y-59922142D01*
X246037428Y-59993571D01*
X245951714Y-60029285D01*
X245808857Y-60029285D01*
X246351714Y-59279285D02*
X246723142Y-59279285D01*
X246523142Y-59565000D01*
X246608857Y-59565000D01*
X246666000Y-59600714D01*
X246694571Y-59636428D01*
X246723142Y-59707857D01*
X246723142Y-59886428D01*
X246694571Y-59957857D01*
X246666000Y-59993571D01*
X246608857Y-60029285D01*
X246437428Y-60029285D01*
X246380285Y-59993571D01*
X246351714Y-59957857D01*
D10*
X250753809Y-59142380D02*
X251325238Y-59142380D01*
X251039523Y-60142380D02*
X251039523Y-59142380D01*
X251563333Y-60142380D02*
X252087142Y-59475714D01*
X251563333Y-59475714D02*
X252087142Y-60142380D01*
X253801428Y-60142380D02*
X253468095Y-59666190D01*
X253230000Y-60142380D02*
X253230000Y-59142380D01*
X253610952Y-59142380D01*
X253706190Y-59190000D01*
X253753809Y-59237619D01*
X253801428Y-59332857D01*
X253801428Y-59475714D01*
X253753809Y-59570952D01*
X253706190Y-59618571D01*
X253610952Y-59666190D01*
X253230000Y-59666190D01*
X254134761Y-60142380D02*
X254658571Y-59475714D01*
X254134761Y-59475714D02*
X254658571Y-60142380D01*
X248181904Y-60142380D02*
X248181904Y-59142380D01*
X248420000Y-59142380D01*
X248562857Y-59190000D01*
X248658095Y-59285238D01*
X248705714Y-59380476D01*
X248753333Y-59570952D01*
X248753333Y-59713809D01*
X248705714Y-59904285D01*
X248658095Y-59999523D01*
X248562857Y-60094761D01*
X248420000Y-60142380D01*
X248181904Y-60142380D01*
X249134285Y-59237619D02*
X249181904Y-59190000D01*
X249277142Y-59142380D01*
X249515238Y-59142380D01*
X249610476Y-59190000D01*
X249658095Y-59237619D01*
X249705714Y-59332857D01*
X249705714Y-59428095D01*
X249658095Y-59570952D01*
X249086666Y-60142380D01*
X249705714Y-60142380D01*
D12*
X217170000Y-80010000D02*
X217170000Y-72390000D01*
X227330000Y-80010000D02*
X217170000Y-80010000D01*
X227330000Y-72390000D02*
X227330000Y-80010000D01*
X217170000Y-72390000D02*
X227330000Y-72390000D01*
%TO.C,J24*%
X274320000Y-72390000D02*
X274320000Y-62230000D01*
X266700000Y-72390000D02*
X274320000Y-72390000D01*
X266700000Y-62230000D02*
X266700000Y-72390000D01*
X274320000Y-62230000D02*
X266700000Y-62230000D01*
X273050000Y-62230000D02*
X273050000Y-72390000D01*
%TO.C,J23*%
X180340000Y-50800000D02*
X180340000Y-60960000D01*
X187960000Y-50800000D02*
X180340000Y-50800000D01*
X187960000Y-60960000D02*
X187960000Y-50800000D01*
X180340000Y-60960000D02*
X187960000Y-60960000D01*
X181610000Y-60960000D02*
X181610000Y-50800000D01*
%TO.C,J22*%
X274320000Y-60960000D02*
X274320000Y-50800000D01*
X266700000Y-60960000D02*
X274320000Y-60960000D01*
X266700000Y-50800000D02*
X266700000Y-60960000D01*
X274320000Y-50800000D02*
X266700000Y-50800000D01*
X273050000Y-50800000D02*
X273050000Y-60960000D01*
%TO.C,J21*%
X180340000Y-62230000D02*
X180340000Y-72390000D01*
X187960000Y-62230000D02*
X180340000Y-62230000D01*
X187960000Y-72390000D02*
X187960000Y-62230000D01*
X180340000Y-72390000D02*
X187960000Y-72390000D01*
X181610000Y-72390000D02*
X181610000Y-62230000D01*
%TO.C,J20*%
X180340000Y-39370000D02*
X180340000Y-49530000D01*
X187960000Y-39370000D02*
X180340000Y-39370000D01*
X187960000Y-49530000D02*
X187960000Y-39370000D01*
X180340000Y-49530000D02*
X187960000Y-49530000D01*
X181610000Y-49530000D02*
X181610000Y-39370000D01*
%TO.C,J19*%
X274320000Y-49530000D02*
X274320000Y-39370000D01*
X266700000Y-49530000D02*
X274320000Y-49530000D01*
X266700000Y-39370000D02*
X266700000Y-49530000D01*
X274320000Y-39370000D02*
X266700000Y-39370000D01*
X273050000Y-39370000D02*
X273050000Y-49530000D01*
%TO.C,J11*%
X274320000Y-135890000D02*
X274320000Y-125730000D01*
X266700000Y-135890000D02*
X274320000Y-135890000D01*
X266700000Y-125730000D02*
X266700000Y-135890000D01*
X274320000Y-125730000D02*
X266700000Y-125730000D01*
X273050000Y-125730000D02*
X273050000Y-135890000D01*
%TO.C,J10*%
X274320000Y-113030000D02*
X274320000Y-102870000D01*
X266700000Y-113030000D02*
X274320000Y-113030000D01*
X266700000Y-102870000D02*
X266700000Y-113030000D01*
X274320000Y-102870000D02*
X266700000Y-102870000D01*
X273050000Y-102870000D02*
X273050000Y-113030000D01*
%TO.C,J9*%
X180340000Y-102315001D02*
X180340000Y-112475001D01*
X187960000Y-102315001D02*
X180340000Y-102315001D01*
X187960000Y-112475001D02*
X187960000Y-102315001D01*
X180340000Y-112475001D02*
X187960000Y-112475001D01*
X181610000Y-112475001D02*
X181610000Y-102315001D01*
%TO.C,J8*%
X180340000Y-114300000D02*
X180340000Y-124460000D01*
X187960000Y-114300000D02*
X180340000Y-114300000D01*
X187960000Y-124460000D02*
X187960000Y-114300000D01*
X180340000Y-124460000D02*
X187960000Y-124460000D01*
X181610000Y-124460000D02*
X181610000Y-114300000D01*
%TO.C,J7*%
X180340000Y-125730000D02*
X180340000Y-135890000D01*
X187960000Y-125730000D02*
X180340000Y-125730000D01*
X187960000Y-135890000D02*
X187960000Y-125730000D01*
X180340000Y-135890000D02*
X187960000Y-135890000D01*
X181610000Y-135890000D02*
X181610000Y-125730000D01*
%TO.C,J6*%
X274320000Y-124460000D02*
X274320000Y-114300000D01*
X266700000Y-124460000D02*
X274320000Y-124460000D01*
X266700000Y-114300000D02*
X266700000Y-124460000D01*
X274320000Y-114300000D02*
X266700000Y-114300000D01*
X273050000Y-114300000D02*
X273050000Y-124460000D01*
%TO.C,J2*%
X232410000Y-40640000D02*
X222250000Y-40640000D01*
X232410000Y-48260000D02*
X232410000Y-40640000D01*
X222250000Y-48260000D02*
X232410000Y-48260000D01*
X222250000Y-40640000D02*
X222250000Y-48260000D01*
X222250000Y-41910000D02*
X232410000Y-41910000D01*
%TO.C,R3*%
X202280000Y-107330000D02*
X204120000Y-107330000D01*
X204120000Y-107330000D02*
X204120000Y-103490000D01*
X204120000Y-103490000D02*
X202280000Y-103490000D01*
X202280000Y-103490000D02*
X202280000Y-107330000D01*
X203200000Y-108280000D02*
X203200000Y-107330000D01*
X203200000Y-102540000D02*
X203200000Y-103490000D01*
%TO.C,R2*%
X195930000Y-107330000D02*
X197770000Y-107330000D01*
X197770000Y-107330000D02*
X197770000Y-103490000D01*
X197770000Y-103490000D02*
X195930000Y-103490000D01*
X195930000Y-103490000D02*
X195930000Y-107330000D01*
X196850000Y-108280000D02*
X196850000Y-107330000D01*
X196850000Y-102540000D02*
X196850000Y-103490000D01*
%TO.C,R1*%
X250810000Y-48610000D02*
X250810000Y-50450000D01*
X250810000Y-50450000D02*
X254650000Y-50450000D01*
X254650000Y-50450000D02*
X254650000Y-48610000D01*
X254650000Y-48610000D02*
X250810000Y-48610000D01*
X249860000Y-49530000D02*
X250810000Y-49530000D01*
X255600000Y-49530000D02*
X254650000Y-49530000D01*
%TO.C,A1*%
X263020000Y-85220000D02*
X263020000Y-67180000D01*
X219580000Y-85220000D02*
X263020000Y-85220000D01*
X219580000Y-67180000D02*
X219580000Y-85220000D01*
X222250000Y-69850000D02*
X222250000Y-67180000D01*
X257810000Y-69850000D02*
X222250000Y-69850000D01*
X257810000Y-69850000D02*
X257810000Y-67180000D01*
X222250000Y-82550000D02*
X222250000Y-85220000D01*
X260350000Y-82550000D02*
X222250000Y-82550000D01*
X260350000Y-82550000D02*
X260350000Y-85220000D01*
X263020000Y-67180000D02*
X260350000Y-67180000D01*
X257810000Y-67180000D02*
X219580000Y-67180000D01*
X260350000Y-69850000D02*
X260350000Y-67180000D01*
X257810000Y-69850000D02*
X260350000Y-69850000D01*
%TO.C,C1*%
X211280001Y-96294999D02*
X211595001Y-96294999D01*
X208855001Y-96294999D02*
X209170001Y-96294999D01*
X211280001Y-101234999D02*
X211595001Y-101234999D01*
X208855001Y-101234999D02*
X209170001Y-101234999D01*
X211595001Y-101234999D02*
X211595001Y-96294999D01*
X208855001Y-101234999D02*
X208855001Y-96294999D01*
%TO.C,C2*%
X208855001Y-109384999D02*
X208855001Y-104444999D01*
X211595001Y-109384999D02*
X211595001Y-104444999D01*
X208855001Y-109384999D02*
X209170001Y-109384999D01*
X211280001Y-109384999D02*
X211595001Y-109384999D01*
X208855001Y-104444999D02*
X209170001Y-104444999D01*
X211280001Y-104444999D02*
X211595001Y-104444999D01*
D13*
%TO.C,D1*%
X243910000Y-51130000D02*
X243910000Y-47920000D01*
X243911718Y-51137211D02*
G75*
G02*
X243910000Y-47920000I-2611718J1607211D01*
G01*
D12*
%TO.C,J1*%
X261680000Y-95190000D02*
X259020000Y-95190000D01*
X261680000Y-102870000D02*
X261680000Y-95190000D01*
X259020000Y-102870000D02*
X259020000Y-95190000D01*
X261680000Y-102870000D02*
X259020000Y-102870000D01*
X261680000Y-104140000D02*
X261680000Y-105470000D01*
X261680000Y-105470000D02*
X260350000Y-105470000D01*
%TO.C,J3*%
X224730000Y-63560000D02*
X224730000Y-62230000D01*
X226060000Y-63560000D02*
X224730000Y-63560000D01*
X227330000Y-63560000D02*
X227330000Y-60900000D01*
X227330000Y-60900000D02*
X255330000Y-60900000D01*
X227330000Y-63560000D02*
X255330000Y-63560000D01*
X255330000Y-63560000D02*
X255330000Y-60900000D01*
%TO.C,J4*%
X223460000Y-90230000D02*
X223460000Y-88900000D01*
X224790000Y-90230000D02*
X223460000Y-90230000D01*
X226060000Y-90230000D02*
X226060000Y-87570000D01*
X226060000Y-87570000D02*
X256600000Y-87570000D01*
X226060000Y-90230000D02*
X256600000Y-90230000D01*
X256600000Y-90230000D02*
X256600000Y-87570000D01*
%TO.C,J5*%
X191710000Y-43240000D02*
X191710000Y-41910000D01*
X193040000Y-43240000D02*
X191710000Y-43240000D01*
X194310000Y-43240000D02*
X194310000Y-40580000D01*
X194310000Y-40580000D02*
X219770000Y-40580000D01*
X194310000Y-43240000D02*
X219770000Y-43240000D01*
X219770000Y-43240000D02*
X219770000Y-40580000D01*
%TO.C,J18*%
X234890000Y-43240000D02*
X234890000Y-41910000D01*
X236220000Y-43240000D02*
X234890000Y-43240000D01*
X237490000Y-43240000D02*
X237490000Y-40580000D01*
X237490000Y-40580000D02*
X262950000Y-40580000D01*
X237490000Y-43240000D02*
X262950000Y-43240000D01*
X262950000Y-43240000D02*
X262950000Y-40580000D01*
%TO.C,J31*%
X219770000Y-123250000D02*
X219770000Y-120590000D01*
X194310000Y-123250000D02*
X219770000Y-123250000D01*
X194310000Y-120590000D02*
X219770000Y-120590000D01*
X194310000Y-123250000D02*
X194310000Y-120590000D01*
X193040000Y-123250000D02*
X191710000Y-123250000D01*
X191710000Y-123250000D02*
X191710000Y-121920000D01*
%TO.C,U1*%
D14*
X240252380Y-106171904D02*
X241061904Y-106171904D01*
X241157142Y-106124285D01*
X241204761Y-106076666D01*
X241252380Y-105981428D01*
X241252380Y-105790952D01*
X241204761Y-105695714D01*
X241157142Y-105648095D01*
X241061904Y-105600476D01*
X240252380Y-105600476D01*
X241252380Y-104600476D02*
X241252380Y-105171904D01*
X241252380Y-104886190D02*
X240252380Y-104886190D01*
X240395238Y-104981428D01*
X240490476Y-105076666D01*
X240538095Y-105171904D01*
X253452380Y-95075238D02*
X254452380Y-94741904D01*
X253452380Y-94408571D01*
X254452380Y-94075238D02*
X253452380Y-94075238D01*
X254452380Y-93599047D02*
X253452380Y-93599047D01*
X254452380Y-93027619D01*
X253452380Y-93027619D01*
X250960000Y-94741904D02*
X250912380Y-94837142D01*
X250912380Y-94980000D01*
X250960000Y-95122857D01*
X251055238Y-95218095D01*
X251150476Y-95265714D01*
X251340952Y-95313333D01*
X251483809Y-95313333D01*
X251674285Y-95265714D01*
X251769523Y-95218095D01*
X251864761Y-95122857D01*
X251912380Y-94980000D01*
X251912380Y-94884761D01*
X251864761Y-94741904D01*
X251817142Y-94694285D01*
X251483809Y-94694285D01*
X251483809Y-94884761D01*
X251912380Y-94265714D02*
X250912380Y-94265714D01*
X251912380Y-93694285D01*
X250912380Y-93694285D01*
X251912380Y-93218095D02*
X250912380Y-93218095D01*
X250912380Y-92980000D01*
X250960000Y-92837142D01*
X251055238Y-92741904D01*
X251150476Y-92694285D01*
X251340952Y-92646666D01*
X251483809Y-92646666D01*
X251674285Y-92694285D01*
X251769523Y-92741904D01*
X251864761Y-92837142D01*
X251912380Y-92980000D01*
X251912380Y-93218095D01*
X249324761Y-95194285D02*
X249372380Y-95051428D01*
X249372380Y-94813333D01*
X249324761Y-94718095D01*
X249277142Y-94670476D01*
X249181904Y-94622857D01*
X249086666Y-94622857D01*
X248991428Y-94670476D01*
X248943809Y-94718095D01*
X248896190Y-94813333D01*
X248848571Y-95003809D01*
X248800952Y-95099047D01*
X248753333Y-95146666D01*
X248658095Y-95194285D01*
X248562857Y-95194285D01*
X248467619Y-95146666D01*
X248420000Y-95099047D01*
X248372380Y-95003809D01*
X248372380Y-94765714D01*
X248420000Y-94622857D01*
X249372380Y-94194285D02*
X248372380Y-94194285D01*
X248372380Y-93956190D01*
X248420000Y-93813333D01*
X248515238Y-93718095D01*
X248610476Y-93670476D01*
X248800952Y-93622857D01*
X248943809Y-93622857D01*
X249134285Y-93670476D01*
X249229523Y-93718095D01*
X249324761Y-93813333D01*
X249372380Y-93956190D01*
X249372380Y-94194285D01*
X249086666Y-93241904D02*
X249086666Y-92765714D01*
X249372380Y-93337142D02*
X248372380Y-93003809D01*
X249372380Y-92670476D01*
X246784761Y-95170476D02*
X246832380Y-95027619D01*
X246832380Y-94789523D01*
X246784761Y-94694285D01*
X246737142Y-94646666D01*
X246641904Y-94599047D01*
X246546666Y-94599047D01*
X246451428Y-94646666D01*
X246403809Y-94694285D01*
X246356190Y-94789523D01*
X246308571Y-94980000D01*
X246260952Y-95075238D01*
X246213333Y-95122857D01*
X246118095Y-95170476D01*
X246022857Y-95170476D01*
X245927619Y-95122857D01*
X245880000Y-95075238D01*
X245832380Y-94980000D01*
X245832380Y-94741904D01*
X245880000Y-94599047D01*
X246737142Y-93599047D02*
X246784761Y-93646666D01*
X246832380Y-93789523D01*
X246832380Y-93884761D01*
X246784761Y-94027619D01*
X246689523Y-94122857D01*
X246594285Y-94170476D01*
X246403809Y-94218095D01*
X246260952Y-94218095D01*
X246070476Y-94170476D01*
X245975238Y-94122857D01*
X245880000Y-94027619D01*
X245832380Y-93884761D01*
X245832380Y-93789523D01*
X245880000Y-93646666D01*
X245927619Y-93599047D01*
X246832380Y-92694285D02*
X246832380Y-93170476D01*
X245832380Y-93170476D01*
X244292380Y-94527619D02*
X243816190Y-94860952D01*
X244292380Y-95099047D02*
X243292380Y-95099047D01*
X243292380Y-94718095D01*
X243340000Y-94622857D01*
X243387619Y-94575238D01*
X243482857Y-94527619D01*
X243625714Y-94527619D01*
X243720952Y-94575238D01*
X243768571Y-94622857D01*
X243816190Y-94718095D01*
X243816190Y-95099047D01*
X244244761Y-94146666D02*
X244292380Y-94003809D01*
X244292380Y-93765714D01*
X244244761Y-93670476D01*
X244197142Y-93622857D01*
X244101904Y-93575238D01*
X244006666Y-93575238D01*
X243911428Y-93622857D01*
X243863809Y-93670476D01*
X243816190Y-93765714D01*
X243768571Y-93956190D01*
X243720952Y-94051428D01*
X243673333Y-94099047D01*
X243578095Y-94146666D01*
X243482857Y-94146666D01*
X243387619Y-94099047D01*
X243340000Y-94051428D01*
X243292380Y-93956190D01*
X243292380Y-93718095D01*
X243340000Y-93575238D01*
X243292380Y-93289523D02*
X243292380Y-92718095D01*
X244292380Y-93003809D02*
X243292380Y-93003809D01*
X241466666Y-94694285D02*
X241466666Y-94218095D01*
X241752380Y-94789523D02*
X240752380Y-94456190D01*
X241752380Y-94122857D01*
X240752380Y-93599047D02*
X240752380Y-93503809D01*
X240800000Y-93408571D01*
X240847619Y-93360952D01*
X240942857Y-93313333D01*
X241133333Y-93265714D01*
X241371428Y-93265714D01*
X241561904Y-93313333D01*
X241657142Y-93360952D01*
X241704761Y-93408571D01*
X241752380Y-93503809D01*
X241752380Y-93599047D01*
X241704761Y-93694285D01*
X241657142Y-93741904D01*
X241561904Y-93789523D01*
X241371428Y-93837142D01*
X241133333Y-93837142D01*
X240942857Y-93789523D01*
X240847619Y-93741904D01*
X240800000Y-93694285D01*
X240752380Y-93599047D01*
X238926666Y-94694285D02*
X238926666Y-94218095D01*
X239212380Y-94789523D02*
X238212380Y-94456190D01*
X239212380Y-94122857D01*
X239212380Y-93265714D02*
X239212380Y-93837142D01*
X239212380Y-93551428D02*
X238212380Y-93551428D01*
X238355238Y-93646666D01*
X238450476Y-93741904D01*
X238498095Y-93837142D01*
X236386666Y-94694285D02*
X236386666Y-94218095D01*
X236672380Y-94789523D02*
X235672380Y-94456190D01*
X236672380Y-94122857D01*
X235767619Y-93837142D02*
X235720000Y-93789523D01*
X235672380Y-93694285D01*
X235672380Y-93456190D01*
X235720000Y-93360952D01*
X235767619Y-93313333D01*
X235862857Y-93265714D01*
X235958095Y-93265714D01*
X236100952Y-93313333D01*
X236672380Y-93884761D01*
X236672380Y-93265714D01*
X234084761Y-95670476D02*
X234132380Y-95527619D01*
X234132380Y-95289523D01*
X234084761Y-95194285D01*
X234037142Y-95146666D01*
X233941904Y-95099047D01*
X233846666Y-95099047D01*
X233751428Y-95146666D01*
X233703809Y-95194285D01*
X233656190Y-95289523D01*
X233608571Y-95480000D01*
X233560952Y-95575238D01*
X233513333Y-95622857D01*
X233418095Y-95670476D01*
X233322857Y-95670476D01*
X233227619Y-95622857D01*
X233180000Y-95575238D01*
X233132380Y-95480000D01*
X233132380Y-95241904D01*
X233180000Y-95099047D01*
X234132380Y-94670476D02*
X233132380Y-94670476D01*
X233132380Y-94432380D01*
X233180000Y-94289523D01*
X233275238Y-94194285D01*
X233370476Y-94146666D01*
X233560952Y-94099047D01*
X233703809Y-94099047D01*
X233894285Y-94146666D01*
X233989523Y-94194285D01*
X234084761Y-94289523D01*
X234132380Y-94432380D01*
X234132380Y-94670476D01*
X233846666Y-93718095D02*
X233846666Y-93241904D01*
X234132380Y-93813333D02*
X233132380Y-93480000D01*
X234132380Y-93146666D01*
X233132380Y-92622857D02*
X233132380Y-92527619D01*
X233180000Y-92432380D01*
X233227619Y-92384761D01*
X233322857Y-92337142D01*
X233513333Y-92289523D01*
X233751428Y-92289523D01*
X233941904Y-92337142D01*
X234037142Y-92384761D01*
X234084761Y-92432380D01*
X234132380Y-92527619D01*
X234132380Y-92622857D01*
X234084761Y-92718095D01*
X234037142Y-92765714D01*
X233941904Y-92813333D01*
X233751428Y-92860952D01*
X233513333Y-92860952D01*
X233322857Y-92813333D01*
X233227619Y-92765714D01*
X233180000Y-92718095D01*
X233132380Y-92622857D01*
X231544761Y-95646666D02*
X231592380Y-95503809D01*
X231592380Y-95265714D01*
X231544761Y-95170476D01*
X231497142Y-95122857D01*
X231401904Y-95075238D01*
X231306666Y-95075238D01*
X231211428Y-95122857D01*
X231163809Y-95170476D01*
X231116190Y-95265714D01*
X231068571Y-95456190D01*
X231020952Y-95551428D01*
X230973333Y-95599047D01*
X230878095Y-95646666D01*
X230782857Y-95646666D01*
X230687619Y-95599047D01*
X230640000Y-95551428D01*
X230592380Y-95456190D01*
X230592380Y-95218095D01*
X230640000Y-95075238D01*
X231497142Y-94075238D02*
X231544761Y-94122857D01*
X231592380Y-94265714D01*
X231592380Y-94360952D01*
X231544761Y-94503809D01*
X231449523Y-94599047D01*
X231354285Y-94646666D01*
X231163809Y-94694285D01*
X231020952Y-94694285D01*
X230830476Y-94646666D01*
X230735238Y-94599047D01*
X230640000Y-94503809D01*
X230592380Y-94360952D01*
X230592380Y-94265714D01*
X230640000Y-94122857D01*
X230687619Y-94075238D01*
X231592380Y-93170476D02*
X231592380Y-93646666D01*
X230592380Y-93646666D01*
X230592380Y-92646666D02*
X230592380Y-92551428D01*
X230640000Y-92456190D01*
X230687619Y-92408571D01*
X230782857Y-92360952D01*
X230973333Y-92313333D01*
X231211428Y-92313333D01*
X231401904Y-92360952D01*
X231497142Y-92408571D01*
X231544761Y-92456190D01*
X231592380Y-92551428D01*
X231592380Y-92646666D01*
X231544761Y-92741904D01*
X231497142Y-92789523D01*
X231401904Y-92837142D01*
X231211428Y-92884761D01*
X230973333Y-92884761D01*
X230782857Y-92837142D01*
X230687619Y-92789523D01*
X230640000Y-92741904D01*
X230592380Y-92646666D01*
X229004761Y-95670476D02*
X229052380Y-95527619D01*
X229052380Y-95289523D01*
X229004761Y-95194285D01*
X228957142Y-95146666D01*
X228861904Y-95099047D01*
X228766666Y-95099047D01*
X228671428Y-95146666D01*
X228623809Y-95194285D01*
X228576190Y-95289523D01*
X228528571Y-95480000D01*
X228480952Y-95575238D01*
X228433333Y-95622857D01*
X228338095Y-95670476D01*
X228242857Y-95670476D01*
X228147619Y-95622857D01*
X228100000Y-95575238D01*
X228052380Y-95480000D01*
X228052380Y-95241904D01*
X228100000Y-95099047D01*
X229052380Y-94670476D02*
X228052380Y-94670476D01*
X228052380Y-94432380D01*
X228100000Y-94289523D01*
X228195238Y-94194285D01*
X228290476Y-94146666D01*
X228480952Y-94099047D01*
X228623809Y-94099047D01*
X228814285Y-94146666D01*
X228909523Y-94194285D01*
X229004761Y-94289523D01*
X229052380Y-94432380D01*
X229052380Y-94670476D01*
X228766666Y-93718095D02*
X228766666Y-93241904D01*
X229052380Y-93813333D02*
X228052380Y-93480000D01*
X229052380Y-93146666D01*
X229052380Y-92289523D02*
X229052380Y-92860952D01*
X229052380Y-92575238D02*
X228052380Y-92575238D01*
X228195238Y-92670476D01*
X228290476Y-92765714D01*
X228338095Y-92860952D01*
X226464761Y-95646666D02*
X226512380Y-95503809D01*
X226512380Y-95265714D01*
X226464761Y-95170476D01*
X226417142Y-95122857D01*
X226321904Y-95075238D01*
X226226666Y-95075238D01*
X226131428Y-95122857D01*
X226083809Y-95170476D01*
X226036190Y-95265714D01*
X225988571Y-95456190D01*
X225940952Y-95551428D01*
X225893333Y-95599047D01*
X225798095Y-95646666D01*
X225702857Y-95646666D01*
X225607619Y-95599047D01*
X225560000Y-95551428D01*
X225512380Y-95456190D01*
X225512380Y-95218095D01*
X225560000Y-95075238D01*
X226417142Y-94075238D02*
X226464761Y-94122857D01*
X226512380Y-94265714D01*
X226512380Y-94360952D01*
X226464761Y-94503809D01*
X226369523Y-94599047D01*
X226274285Y-94646666D01*
X226083809Y-94694285D01*
X225940952Y-94694285D01*
X225750476Y-94646666D01*
X225655238Y-94599047D01*
X225560000Y-94503809D01*
X225512380Y-94360952D01*
X225512380Y-94265714D01*
X225560000Y-94122857D01*
X225607619Y-94075238D01*
X226512380Y-93170476D02*
X226512380Y-93646666D01*
X225512380Y-93646666D01*
X226512380Y-92313333D02*
X226512380Y-92884761D01*
X226512380Y-92599047D02*
X225512380Y-92599047D01*
X225655238Y-92694285D01*
X225750476Y-92789523D01*
X225798095Y-92884761D01*
X226464761Y-118530476D02*
X226512380Y-118387619D01*
X226512380Y-118149523D01*
X226464761Y-118054285D01*
X226417142Y-118006666D01*
X226321904Y-117959047D01*
X226226666Y-117959047D01*
X226131428Y-118006666D01*
X226083809Y-118054285D01*
X226036190Y-118149523D01*
X225988571Y-118340000D01*
X225940952Y-118435238D01*
X225893333Y-118482857D01*
X225798095Y-118530476D01*
X225702857Y-118530476D01*
X225607619Y-118482857D01*
X225560000Y-118435238D01*
X225512380Y-118340000D01*
X225512380Y-118101904D01*
X225560000Y-117959047D01*
X226512380Y-117530476D02*
X225512380Y-117530476D01*
X225512380Y-117292380D01*
X225560000Y-117149523D01*
X225655238Y-117054285D01*
X225750476Y-117006666D01*
X225940952Y-116959047D01*
X226083809Y-116959047D01*
X226274285Y-117006666D01*
X226369523Y-117054285D01*
X226464761Y-117149523D01*
X226512380Y-117292380D01*
X226512380Y-117530476D01*
X226226666Y-116578095D02*
X226226666Y-116101904D01*
X226512380Y-116673333D02*
X225512380Y-116340000D01*
X226512380Y-116006666D01*
X225607619Y-115720952D02*
X225560000Y-115673333D01*
X225512380Y-115578095D01*
X225512380Y-115340000D01*
X225560000Y-115244761D01*
X225607619Y-115197142D01*
X225702857Y-115149523D01*
X225798095Y-115149523D01*
X225940952Y-115197142D01*
X226512380Y-115768571D01*
X226512380Y-115149523D01*
X229004761Y-118506666D02*
X229052380Y-118363809D01*
X229052380Y-118125714D01*
X229004761Y-118030476D01*
X228957142Y-117982857D01*
X228861904Y-117935238D01*
X228766666Y-117935238D01*
X228671428Y-117982857D01*
X228623809Y-118030476D01*
X228576190Y-118125714D01*
X228528571Y-118316190D01*
X228480952Y-118411428D01*
X228433333Y-118459047D01*
X228338095Y-118506666D01*
X228242857Y-118506666D01*
X228147619Y-118459047D01*
X228100000Y-118411428D01*
X228052380Y-118316190D01*
X228052380Y-118078095D01*
X228100000Y-117935238D01*
X228957142Y-116935238D02*
X229004761Y-116982857D01*
X229052380Y-117125714D01*
X229052380Y-117220952D01*
X229004761Y-117363809D01*
X228909523Y-117459047D01*
X228814285Y-117506666D01*
X228623809Y-117554285D01*
X228480952Y-117554285D01*
X228290476Y-117506666D01*
X228195238Y-117459047D01*
X228100000Y-117363809D01*
X228052380Y-117220952D01*
X228052380Y-117125714D01*
X228100000Y-116982857D01*
X228147619Y-116935238D01*
X229052380Y-116030476D02*
X229052380Y-116506666D01*
X228052380Y-116506666D01*
X228147619Y-115744761D02*
X228100000Y-115697142D01*
X228052380Y-115601904D01*
X228052380Y-115363809D01*
X228100000Y-115268571D01*
X228147619Y-115220952D01*
X228242857Y-115173333D01*
X228338095Y-115173333D01*
X228480952Y-115220952D01*
X229052380Y-115792380D01*
X229052380Y-115173333D01*
X231544761Y-118530476D02*
X231592380Y-118387619D01*
X231592380Y-118149523D01*
X231544761Y-118054285D01*
X231497142Y-118006666D01*
X231401904Y-117959047D01*
X231306666Y-117959047D01*
X231211428Y-118006666D01*
X231163809Y-118054285D01*
X231116190Y-118149523D01*
X231068571Y-118340000D01*
X231020952Y-118435238D01*
X230973333Y-118482857D01*
X230878095Y-118530476D01*
X230782857Y-118530476D01*
X230687619Y-118482857D01*
X230640000Y-118435238D01*
X230592380Y-118340000D01*
X230592380Y-118101904D01*
X230640000Y-117959047D01*
X231592380Y-117530476D02*
X230592380Y-117530476D01*
X230592380Y-117292380D01*
X230640000Y-117149523D01*
X230735238Y-117054285D01*
X230830476Y-117006666D01*
X231020952Y-116959047D01*
X231163809Y-116959047D01*
X231354285Y-117006666D01*
X231449523Y-117054285D01*
X231544761Y-117149523D01*
X231592380Y-117292380D01*
X231592380Y-117530476D01*
X231306666Y-116578095D02*
X231306666Y-116101904D01*
X231592380Y-116673333D02*
X230592380Y-116340000D01*
X231592380Y-116006666D01*
X230592380Y-115768571D02*
X230592380Y-115149523D01*
X230973333Y-115482857D01*
X230973333Y-115340000D01*
X231020952Y-115244761D01*
X231068571Y-115197142D01*
X231163809Y-115149523D01*
X231401904Y-115149523D01*
X231497142Y-115197142D01*
X231544761Y-115244761D01*
X231592380Y-115340000D01*
X231592380Y-115625714D01*
X231544761Y-115720952D01*
X231497142Y-115768571D01*
X234084761Y-118506666D02*
X234132380Y-118363809D01*
X234132380Y-118125714D01*
X234084761Y-118030476D01*
X234037142Y-117982857D01*
X233941904Y-117935238D01*
X233846666Y-117935238D01*
X233751428Y-117982857D01*
X233703809Y-118030476D01*
X233656190Y-118125714D01*
X233608571Y-118316190D01*
X233560952Y-118411428D01*
X233513333Y-118459047D01*
X233418095Y-118506666D01*
X233322857Y-118506666D01*
X233227619Y-118459047D01*
X233180000Y-118411428D01*
X233132380Y-118316190D01*
X233132380Y-118078095D01*
X233180000Y-117935238D01*
X234037142Y-116935238D02*
X234084761Y-116982857D01*
X234132380Y-117125714D01*
X234132380Y-117220952D01*
X234084761Y-117363809D01*
X233989523Y-117459047D01*
X233894285Y-117506666D01*
X233703809Y-117554285D01*
X233560952Y-117554285D01*
X233370476Y-117506666D01*
X233275238Y-117459047D01*
X233180000Y-117363809D01*
X233132380Y-117220952D01*
X233132380Y-117125714D01*
X233180000Y-116982857D01*
X233227619Y-116935238D01*
X234132380Y-116030476D02*
X234132380Y-116506666D01*
X233132380Y-116506666D01*
X233132380Y-115792380D02*
X233132380Y-115173333D01*
X233513333Y-115506666D01*
X233513333Y-115363809D01*
X233560952Y-115268571D01*
X233608571Y-115220952D01*
X233703809Y-115173333D01*
X233941904Y-115173333D01*
X234037142Y-115220952D01*
X234084761Y-115268571D01*
X234132380Y-115363809D01*
X234132380Y-115649523D01*
X234084761Y-115744761D01*
X234037142Y-115792380D01*
X236624761Y-118530476D02*
X236672380Y-118387619D01*
X236672380Y-118149523D01*
X236624761Y-118054285D01*
X236577142Y-118006666D01*
X236481904Y-117959047D01*
X236386666Y-117959047D01*
X236291428Y-118006666D01*
X236243809Y-118054285D01*
X236196190Y-118149523D01*
X236148571Y-118340000D01*
X236100952Y-118435238D01*
X236053333Y-118482857D01*
X235958095Y-118530476D01*
X235862857Y-118530476D01*
X235767619Y-118482857D01*
X235720000Y-118435238D01*
X235672380Y-118340000D01*
X235672380Y-118101904D01*
X235720000Y-117959047D01*
X236672380Y-117530476D02*
X235672380Y-117530476D01*
X235672380Y-117292380D01*
X235720000Y-117149523D01*
X235815238Y-117054285D01*
X235910476Y-117006666D01*
X236100952Y-116959047D01*
X236243809Y-116959047D01*
X236434285Y-117006666D01*
X236529523Y-117054285D01*
X236624761Y-117149523D01*
X236672380Y-117292380D01*
X236672380Y-117530476D01*
X236386666Y-116578095D02*
X236386666Y-116101904D01*
X236672380Y-116673333D02*
X235672380Y-116340000D01*
X236672380Y-116006666D01*
X236005714Y-115244761D02*
X236672380Y-115244761D01*
X235624761Y-115482857D02*
X236339047Y-115720952D01*
X236339047Y-115101904D01*
X239164761Y-118506666D02*
X239212380Y-118363809D01*
X239212380Y-118125714D01*
X239164761Y-118030476D01*
X239117142Y-117982857D01*
X239021904Y-117935238D01*
X238926666Y-117935238D01*
X238831428Y-117982857D01*
X238783809Y-118030476D01*
X238736190Y-118125714D01*
X238688571Y-118316190D01*
X238640952Y-118411428D01*
X238593333Y-118459047D01*
X238498095Y-118506666D01*
X238402857Y-118506666D01*
X238307619Y-118459047D01*
X238260000Y-118411428D01*
X238212380Y-118316190D01*
X238212380Y-118078095D01*
X238260000Y-117935238D01*
X239117142Y-116935238D02*
X239164761Y-116982857D01*
X239212380Y-117125714D01*
X239212380Y-117220952D01*
X239164761Y-117363809D01*
X239069523Y-117459047D01*
X238974285Y-117506666D01*
X238783809Y-117554285D01*
X238640952Y-117554285D01*
X238450476Y-117506666D01*
X238355238Y-117459047D01*
X238260000Y-117363809D01*
X238212380Y-117220952D01*
X238212380Y-117125714D01*
X238260000Y-116982857D01*
X238307619Y-116935238D01*
X239212380Y-116030476D02*
X239212380Y-116506666D01*
X238212380Y-116506666D01*
X238545714Y-115268571D02*
X239212380Y-115268571D01*
X238164761Y-115506666D02*
X238879047Y-115744761D01*
X238879047Y-115125714D01*
X241704761Y-118530476D02*
X241752380Y-118387619D01*
X241752380Y-118149523D01*
X241704761Y-118054285D01*
X241657142Y-118006666D01*
X241561904Y-117959047D01*
X241466666Y-117959047D01*
X241371428Y-118006666D01*
X241323809Y-118054285D01*
X241276190Y-118149523D01*
X241228571Y-118340000D01*
X241180952Y-118435238D01*
X241133333Y-118482857D01*
X241038095Y-118530476D01*
X240942857Y-118530476D01*
X240847619Y-118482857D01*
X240800000Y-118435238D01*
X240752380Y-118340000D01*
X240752380Y-118101904D01*
X240800000Y-117959047D01*
X241752380Y-117530476D02*
X240752380Y-117530476D01*
X240752380Y-117292380D01*
X240800000Y-117149523D01*
X240895238Y-117054285D01*
X240990476Y-117006666D01*
X241180952Y-116959047D01*
X241323809Y-116959047D01*
X241514285Y-117006666D01*
X241609523Y-117054285D01*
X241704761Y-117149523D01*
X241752380Y-117292380D01*
X241752380Y-117530476D01*
X241466666Y-116578095D02*
X241466666Y-116101904D01*
X241752380Y-116673333D02*
X240752380Y-116340000D01*
X241752380Y-116006666D01*
X240752380Y-115197142D02*
X240752380Y-115673333D01*
X241228571Y-115720952D01*
X241180952Y-115673333D01*
X241133333Y-115578095D01*
X241133333Y-115340000D01*
X241180952Y-115244761D01*
X241228571Y-115197142D01*
X241323809Y-115149523D01*
X241561904Y-115149523D01*
X241657142Y-115197142D01*
X241704761Y-115244761D01*
X241752380Y-115340000D01*
X241752380Y-115578095D01*
X241704761Y-115673333D01*
X241657142Y-115720952D01*
X244244761Y-118506666D02*
X244292380Y-118363809D01*
X244292380Y-118125714D01*
X244244761Y-118030476D01*
X244197142Y-117982857D01*
X244101904Y-117935238D01*
X244006666Y-117935238D01*
X243911428Y-117982857D01*
X243863809Y-118030476D01*
X243816190Y-118125714D01*
X243768571Y-118316190D01*
X243720952Y-118411428D01*
X243673333Y-118459047D01*
X243578095Y-118506666D01*
X243482857Y-118506666D01*
X243387619Y-118459047D01*
X243340000Y-118411428D01*
X243292380Y-118316190D01*
X243292380Y-118078095D01*
X243340000Y-117935238D01*
X244197142Y-116935238D02*
X244244761Y-116982857D01*
X244292380Y-117125714D01*
X244292380Y-117220952D01*
X244244761Y-117363809D01*
X244149523Y-117459047D01*
X244054285Y-117506666D01*
X243863809Y-117554285D01*
X243720952Y-117554285D01*
X243530476Y-117506666D01*
X243435238Y-117459047D01*
X243340000Y-117363809D01*
X243292380Y-117220952D01*
X243292380Y-117125714D01*
X243340000Y-116982857D01*
X243387619Y-116935238D01*
X244292380Y-116030476D02*
X244292380Y-116506666D01*
X243292380Y-116506666D01*
X243292380Y-115220952D02*
X243292380Y-115697142D01*
X243768571Y-115744761D01*
X243720952Y-115697142D01*
X243673333Y-115601904D01*
X243673333Y-115363809D01*
X243720952Y-115268571D01*
X243768571Y-115220952D01*
X243863809Y-115173333D01*
X244101904Y-115173333D01*
X244197142Y-115220952D01*
X244244761Y-115268571D01*
X244292380Y-115363809D01*
X244292380Y-115601904D01*
X244244761Y-115697142D01*
X244197142Y-115744761D01*
X246784761Y-118530476D02*
X246832380Y-118387619D01*
X246832380Y-118149523D01*
X246784761Y-118054285D01*
X246737142Y-118006666D01*
X246641904Y-117959047D01*
X246546666Y-117959047D01*
X246451428Y-118006666D01*
X246403809Y-118054285D01*
X246356190Y-118149523D01*
X246308571Y-118340000D01*
X246260952Y-118435238D01*
X246213333Y-118482857D01*
X246118095Y-118530476D01*
X246022857Y-118530476D01*
X245927619Y-118482857D01*
X245880000Y-118435238D01*
X245832380Y-118340000D01*
X245832380Y-118101904D01*
X245880000Y-117959047D01*
X246832380Y-117530476D02*
X245832380Y-117530476D01*
X245832380Y-117292380D01*
X245880000Y-117149523D01*
X245975238Y-117054285D01*
X246070476Y-117006666D01*
X246260952Y-116959047D01*
X246403809Y-116959047D01*
X246594285Y-117006666D01*
X246689523Y-117054285D01*
X246784761Y-117149523D01*
X246832380Y-117292380D01*
X246832380Y-117530476D01*
X246546666Y-116578095D02*
X246546666Y-116101904D01*
X246832380Y-116673333D02*
X245832380Y-116340000D01*
X246832380Y-116006666D01*
X245832380Y-115244761D02*
X245832380Y-115435238D01*
X245880000Y-115530476D01*
X245927619Y-115578095D01*
X246070476Y-115673333D01*
X246260952Y-115720952D01*
X246641904Y-115720952D01*
X246737142Y-115673333D01*
X246784761Y-115625714D01*
X246832380Y-115530476D01*
X246832380Y-115340000D01*
X246784761Y-115244761D01*
X246737142Y-115197142D01*
X246641904Y-115149523D01*
X246403809Y-115149523D01*
X246308571Y-115197142D01*
X246260952Y-115244761D01*
X246213333Y-115340000D01*
X246213333Y-115530476D01*
X246260952Y-115625714D01*
X246308571Y-115673333D01*
X246403809Y-115720952D01*
X249324761Y-118506666D02*
X249372380Y-118363809D01*
X249372380Y-118125714D01*
X249324761Y-118030476D01*
X249277142Y-117982857D01*
X249181904Y-117935238D01*
X249086666Y-117935238D01*
X248991428Y-117982857D01*
X248943809Y-118030476D01*
X248896190Y-118125714D01*
X248848571Y-118316190D01*
X248800952Y-118411428D01*
X248753333Y-118459047D01*
X248658095Y-118506666D01*
X248562857Y-118506666D01*
X248467619Y-118459047D01*
X248420000Y-118411428D01*
X248372380Y-118316190D01*
X248372380Y-118078095D01*
X248420000Y-117935238D01*
X249277142Y-116935238D02*
X249324761Y-116982857D01*
X249372380Y-117125714D01*
X249372380Y-117220952D01*
X249324761Y-117363809D01*
X249229523Y-117459047D01*
X249134285Y-117506666D01*
X248943809Y-117554285D01*
X248800952Y-117554285D01*
X248610476Y-117506666D01*
X248515238Y-117459047D01*
X248420000Y-117363809D01*
X248372380Y-117220952D01*
X248372380Y-117125714D01*
X248420000Y-116982857D01*
X248467619Y-116935238D01*
X249372380Y-116030476D02*
X249372380Y-116506666D01*
X248372380Y-116506666D01*
X248372380Y-115268571D02*
X248372380Y-115459047D01*
X248420000Y-115554285D01*
X248467619Y-115601904D01*
X248610476Y-115697142D01*
X248800952Y-115744761D01*
X249181904Y-115744761D01*
X249277142Y-115697142D01*
X249324761Y-115649523D01*
X249372380Y-115554285D01*
X249372380Y-115363809D01*
X249324761Y-115268571D01*
X249277142Y-115220952D01*
X249181904Y-115173333D01*
X248943809Y-115173333D01*
X248848571Y-115220952D01*
X248800952Y-115268571D01*
X248753333Y-115363809D01*
X248753333Y-115554285D01*
X248800952Y-115649523D01*
X248848571Y-115697142D01*
X248943809Y-115744761D01*
X251864761Y-118530476D02*
X251912380Y-118387619D01*
X251912380Y-118149523D01*
X251864761Y-118054285D01*
X251817142Y-118006666D01*
X251721904Y-117959047D01*
X251626666Y-117959047D01*
X251531428Y-118006666D01*
X251483809Y-118054285D01*
X251436190Y-118149523D01*
X251388571Y-118340000D01*
X251340952Y-118435238D01*
X251293333Y-118482857D01*
X251198095Y-118530476D01*
X251102857Y-118530476D01*
X251007619Y-118482857D01*
X250960000Y-118435238D01*
X250912380Y-118340000D01*
X250912380Y-118101904D01*
X250960000Y-117959047D01*
X251912380Y-117530476D02*
X250912380Y-117530476D01*
X250912380Y-117292380D01*
X250960000Y-117149523D01*
X251055238Y-117054285D01*
X251150476Y-117006666D01*
X251340952Y-116959047D01*
X251483809Y-116959047D01*
X251674285Y-117006666D01*
X251769523Y-117054285D01*
X251864761Y-117149523D01*
X251912380Y-117292380D01*
X251912380Y-117530476D01*
X251626666Y-116578095D02*
X251626666Y-116101904D01*
X251912380Y-116673333D02*
X250912380Y-116340000D01*
X251912380Y-116006666D01*
X250912380Y-115768571D02*
X250912380Y-115101904D01*
X251912380Y-115530476D01*
X254404761Y-118506666D02*
X254452380Y-118363809D01*
X254452380Y-118125714D01*
X254404761Y-118030476D01*
X254357142Y-117982857D01*
X254261904Y-117935238D01*
X254166666Y-117935238D01*
X254071428Y-117982857D01*
X254023809Y-118030476D01*
X253976190Y-118125714D01*
X253928571Y-118316190D01*
X253880952Y-118411428D01*
X253833333Y-118459047D01*
X253738095Y-118506666D01*
X253642857Y-118506666D01*
X253547619Y-118459047D01*
X253500000Y-118411428D01*
X253452380Y-118316190D01*
X253452380Y-118078095D01*
X253500000Y-117935238D01*
X254357142Y-116935238D02*
X254404761Y-116982857D01*
X254452380Y-117125714D01*
X254452380Y-117220952D01*
X254404761Y-117363809D01*
X254309523Y-117459047D01*
X254214285Y-117506666D01*
X254023809Y-117554285D01*
X253880952Y-117554285D01*
X253690476Y-117506666D01*
X253595238Y-117459047D01*
X253500000Y-117363809D01*
X253452380Y-117220952D01*
X253452380Y-117125714D01*
X253500000Y-116982857D01*
X253547619Y-116935238D01*
X254452380Y-116030476D02*
X254452380Y-116506666D01*
X253452380Y-116506666D01*
X253452380Y-115792380D02*
X253452380Y-115125714D01*
X254452380Y-115554285D01*
%TO.C,J24*%
X276042380Y-68643333D02*
X276042380Y-69214761D01*
X276042380Y-68929047D02*
X275042380Y-68929047D01*
X275185238Y-69024285D01*
X275280476Y-69119523D01*
X275328095Y-69214761D01*
X276042380Y-67690952D02*
X276042380Y-68262380D01*
X276042380Y-67976666D02*
X275042380Y-67976666D01*
X275185238Y-68071904D01*
X275280476Y-68167142D01*
X275328095Y-68262380D01*
X275947142Y-67262380D02*
X275994761Y-67214761D01*
X276042380Y-67262380D01*
X275994761Y-67310000D01*
X275947142Y-67262380D01*
X276042380Y-67262380D01*
X276042380Y-66262380D02*
X276042380Y-66833809D01*
X276042380Y-66548095D02*
X275042380Y-66548095D01*
X275185238Y-66643333D01*
X275280476Y-66738571D01*
X275328095Y-66833809D01*
X275042380Y-65976666D02*
X276042380Y-65643333D01*
X275042380Y-65310000D01*
X265501428Y-65150952D02*
X265501428Y-64389047D01*
X265501428Y-70230952D02*
X265501428Y-69469047D01*
X265882380Y-69850000D02*
X265120476Y-69850000D01*
%TO.C,J23*%
X179522380Y-57213333D02*
X179522380Y-57784761D01*
X179522380Y-57499047D02*
X178522380Y-57499047D01*
X178665238Y-57594285D01*
X178760476Y-57689523D01*
X178808095Y-57784761D01*
X179522380Y-56260952D02*
X179522380Y-56832380D01*
X179522380Y-56546666D02*
X178522380Y-56546666D01*
X178665238Y-56641904D01*
X178760476Y-56737142D01*
X178808095Y-56832380D01*
X179427142Y-55832380D02*
X179474761Y-55784761D01*
X179522380Y-55832380D01*
X179474761Y-55880000D01*
X179427142Y-55832380D01*
X179522380Y-55832380D01*
X179522380Y-54832380D02*
X179522380Y-55403809D01*
X179522380Y-55118095D02*
X178522380Y-55118095D01*
X178665238Y-55213333D01*
X178760476Y-55308571D01*
X178808095Y-55403809D01*
X178522380Y-54546666D02*
X179522380Y-54213333D01*
X178522380Y-53880000D01*
X189301428Y-58800952D02*
X189301428Y-58039047D01*
X189301428Y-53720952D02*
X189301428Y-52959047D01*
X189682380Y-53340000D02*
X188920476Y-53340000D01*
%TO.C,J22*%
X276042380Y-57213333D02*
X276042380Y-57784761D01*
X276042380Y-57499047D02*
X275042380Y-57499047D01*
X275185238Y-57594285D01*
X275280476Y-57689523D01*
X275328095Y-57784761D01*
X276042380Y-56260952D02*
X276042380Y-56832380D01*
X276042380Y-56546666D02*
X275042380Y-56546666D01*
X275185238Y-56641904D01*
X275280476Y-56737142D01*
X275328095Y-56832380D01*
X275947142Y-55832380D02*
X275994761Y-55784761D01*
X276042380Y-55832380D01*
X275994761Y-55880000D01*
X275947142Y-55832380D01*
X276042380Y-55832380D01*
X276042380Y-54832380D02*
X276042380Y-55403809D01*
X276042380Y-55118095D02*
X275042380Y-55118095D01*
X275185238Y-55213333D01*
X275280476Y-55308571D01*
X275328095Y-55403809D01*
X275042380Y-54546666D02*
X276042380Y-54213333D01*
X275042380Y-53880000D01*
X265501428Y-53720952D02*
X265501428Y-52959047D01*
X265501428Y-58800952D02*
X265501428Y-58039047D01*
X265882380Y-58420000D02*
X265120476Y-58420000D01*
%TO.C,J21*%
X179522380Y-68643333D02*
X179522380Y-69214761D01*
X179522380Y-68929047D02*
X178522380Y-68929047D01*
X178665238Y-69024285D01*
X178760476Y-69119523D01*
X178808095Y-69214761D01*
X179522380Y-67690952D02*
X179522380Y-68262380D01*
X179522380Y-67976666D02*
X178522380Y-67976666D01*
X178665238Y-68071904D01*
X178760476Y-68167142D01*
X178808095Y-68262380D01*
X179427142Y-67262380D02*
X179474761Y-67214761D01*
X179522380Y-67262380D01*
X179474761Y-67310000D01*
X179427142Y-67262380D01*
X179522380Y-67262380D01*
X179522380Y-66262380D02*
X179522380Y-66833809D01*
X179522380Y-66548095D02*
X178522380Y-66548095D01*
X178665238Y-66643333D01*
X178760476Y-66738571D01*
X178808095Y-66833809D01*
X178522380Y-65976666D02*
X179522380Y-65643333D01*
X178522380Y-65310000D01*
X189301428Y-70230952D02*
X189301428Y-69469047D01*
X189301428Y-65150952D02*
X189301428Y-64389047D01*
X189682380Y-64770000D02*
X188920476Y-64770000D01*
%TO.C,J20*%
X179522380Y-45783333D02*
X179522380Y-46354761D01*
X179522380Y-46069047D02*
X178522380Y-46069047D01*
X178665238Y-46164285D01*
X178760476Y-46259523D01*
X178808095Y-46354761D01*
X179522380Y-44830952D02*
X179522380Y-45402380D01*
X179522380Y-45116666D02*
X178522380Y-45116666D01*
X178665238Y-45211904D01*
X178760476Y-45307142D01*
X178808095Y-45402380D01*
X179427142Y-44402380D02*
X179474761Y-44354761D01*
X179522380Y-44402380D01*
X179474761Y-44450000D01*
X179427142Y-44402380D01*
X179522380Y-44402380D01*
X179522380Y-43402380D02*
X179522380Y-43973809D01*
X179522380Y-43688095D02*
X178522380Y-43688095D01*
X178665238Y-43783333D01*
X178760476Y-43878571D01*
X178808095Y-43973809D01*
X178522380Y-43116666D02*
X179522380Y-42783333D01*
X178522380Y-42450000D01*
X189301428Y-47370952D02*
X189301428Y-46609047D01*
X189301428Y-42290952D02*
X189301428Y-41529047D01*
X189682380Y-41910000D02*
X188920476Y-41910000D01*
%TO.C,J19*%
X276042380Y-45783333D02*
X276042380Y-46354761D01*
X276042380Y-46069047D02*
X275042380Y-46069047D01*
X275185238Y-46164285D01*
X275280476Y-46259523D01*
X275328095Y-46354761D01*
X276042380Y-44830952D02*
X276042380Y-45402380D01*
X276042380Y-45116666D02*
X275042380Y-45116666D01*
X275185238Y-45211904D01*
X275280476Y-45307142D01*
X275328095Y-45402380D01*
X275947142Y-44402380D02*
X275994761Y-44354761D01*
X276042380Y-44402380D01*
X275994761Y-44450000D01*
X275947142Y-44402380D01*
X276042380Y-44402380D01*
X276042380Y-43402380D02*
X276042380Y-43973809D01*
X276042380Y-43688095D02*
X275042380Y-43688095D01*
X275185238Y-43783333D01*
X275280476Y-43878571D01*
X275328095Y-43973809D01*
X275042380Y-43116666D02*
X276042380Y-42783333D01*
X275042380Y-42450000D01*
X265501428Y-42290952D02*
X265501428Y-41529047D01*
X265501428Y-47370952D02*
X265501428Y-46609047D01*
X265882380Y-46990000D02*
X265120476Y-46990000D01*
%TO.C,J11*%
X275042380Y-131000476D02*
X275042380Y-131476666D01*
X275518571Y-131524285D01*
X275470952Y-131476666D01*
X275423333Y-131381428D01*
X275423333Y-131143333D01*
X275470952Y-131048095D01*
X275518571Y-131000476D01*
X275613809Y-130952857D01*
X275851904Y-130952857D01*
X275947142Y-131000476D01*
X275994761Y-131048095D01*
X276042380Y-131143333D01*
X276042380Y-131381428D01*
X275994761Y-131476666D01*
X275947142Y-131524285D01*
X275042380Y-130667142D02*
X276042380Y-130333809D01*
X275042380Y-130000476D01*
X265501428Y-128650952D02*
X265501428Y-127889047D01*
X265501428Y-133730952D02*
X265501428Y-132969047D01*
X265882380Y-133350000D02*
X265120476Y-133350000D01*
%TO.C,J10*%
X275042380Y-108140476D02*
X275042380Y-108616666D01*
X275518571Y-108664285D01*
X275470952Y-108616666D01*
X275423333Y-108521428D01*
X275423333Y-108283333D01*
X275470952Y-108188095D01*
X275518571Y-108140476D01*
X275613809Y-108092857D01*
X275851904Y-108092857D01*
X275947142Y-108140476D01*
X275994761Y-108188095D01*
X276042380Y-108283333D01*
X276042380Y-108521428D01*
X275994761Y-108616666D01*
X275947142Y-108664285D01*
X275042380Y-107807142D02*
X276042380Y-107473809D01*
X275042380Y-107140476D01*
X265501428Y-105790952D02*
X265501428Y-105029047D01*
X265501428Y-110870952D02*
X265501428Y-110109047D01*
X265882380Y-110490000D02*
X265120476Y-110490000D01*
%TO.C,J9*%
X178522380Y-107585477D02*
X178522380Y-108061667D01*
X178998571Y-108109286D01*
X178950952Y-108061667D01*
X178903333Y-107966429D01*
X178903333Y-107728334D01*
X178950952Y-107633096D01*
X178998571Y-107585477D01*
X179093809Y-107537858D01*
X179331904Y-107537858D01*
X179427142Y-107585477D01*
X179474761Y-107633096D01*
X179522380Y-107728334D01*
X179522380Y-107966429D01*
X179474761Y-108061667D01*
X179427142Y-108109286D01*
X178522380Y-107252143D02*
X179522380Y-106918810D01*
X178522380Y-106585477D01*
X189301428Y-110315953D02*
X189301428Y-109554048D01*
X189301428Y-105235953D02*
X189301428Y-104474048D01*
X189682380Y-104855001D02*
X188920476Y-104855001D01*
%TO.C,J8*%
X178522380Y-119570476D02*
X178522380Y-120046666D01*
X178998571Y-120094285D01*
X178950952Y-120046666D01*
X178903333Y-119951428D01*
X178903333Y-119713333D01*
X178950952Y-119618095D01*
X178998571Y-119570476D01*
X179093809Y-119522857D01*
X179331904Y-119522857D01*
X179427142Y-119570476D01*
X179474761Y-119618095D01*
X179522380Y-119713333D01*
X179522380Y-119951428D01*
X179474761Y-120046666D01*
X179427142Y-120094285D01*
X178522380Y-119237142D02*
X179522380Y-118903809D01*
X178522380Y-118570476D01*
X189301428Y-122300952D02*
X189301428Y-121539047D01*
X189301428Y-117220952D02*
X189301428Y-116459047D01*
X189682380Y-116840000D02*
X188920476Y-116840000D01*
%TO.C,J7*%
X178522380Y-131000476D02*
X178522380Y-131476666D01*
X178998571Y-131524285D01*
X178950952Y-131476666D01*
X178903333Y-131381428D01*
X178903333Y-131143333D01*
X178950952Y-131048095D01*
X178998571Y-131000476D01*
X179093809Y-130952857D01*
X179331904Y-130952857D01*
X179427142Y-131000476D01*
X179474761Y-131048095D01*
X179522380Y-131143333D01*
X179522380Y-131381428D01*
X179474761Y-131476666D01*
X179427142Y-131524285D01*
X178522380Y-130667142D02*
X179522380Y-130333809D01*
X178522380Y-130000476D01*
X189301428Y-133730952D02*
X189301428Y-132969047D01*
X189301428Y-128650952D02*
X189301428Y-127889047D01*
X189682380Y-128270000D02*
X188920476Y-128270000D01*
%TO.C,J6*%
X275042380Y-119570476D02*
X275042380Y-120046666D01*
X275518571Y-120094285D01*
X275470952Y-120046666D01*
X275423333Y-119951428D01*
X275423333Y-119713333D01*
X275470952Y-119618095D01*
X275518571Y-119570476D01*
X275613809Y-119522857D01*
X275851904Y-119522857D01*
X275947142Y-119570476D01*
X275994761Y-119618095D01*
X276042380Y-119713333D01*
X276042380Y-119951428D01*
X275994761Y-120046666D01*
X275947142Y-120094285D01*
X275042380Y-119237142D02*
X276042380Y-118903809D01*
X275042380Y-118570476D01*
X265501428Y-117220952D02*
X265501428Y-116459047D01*
X265501428Y-122300952D02*
X265501428Y-121539047D01*
X265882380Y-121920000D02*
X265120476Y-121920000D01*
%TO.C,J2*%
X223472857Y-39822380D02*
X223472857Y-38822380D01*
X223853809Y-38822380D01*
X223949047Y-38870000D01*
X223996666Y-38917619D01*
X224044285Y-39012857D01*
X224044285Y-39155714D01*
X223996666Y-39250952D01*
X223949047Y-39298571D01*
X223853809Y-39346190D01*
X223472857Y-39346190D01*
X224615714Y-39822380D02*
X224520476Y-39774761D01*
X224472857Y-39727142D01*
X224425238Y-39631904D01*
X224425238Y-39346190D01*
X224472857Y-39250952D01*
X224520476Y-39203333D01*
X224615714Y-39155714D01*
X224758571Y-39155714D01*
X224853809Y-39203333D01*
X224901428Y-39250952D01*
X224949047Y-39346190D01*
X224949047Y-39631904D01*
X224901428Y-39727142D01*
X224853809Y-39774761D01*
X224758571Y-39822380D01*
X224615714Y-39822380D01*
X225282380Y-39155714D02*
X225472857Y-39822380D01*
X225663333Y-39346190D01*
X225853809Y-39822380D01*
X226044285Y-39155714D01*
X226806190Y-39774761D02*
X226710952Y-39822380D01*
X226520476Y-39822380D01*
X226425238Y-39774761D01*
X226377619Y-39679523D01*
X226377619Y-39298571D01*
X226425238Y-39203333D01*
X226520476Y-39155714D01*
X226710952Y-39155714D01*
X226806190Y-39203333D01*
X226853809Y-39298571D01*
X226853809Y-39393809D01*
X226377619Y-39489047D01*
X227282380Y-39822380D02*
X227282380Y-39155714D01*
X227282380Y-39346190D02*
X227330000Y-39250952D01*
X227377619Y-39203333D01*
X227472857Y-39155714D01*
X227568095Y-39155714D01*
X227901428Y-39822380D02*
X227901428Y-38822380D01*
X228377619Y-39155714D02*
X228377619Y-39822380D01*
X228377619Y-39250952D02*
X228425238Y-39203333D01*
X228520476Y-39155714D01*
X228663333Y-39155714D01*
X228758571Y-39203333D01*
X228806190Y-39298571D01*
X228806190Y-39822380D01*
X229282380Y-39155714D02*
X229282380Y-40155714D01*
X229282380Y-39203333D02*
X229377619Y-39155714D01*
X229568095Y-39155714D01*
X229663333Y-39203333D01*
X229710952Y-39250952D01*
X229758571Y-39346190D01*
X229758571Y-39631904D01*
X229710952Y-39727142D01*
X229663333Y-39774761D01*
X229568095Y-39822380D01*
X229377619Y-39822380D01*
X229282380Y-39774761D01*
X230615714Y-39155714D02*
X230615714Y-39822380D01*
X230187142Y-39155714D02*
X230187142Y-39679523D01*
X230234761Y-39774761D01*
X230330000Y-39822380D01*
X230472857Y-39822380D01*
X230568095Y-39774761D01*
X230615714Y-39727142D01*
X230949047Y-39155714D02*
X231330000Y-39155714D01*
X231091904Y-38822380D02*
X231091904Y-39679523D01*
X231139523Y-39774761D01*
X231234761Y-39822380D01*
X231330000Y-39822380D01*
X224409047Y-49601428D02*
X225170952Y-49601428D01*
X229489047Y-49601428D02*
X230250952Y-49601428D01*
X229870000Y-49982380D02*
X229870000Y-49220476D01*
%TO.C,U2*%
X199898095Y-100552380D02*
X199898095Y-101361904D01*
X199945714Y-101457142D01*
X199993333Y-101504761D01*
X200088571Y-101552380D01*
X200279047Y-101552380D01*
X200374285Y-101504761D01*
X200421904Y-101457142D01*
X200469523Y-101361904D01*
X200469523Y-100552380D01*
X200898095Y-100647619D02*
X200945714Y-100600000D01*
X201040952Y-100552380D01*
X201279047Y-100552380D01*
X201374285Y-100600000D01*
X201421904Y-100647619D01*
X201469523Y-100742857D01*
X201469523Y-100838095D01*
X201421904Y-100980952D01*
X200850476Y-101552380D01*
X201469523Y-101552380D01*
X201430000Y-95305238D02*
X201382380Y-95400476D01*
X201382380Y-95543333D01*
X201430000Y-95686190D01*
X201525238Y-95781428D01*
X201620476Y-95829047D01*
X201810952Y-95876666D01*
X201953809Y-95876666D01*
X202144285Y-95829047D01*
X202239523Y-95781428D01*
X202334761Y-95686190D01*
X202382380Y-95543333D01*
X202382380Y-95448095D01*
X202334761Y-95305238D01*
X202287142Y-95257619D01*
X201953809Y-95257619D01*
X201953809Y-95448095D01*
X202382380Y-94829047D02*
X201382380Y-94829047D01*
X202382380Y-94257619D01*
X201382380Y-94257619D01*
X202382380Y-93781428D02*
X201382380Y-93781428D01*
X201382380Y-93543333D01*
X201430000Y-93400476D01*
X201525238Y-93305238D01*
X201620476Y-93257619D01*
X201810952Y-93210000D01*
X201953809Y-93210000D01*
X202144285Y-93257619D01*
X202239523Y-93305238D01*
X202334761Y-93400476D01*
X202382380Y-93543333D01*
X202382380Y-93781428D01*
X201334761Y-92067142D02*
X202620476Y-92924285D01*
X202096666Y-91781428D02*
X202096666Y-91305238D01*
X202382380Y-91876666D02*
X201382380Y-91543333D01*
X202382380Y-91210000D01*
X202382380Y-90876666D02*
X201382380Y-90876666D01*
X201382380Y-90638571D01*
X201430000Y-90495714D01*
X201525238Y-90400476D01*
X201620476Y-90352857D01*
X201810952Y-90305238D01*
X201953809Y-90305238D01*
X202144285Y-90352857D01*
X202239523Y-90400476D01*
X202334761Y-90495714D01*
X202382380Y-90638571D01*
X202382380Y-90876666D01*
X201382380Y-89590952D02*
X202096666Y-89590952D01*
X202239523Y-89638571D01*
X202334761Y-89733809D01*
X202382380Y-89876666D01*
X202382380Y-89971904D01*
X198842380Y-95741904D02*
X199842380Y-95408571D01*
X198842380Y-95075238D01*
X198842380Y-94551428D02*
X198842380Y-94360952D01*
X198890000Y-94265714D01*
X198985238Y-94170476D01*
X199175714Y-94122857D01*
X199509047Y-94122857D01*
X199699523Y-94170476D01*
X199794761Y-94265714D01*
X199842380Y-94360952D01*
X199842380Y-94551428D01*
X199794761Y-94646666D01*
X199699523Y-94741904D01*
X199509047Y-94789523D01*
X199175714Y-94789523D01*
X198985238Y-94741904D01*
X198890000Y-94646666D01*
X198842380Y-94551428D01*
X198842380Y-93694285D02*
X199651904Y-93694285D01*
X199747142Y-93646666D01*
X199794761Y-93599047D01*
X199842380Y-93503809D01*
X199842380Y-93313333D01*
X199794761Y-93218095D01*
X199747142Y-93170476D01*
X199651904Y-93122857D01*
X198842380Y-93122857D01*
X198842380Y-92789523D02*
X198842380Y-92218095D01*
X199842380Y-92503809D02*
X198842380Y-92503809D01*
X196302380Y-95075238D02*
X197302380Y-94741904D01*
X196302380Y-94408571D01*
X197302380Y-94075238D02*
X196302380Y-94075238D01*
X197302380Y-93599047D02*
X196302380Y-93599047D01*
X197302380Y-93027619D01*
X196302380Y-93027619D01*
%TO.C,sensor_8*%
X191190952Y-135794761D02*
X191286190Y-135842380D01*
X191476666Y-135842380D01*
X191571904Y-135794761D01*
X191619523Y-135699523D01*
X191619523Y-135651904D01*
X191571904Y-135556666D01*
X191476666Y-135509047D01*
X191333809Y-135509047D01*
X191238571Y-135461428D01*
X191190952Y-135366190D01*
X191190952Y-135318571D01*
X191238571Y-135223333D01*
X191333809Y-135175714D01*
X191476666Y-135175714D01*
X191571904Y-135223333D01*
X192429047Y-135794761D02*
X192333809Y-135842380D01*
X192143333Y-135842380D01*
X192048095Y-135794761D01*
X192000476Y-135699523D01*
X192000476Y-135318571D01*
X192048095Y-135223333D01*
X192143333Y-135175714D01*
X192333809Y-135175714D01*
X192429047Y-135223333D01*
X192476666Y-135318571D01*
X192476666Y-135413809D01*
X192000476Y-135509047D01*
X192905238Y-135175714D02*
X192905238Y-135842380D01*
X192905238Y-135270952D02*
X192952857Y-135223333D01*
X193048095Y-135175714D01*
X193190952Y-135175714D01*
X193286190Y-135223333D01*
X193333809Y-135318571D01*
X193333809Y-135842380D01*
X193762380Y-135794761D02*
X193857619Y-135842380D01*
X194048095Y-135842380D01*
X194143333Y-135794761D01*
X194190952Y-135699523D01*
X194190952Y-135651904D01*
X194143333Y-135556666D01*
X194048095Y-135509047D01*
X193905238Y-135509047D01*
X193810000Y-135461428D01*
X193762380Y-135366190D01*
X193762380Y-135318571D01*
X193810000Y-135223333D01*
X193905238Y-135175714D01*
X194048095Y-135175714D01*
X194143333Y-135223333D01*
X194762380Y-135842380D02*
X194667142Y-135794761D01*
X194619523Y-135747142D01*
X194571904Y-135651904D01*
X194571904Y-135366190D01*
X194619523Y-135270952D01*
X194667142Y-135223333D01*
X194762380Y-135175714D01*
X194905238Y-135175714D01*
X195000476Y-135223333D01*
X195048095Y-135270952D01*
X195095714Y-135366190D01*
X195095714Y-135651904D01*
X195048095Y-135747142D01*
X195000476Y-135794761D01*
X194905238Y-135842380D01*
X194762380Y-135842380D01*
X195524285Y-135842380D02*
X195524285Y-135175714D01*
X195524285Y-135366190D02*
X195571904Y-135270952D01*
X195619523Y-135223333D01*
X195714761Y-135175714D01*
X195810000Y-135175714D01*
X195905238Y-135937619D02*
X196667142Y-135937619D01*
X197048095Y-135270952D02*
X196952857Y-135223333D01*
X196905238Y-135175714D01*
X196857619Y-135080476D01*
X196857619Y-135032857D01*
X196905238Y-134937619D01*
X196952857Y-134890000D01*
X197048095Y-134842380D01*
X197238571Y-134842380D01*
X197333809Y-134890000D01*
X197381428Y-134937619D01*
X197429047Y-135032857D01*
X197429047Y-135080476D01*
X197381428Y-135175714D01*
X197333809Y-135223333D01*
X197238571Y-135270952D01*
X197048095Y-135270952D01*
X196952857Y-135318571D01*
X196905238Y-135366190D01*
X196857619Y-135461428D01*
X196857619Y-135651904D01*
X196905238Y-135747142D01*
X196952857Y-135794761D01*
X197048095Y-135842380D01*
X197238571Y-135842380D01*
X197333809Y-135794761D01*
X197381428Y-135747142D01*
X197429047Y-135651904D01*
X197429047Y-135461428D01*
X197381428Y-135366190D01*
X197333809Y-135318571D01*
X197238571Y-135270952D01*
X192174761Y-132000476D02*
X192222380Y-131857619D01*
X192222380Y-131619523D01*
X192174761Y-131524285D01*
X192127142Y-131476666D01*
X192031904Y-131429047D01*
X191936666Y-131429047D01*
X191841428Y-131476666D01*
X191793809Y-131524285D01*
X191746190Y-131619523D01*
X191698571Y-131810000D01*
X191650952Y-131905238D01*
X191603333Y-131952857D01*
X191508095Y-132000476D01*
X191412857Y-132000476D01*
X191317619Y-131952857D01*
X191270000Y-131905238D01*
X191222380Y-131810000D01*
X191222380Y-131571904D01*
X191270000Y-131429047D01*
X192127142Y-130429047D02*
X192174761Y-130476666D01*
X192222380Y-130619523D01*
X192222380Y-130714761D01*
X192174761Y-130857619D01*
X192079523Y-130952857D01*
X191984285Y-131000476D01*
X191793809Y-131048095D01*
X191650952Y-131048095D01*
X191460476Y-131000476D01*
X191365238Y-130952857D01*
X191270000Y-130857619D01*
X191222380Y-130714761D01*
X191222380Y-130619523D01*
X191270000Y-130476666D01*
X191317619Y-130429047D01*
X192222380Y-129524285D02*
X192222380Y-130000476D01*
X191222380Y-130000476D01*
X194714761Y-132024285D02*
X194762380Y-131881428D01*
X194762380Y-131643333D01*
X194714761Y-131548095D01*
X194667142Y-131500476D01*
X194571904Y-131452857D01*
X194476666Y-131452857D01*
X194381428Y-131500476D01*
X194333809Y-131548095D01*
X194286190Y-131643333D01*
X194238571Y-131833809D01*
X194190952Y-131929047D01*
X194143333Y-131976666D01*
X194048095Y-132024285D01*
X193952857Y-132024285D01*
X193857619Y-131976666D01*
X193810000Y-131929047D01*
X193762380Y-131833809D01*
X193762380Y-131595714D01*
X193810000Y-131452857D01*
X194762380Y-131024285D02*
X193762380Y-131024285D01*
X193762380Y-130786190D01*
X193810000Y-130643333D01*
X193905238Y-130548095D01*
X194000476Y-130500476D01*
X194190952Y-130452857D01*
X194333809Y-130452857D01*
X194524285Y-130500476D01*
X194619523Y-130548095D01*
X194714761Y-130643333D01*
X194762380Y-130786190D01*
X194762380Y-131024285D01*
X194476666Y-130071904D02*
X194476666Y-129595714D01*
X194762380Y-130167142D02*
X193762380Y-129833809D01*
X194762380Y-129500476D01*
X196350000Y-131571904D02*
X196302380Y-131667142D01*
X196302380Y-131810000D01*
X196350000Y-131952857D01*
X196445238Y-132048095D01*
X196540476Y-132095714D01*
X196730952Y-132143333D01*
X196873809Y-132143333D01*
X197064285Y-132095714D01*
X197159523Y-132048095D01*
X197254761Y-131952857D01*
X197302380Y-131810000D01*
X197302380Y-131714761D01*
X197254761Y-131571904D01*
X197207142Y-131524285D01*
X196873809Y-131524285D01*
X196873809Y-131714761D01*
X197302380Y-131095714D02*
X196302380Y-131095714D01*
X197302380Y-130524285D01*
X196302380Y-130524285D01*
X197302380Y-130048095D02*
X196302380Y-130048095D01*
X196302380Y-129810000D01*
X196350000Y-129667142D01*
X196445238Y-129571904D01*
X196540476Y-129524285D01*
X196730952Y-129476666D01*
X196873809Y-129476666D01*
X197064285Y-129524285D01*
X197159523Y-129571904D01*
X197254761Y-129667142D01*
X197302380Y-129810000D01*
X197302380Y-130048095D01*
X198842380Y-131905238D02*
X199842380Y-131571904D01*
X198842380Y-131238571D01*
X199842380Y-130905238D02*
X198842380Y-130905238D01*
X199842380Y-130429047D02*
X198842380Y-130429047D01*
X199842380Y-129857619D01*
X198842380Y-129857619D01*
%TO.C,sensor_7*%
X203890952Y-135794761D02*
X203986190Y-135842380D01*
X204176666Y-135842380D01*
X204271904Y-135794761D01*
X204319523Y-135699523D01*
X204319523Y-135651904D01*
X204271904Y-135556666D01*
X204176666Y-135509047D01*
X204033809Y-135509047D01*
X203938571Y-135461428D01*
X203890952Y-135366190D01*
X203890952Y-135318571D01*
X203938571Y-135223333D01*
X204033809Y-135175714D01*
X204176666Y-135175714D01*
X204271904Y-135223333D01*
X205129047Y-135794761D02*
X205033809Y-135842380D01*
X204843333Y-135842380D01*
X204748095Y-135794761D01*
X204700476Y-135699523D01*
X204700476Y-135318571D01*
X204748095Y-135223333D01*
X204843333Y-135175714D01*
X205033809Y-135175714D01*
X205129047Y-135223333D01*
X205176666Y-135318571D01*
X205176666Y-135413809D01*
X204700476Y-135509047D01*
X205605238Y-135175714D02*
X205605238Y-135842380D01*
X205605238Y-135270952D02*
X205652857Y-135223333D01*
X205748095Y-135175714D01*
X205890952Y-135175714D01*
X205986190Y-135223333D01*
X206033809Y-135318571D01*
X206033809Y-135842380D01*
X206462380Y-135794761D02*
X206557619Y-135842380D01*
X206748095Y-135842380D01*
X206843333Y-135794761D01*
X206890952Y-135699523D01*
X206890952Y-135651904D01*
X206843333Y-135556666D01*
X206748095Y-135509047D01*
X206605238Y-135509047D01*
X206510000Y-135461428D01*
X206462380Y-135366190D01*
X206462380Y-135318571D01*
X206510000Y-135223333D01*
X206605238Y-135175714D01*
X206748095Y-135175714D01*
X206843333Y-135223333D01*
X207462380Y-135842380D02*
X207367142Y-135794761D01*
X207319523Y-135747142D01*
X207271904Y-135651904D01*
X207271904Y-135366190D01*
X207319523Y-135270952D01*
X207367142Y-135223333D01*
X207462380Y-135175714D01*
X207605238Y-135175714D01*
X207700476Y-135223333D01*
X207748095Y-135270952D01*
X207795714Y-135366190D01*
X207795714Y-135651904D01*
X207748095Y-135747142D01*
X207700476Y-135794761D01*
X207605238Y-135842380D01*
X207462380Y-135842380D01*
X208224285Y-135842380D02*
X208224285Y-135175714D01*
X208224285Y-135366190D02*
X208271904Y-135270952D01*
X208319523Y-135223333D01*
X208414761Y-135175714D01*
X208510000Y-135175714D01*
X208605238Y-135937619D02*
X209367142Y-135937619D01*
X209510000Y-134842380D02*
X210176666Y-134842380D01*
X209748095Y-135842380D01*
X204874761Y-132000476D02*
X204922380Y-131857619D01*
X204922380Y-131619523D01*
X204874761Y-131524285D01*
X204827142Y-131476666D01*
X204731904Y-131429047D01*
X204636666Y-131429047D01*
X204541428Y-131476666D01*
X204493809Y-131524285D01*
X204446190Y-131619523D01*
X204398571Y-131810000D01*
X204350952Y-131905238D01*
X204303333Y-131952857D01*
X204208095Y-132000476D01*
X204112857Y-132000476D01*
X204017619Y-131952857D01*
X203970000Y-131905238D01*
X203922380Y-131810000D01*
X203922380Y-131571904D01*
X203970000Y-131429047D01*
X204827142Y-130429047D02*
X204874761Y-130476666D01*
X204922380Y-130619523D01*
X204922380Y-130714761D01*
X204874761Y-130857619D01*
X204779523Y-130952857D01*
X204684285Y-131000476D01*
X204493809Y-131048095D01*
X204350952Y-131048095D01*
X204160476Y-131000476D01*
X204065238Y-130952857D01*
X203970000Y-130857619D01*
X203922380Y-130714761D01*
X203922380Y-130619523D01*
X203970000Y-130476666D01*
X204017619Y-130429047D01*
X204922380Y-129524285D02*
X204922380Y-130000476D01*
X203922380Y-130000476D01*
X207414761Y-132024285D02*
X207462380Y-131881428D01*
X207462380Y-131643333D01*
X207414761Y-131548095D01*
X207367142Y-131500476D01*
X207271904Y-131452857D01*
X207176666Y-131452857D01*
X207081428Y-131500476D01*
X207033809Y-131548095D01*
X206986190Y-131643333D01*
X206938571Y-131833809D01*
X206890952Y-131929047D01*
X206843333Y-131976666D01*
X206748095Y-132024285D01*
X206652857Y-132024285D01*
X206557619Y-131976666D01*
X206510000Y-131929047D01*
X206462380Y-131833809D01*
X206462380Y-131595714D01*
X206510000Y-131452857D01*
X207462380Y-131024285D02*
X206462380Y-131024285D01*
X206462380Y-130786190D01*
X206510000Y-130643333D01*
X206605238Y-130548095D01*
X206700476Y-130500476D01*
X206890952Y-130452857D01*
X207033809Y-130452857D01*
X207224285Y-130500476D01*
X207319523Y-130548095D01*
X207414761Y-130643333D01*
X207462380Y-130786190D01*
X207462380Y-131024285D01*
X207176666Y-130071904D02*
X207176666Y-129595714D01*
X207462380Y-130167142D02*
X206462380Y-129833809D01*
X207462380Y-129500476D01*
X209050000Y-131571904D02*
X209002380Y-131667142D01*
X209002380Y-131810000D01*
X209050000Y-131952857D01*
X209145238Y-132048095D01*
X209240476Y-132095714D01*
X209430952Y-132143333D01*
X209573809Y-132143333D01*
X209764285Y-132095714D01*
X209859523Y-132048095D01*
X209954761Y-131952857D01*
X210002380Y-131810000D01*
X210002380Y-131714761D01*
X209954761Y-131571904D01*
X209907142Y-131524285D01*
X209573809Y-131524285D01*
X209573809Y-131714761D01*
X210002380Y-131095714D02*
X209002380Y-131095714D01*
X210002380Y-130524285D01*
X209002380Y-130524285D01*
X210002380Y-130048095D02*
X209002380Y-130048095D01*
X209002380Y-129810000D01*
X209050000Y-129667142D01*
X209145238Y-129571904D01*
X209240476Y-129524285D01*
X209430952Y-129476666D01*
X209573809Y-129476666D01*
X209764285Y-129524285D01*
X209859523Y-129571904D01*
X209954761Y-129667142D01*
X210002380Y-129810000D01*
X210002380Y-130048095D01*
X211542380Y-131905238D02*
X212542380Y-131571904D01*
X211542380Y-131238571D01*
X212542380Y-130905238D02*
X211542380Y-130905238D01*
X212542380Y-130429047D02*
X211542380Y-130429047D01*
X212542380Y-129857619D01*
X211542380Y-129857619D01*
%TO.C,sensor_6*%
X241990952Y-135794761D02*
X242086190Y-135842380D01*
X242276666Y-135842380D01*
X242371904Y-135794761D01*
X242419523Y-135699523D01*
X242419523Y-135651904D01*
X242371904Y-135556666D01*
X242276666Y-135509047D01*
X242133809Y-135509047D01*
X242038571Y-135461428D01*
X241990952Y-135366190D01*
X241990952Y-135318571D01*
X242038571Y-135223333D01*
X242133809Y-135175714D01*
X242276666Y-135175714D01*
X242371904Y-135223333D01*
X243229047Y-135794761D02*
X243133809Y-135842380D01*
X242943333Y-135842380D01*
X242848095Y-135794761D01*
X242800476Y-135699523D01*
X242800476Y-135318571D01*
X242848095Y-135223333D01*
X242943333Y-135175714D01*
X243133809Y-135175714D01*
X243229047Y-135223333D01*
X243276666Y-135318571D01*
X243276666Y-135413809D01*
X242800476Y-135509047D01*
X243705238Y-135175714D02*
X243705238Y-135842380D01*
X243705238Y-135270952D02*
X243752857Y-135223333D01*
X243848095Y-135175714D01*
X243990952Y-135175714D01*
X244086190Y-135223333D01*
X244133809Y-135318571D01*
X244133809Y-135842380D01*
X244562380Y-135794761D02*
X244657619Y-135842380D01*
X244848095Y-135842380D01*
X244943333Y-135794761D01*
X244990952Y-135699523D01*
X244990952Y-135651904D01*
X244943333Y-135556666D01*
X244848095Y-135509047D01*
X244705238Y-135509047D01*
X244610000Y-135461428D01*
X244562380Y-135366190D01*
X244562380Y-135318571D01*
X244610000Y-135223333D01*
X244705238Y-135175714D01*
X244848095Y-135175714D01*
X244943333Y-135223333D01*
X245562380Y-135842380D02*
X245467142Y-135794761D01*
X245419523Y-135747142D01*
X245371904Y-135651904D01*
X245371904Y-135366190D01*
X245419523Y-135270952D01*
X245467142Y-135223333D01*
X245562380Y-135175714D01*
X245705238Y-135175714D01*
X245800476Y-135223333D01*
X245848095Y-135270952D01*
X245895714Y-135366190D01*
X245895714Y-135651904D01*
X245848095Y-135747142D01*
X245800476Y-135794761D01*
X245705238Y-135842380D01*
X245562380Y-135842380D01*
X246324285Y-135842380D02*
X246324285Y-135175714D01*
X246324285Y-135366190D02*
X246371904Y-135270952D01*
X246419523Y-135223333D01*
X246514761Y-135175714D01*
X246610000Y-135175714D01*
X246705238Y-135937619D02*
X247467142Y-135937619D01*
X248133809Y-134842380D02*
X247943333Y-134842380D01*
X247848095Y-134890000D01*
X247800476Y-134937619D01*
X247705238Y-135080476D01*
X247657619Y-135270952D01*
X247657619Y-135651904D01*
X247705238Y-135747142D01*
X247752857Y-135794761D01*
X247848095Y-135842380D01*
X248038571Y-135842380D01*
X248133809Y-135794761D01*
X248181428Y-135747142D01*
X248229047Y-135651904D01*
X248229047Y-135413809D01*
X248181428Y-135318571D01*
X248133809Y-135270952D01*
X248038571Y-135223333D01*
X247848095Y-135223333D01*
X247752857Y-135270952D01*
X247705238Y-135318571D01*
X247657619Y-135413809D01*
X242974761Y-132000476D02*
X243022380Y-131857619D01*
X243022380Y-131619523D01*
X242974761Y-131524285D01*
X242927142Y-131476666D01*
X242831904Y-131429047D01*
X242736666Y-131429047D01*
X242641428Y-131476666D01*
X242593809Y-131524285D01*
X242546190Y-131619523D01*
X242498571Y-131810000D01*
X242450952Y-131905238D01*
X242403333Y-131952857D01*
X242308095Y-132000476D01*
X242212857Y-132000476D01*
X242117619Y-131952857D01*
X242070000Y-131905238D01*
X242022380Y-131810000D01*
X242022380Y-131571904D01*
X242070000Y-131429047D01*
X242927142Y-130429047D02*
X242974761Y-130476666D01*
X243022380Y-130619523D01*
X243022380Y-130714761D01*
X242974761Y-130857619D01*
X242879523Y-130952857D01*
X242784285Y-131000476D01*
X242593809Y-131048095D01*
X242450952Y-131048095D01*
X242260476Y-131000476D01*
X242165238Y-130952857D01*
X242070000Y-130857619D01*
X242022380Y-130714761D01*
X242022380Y-130619523D01*
X242070000Y-130476666D01*
X242117619Y-130429047D01*
X243022380Y-129524285D02*
X243022380Y-130000476D01*
X242022380Y-130000476D01*
X245514761Y-132024285D02*
X245562380Y-131881428D01*
X245562380Y-131643333D01*
X245514761Y-131548095D01*
X245467142Y-131500476D01*
X245371904Y-131452857D01*
X245276666Y-131452857D01*
X245181428Y-131500476D01*
X245133809Y-131548095D01*
X245086190Y-131643333D01*
X245038571Y-131833809D01*
X244990952Y-131929047D01*
X244943333Y-131976666D01*
X244848095Y-132024285D01*
X244752857Y-132024285D01*
X244657619Y-131976666D01*
X244610000Y-131929047D01*
X244562380Y-131833809D01*
X244562380Y-131595714D01*
X244610000Y-131452857D01*
X245562380Y-131024285D02*
X244562380Y-131024285D01*
X244562380Y-130786190D01*
X244610000Y-130643333D01*
X244705238Y-130548095D01*
X244800476Y-130500476D01*
X244990952Y-130452857D01*
X245133809Y-130452857D01*
X245324285Y-130500476D01*
X245419523Y-130548095D01*
X245514761Y-130643333D01*
X245562380Y-130786190D01*
X245562380Y-131024285D01*
X245276666Y-130071904D02*
X245276666Y-129595714D01*
X245562380Y-130167142D02*
X244562380Y-129833809D01*
X245562380Y-129500476D01*
X247150000Y-131571904D02*
X247102380Y-131667142D01*
X247102380Y-131810000D01*
X247150000Y-131952857D01*
X247245238Y-132048095D01*
X247340476Y-132095714D01*
X247530952Y-132143333D01*
X247673809Y-132143333D01*
X247864285Y-132095714D01*
X247959523Y-132048095D01*
X248054761Y-131952857D01*
X248102380Y-131810000D01*
X248102380Y-131714761D01*
X248054761Y-131571904D01*
X248007142Y-131524285D01*
X247673809Y-131524285D01*
X247673809Y-131714761D01*
X248102380Y-131095714D02*
X247102380Y-131095714D01*
X248102380Y-130524285D01*
X247102380Y-130524285D01*
X248102380Y-130048095D02*
X247102380Y-130048095D01*
X247102380Y-129810000D01*
X247150000Y-129667142D01*
X247245238Y-129571904D01*
X247340476Y-129524285D01*
X247530952Y-129476666D01*
X247673809Y-129476666D01*
X247864285Y-129524285D01*
X247959523Y-129571904D01*
X248054761Y-129667142D01*
X248102380Y-129810000D01*
X248102380Y-130048095D01*
X249642380Y-131905238D02*
X250642380Y-131571904D01*
X249642380Y-131238571D01*
X250642380Y-130905238D02*
X249642380Y-130905238D01*
X250642380Y-130429047D02*
X249642380Y-130429047D01*
X250642380Y-129857619D01*
X249642380Y-129857619D01*
%TO.C,sensor_5*%
X254690952Y-135794761D02*
X254786190Y-135842380D01*
X254976666Y-135842380D01*
X255071904Y-135794761D01*
X255119523Y-135699523D01*
X255119523Y-135651904D01*
X255071904Y-135556666D01*
X254976666Y-135509047D01*
X254833809Y-135509047D01*
X254738571Y-135461428D01*
X254690952Y-135366190D01*
X254690952Y-135318571D01*
X254738571Y-135223333D01*
X254833809Y-135175714D01*
X254976666Y-135175714D01*
X255071904Y-135223333D01*
X255929047Y-135794761D02*
X255833809Y-135842380D01*
X255643333Y-135842380D01*
X255548095Y-135794761D01*
X255500476Y-135699523D01*
X255500476Y-135318571D01*
X255548095Y-135223333D01*
X255643333Y-135175714D01*
X255833809Y-135175714D01*
X255929047Y-135223333D01*
X255976666Y-135318571D01*
X255976666Y-135413809D01*
X255500476Y-135509047D01*
X256405238Y-135175714D02*
X256405238Y-135842380D01*
X256405238Y-135270952D02*
X256452857Y-135223333D01*
X256548095Y-135175714D01*
X256690952Y-135175714D01*
X256786190Y-135223333D01*
X256833809Y-135318571D01*
X256833809Y-135842380D01*
X257262380Y-135794761D02*
X257357619Y-135842380D01*
X257548095Y-135842380D01*
X257643333Y-135794761D01*
X257690952Y-135699523D01*
X257690952Y-135651904D01*
X257643333Y-135556666D01*
X257548095Y-135509047D01*
X257405238Y-135509047D01*
X257310000Y-135461428D01*
X257262380Y-135366190D01*
X257262380Y-135318571D01*
X257310000Y-135223333D01*
X257405238Y-135175714D01*
X257548095Y-135175714D01*
X257643333Y-135223333D01*
X258262380Y-135842380D02*
X258167142Y-135794761D01*
X258119523Y-135747142D01*
X258071904Y-135651904D01*
X258071904Y-135366190D01*
X258119523Y-135270952D01*
X258167142Y-135223333D01*
X258262380Y-135175714D01*
X258405238Y-135175714D01*
X258500476Y-135223333D01*
X258548095Y-135270952D01*
X258595714Y-135366190D01*
X258595714Y-135651904D01*
X258548095Y-135747142D01*
X258500476Y-135794761D01*
X258405238Y-135842380D01*
X258262380Y-135842380D01*
X259024285Y-135842380D02*
X259024285Y-135175714D01*
X259024285Y-135366190D02*
X259071904Y-135270952D01*
X259119523Y-135223333D01*
X259214761Y-135175714D01*
X259310000Y-135175714D01*
X259405238Y-135937619D02*
X260167142Y-135937619D01*
X260881428Y-134842380D02*
X260405238Y-134842380D01*
X260357619Y-135318571D01*
X260405238Y-135270952D01*
X260500476Y-135223333D01*
X260738571Y-135223333D01*
X260833809Y-135270952D01*
X260881428Y-135318571D01*
X260929047Y-135413809D01*
X260929047Y-135651904D01*
X260881428Y-135747142D01*
X260833809Y-135794761D01*
X260738571Y-135842380D01*
X260500476Y-135842380D01*
X260405238Y-135794761D01*
X260357619Y-135747142D01*
X255674761Y-132000476D02*
X255722380Y-131857619D01*
X255722380Y-131619523D01*
X255674761Y-131524285D01*
X255627142Y-131476666D01*
X255531904Y-131429047D01*
X255436666Y-131429047D01*
X255341428Y-131476666D01*
X255293809Y-131524285D01*
X255246190Y-131619523D01*
X255198571Y-131810000D01*
X255150952Y-131905238D01*
X255103333Y-131952857D01*
X255008095Y-132000476D01*
X254912857Y-132000476D01*
X254817619Y-131952857D01*
X254770000Y-131905238D01*
X254722380Y-131810000D01*
X254722380Y-131571904D01*
X254770000Y-131429047D01*
X255627142Y-130429047D02*
X255674761Y-130476666D01*
X255722380Y-130619523D01*
X255722380Y-130714761D01*
X255674761Y-130857619D01*
X255579523Y-130952857D01*
X255484285Y-131000476D01*
X255293809Y-131048095D01*
X255150952Y-131048095D01*
X254960476Y-131000476D01*
X254865238Y-130952857D01*
X254770000Y-130857619D01*
X254722380Y-130714761D01*
X254722380Y-130619523D01*
X254770000Y-130476666D01*
X254817619Y-130429047D01*
X255722380Y-129524285D02*
X255722380Y-130000476D01*
X254722380Y-130000476D01*
X258214761Y-132024285D02*
X258262380Y-131881428D01*
X258262380Y-131643333D01*
X258214761Y-131548095D01*
X258167142Y-131500476D01*
X258071904Y-131452857D01*
X257976666Y-131452857D01*
X257881428Y-131500476D01*
X257833809Y-131548095D01*
X257786190Y-131643333D01*
X257738571Y-131833809D01*
X257690952Y-131929047D01*
X257643333Y-131976666D01*
X257548095Y-132024285D01*
X257452857Y-132024285D01*
X257357619Y-131976666D01*
X257310000Y-131929047D01*
X257262380Y-131833809D01*
X257262380Y-131595714D01*
X257310000Y-131452857D01*
X258262380Y-131024285D02*
X257262380Y-131024285D01*
X257262380Y-130786190D01*
X257310000Y-130643333D01*
X257405238Y-130548095D01*
X257500476Y-130500476D01*
X257690952Y-130452857D01*
X257833809Y-130452857D01*
X258024285Y-130500476D01*
X258119523Y-130548095D01*
X258214761Y-130643333D01*
X258262380Y-130786190D01*
X258262380Y-131024285D01*
X257976666Y-130071904D02*
X257976666Y-129595714D01*
X258262380Y-130167142D02*
X257262380Y-129833809D01*
X258262380Y-129500476D01*
X259850000Y-131571904D02*
X259802380Y-131667142D01*
X259802380Y-131810000D01*
X259850000Y-131952857D01*
X259945238Y-132048095D01*
X260040476Y-132095714D01*
X260230952Y-132143333D01*
X260373809Y-132143333D01*
X260564285Y-132095714D01*
X260659523Y-132048095D01*
X260754761Y-131952857D01*
X260802380Y-131810000D01*
X260802380Y-131714761D01*
X260754761Y-131571904D01*
X260707142Y-131524285D01*
X260373809Y-131524285D01*
X260373809Y-131714761D01*
X260802380Y-131095714D02*
X259802380Y-131095714D01*
X260802380Y-130524285D01*
X259802380Y-130524285D01*
X260802380Y-130048095D02*
X259802380Y-130048095D01*
X259802380Y-129810000D01*
X259850000Y-129667142D01*
X259945238Y-129571904D01*
X260040476Y-129524285D01*
X260230952Y-129476666D01*
X260373809Y-129476666D01*
X260564285Y-129524285D01*
X260659523Y-129571904D01*
X260754761Y-129667142D01*
X260802380Y-129810000D01*
X260802380Y-130048095D01*
X262342380Y-131905238D02*
X263342380Y-131571904D01*
X262342380Y-131238571D01*
X263342380Y-130905238D02*
X262342380Y-130905238D01*
X263342380Y-130429047D02*
X262342380Y-130429047D01*
X263342380Y-129857619D01*
X262342380Y-129857619D01*
%TO.C,sensor_4*%
X275649761Y-99639047D02*
X275697380Y-99543809D01*
X275697380Y-99353333D01*
X275649761Y-99258095D01*
X275554523Y-99210476D01*
X275506904Y-99210476D01*
X275411666Y-99258095D01*
X275364047Y-99353333D01*
X275364047Y-99496190D01*
X275316428Y-99591428D01*
X275221190Y-99639047D01*
X275173571Y-99639047D01*
X275078333Y-99591428D01*
X275030714Y-99496190D01*
X275030714Y-99353333D01*
X275078333Y-99258095D01*
X275649761Y-98400952D02*
X275697380Y-98496190D01*
X275697380Y-98686666D01*
X275649761Y-98781904D01*
X275554523Y-98829523D01*
X275173571Y-98829523D01*
X275078333Y-98781904D01*
X275030714Y-98686666D01*
X275030714Y-98496190D01*
X275078333Y-98400952D01*
X275173571Y-98353333D01*
X275268809Y-98353333D01*
X275364047Y-98829523D01*
X275030714Y-97924761D02*
X275697380Y-97924761D01*
X275125952Y-97924761D02*
X275078333Y-97877142D01*
X275030714Y-97781904D01*
X275030714Y-97639047D01*
X275078333Y-97543809D01*
X275173571Y-97496190D01*
X275697380Y-97496190D01*
X275649761Y-97067619D02*
X275697380Y-96972380D01*
X275697380Y-96781904D01*
X275649761Y-96686666D01*
X275554523Y-96639047D01*
X275506904Y-96639047D01*
X275411666Y-96686666D01*
X275364047Y-96781904D01*
X275364047Y-96924761D01*
X275316428Y-97020000D01*
X275221190Y-97067619D01*
X275173571Y-97067619D01*
X275078333Y-97020000D01*
X275030714Y-96924761D01*
X275030714Y-96781904D01*
X275078333Y-96686666D01*
X275697380Y-96067619D02*
X275649761Y-96162857D01*
X275602142Y-96210476D01*
X275506904Y-96258095D01*
X275221190Y-96258095D01*
X275125952Y-96210476D01*
X275078333Y-96162857D01*
X275030714Y-96067619D01*
X275030714Y-95924761D01*
X275078333Y-95829523D01*
X275125952Y-95781904D01*
X275221190Y-95734285D01*
X275506904Y-95734285D01*
X275602142Y-95781904D01*
X275649761Y-95829523D01*
X275697380Y-95924761D01*
X275697380Y-96067619D01*
X275697380Y-95305714D02*
X275030714Y-95305714D01*
X275221190Y-95305714D02*
X275125952Y-95258095D01*
X275078333Y-95210476D01*
X275030714Y-95115238D01*
X275030714Y-95020000D01*
X275792619Y-94924761D02*
X275792619Y-94162857D01*
X275030714Y-93496190D02*
X275697380Y-93496190D01*
X274649761Y-93734285D02*
X275364047Y-93972380D01*
X275364047Y-93353333D01*
X269474523Y-99464761D02*
X269617380Y-99512380D01*
X269855476Y-99512380D01*
X269950714Y-99464761D01*
X269998333Y-99417142D01*
X270045952Y-99321904D01*
X270045952Y-99226666D01*
X269998333Y-99131428D01*
X269950714Y-99083809D01*
X269855476Y-99036190D01*
X269665000Y-98988571D01*
X269569761Y-98940952D01*
X269522142Y-98893333D01*
X269474523Y-98798095D01*
X269474523Y-98702857D01*
X269522142Y-98607619D01*
X269569761Y-98560000D01*
X269665000Y-98512380D01*
X269903095Y-98512380D01*
X270045952Y-98560000D01*
X271045952Y-99417142D02*
X270998333Y-99464761D01*
X270855476Y-99512380D01*
X270760238Y-99512380D01*
X270617380Y-99464761D01*
X270522142Y-99369523D01*
X270474523Y-99274285D01*
X270426904Y-99083809D01*
X270426904Y-98940952D01*
X270474523Y-98750476D01*
X270522142Y-98655238D01*
X270617380Y-98560000D01*
X270760238Y-98512380D01*
X270855476Y-98512380D01*
X270998333Y-98560000D01*
X271045952Y-98607619D01*
X271950714Y-99512380D02*
X271474523Y-99512380D01*
X271474523Y-98512380D01*
X269450714Y-96924761D02*
X269593571Y-96972380D01*
X269831666Y-96972380D01*
X269926904Y-96924761D01*
X269974523Y-96877142D01*
X270022142Y-96781904D01*
X270022142Y-96686666D01*
X269974523Y-96591428D01*
X269926904Y-96543809D01*
X269831666Y-96496190D01*
X269641190Y-96448571D01*
X269545952Y-96400952D01*
X269498333Y-96353333D01*
X269450714Y-96258095D01*
X269450714Y-96162857D01*
X269498333Y-96067619D01*
X269545952Y-96020000D01*
X269641190Y-95972380D01*
X269879285Y-95972380D01*
X270022142Y-96020000D01*
X270450714Y-96972380D02*
X270450714Y-95972380D01*
X270688809Y-95972380D01*
X270831666Y-96020000D01*
X270926904Y-96115238D01*
X270974523Y-96210476D01*
X271022142Y-96400952D01*
X271022142Y-96543809D01*
X270974523Y-96734285D01*
X270926904Y-96829523D01*
X270831666Y-96924761D01*
X270688809Y-96972380D01*
X270450714Y-96972380D01*
X271403095Y-96686666D02*
X271879285Y-96686666D01*
X271307857Y-96972380D02*
X271641190Y-95972380D01*
X271974523Y-96972380D01*
X269903095Y-93480000D02*
X269807857Y-93432380D01*
X269665000Y-93432380D01*
X269522142Y-93480000D01*
X269426904Y-93575238D01*
X269379285Y-93670476D01*
X269331666Y-93860952D01*
X269331666Y-94003809D01*
X269379285Y-94194285D01*
X269426904Y-94289523D01*
X269522142Y-94384761D01*
X269665000Y-94432380D01*
X269760238Y-94432380D01*
X269903095Y-94384761D01*
X269950714Y-94337142D01*
X269950714Y-94003809D01*
X269760238Y-94003809D01*
X270379285Y-94432380D02*
X270379285Y-93432380D01*
X270950714Y-94432380D01*
X270950714Y-93432380D01*
X271426904Y-94432380D02*
X271426904Y-93432380D01*
X271665000Y-93432380D01*
X271807857Y-93480000D01*
X271903095Y-93575238D01*
X271950714Y-93670476D01*
X271998333Y-93860952D01*
X271998333Y-94003809D01*
X271950714Y-94194285D01*
X271903095Y-94289523D01*
X271807857Y-94384761D01*
X271665000Y-94432380D01*
X271426904Y-94432380D01*
X269569761Y-90892380D02*
X269903095Y-91892380D01*
X270236428Y-90892380D01*
X270569761Y-91892380D02*
X270569761Y-90892380D01*
X271045952Y-91892380D02*
X271045952Y-90892380D01*
X271617380Y-91892380D01*
X271617380Y-90892380D01*
%TO.C,sensor_3*%
X275649761Y-83129047D02*
X275697380Y-83033809D01*
X275697380Y-82843333D01*
X275649761Y-82748095D01*
X275554523Y-82700476D01*
X275506904Y-82700476D01*
X275411666Y-82748095D01*
X275364047Y-82843333D01*
X275364047Y-82986190D01*
X275316428Y-83081428D01*
X275221190Y-83129047D01*
X275173571Y-83129047D01*
X275078333Y-83081428D01*
X275030714Y-82986190D01*
X275030714Y-82843333D01*
X275078333Y-82748095D01*
X275649761Y-81890952D02*
X275697380Y-81986190D01*
X275697380Y-82176666D01*
X275649761Y-82271904D01*
X275554523Y-82319523D01*
X275173571Y-82319523D01*
X275078333Y-82271904D01*
X275030714Y-82176666D01*
X275030714Y-81986190D01*
X275078333Y-81890952D01*
X275173571Y-81843333D01*
X275268809Y-81843333D01*
X275364047Y-82319523D01*
X275030714Y-81414761D02*
X275697380Y-81414761D01*
X275125952Y-81414761D02*
X275078333Y-81367142D01*
X275030714Y-81271904D01*
X275030714Y-81129047D01*
X275078333Y-81033809D01*
X275173571Y-80986190D01*
X275697380Y-80986190D01*
X275649761Y-80557619D02*
X275697380Y-80462380D01*
X275697380Y-80271904D01*
X275649761Y-80176666D01*
X275554523Y-80129047D01*
X275506904Y-80129047D01*
X275411666Y-80176666D01*
X275364047Y-80271904D01*
X275364047Y-80414761D01*
X275316428Y-80510000D01*
X275221190Y-80557619D01*
X275173571Y-80557619D01*
X275078333Y-80510000D01*
X275030714Y-80414761D01*
X275030714Y-80271904D01*
X275078333Y-80176666D01*
X275697380Y-79557619D02*
X275649761Y-79652857D01*
X275602142Y-79700476D01*
X275506904Y-79748095D01*
X275221190Y-79748095D01*
X275125952Y-79700476D01*
X275078333Y-79652857D01*
X275030714Y-79557619D01*
X275030714Y-79414761D01*
X275078333Y-79319523D01*
X275125952Y-79271904D01*
X275221190Y-79224285D01*
X275506904Y-79224285D01*
X275602142Y-79271904D01*
X275649761Y-79319523D01*
X275697380Y-79414761D01*
X275697380Y-79557619D01*
X275697380Y-78795714D02*
X275030714Y-78795714D01*
X275221190Y-78795714D02*
X275125952Y-78748095D01*
X275078333Y-78700476D01*
X275030714Y-78605238D01*
X275030714Y-78510000D01*
X275792619Y-78414761D02*
X275792619Y-77652857D01*
X274697380Y-77510000D02*
X274697380Y-76890952D01*
X275078333Y-77224285D01*
X275078333Y-77081428D01*
X275125952Y-76986190D01*
X275173571Y-76938571D01*
X275268809Y-76890952D01*
X275506904Y-76890952D01*
X275602142Y-76938571D01*
X275649761Y-76986190D01*
X275697380Y-77081428D01*
X275697380Y-77367142D01*
X275649761Y-77462380D01*
X275602142Y-77510000D01*
X269474523Y-82954761D02*
X269617380Y-83002380D01*
X269855476Y-83002380D01*
X269950714Y-82954761D01*
X269998333Y-82907142D01*
X270045952Y-82811904D01*
X270045952Y-82716666D01*
X269998333Y-82621428D01*
X269950714Y-82573809D01*
X269855476Y-82526190D01*
X269665000Y-82478571D01*
X269569761Y-82430952D01*
X269522142Y-82383333D01*
X269474523Y-82288095D01*
X269474523Y-82192857D01*
X269522142Y-82097619D01*
X269569761Y-82050000D01*
X269665000Y-82002380D01*
X269903095Y-82002380D01*
X270045952Y-82050000D01*
X271045952Y-82907142D02*
X270998333Y-82954761D01*
X270855476Y-83002380D01*
X270760238Y-83002380D01*
X270617380Y-82954761D01*
X270522142Y-82859523D01*
X270474523Y-82764285D01*
X270426904Y-82573809D01*
X270426904Y-82430952D01*
X270474523Y-82240476D01*
X270522142Y-82145238D01*
X270617380Y-82050000D01*
X270760238Y-82002380D01*
X270855476Y-82002380D01*
X270998333Y-82050000D01*
X271045952Y-82097619D01*
X271950714Y-83002380D02*
X271474523Y-83002380D01*
X271474523Y-82002380D01*
X269450714Y-80414761D02*
X269593571Y-80462380D01*
X269831666Y-80462380D01*
X269926904Y-80414761D01*
X269974523Y-80367142D01*
X270022142Y-80271904D01*
X270022142Y-80176666D01*
X269974523Y-80081428D01*
X269926904Y-80033809D01*
X269831666Y-79986190D01*
X269641190Y-79938571D01*
X269545952Y-79890952D01*
X269498333Y-79843333D01*
X269450714Y-79748095D01*
X269450714Y-79652857D01*
X269498333Y-79557619D01*
X269545952Y-79510000D01*
X269641190Y-79462380D01*
X269879285Y-79462380D01*
X270022142Y-79510000D01*
X270450714Y-80462380D02*
X270450714Y-79462380D01*
X270688809Y-79462380D01*
X270831666Y-79510000D01*
X270926904Y-79605238D01*
X270974523Y-79700476D01*
X271022142Y-79890952D01*
X271022142Y-80033809D01*
X270974523Y-80224285D01*
X270926904Y-80319523D01*
X270831666Y-80414761D01*
X270688809Y-80462380D01*
X270450714Y-80462380D01*
X271403095Y-80176666D02*
X271879285Y-80176666D01*
X271307857Y-80462380D02*
X271641190Y-79462380D01*
X271974523Y-80462380D01*
X269903095Y-76970000D02*
X269807857Y-76922380D01*
X269665000Y-76922380D01*
X269522142Y-76970000D01*
X269426904Y-77065238D01*
X269379285Y-77160476D01*
X269331666Y-77350952D01*
X269331666Y-77493809D01*
X269379285Y-77684285D01*
X269426904Y-77779523D01*
X269522142Y-77874761D01*
X269665000Y-77922380D01*
X269760238Y-77922380D01*
X269903095Y-77874761D01*
X269950714Y-77827142D01*
X269950714Y-77493809D01*
X269760238Y-77493809D01*
X270379285Y-77922380D02*
X270379285Y-76922380D01*
X270950714Y-77922380D01*
X270950714Y-76922380D01*
X271426904Y-77922380D02*
X271426904Y-76922380D01*
X271665000Y-76922380D01*
X271807857Y-76970000D01*
X271903095Y-77065238D01*
X271950714Y-77160476D01*
X271998333Y-77350952D01*
X271998333Y-77493809D01*
X271950714Y-77684285D01*
X271903095Y-77779523D01*
X271807857Y-77874761D01*
X271665000Y-77922380D01*
X271426904Y-77922380D01*
X269569761Y-74382380D02*
X269903095Y-75382380D01*
X270236428Y-74382380D01*
X270569761Y-75382380D02*
X270569761Y-74382380D01*
X271045952Y-75382380D02*
X271045952Y-74382380D01*
X271617380Y-75382380D01*
X271617380Y-74382380D01*
%TO.C,sensor_2*%
X179819761Y-80589047D02*
X179867380Y-80493809D01*
X179867380Y-80303333D01*
X179819761Y-80208095D01*
X179724523Y-80160476D01*
X179676904Y-80160476D01*
X179581666Y-80208095D01*
X179534047Y-80303333D01*
X179534047Y-80446190D01*
X179486428Y-80541428D01*
X179391190Y-80589047D01*
X179343571Y-80589047D01*
X179248333Y-80541428D01*
X179200714Y-80446190D01*
X179200714Y-80303333D01*
X179248333Y-80208095D01*
X179819761Y-79350952D02*
X179867380Y-79446190D01*
X179867380Y-79636666D01*
X179819761Y-79731904D01*
X179724523Y-79779523D01*
X179343571Y-79779523D01*
X179248333Y-79731904D01*
X179200714Y-79636666D01*
X179200714Y-79446190D01*
X179248333Y-79350952D01*
X179343571Y-79303333D01*
X179438809Y-79303333D01*
X179534047Y-79779523D01*
X179200714Y-78874761D02*
X179867380Y-78874761D01*
X179295952Y-78874761D02*
X179248333Y-78827142D01*
X179200714Y-78731904D01*
X179200714Y-78589047D01*
X179248333Y-78493809D01*
X179343571Y-78446190D01*
X179867380Y-78446190D01*
X179819761Y-78017619D02*
X179867380Y-77922380D01*
X179867380Y-77731904D01*
X179819761Y-77636666D01*
X179724523Y-77589047D01*
X179676904Y-77589047D01*
X179581666Y-77636666D01*
X179534047Y-77731904D01*
X179534047Y-77874761D01*
X179486428Y-77970000D01*
X179391190Y-78017619D01*
X179343571Y-78017619D01*
X179248333Y-77970000D01*
X179200714Y-77874761D01*
X179200714Y-77731904D01*
X179248333Y-77636666D01*
X179867380Y-77017619D02*
X179819761Y-77112857D01*
X179772142Y-77160476D01*
X179676904Y-77208095D01*
X179391190Y-77208095D01*
X179295952Y-77160476D01*
X179248333Y-77112857D01*
X179200714Y-77017619D01*
X179200714Y-76874761D01*
X179248333Y-76779523D01*
X179295952Y-76731904D01*
X179391190Y-76684285D01*
X179676904Y-76684285D01*
X179772142Y-76731904D01*
X179819761Y-76779523D01*
X179867380Y-76874761D01*
X179867380Y-77017619D01*
X179867380Y-76255714D02*
X179200714Y-76255714D01*
X179391190Y-76255714D02*
X179295952Y-76208095D01*
X179248333Y-76160476D01*
X179200714Y-76065238D01*
X179200714Y-75970000D01*
X179962619Y-75874761D02*
X179962619Y-75112857D01*
X178962619Y-74922380D02*
X178915000Y-74874761D01*
X178867380Y-74779523D01*
X178867380Y-74541428D01*
X178915000Y-74446190D01*
X178962619Y-74398571D01*
X179057857Y-74350952D01*
X179153095Y-74350952D01*
X179295952Y-74398571D01*
X179867380Y-74970000D01*
X179867380Y-74350952D01*
X182804523Y-75334761D02*
X182947380Y-75382380D01*
X183185476Y-75382380D01*
X183280714Y-75334761D01*
X183328333Y-75287142D01*
X183375952Y-75191904D01*
X183375952Y-75096666D01*
X183328333Y-75001428D01*
X183280714Y-74953809D01*
X183185476Y-74906190D01*
X182995000Y-74858571D01*
X182899761Y-74810952D01*
X182852142Y-74763333D01*
X182804523Y-74668095D01*
X182804523Y-74572857D01*
X182852142Y-74477619D01*
X182899761Y-74430000D01*
X182995000Y-74382380D01*
X183233095Y-74382380D01*
X183375952Y-74430000D01*
X184375952Y-75287142D02*
X184328333Y-75334761D01*
X184185476Y-75382380D01*
X184090238Y-75382380D01*
X183947380Y-75334761D01*
X183852142Y-75239523D01*
X183804523Y-75144285D01*
X183756904Y-74953809D01*
X183756904Y-74810952D01*
X183804523Y-74620476D01*
X183852142Y-74525238D01*
X183947380Y-74430000D01*
X184090238Y-74382380D01*
X184185476Y-74382380D01*
X184328333Y-74430000D01*
X184375952Y-74477619D01*
X185280714Y-75382380D02*
X184804523Y-75382380D01*
X184804523Y-74382380D01*
X182780714Y-77874761D02*
X182923571Y-77922380D01*
X183161666Y-77922380D01*
X183256904Y-77874761D01*
X183304523Y-77827142D01*
X183352142Y-77731904D01*
X183352142Y-77636666D01*
X183304523Y-77541428D01*
X183256904Y-77493809D01*
X183161666Y-77446190D01*
X182971190Y-77398571D01*
X182875952Y-77350952D01*
X182828333Y-77303333D01*
X182780714Y-77208095D01*
X182780714Y-77112857D01*
X182828333Y-77017619D01*
X182875952Y-76970000D01*
X182971190Y-76922380D01*
X183209285Y-76922380D01*
X183352142Y-76970000D01*
X183780714Y-77922380D02*
X183780714Y-76922380D01*
X184018809Y-76922380D01*
X184161666Y-76970000D01*
X184256904Y-77065238D01*
X184304523Y-77160476D01*
X184352142Y-77350952D01*
X184352142Y-77493809D01*
X184304523Y-77684285D01*
X184256904Y-77779523D01*
X184161666Y-77874761D01*
X184018809Y-77922380D01*
X183780714Y-77922380D01*
X184733095Y-77636666D02*
X185209285Y-77636666D01*
X184637857Y-77922380D02*
X184971190Y-76922380D01*
X185304523Y-77922380D01*
X183233095Y-79510000D02*
X183137857Y-79462380D01*
X182995000Y-79462380D01*
X182852142Y-79510000D01*
X182756904Y-79605238D01*
X182709285Y-79700476D01*
X182661666Y-79890952D01*
X182661666Y-80033809D01*
X182709285Y-80224285D01*
X182756904Y-80319523D01*
X182852142Y-80414761D01*
X182995000Y-80462380D01*
X183090238Y-80462380D01*
X183233095Y-80414761D01*
X183280714Y-80367142D01*
X183280714Y-80033809D01*
X183090238Y-80033809D01*
X183709285Y-80462380D02*
X183709285Y-79462380D01*
X184280714Y-80462380D01*
X184280714Y-79462380D01*
X184756904Y-80462380D02*
X184756904Y-79462380D01*
X184995000Y-79462380D01*
X185137857Y-79510000D01*
X185233095Y-79605238D01*
X185280714Y-79700476D01*
X185328333Y-79890952D01*
X185328333Y-80033809D01*
X185280714Y-80224285D01*
X185233095Y-80319523D01*
X185137857Y-80414761D01*
X184995000Y-80462380D01*
X184756904Y-80462380D01*
X182899761Y-82002380D02*
X183233095Y-83002380D01*
X183566428Y-82002380D01*
X183899761Y-83002380D02*
X183899761Y-82002380D01*
X184375952Y-83002380D02*
X184375952Y-82002380D01*
X184947380Y-83002380D01*
X184947380Y-82002380D01*
%TO.C,sensor_1*%
X179819761Y-97099047D02*
X179867380Y-97003809D01*
X179867380Y-96813333D01*
X179819761Y-96718095D01*
X179724523Y-96670476D01*
X179676904Y-96670476D01*
X179581666Y-96718095D01*
X179534047Y-96813333D01*
X179534047Y-96956190D01*
X179486428Y-97051428D01*
X179391190Y-97099047D01*
X179343571Y-97099047D01*
X179248333Y-97051428D01*
X179200714Y-96956190D01*
X179200714Y-96813333D01*
X179248333Y-96718095D01*
X179819761Y-95860952D02*
X179867380Y-95956190D01*
X179867380Y-96146666D01*
X179819761Y-96241904D01*
X179724523Y-96289523D01*
X179343571Y-96289523D01*
X179248333Y-96241904D01*
X179200714Y-96146666D01*
X179200714Y-95956190D01*
X179248333Y-95860952D01*
X179343571Y-95813333D01*
X179438809Y-95813333D01*
X179534047Y-96289523D01*
X179200714Y-95384761D02*
X179867380Y-95384761D01*
X179295952Y-95384761D02*
X179248333Y-95337142D01*
X179200714Y-95241904D01*
X179200714Y-95099047D01*
X179248333Y-95003809D01*
X179343571Y-94956190D01*
X179867380Y-94956190D01*
X179819761Y-94527619D02*
X179867380Y-94432380D01*
X179867380Y-94241904D01*
X179819761Y-94146666D01*
X179724523Y-94099047D01*
X179676904Y-94099047D01*
X179581666Y-94146666D01*
X179534047Y-94241904D01*
X179534047Y-94384761D01*
X179486428Y-94480000D01*
X179391190Y-94527619D01*
X179343571Y-94527619D01*
X179248333Y-94480000D01*
X179200714Y-94384761D01*
X179200714Y-94241904D01*
X179248333Y-94146666D01*
X179867380Y-93527619D02*
X179819761Y-93622857D01*
X179772142Y-93670476D01*
X179676904Y-93718095D01*
X179391190Y-93718095D01*
X179295952Y-93670476D01*
X179248333Y-93622857D01*
X179200714Y-93527619D01*
X179200714Y-93384761D01*
X179248333Y-93289523D01*
X179295952Y-93241904D01*
X179391190Y-93194285D01*
X179676904Y-93194285D01*
X179772142Y-93241904D01*
X179819761Y-93289523D01*
X179867380Y-93384761D01*
X179867380Y-93527619D01*
X179867380Y-92765714D02*
X179200714Y-92765714D01*
X179391190Y-92765714D02*
X179295952Y-92718095D01*
X179248333Y-92670476D01*
X179200714Y-92575238D01*
X179200714Y-92480000D01*
X179962619Y-92384761D02*
X179962619Y-91622857D01*
X179867380Y-90860952D02*
X179867380Y-91432380D01*
X179867380Y-91146666D02*
X178867380Y-91146666D01*
X179010238Y-91241904D01*
X179105476Y-91337142D01*
X179153095Y-91432380D01*
X182804523Y-91844761D02*
X182947380Y-91892380D01*
X183185476Y-91892380D01*
X183280714Y-91844761D01*
X183328333Y-91797142D01*
X183375952Y-91701904D01*
X183375952Y-91606666D01*
X183328333Y-91511428D01*
X183280714Y-91463809D01*
X183185476Y-91416190D01*
X182995000Y-91368571D01*
X182899761Y-91320952D01*
X182852142Y-91273333D01*
X182804523Y-91178095D01*
X182804523Y-91082857D01*
X182852142Y-90987619D01*
X182899761Y-90940000D01*
X182995000Y-90892380D01*
X183233095Y-90892380D01*
X183375952Y-90940000D01*
X184375952Y-91797142D02*
X184328333Y-91844761D01*
X184185476Y-91892380D01*
X184090238Y-91892380D01*
X183947380Y-91844761D01*
X183852142Y-91749523D01*
X183804523Y-91654285D01*
X183756904Y-91463809D01*
X183756904Y-91320952D01*
X183804523Y-91130476D01*
X183852142Y-91035238D01*
X183947380Y-90940000D01*
X184090238Y-90892380D01*
X184185476Y-90892380D01*
X184328333Y-90940000D01*
X184375952Y-90987619D01*
X185280714Y-91892380D02*
X184804523Y-91892380D01*
X184804523Y-90892380D01*
X182780714Y-94384761D02*
X182923571Y-94432380D01*
X183161666Y-94432380D01*
X183256904Y-94384761D01*
X183304523Y-94337142D01*
X183352142Y-94241904D01*
X183352142Y-94146666D01*
X183304523Y-94051428D01*
X183256904Y-94003809D01*
X183161666Y-93956190D01*
X182971190Y-93908571D01*
X182875952Y-93860952D01*
X182828333Y-93813333D01*
X182780714Y-93718095D01*
X182780714Y-93622857D01*
X182828333Y-93527619D01*
X182875952Y-93480000D01*
X182971190Y-93432380D01*
X183209285Y-93432380D01*
X183352142Y-93480000D01*
X183780714Y-94432380D02*
X183780714Y-93432380D01*
X184018809Y-93432380D01*
X184161666Y-93480000D01*
X184256904Y-93575238D01*
X184304523Y-93670476D01*
X184352142Y-93860952D01*
X184352142Y-94003809D01*
X184304523Y-94194285D01*
X184256904Y-94289523D01*
X184161666Y-94384761D01*
X184018809Y-94432380D01*
X183780714Y-94432380D01*
X184733095Y-94146666D02*
X185209285Y-94146666D01*
X184637857Y-94432380D02*
X184971190Y-93432380D01*
X185304523Y-94432380D01*
X183233095Y-96020000D02*
X183137857Y-95972380D01*
X182995000Y-95972380D01*
X182852142Y-96020000D01*
X182756904Y-96115238D01*
X182709285Y-96210476D01*
X182661666Y-96400952D01*
X182661666Y-96543809D01*
X182709285Y-96734285D01*
X182756904Y-96829523D01*
X182852142Y-96924761D01*
X182995000Y-96972380D01*
X183090238Y-96972380D01*
X183233095Y-96924761D01*
X183280714Y-96877142D01*
X183280714Y-96543809D01*
X183090238Y-96543809D01*
X183709285Y-96972380D02*
X183709285Y-95972380D01*
X184280714Y-96972380D01*
X184280714Y-95972380D01*
X184756904Y-96972380D02*
X184756904Y-95972380D01*
X184995000Y-95972380D01*
X185137857Y-96020000D01*
X185233095Y-96115238D01*
X185280714Y-96210476D01*
X185328333Y-96400952D01*
X185328333Y-96543809D01*
X185280714Y-96734285D01*
X185233095Y-96829523D01*
X185137857Y-96924761D01*
X184995000Y-96972380D01*
X184756904Y-96972380D01*
X182899761Y-98512380D02*
X183233095Y-99512380D01*
X183566428Y-98512380D01*
X183899761Y-99512380D02*
X183899761Y-98512380D01*
X184375952Y-99512380D02*
X184375952Y-98512380D01*
X184947380Y-99512380D01*
X184947380Y-98512380D01*
%TO.C,R3*%
X201732380Y-105576666D02*
X201256190Y-105910000D01*
X201732380Y-106148095D02*
X200732380Y-106148095D01*
X200732380Y-105767142D01*
X200780000Y-105671904D01*
X200827619Y-105624285D01*
X200922857Y-105576666D01*
X201065714Y-105576666D01*
X201160952Y-105624285D01*
X201208571Y-105671904D01*
X201256190Y-105767142D01*
X201256190Y-106148095D01*
X200732380Y-105243333D02*
X200732380Y-104624285D01*
X201113333Y-104957619D01*
X201113333Y-104814761D01*
X201160952Y-104719523D01*
X201208571Y-104671904D01*
X201303809Y-104624285D01*
X201541904Y-104624285D01*
X201637142Y-104671904D01*
X201684761Y-104719523D01*
X201732380Y-104814761D01*
X201732380Y-105100476D01*
X201684761Y-105195714D01*
X201637142Y-105243333D01*
X204572380Y-108338571D02*
X204572380Y-107719523D01*
X204953333Y-108052857D01*
X204953333Y-107910000D01*
X205000952Y-107814761D01*
X205048571Y-107767142D01*
X205143809Y-107719523D01*
X205381904Y-107719523D01*
X205477142Y-107767142D01*
X205524761Y-107814761D01*
X205572380Y-107910000D01*
X205572380Y-108195714D01*
X205524761Y-108290952D01*
X205477142Y-108338571D01*
X204572380Y-106862380D02*
X204572380Y-107052857D01*
X204620000Y-107148095D01*
X204667619Y-107195714D01*
X204810476Y-107290952D01*
X205000952Y-107338571D01*
X205381904Y-107338571D01*
X205477142Y-107290952D01*
X205524761Y-107243333D01*
X205572380Y-107148095D01*
X205572380Y-106957619D01*
X205524761Y-106862380D01*
X205477142Y-106814761D01*
X205381904Y-106767142D01*
X205143809Y-106767142D01*
X205048571Y-106814761D01*
X205000952Y-106862380D01*
X204953333Y-106957619D01*
X204953333Y-107148095D01*
X205000952Y-107243333D01*
X205048571Y-107290952D01*
X205143809Y-107338571D01*
X204572380Y-105862380D02*
X204572380Y-106338571D01*
X205048571Y-106386190D01*
X205000952Y-106338571D01*
X204953333Y-106243333D01*
X204953333Y-106005238D01*
X205000952Y-105910000D01*
X205048571Y-105862380D01*
X205143809Y-105814761D01*
X205381904Y-105814761D01*
X205477142Y-105862380D01*
X205524761Y-105910000D01*
X205572380Y-106005238D01*
X205572380Y-106243333D01*
X205524761Y-106338571D01*
X205477142Y-106386190D01*
X204572380Y-105195714D02*
X204572380Y-105005238D01*
X204620000Y-104910000D01*
X204715238Y-104814761D01*
X204905714Y-104767142D01*
X205239047Y-104767142D01*
X205429523Y-104814761D01*
X205524761Y-104910000D01*
X205572380Y-105005238D01*
X205572380Y-105195714D01*
X205524761Y-105290952D01*
X205429523Y-105386190D01*
X205239047Y-105433809D01*
X204905714Y-105433809D01*
X204715238Y-105386190D01*
X204620000Y-105290952D01*
X204572380Y-105195714D01*
X205572380Y-104338571D02*
X204572380Y-104338571D01*
X205572380Y-103910000D02*
X205048571Y-103910000D01*
X204953333Y-103957619D01*
X204905714Y-104052857D01*
X204905714Y-104195714D01*
X204953333Y-104290952D01*
X205000952Y-104338571D01*
X205572380Y-103433809D02*
X204905714Y-103433809D01*
X205000952Y-103433809D02*
X204953333Y-103386190D01*
X204905714Y-103290952D01*
X204905714Y-103148095D01*
X204953333Y-103052857D01*
X205048571Y-103005238D01*
X205572380Y-103005238D01*
X205048571Y-103005238D02*
X204953333Y-102957619D01*
X204905714Y-102862380D01*
X204905714Y-102719523D01*
X204953333Y-102624285D01*
X205048571Y-102576666D01*
X205572380Y-102576666D01*
%TO.C,R2*%
X195382380Y-105576666D02*
X194906190Y-105910000D01*
X195382380Y-106148095D02*
X194382380Y-106148095D01*
X194382380Y-105767142D01*
X194430000Y-105671904D01*
X194477619Y-105624285D01*
X194572857Y-105576666D01*
X194715714Y-105576666D01*
X194810952Y-105624285D01*
X194858571Y-105671904D01*
X194906190Y-105767142D01*
X194906190Y-106148095D01*
X194477619Y-105195714D02*
X194430000Y-105148095D01*
X194382380Y-105052857D01*
X194382380Y-104814761D01*
X194430000Y-104719523D01*
X194477619Y-104671904D01*
X194572857Y-104624285D01*
X194668095Y-104624285D01*
X194810952Y-104671904D01*
X195382380Y-105243333D01*
X195382380Y-104624285D01*
X199222380Y-107719523D02*
X199222380Y-108290952D01*
X199222380Y-108005238D02*
X198222380Y-108005238D01*
X198365238Y-108100476D01*
X198460476Y-108195714D01*
X198508095Y-108290952D01*
X198317619Y-107338571D02*
X198270000Y-107290952D01*
X198222380Y-107195714D01*
X198222380Y-106957619D01*
X198270000Y-106862380D01*
X198317619Y-106814761D01*
X198412857Y-106767142D01*
X198508095Y-106767142D01*
X198650952Y-106814761D01*
X199222380Y-107386190D01*
X199222380Y-106767142D01*
X199222380Y-105814761D02*
X199222380Y-106386190D01*
X199222380Y-106100476D02*
X198222380Y-106100476D01*
X198365238Y-106195714D01*
X198460476Y-106290952D01*
X198508095Y-106386190D01*
X198222380Y-105195714D02*
X198222380Y-105005238D01*
X198270000Y-104910000D01*
X198365238Y-104814761D01*
X198555714Y-104767142D01*
X198889047Y-104767142D01*
X199079523Y-104814761D01*
X199174761Y-104910000D01*
X199222380Y-105005238D01*
X199222380Y-105195714D01*
X199174761Y-105290952D01*
X199079523Y-105386190D01*
X198889047Y-105433809D01*
X198555714Y-105433809D01*
X198365238Y-105386190D01*
X198270000Y-105290952D01*
X198222380Y-105195714D01*
X199222380Y-104338571D02*
X198222380Y-104338571D01*
X199222380Y-103910000D02*
X198698571Y-103910000D01*
X198603333Y-103957619D01*
X198555714Y-104052857D01*
X198555714Y-104195714D01*
X198603333Y-104290952D01*
X198650952Y-104338571D01*
X199222380Y-103433809D02*
X198555714Y-103433809D01*
X198650952Y-103433809D02*
X198603333Y-103386190D01*
X198555714Y-103290952D01*
X198555714Y-103148095D01*
X198603333Y-103052857D01*
X198698571Y-103005238D01*
X199222380Y-103005238D01*
X198698571Y-103005238D02*
X198603333Y-102957619D01*
X198555714Y-102862380D01*
X198555714Y-102719523D01*
X198603333Y-102624285D01*
X198698571Y-102576666D01*
X199222380Y-102576666D01*
%TO.C,R1*%
X252563333Y-48062380D02*
X252230000Y-47586190D01*
X251991904Y-48062380D02*
X251991904Y-47062380D01*
X252372857Y-47062380D01*
X252468095Y-47110000D01*
X252515714Y-47157619D01*
X252563333Y-47252857D01*
X252563333Y-47395714D01*
X252515714Y-47490952D01*
X252468095Y-47538571D01*
X252372857Y-47586190D01*
X251991904Y-47586190D01*
X253515714Y-48062380D02*
X252944285Y-48062380D01*
X253230000Y-48062380D02*
X253230000Y-47062380D01*
X253134761Y-47205238D01*
X253039523Y-47300476D01*
X252944285Y-47348095D01*
%TO.C,U3*%
X212042380Y-88391904D02*
X212851904Y-88391904D01*
X212947142Y-88344285D01*
X212994761Y-88296666D01*
X213042380Y-88201428D01*
X213042380Y-88010952D01*
X212994761Y-87915714D01*
X212947142Y-87868095D01*
X212851904Y-87820476D01*
X212042380Y-87820476D01*
X212042380Y-87439523D02*
X212042380Y-86820476D01*
X212423333Y-87153809D01*
X212423333Y-87010952D01*
X212470952Y-86915714D01*
X212518571Y-86868095D01*
X212613809Y-86820476D01*
X212851904Y-86820476D01*
X212947142Y-86868095D01*
X212994761Y-86915714D01*
X213042380Y-87010952D01*
X213042380Y-87296666D01*
X212994761Y-87391904D01*
X212947142Y-87439523D01*
X197802380Y-88963333D02*
X197326190Y-89296666D01*
X197802380Y-89534761D02*
X196802380Y-89534761D01*
X196802380Y-89153809D01*
X196850000Y-89058571D01*
X196897619Y-89010952D01*
X196992857Y-88963333D01*
X197135714Y-88963333D01*
X197230952Y-89010952D01*
X197278571Y-89058571D01*
X197326190Y-89153809D01*
X197326190Y-89534761D01*
X197278571Y-88534761D02*
X197278571Y-88201428D01*
X197802380Y-88058571D02*
X197802380Y-88534761D01*
X196802380Y-88534761D01*
X196802380Y-88058571D01*
X197278571Y-87296666D02*
X197278571Y-87630000D01*
X197802380Y-87630000D02*
X196802380Y-87630000D01*
X196802380Y-87153809D01*
X196802380Y-86630000D02*
X197040476Y-86630000D01*
X196945238Y-86868095D02*
X197040476Y-86630000D01*
X196945238Y-86391904D01*
X197230952Y-86772857D02*
X197040476Y-86630000D01*
X197230952Y-86487142D01*
X196802380Y-85868095D02*
X197040476Y-85868095D01*
X196945238Y-86106190D02*
X197040476Y-85868095D01*
X196945238Y-85630000D01*
X197230952Y-86010952D02*
X197040476Y-85868095D01*
X197230952Y-85725238D01*
X200342380Y-88963333D02*
X199866190Y-89296666D01*
X200342380Y-89534761D02*
X199342380Y-89534761D01*
X199342380Y-89153809D01*
X199390000Y-89058571D01*
X199437619Y-89010952D01*
X199532857Y-88963333D01*
X199675714Y-88963333D01*
X199770952Y-89010952D01*
X199818571Y-89058571D01*
X199866190Y-89153809D01*
X199866190Y-89534761D01*
X199818571Y-88534761D02*
X199818571Y-88201428D01*
X200342380Y-88058571D02*
X200342380Y-88534761D01*
X199342380Y-88534761D01*
X199342380Y-88058571D01*
X199818571Y-87296666D02*
X199818571Y-87630000D01*
X200342380Y-87630000D02*
X199342380Y-87630000D01*
X199342380Y-87153809D01*
X199342380Y-86630000D02*
X199580476Y-86630000D01*
X199485238Y-86868095D02*
X199580476Y-86630000D01*
X199485238Y-86391904D01*
X199770952Y-86772857D02*
X199580476Y-86630000D01*
X199770952Y-86487142D01*
X199342380Y-85868095D02*
X199580476Y-85868095D01*
X199485238Y-86106190D02*
X199580476Y-85868095D01*
X199485238Y-85630000D01*
X199770952Y-86010952D02*
X199580476Y-85868095D01*
X199770952Y-85725238D01*
X202882380Y-88963333D02*
X202406190Y-89296666D01*
X202882380Y-89534761D02*
X201882380Y-89534761D01*
X201882380Y-89153809D01*
X201930000Y-89058571D01*
X201977619Y-89010952D01*
X202072857Y-88963333D01*
X202215714Y-88963333D01*
X202310952Y-89010952D01*
X202358571Y-89058571D01*
X202406190Y-89153809D01*
X202406190Y-89534761D01*
X202358571Y-88534761D02*
X202358571Y-88201428D01*
X202882380Y-88058571D02*
X202882380Y-88534761D01*
X201882380Y-88534761D01*
X201882380Y-88058571D01*
X202358571Y-87296666D02*
X202358571Y-87630000D01*
X202882380Y-87630000D02*
X201882380Y-87630000D01*
X201882380Y-87153809D01*
X201882380Y-86630000D02*
X202120476Y-86630000D01*
X202025238Y-86868095D02*
X202120476Y-86630000D01*
X202025238Y-86391904D01*
X202310952Y-86772857D02*
X202120476Y-86630000D01*
X202310952Y-86487142D01*
X201882380Y-85868095D02*
X202120476Y-85868095D01*
X202025238Y-86106190D02*
X202120476Y-85868095D01*
X202025238Y-85630000D01*
X202310952Y-86010952D02*
X202120476Y-85868095D01*
X202310952Y-85725238D01*
X205422380Y-88963333D02*
X204946190Y-89296666D01*
X205422380Y-89534761D02*
X204422380Y-89534761D01*
X204422380Y-89153809D01*
X204470000Y-89058571D01*
X204517619Y-89010952D01*
X204612857Y-88963333D01*
X204755714Y-88963333D01*
X204850952Y-89010952D01*
X204898571Y-89058571D01*
X204946190Y-89153809D01*
X204946190Y-89534761D01*
X204898571Y-88534761D02*
X204898571Y-88201428D01*
X205422380Y-88058571D02*
X205422380Y-88534761D01*
X204422380Y-88534761D01*
X204422380Y-88058571D01*
X204898571Y-87296666D02*
X204898571Y-87630000D01*
X205422380Y-87630000D02*
X204422380Y-87630000D01*
X204422380Y-87153809D01*
X204422380Y-86630000D02*
X204660476Y-86630000D01*
X204565238Y-86868095D02*
X204660476Y-86630000D01*
X204565238Y-86391904D01*
X204850952Y-86772857D02*
X204660476Y-86630000D01*
X204850952Y-86487142D01*
X204422380Y-85868095D02*
X204660476Y-85868095D01*
X204565238Y-86106190D02*
X204660476Y-85868095D01*
X204565238Y-85630000D01*
X204850952Y-86010952D02*
X204660476Y-85868095D01*
X204850952Y-85725238D01*
X207962380Y-88963333D02*
X207486190Y-89296666D01*
X207962380Y-89534761D02*
X206962380Y-89534761D01*
X206962380Y-89153809D01*
X207010000Y-89058571D01*
X207057619Y-89010952D01*
X207152857Y-88963333D01*
X207295714Y-88963333D01*
X207390952Y-89010952D01*
X207438571Y-89058571D01*
X207486190Y-89153809D01*
X207486190Y-89534761D01*
X207438571Y-88534761D02*
X207438571Y-88201428D01*
X207962380Y-88058571D02*
X207962380Y-88534761D01*
X206962380Y-88534761D01*
X206962380Y-88058571D01*
X207438571Y-87296666D02*
X207438571Y-87630000D01*
X207962380Y-87630000D02*
X206962380Y-87630000D01*
X206962380Y-87153809D01*
X206962380Y-86630000D02*
X207200476Y-86630000D01*
X207105238Y-86868095D02*
X207200476Y-86630000D01*
X207105238Y-86391904D01*
X207390952Y-86772857D02*
X207200476Y-86630000D01*
X207390952Y-86487142D01*
X206962380Y-85868095D02*
X207200476Y-85868095D01*
X207105238Y-86106190D02*
X207200476Y-85868095D01*
X207105238Y-85630000D01*
X207390952Y-86010952D02*
X207200476Y-85868095D01*
X207390952Y-85725238D01*
X210502380Y-88963333D02*
X210026190Y-89296666D01*
X210502380Y-89534761D02*
X209502380Y-89534761D01*
X209502380Y-89153809D01*
X209550000Y-89058571D01*
X209597619Y-89010952D01*
X209692857Y-88963333D01*
X209835714Y-88963333D01*
X209930952Y-89010952D01*
X209978571Y-89058571D01*
X210026190Y-89153809D01*
X210026190Y-89534761D01*
X209978571Y-88534761D02*
X209978571Y-88201428D01*
X210502380Y-88058571D02*
X210502380Y-88534761D01*
X209502380Y-88534761D01*
X209502380Y-88058571D01*
X209978571Y-87296666D02*
X209978571Y-87630000D01*
X210502380Y-87630000D02*
X209502380Y-87630000D01*
X209502380Y-87153809D01*
X209502380Y-86630000D02*
X209740476Y-86630000D01*
X209645238Y-86868095D02*
X209740476Y-86630000D01*
X209645238Y-86391904D01*
X209930952Y-86772857D02*
X209740476Y-86630000D01*
X209930952Y-86487142D01*
X209502380Y-85868095D02*
X209740476Y-85868095D01*
X209645238Y-86106190D02*
X209740476Y-85868095D01*
X209645238Y-85630000D01*
X209930952Y-86010952D02*
X209740476Y-85868095D01*
X209930952Y-85725238D01*
%TO.C,A1*%
X264326666Y-76914285D02*
X264326666Y-76438095D01*
X264612380Y-77009523D02*
X263612380Y-76676190D01*
X264612380Y-76342857D01*
X264612380Y-75485714D02*
X264612380Y-76057142D01*
X264612380Y-75771428D02*
X263612380Y-75771428D01*
X263755238Y-75866666D01*
X263850476Y-75961904D01*
X263898095Y-76057142D01*
%TO.C,C1*%
X208082143Y-98931665D02*
X208129762Y-98979284D01*
X208177381Y-99122141D01*
X208177381Y-99217379D01*
X208129762Y-99360237D01*
X208034524Y-99455475D01*
X207939286Y-99503094D01*
X207748810Y-99550713D01*
X207605953Y-99550713D01*
X207415477Y-99503094D01*
X207320239Y-99455475D01*
X207225001Y-99360237D01*
X207177381Y-99217379D01*
X207177381Y-99122141D01*
X207225001Y-98979284D01*
X207272620Y-98931665D01*
X208177381Y-97979284D02*
X208177381Y-98550713D01*
X208177381Y-98264999D02*
X207177381Y-98264999D01*
X207320239Y-98360237D01*
X207415477Y-98455475D01*
X207463096Y-98550713D01*
%TO.C,C2*%
X208082143Y-107081665D02*
X208129762Y-107129284D01*
X208177381Y-107272141D01*
X208177381Y-107367379D01*
X208129762Y-107510237D01*
X208034524Y-107605475D01*
X207939286Y-107653094D01*
X207748810Y-107700713D01*
X207605953Y-107700713D01*
X207415477Y-107653094D01*
X207320239Y-107605475D01*
X207225001Y-107510237D01*
X207177381Y-107367379D01*
X207177381Y-107272141D01*
X207225001Y-107129284D01*
X207272620Y-107081665D01*
X207272620Y-106700713D02*
X207225001Y-106653094D01*
X207177381Y-106557856D01*
X207177381Y-106319760D01*
X207225001Y-106224522D01*
X207272620Y-106176903D01*
X207367858Y-106129284D01*
X207463096Y-106129284D01*
X207605953Y-106176903D01*
X208177381Y-106748332D01*
X208177381Y-106129284D01*
%TO.C,D1*%
X241831904Y-44902380D02*
X241831904Y-43902380D01*
X242070000Y-43902380D01*
X242212857Y-43950000D01*
X242308095Y-44045238D01*
X242355714Y-44140476D01*
X242403333Y-44330952D01*
X242403333Y-44473809D01*
X242355714Y-44664285D01*
X242308095Y-44759523D01*
X242212857Y-44854761D01*
X242070000Y-44902380D01*
X241831904Y-44902380D01*
X243355714Y-44902380D02*
X242784285Y-44902380D01*
X243070000Y-44902380D02*
X243070000Y-43902380D01*
X242974761Y-44045238D01*
X242879523Y-44140476D01*
X242784285Y-44188095D01*
%TO.C,J1*%
X260016666Y-105922380D02*
X260016666Y-106636666D01*
X259969047Y-106779523D01*
X259873809Y-106874761D01*
X259730952Y-106922380D01*
X259635714Y-106922380D01*
X261016666Y-106922380D02*
X260445238Y-106922380D01*
X260730952Y-106922380D02*
X260730952Y-105922380D01*
X260635714Y-106065238D01*
X260540476Y-106160476D01*
X260445238Y-106208095D01*
X257754380Y-105679047D02*
X257087714Y-105679047D01*
X257182952Y-105679047D02*
X257135333Y-105631428D01*
X257087714Y-105536190D01*
X257087714Y-105393333D01*
X257135333Y-105298095D01*
X257230571Y-105250476D01*
X257754380Y-105250476D01*
X257230571Y-105250476D02*
X257135333Y-105202857D01*
X257087714Y-105107619D01*
X257087714Y-104964761D01*
X257135333Y-104869523D01*
X257230571Y-104821904D01*
X257754380Y-104821904D01*
X257087714Y-103917142D02*
X257754380Y-103917142D01*
X257087714Y-104345714D02*
X257611523Y-104345714D01*
X257706761Y-104298095D01*
X257754380Y-104202857D01*
X257754380Y-104060000D01*
X257706761Y-103964761D01*
X257659142Y-103917142D01*
X257754380Y-103298095D02*
X257706761Y-103393333D01*
X257611523Y-103440952D01*
X256754380Y-103440952D01*
X257087714Y-103060000D02*
X257087714Y-102679047D01*
X256754380Y-102917142D02*
X257611523Y-102917142D01*
X257706761Y-102869523D01*
X257754380Y-102774285D01*
X257754380Y-102679047D01*
X257754380Y-102345714D02*
X257087714Y-102345714D01*
X256754380Y-102345714D02*
X256802000Y-102393333D01*
X256849619Y-102345714D01*
X256802000Y-102298095D01*
X256754380Y-102345714D01*
X256849619Y-102345714D01*
X257849619Y-102107619D02*
X257849619Y-101345714D01*
X257087714Y-101107619D02*
X258087714Y-101107619D01*
X257135333Y-101107619D02*
X257087714Y-101012380D01*
X257087714Y-100821904D01*
X257135333Y-100726666D01*
X257182952Y-100679047D01*
X257278190Y-100631428D01*
X257563904Y-100631428D01*
X257659142Y-100679047D01*
X257706761Y-100726666D01*
X257754380Y-100821904D01*
X257754380Y-101012380D01*
X257706761Y-101107619D01*
X257754380Y-100060000D02*
X257706761Y-100155238D01*
X257611523Y-100202857D01*
X256754380Y-100202857D01*
X257706761Y-99298095D02*
X257754380Y-99393333D01*
X257754380Y-99583809D01*
X257706761Y-99679047D01*
X257611523Y-99726666D01*
X257230571Y-99726666D01*
X257135333Y-99679047D01*
X257087714Y-99583809D01*
X257087714Y-99393333D01*
X257135333Y-99298095D01*
X257230571Y-99250476D01*
X257325809Y-99250476D01*
X257421047Y-99726666D01*
X257754380Y-98917142D02*
X257087714Y-98393333D01*
X257087714Y-98917142D02*
X257754380Y-98393333D01*
X257754380Y-97869523D02*
X257706761Y-97964761D01*
X257659142Y-98012380D01*
X257563904Y-98060000D01*
X257278190Y-98060000D01*
X257182952Y-98012380D01*
X257135333Y-97964761D01*
X257087714Y-97869523D01*
X257087714Y-97726666D01*
X257135333Y-97631428D01*
X257182952Y-97583809D01*
X257278190Y-97536190D01*
X257563904Y-97536190D01*
X257659142Y-97583809D01*
X257706761Y-97631428D01*
X257754380Y-97726666D01*
X257754380Y-97869523D01*
X257754380Y-97107619D02*
X257087714Y-97107619D01*
X257278190Y-97107619D02*
X257182952Y-97060000D01*
X257135333Y-97012380D01*
X257087714Y-96917142D01*
X257087714Y-96821904D01*
X257849619Y-96726666D02*
X257849619Y-95964761D01*
X257706761Y-95345714D02*
X257754380Y-95440952D01*
X257754380Y-95631428D01*
X257706761Y-95726666D01*
X257611523Y-95774285D01*
X257230571Y-95774285D01*
X257135333Y-95726666D01*
X257087714Y-95631428D01*
X257087714Y-95440952D01*
X257135333Y-95345714D01*
X257230571Y-95298095D01*
X257325809Y-95298095D01*
X257421047Y-95774285D01*
X257754380Y-94964761D02*
X257087714Y-94440952D01*
X257087714Y-94964761D02*
X257754380Y-94440952D01*
X257087714Y-94202857D02*
X257087714Y-93821904D01*
X256754380Y-94060000D02*
X257611523Y-94060000D01*
X257706761Y-94012380D01*
X257754380Y-93917142D01*
X257754380Y-93821904D01*
X257754380Y-93488571D02*
X257087714Y-93488571D01*
X257278190Y-93488571D02*
X257182952Y-93440952D01*
X257135333Y-93393333D01*
X257087714Y-93298095D01*
X257087714Y-93202857D01*
X257754380Y-92440952D02*
X257230571Y-92440952D01*
X257135333Y-92488571D01*
X257087714Y-92583809D01*
X257087714Y-92774285D01*
X257135333Y-92869523D01*
X257706761Y-92440952D02*
X257754380Y-92536190D01*
X257754380Y-92774285D01*
X257706761Y-92869523D01*
X257611523Y-92917142D01*
X257516285Y-92917142D01*
X257421047Y-92869523D01*
X257373428Y-92774285D01*
X257373428Y-92536190D01*
X257325809Y-92440952D01*
%TO.C,J3*%
X223182380Y-62563333D02*
X223896666Y-62563333D01*
X224039523Y-62610952D01*
X224134761Y-62706190D01*
X224182380Y-62849047D01*
X224182380Y-62944285D01*
X223182380Y-62182380D02*
X223182380Y-61563333D01*
X223563333Y-61896666D01*
X223563333Y-61753809D01*
X223610952Y-61658571D01*
X223658571Y-61610952D01*
X223753809Y-61563333D01*
X223991904Y-61563333D01*
X224087142Y-61610952D01*
X224134761Y-61658571D01*
X224182380Y-61753809D01*
X224182380Y-62039523D01*
X224134761Y-62134761D01*
X224087142Y-62182380D01*
X235625238Y-58364380D02*
X235625238Y-57840571D01*
X235577619Y-57745333D01*
X235482380Y-57697714D01*
X235291904Y-57697714D01*
X235196666Y-57745333D01*
X235625238Y-58316761D02*
X235530000Y-58364380D01*
X235291904Y-58364380D01*
X235196666Y-58316761D01*
X235149047Y-58221523D01*
X235149047Y-58126285D01*
X235196666Y-58031047D01*
X235291904Y-57983428D01*
X235530000Y-57983428D01*
X235625238Y-57935809D01*
X236101428Y-58364380D02*
X236101428Y-57697714D01*
X236101428Y-57888190D02*
X236149047Y-57792952D01*
X236196666Y-57745333D01*
X236291904Y-57697714D01*
X236387142Y-57697714D01*
X237149047Y-58364380D02*
X237149047Y-57364380D01*
X237149047Y-58316761D02*
X237053809Y-58364380D01*
X236863333Y-58364380D01*
X236768095Y-58316761D01*
X236720476Y-58269142D01*
X236672857Y-58173904D01*
X236672857Y-57888190D01*
X236720476Y-57792952D01*
X236768095Y-57745333D01*
X236863333Y-57697714D01*
X237053809Y-57697714D01*
X237149047Y-57745333D01*
X238053809Y-57697714D02*
X238053809Y-58364380D01*
X237625238Y-57697714D02*
X237625238Y-58221523D01*
X237672857Y-58316761D01*
X237768095Y-58364380D01*
X237910952Y-58364380D01*
X238006190Y-58316761D01*
X238053809Y-58269142D01*
X238530000Y-58364380D02*
X238530000Y-57697714D01*
X238530000Y-57364380D02*
X238482380Y-57412000D01*
X238530000Y-57459619D01*
X238577619Y-57412000D01*
X238530000Y-57364380D01*
X238530000Y-57459619D01*
X239006190Y-57697714D02*
X239006190Y-58364380D01*
X239006190Y-57792952D02*
X239053809Y-57745333D01*
X239149047Y-57697714D01*
X239291904Y-57697714D01*
X239387142Y-57745333D01*
X239434761Y-57840571D01*
X239434761Y-58364380D01*
X240053809Y-58364380D02*
X239958571Y-58316761D01*
X239910952Y-58269142D01*
X239863333Y-58173904D01*
X239863333Y-57888190D01*
X239910952Y-57792952D01*
X239958571Y-57745333D01*
X240053809Y-57697714D01*
X240196666Y-57697714D01*
X240291904Y-57745333D01*
X240339523Y-57792952D01*
X240387142Y-57888190D01*
X240387142Y-58173904D01*
X240339523Y-58269142D01*
X240291904Y-58316761D01*
X240196666Y-58364380D01*
X240053809Y-58364380D01*
X240577619Y-58459619D02*
X241339523Y-58459619D01*
X241958571Y-58316761D02*
X241863333Y-58364380D01*
X241672857Y-58364380D01*
X241577619Y-58316761D01*
X241530000Y-58221523D01*
X241530000Y-57840571D01*
X241577619Y-57745333D01*
X241672857Y-57697714D01*
X241863333Y-57697714D01*
X241958571Y-57745333D01*
X242006190Y-57840571D01*
X242006190Y-57935809D01*
X241530000Y-58031047D01*
X242339523Y-58364380D02*
X242863333Y-57697714D01*
X242339523Y-57697714D02*
X242863333Y-58364380D01*
X243101428Y-57697714D02*
X243482380Y-57697714D01*
X243244285Y-57364380D02*
X243244285Y-58221523D01*
X243291904Y-58316761D01*
X243387142Y-58364380D01*
X243482380Y-58364380D01*
X243815714Y-58364380D02*
X243815714Y-57697714D01*
X243815714Y-57888190D02*
X243863333Y-57792952D01*
X243910952Y-57745333D01*
X244006190Y-57697714D01*
X244101428Y-57697714D01*
X244863333Y-58364380D02*
X244863333Y-57840571D01*
X244815714Y-57745333D01*
X244720476Y-57697714D01*
X244530000Y-57697714D01*
X244434761Y-57745333D01*
X244863333Y-58316761D02*
X244768095Y-58364380D01*
X244530000Y-58364380D01*
X244434761Y-58316761D01*
X244387142Y-58221523D01*
X244387142Y-58126285D01*
X244434761Y-58031047D01*
X244530000Y-57983428D01*
X244768095Y-57983428D01*
X244863333Y-57935809D01*
%TO.C,J4*%
X221912380Y-89233333D02*
X222626666Y-89233333D01*
X222769523Y-89280952D01*
X222864761Y-89376190D01*
X222912380Y-89519047D01*
X222912380Y-89614285D01*
X222245714Y-88328571D02*
X222912380Y-88328571D01*
X221864761Y-88566666D02*
X222579047Y-88804761D01*
X222579047Y-88185714D01*
X235625238Y-87066380D02*
X235625238Y-86542571D01*
X235577619Y-86447333D01*
X235482380Y-86399714D01*
X235291904Y-86399714D01*
X235196666Y-86447333D01*
X235625238Y-87018761D02*
X235530000Y-87066380D01*
X235291904Y-87066380D01*
X235196666Y-87018761D01*
X235149047Y-86923523D01*
X235149047Y-86828285D01*
X235196666Y-86733047D01*
X235291904Y-86685428D01*
X235530000Y-86685428D01*
X235625238Y-86637809D01*
X236101428Y-87066380D02*
X236101428Y-86399714D01*
X236101428Y-86590190D02*
X236149047Y-86494952D01*
X236196666Y-86447333D01*
X236291904Y-86399714D01*
X236387142Y-86399714D01*
X237149047Y-87066380D02*
X237149047Y-86066380D01*
X237149047Y-87018761D02*
X237053809Y-87066380D01*
X236863333Y-87066380D01*
X236768095Y-87018761D01*
X236720476Y-86971142D01*
X236672857Y-86875904D01*
X236672857Y-86590190D01*
X236720476Y-86494952D01*
X236768095Y-86447333D01*
X236863333Y-86399714D01*
X237053809Y-86399714D01*
X237149047Y-86447333D01*
X238053809Y-86399714D02*
X238053809Y-87066380D01*
X237625238Y-86399714D02*
X237625238Y-86923523D01*
X237672857Y-87018761D01*
X237768095Y-87066380D01*
X237910952Y-87066380D01*
X238006190Y-87018761D01*
X238053809Y-86971142D01*
X238530000Y-87066380D02*
X238530000Y-86399714D01*
X238530000Y-86066380D02*
X238482380Y-86114000D01*
X238530000Y-86161619D01*
X238577619Y-86114000D01*
X238530000Y-86066380D01*
X238530000Y-86161619D01*
X239006190Y-86399714D02*
X239006190Y-87066380D01*
X239006190Y-86494952D02*
X239053809Y-86447333D01*
X239149047Y-86399714D01*
X239291904Y-86399714D01*
X239387142Y-86447333D01*
X239434761Y-86542571D01*
X239434761Y-87066380D01*
X240053809Y-87066380D02*
X239958571Y-87018761D01*
X239910952Y-86971142D01*
X239863333Y-86875904D01*
X239863333Y-86590190D01*
X239910952Y-86494952D01*
X239958571Y-86447333D01*
X240053809Y-86399714D01*
X240196666Y-86399714D01*
X240291904Y-86447333D01*
X240339523Y-86494952D01*
X240387142Y-86590190D01*
X240387142Y-86875904D01*
X240339523Y-86971142D01*
X240291904Y-87018761D01*
X240196666Y-87066380D01*
X240053809Y-87066380D01*
X240577619Y-87161619D02*
X241339523Y-87161619D01*
X241958571Y-87018761D02*
X241863333Y-87066380D01*
X241672857Y-87066380D01*
X241577619Y-87018761D01*
X241530000Y-86923523D01*
X241530000Y-86542571D01*
X241577619Y-86447333D01*
X241672857Y-86399714D01*
X241863333Y-86399714D01*
X241958571Y-86447333D01*
X242006190Y-86542571D01*
X242006190Y-86637809D01*
X241530000Y-86733047D01*
X242339523Y-87066380D02*
X242863333Y-86399714D01*
X242339523Y-86399714D02*
X242863333Y-87066380D01*
X243101428Y-86399714D02*
X243482380Y-86399714D01*
X243244285Y-86066380D02*
X243244285Y-86923523D01*
X243291904Y-87018761D01*
X243387142Y-87066380D01*
X243482380Y-87066380D01*
X243815714Y-87066380D02*
X243815714Y-86399714D01*
X243815714Y-86590190D02*
X243863333Y-86494952D01*
X243910952Y-86447333D01*
X244006190Y-86399714D01*
X244101428Y-86399714D01*
X244863333Y-87066380D02*
X244863333Y-86542571D01*
X244815714Y-86447333D01*
X244720476Y-86399714D01*
X244530000Y-86399714D01*
X244434761Y-86447333D01*
X244863333Y-87018761D02*
X244768095Y-87066380D01*
X244530000Y-87066380D01*
X244434761Y-87018761D01*
X244387142Y-86923523D01*
X244387142Y-86828285D01*
X244434761Y-86733047D01*
X244530000Y-86685428D01*
X244768095Y-86685428D01*
X244863333Y-86637809D01*
%TO.C,J5*%
X204978095Y-38870000D02*
X204882857Y-38822380D01*
X204740000Y-38822380D01*
X204597142Y-38870000D01*
X204501904Y-38965238D01*
X204454285Y-39060476D01*
X204406666Y-39250952D01*
X204406666Y-39393809D01*
X204454285Y-39584285D01*
X204501904Y-39679523D01*
X204597142Y-39774761D01*
X204740000Y-39822380D01*
X204835238Y-39822380D01*
X204978095Y-39774761D01*
X205025714Y-39727142D01*
X205025714Y-39393809D01*
X204835238Y-39393809D01*
X205454285Y-39822380D02*
X205454285Y-38822380D01*
X206025714Y-39822380D01*
X206025714Y-38822380D01*
X206501904Y-39822380D02*
X206501904Y-38822380D01*
X206740000Y-38822380D01*
X206882857Y-38870000D01*
X206978095Y-38965238D01*
X207025714Y-39060476D01*
X207073333Y-39250952D01*
X207073333Y-39393809D01*
X207025714Y-39584285D01*
X206978095Y-39679523D01*
X206882857Y-39774761D01*
X206740000Y-39822380D01*
X206501904Y-39822380D01*
%TO.C,J18*%
X233342380Y-42719523D02*
X234056666Y-42719523D01*
X234199523Y-42767142D01*
X234294761Y-42862380D01*
X234342380Y-43005238D01*
X234342380Y-43100476D01*
X234342380Y-41719523D02*
X234342380Y-42290952D01*
X234342380Y-42005238D02*
X233342380Y-42005238D01*
X233485238Y-42100476D01*
X233580476Y-42195714D01*
X233628095Y-42290952D01*
X233770952Y-41148095D02*
X233723333Y-41243333D01*
X233675714Y-41290952D01*
X233580476Y-41338571D01*
X233532857Y-41338571D01*
X233437619Y-41290952D01*
X233390000Y-41243333D01*
X233342380Y-41148095D01*
X233342380Y-40957619D01*
X233390000Y-40862380D01*
X233437619Y-40814761D01*
X233532857Y-40767142D01*
X233580476Y-40767142D01*
X233675714Y-40814761D01*
X233723333Y-40862380D01*
X233770952Y-40957619D01*
X233770952Y-41148095D01*
X233818571Y-41243333D01*
X233866190Y-41290952D01*
X233961428Y-41338571D01*
X234151904Y-41338571D01*
X234247142Y-41290952D01*
X234294761Y-41243333D01*
X234342380Y-41148095D01*
X234342380Y-40957619D01*
X234294761Y-40862380D01*
X234247142Y-40814761D01*
X234151904Y-40767142D01*
X233961428Y-40767142D01*
X233866190Y-40814761D01*
X233818571Y-40862380D01*
X233770952Y-40957619D01*
X247586666Y-39822380D02*
X247015238Y-39822380D01*
X247300952Y-39822380D02*
X247300952Y-38822380D01*
X247205714Y-38965238D01*
X247110476Y-39060476D01*
X247015238Y-39108095D01*
X248539047Y-39822380D02*
X247967619Y-39822380D01*
X248253333Y-39822380D02*
X248253333Y-38822380D01*
X248158095Y-38965238D01*
X248062857Y-39060476D01*
X247967619Y-39108095D01*
X248967619Y-39727142D02*
X249015238Y-39774761D01*
X248967619Y-39822380D01*
X248920000Y-39774761D01*
X248967619Y-39727142D01*
X248967619Y-39822380D01*
X249967619Y-39822380D02*
X249396190Y-39822380D01*
X249681904Y-39822380D02*
X249681904Y-38822380D01*
X249586666Y-38965238D01*
X249491428Y-39060476D01*
X249396190Y-39108095D01*
X250253333Y-38822380D02*
X250586666Y-39822380D01*
X250920000Y-38822380D01*
%TO.C,J31*%
X190162380Y-122729523D02*
X190876666Y-122729523D01*
X191019523Y-122777142D01*
X191114761Y-122872380D01*
X191162380Y-123015238D01*
X191162380Y-123110476D01*
X190162380Y-122348571D02*
X190162380Y-121729523D01*
X190543333Y-122062857D01*
X190543333Y-121920000D01*
X190590952Y-121824761D01*
X190638571Y-121777142D01*
X190733809Y-121729523D01*
X190971904Y-121729523D01*
X191067142Y-121777142D01*
X191114761Y-121824761D01*
X191162380Y-121920000D01*
X191162380Y-122205714D01*
X191114761Y-122300952D01*
X191067142Y-122348571D01*
X191162380Y-120777142D02*
X191162380Y-121348571D01*
X191162380Y-121062857D02*
X190162380Y-121062857D01*
X190305238Y-121158095D01*
X190400476Y-121253333D01*
X190448095Y-121348571D01*
X205549523Y-123912380D02*
X205073333Y-123912380D01*
X205025714Y-124388571D01*
X205073333Y-124340952D01*
X205168571Y-124293333D01*
X205406666Y-124293333D01*
X205501904Y-124340952D01*
X205549523Y-124388571D01*
X205597142Y-124483809D01*
X205597142Y-124721904D01*
X205549523Y-124817142D01*
X205501904Y-124864761D01*
X205406666Y-124912380D01*
X205168571Y-124912380D01*
X205073333Y-124864761D01*
X205025714Y-124817142D01*
X205882857Y-123912380D02*
X206216190Y-124912380D01*
X206549523Y-123912380D01*
%TD*%
M02*
