%TF.GenerationSoftware,KiCad,Pcbnew,(5.1.6)-1*%
%TF.CreationDate,2020-11-05T12:41:25-06:00*%
%TF.ProjectId,power_board,706f7765-725f-4626-9f61-72642e6b6963,rev?*%
%TF.SameCoordinates,Original*%
%TF.FileFunction,Soldermask,Bot*%
%TF.FilePolarity,Negative*%
%FSLAX46Y46*%
G04 Gerber Fmt 4.6, Leading zero omitted, Abs format (unit mm)*
G04 Created by KiCad (PCBNEW (5.1.6)-1) date 2020-11-05 12:41:25*
%MOMM*%
%LPD*%
G01*
G04 APERTURE LIST*
%ADD10C,1.624000*%
%ADD11C,3.100000*%
%ADD12R,3.100000X3.100000*%
%ADD13O,1.500000X1.500000*%
%ADD14C,1.500000*%
%ADD15R,1.700000X1.700000*%
%ADD16O,1.700000X1.700000*%
%ADD17C,1.700000*%
%ADD18C,2.100000*%
%ADD19R,2.100000X2.100000*%
%ADD20O,1.800000X1.800000*%
%ADD21R,1.800000X1.800000*%
G04 APERTURE END LIST*
D10*
%TO.C,U1*%
X241300000Y-97790000D03*
X238760000Y-97790000D03*
X243840000Y-97790000D03*
X233680000Y-97790000D03*
X231140000Y-97790000D03*
X228600000Y-97790000D03*
X226060000Y-97790000D03*
X226060000Y-113030000D03*
X228600000Y-113030000D03*
X231140000Y-113030000D03*
X233680000Y-113030000D03*
X251460000Y-97790000D03*
X236220000Y-113030000D03*
X238760000Y-113030000D03*
X241300000Y-113030000D03*
X243840000Y-113030000D03*
X246380000Y-113030000D03*
X248920000Y-113030000D03*
X251460000Y-113030000D03*
X254000000Y-113030000D03*
X236220000Y-97790000D03*
X246380000Y-97790000D03*
X248920000Y-97790000D03*
X254000000Y-97790000D03*
%TD*%
D11*
%TO.C,J24*%
X270510000Y-64770000D03*
D12*
X270510000Y-69850000D03*
%TD*%
D11*
%TO.C,J23*%
X184150000Y-58420000D03*
D12*
X184150000Y-53340000D03*
%TD*%
D11*
%TO.C,J22*%
X270510000Y-53340000D03*
D12*
X270510000Y-58420000D03*
%TD*%
D11*
%TO.C,J21*%
X184150000Y-69850000D03*
D12*
X184150000Y-64770000D03*
%TD*%
D11*
%TO.C,J20*%
X184150000Y-46990000D03*
D12*
X184150000Y-41910000D03*
%TD*%
D11*
%TO.C,J19*%
X270510000Y-41910000D03*
D12*
X270510000Y-46990000D03*
%TD*%
D11*
%TO.C,J11*%
X270510000Y-128270000D03*
D12*
X270510000Y-133350000D03*
%TD*%
D11*
%TO.C,J10*%
X270510000Y-105410000D03*
D12*
X270510000Y-110490000D03*
%TD*%
D11*
%TO.C,J9*%
X184150000Y-109935001D03*
D12*
X184150000Y-104855001D03*
%TD*%
D11*
%TO.C,J8*%
X184150000Y-121920000D03*
D12*
X184150000Y-116840000D03*
%TD*%
D11*
%TO.C,J7*%
X184150000Y-133350000D03*
D12*
X184150000Y-128270000D03*
%TD*%
D11*
%TO.C,J6*%
X270510000Y-116840000D03*
D12*
X270510000Y-121920000D03*
%TD*%
D11*
%TO.C,J2*%
X224790000Y-44450000D03*
D12*
X229870000Y-44450000D03*
%TD*%
D10*
%TO.C,U2*%
X196850000Y-97790000D03*
X199390000Y-97790000D03*
X201930000Y-97790000D03*
%TD*%
%TO.C,sensor_8*%
X191770000Y-133350000D03*
X194310000Y-133350000D03*
X196850000Y-133350000D03*
X199390000Y-133350000D03*
%TD*%
%TO.C,sensor_7*%
X204470000Y-133350000D03*
X207010000Y-133350000D03*
X209550000Y-133350000D03*
X212090000Y-133350000D03*
%TD*%
%TO.C,sensor_6*%
X242570000Y-133350000D03*
X245110000Y-133350000D03*
X247650000Y-133350000D03*
X250190000Y-133350000D03*
%TD*%
%TO.C,sensor_5*%
X255270000Y-133350000D03*
X257810000Y-133350000D03*
X260350000Y-133350000D03*
X262890000Y-133350000D03*
%TD*%
%TO.C,sensor_4*%
X273205000Y-99060000D03*
X273205000Y-96520000D03*
X273205000Y-93980000D03*
X273205000Y-91440000D03*
%TD*%
%TO.C,sensor_3*%
X273205000Y-82550000D03*
X273205000Y-80010000D03*
X273205000Y-77470000D03*
X273205000Y-74930000D03*
%TD*%
%TO.C,sensor_2*%
X181455000Y-74930000D03*
X181455000Y-77470000D03*
X181455000Y-80010000D03*
X181455000Y-82550000D03*
%TD*%
%TO.C,sensor_1*%
X181455000Y-91440000D03*
X181455000Y-93980000D03*
X181455000Y-96520000D03*
X181455000Y-99060000D03*
%TD*%
D13*
%TO.C,R3*%
X203200000Y-101600000D03*
D14*
X203200000Y-109220000D03*
%TD*%
D13*
%TO.C,R2*%
X196850000Y-101600000D03*
D14*
X196850000Y-109220000D03*
%TD*%
D13*
%TO.C,R1*%
X256540000Y-49530000D03*
D14*
X248920000Y-49530000D03*
%TD*%
D10*
%TO.C,U3*%
X196850000Y-49530000D03*
X196850000Y-85090000D03*
X196850000Y-82550000D03*
X196850000Y-87630000D03*
X196850000Y-72390000D03*
X196850000Y-77470000D03*
X196850000Y-74930000D03*
X196850000Y-80010000D03*
X196850000Y-62230000D03*
X196850000Y-57150000D03*
X196850000Y-59690000D03*
X196850000Y-54610000D03*
X196850000Y-64770000D03*
X196850000Y-67310000D03*
X196850000Y-69850000D03*
X196850000Y-52070000D03*
X199390000Y-49530000D03*
X199390000Y-85090000D03*
X199390000Y-82550000D03*
X199390000Y-87630000D03*
X199390000Y-72390000D03*
X199390000Y-77470000D03*
X199390000Y-74930000D03*
X199390000Y-80010000D03*
X199390000Y-62230000D03*
X199390000Y-57150000D03*
X199390000Y-59690000D03*
X199390000Y-54610000D03*
X199390000Y-64770000D03*
X199390000Y-67310000D03*
X199390000Y-69850000D03*
X199390000Y-52070000D03*
X201930000Y-49530000D03*
X201930000Y-85090000D03*
X201930000Y-82550000D03*
X201930000Y-87630000D03*
X201930000Y-72390000D03*
X201930000Y-77470000D03*
X201930000Y-74930000D03*
X201930000Y-80010000D03*
X201930000Y-62230000D03*
X201930000Y-57150000D03*
X201930000Y-59690000D03*
X201930000Y-54610000D03*
X201930000Y-64770000D03*
X201930000Y-67310000D03*
X201930000Y-69850000D03*
X201930000Y-52070000D03*
X204470000Y-49530000D03*
X204470000Y-85090000D03*
X204470000Y-82550000D03*
X204470000Y-87630000D03*
X204470000Y-72390000D03*
X204470000Y-77470000D03*
X204470000Y-74930000D03*
X204470000Y-80010000D03*
X204470000Y-62230000D03*
X204470000Y-57150000D03*
X204470000Y-59690000D03*
X204470000Y-54610000D03*
X204470000Y-64770000D03*
X204470000Y-67310000D03*
X204470000Y-69850000D03*
X204470000Y-52070000D03*
X207010000Y-49530000D03*
X207010000Y-85090000D03*
X207010000Y-82550000D03*
X207010000Y-87630000D03*
X207010000Y-72390000D03*
X207010000Y-77470000D03*
X207010000Y-74930000D03*
X207010000Y-80010000D03*
X207010000Y-62230000D03*
X207010000Y-57150000D03*
X207010000Y-59690000D03*
X207010000Y-54610000D03*
X207010000Y-64770000D03*
X207010000Y-67310000D03*
X207010000Y-69850000D03*
X207010000Y-52070000D03*
X209550000Y-49530000D03*
X209550000Y-85090000D03*
X209550000Y-82550000D03*
X209550000Y-87630000D03*
X209550000Y-72390000D03*
X209550000Y-77470000D03*
X209550000Y-74930000D03*
X209550000Y-80010000D03*
X209550000Y-62230000D03*
X209550000Y-57150000D03*
X209550000Y-59690000D03*
X209550000Y-54610000D03*
X209550000Y-64770000D03*
X209550000Y-67310000D03*
X209550000Y-69850000D03*
X209550000Y-52070000D03*
X212090000Y-49530000D03*
X212090000Y-52070000D03*
X212090000Y-54610000D03*
X212090000Y-57150000D03*
X212090000Y-59690000D03*
X212090000Y-62230000D03*
X212090000Y-64770000D03*
X212090000Y-67310000D03*
X212090000Y-69850000D03*
X212090000Y-72390000D03*
X212090000Y-74930000D03*
X212090000Y-77470000D03*
X212090000Y-80010000D03*
X212090000Y-82550000D03*
X212090000Y-85090000D03*
X212090000Y-87630000D03*
%TD*%
D15*
%TO.C,A1*%
X259080000Y-68580000D03*
D16*
X226060000Y-83820000D03*
X256540000Y-68580000D03*
X228600000Y-83820000D03*
X254000000Y-68580000D03*
X231140000Y-83820000D03*
X251460000Y-68580000D03*
X233680000Y-83820000D03*
X248920000Y-68580000D03*
X236220000Y-83820000D03*
X246380000Y-68580000D03*
X238760000Y-83820000D03*
X243840000Y-68580000D03*
X241300000Y-83820000D03*
X241300000Y-68580000D03*
X243840000Y-83820000D03*
X238760000Y-68580000D03*
X246380000Y-83820000D03*
X236220000Y-68580000D03*
X248920000Y-83820000D03*
X233680000Y-68580000D03*
X251460000Y-83820000D03*
X231140000Y-68580000D03*
X254000000Y-83820000D03*
X228600000Y-68580000D03*
X256540000Y-83820000D03*
X226060000Y-68580000D03*
X259080000Y-83820000D03*
X223520000Y-68580000D03*
X223520000Y-83820000D03*
%TD*%
D17*
%TO.C,C1*%
X210225001Y-101264999D03*
X210225001Y-96264999D03*
%TD*%
%TO.C,C2*%
X210225001Y-104414999D03*
X210225001Y-109414999D03*
%TD*%
D18*
%TO.C,D1*%
X242570000Y-49530000D03*
D19*
X240030000Y-49530000D03*
%TD*%
D20*
%TO.C,J1*%
X260350000Y-96520000D03*
X260350000Y-99060000D03*
X260350000Y-101600000D03*
D21*
X260350000Y-104140000D03*
%TD*%
%TO.C,J3*%
X226060000Y-62230000D03*
D20*
X228600000Y-62230000D03*
X231140000Y-62230000D03*
X233680000Y-62230000D03*
X236220000Y-62230000D03*
X238760000Y-62230000D03*
X241300000Y-62230000D03*
X243840000Y-62230000D03*
X246380000Y-62230000D03*
X248920000Y-62230000D03*
X251460000Y-62230000D03*
X254000000Y-62230000D03*
%TD*%
D21*
%TO.C,J4*%
X224790000Y-88900000D03*
D20*
X227330000Y-88900000D03*
X229870000Y-88900000D03*
X232410000Y-88900000D03*
X234950000Y-88900000D03*
X237490000Y-88900000D03*
X240030000Y-88900000D03*
X242570000Y-88900000D03*
X245110000Y-88900000D03*
X247650000Y-88900000D03*
X250190000Y-88900000D03*
X252730000Y-88900000D03*
X255270000Y-88900000D03*
%TD*%
D21*
%TO.C,J5*%
X193040000Y-41910000D03*
D20*
X195580000Y-41910000D03*
X198120000Y-41910000D03*
X200660000Y-41910000D03*
X203200000Y-41910000D03*
X205740000Y-41910000D03*
X208280000Y-41910000D03*
X210820000Y-41910000D03*
X213360000Y-41910000D03*
X215900000Y-41910000D03*
X218440000Y-41910000D03*
%TD*%
D21*
%TO.C,J18*%
X236220000Y-41910000D03*
D20*
X238760000Y-41910000D03*
X241300000Y-41910000D03*
X243840000Y-41910000D03*
X246380000Y-41910000D03*
X248920000Y-41910000D03*
X251460000Y-41910000D03*
X254000000Y-41910000D03*
X256540000Y-41910000D03*
X259080000Y-41910000D03*
X261620000Y-41910000D03*
%TD*%
%TO.C,J31*%
X218440000Y-121920000D03*
X215900000Y-121920000D03*
X213360000Y-121920000D03*
X210820000Y-121920000D03*
X208280000Y-121920000D03*
X205740000Y-121920000D03*
X203200000Y-121920000D03*
X200660000Y-121920000D03*
X198120000Y-121920000D03*
X195580000Y-121920000D03*
D21*
X193040000Y-121920000D03*
%TD*%
M02*
