M48
; DRILL file {KiCad (5.1.6)-1} date 11/05/20 12:41:28
; FORMAT={-:-/ absolute / inch / decimal}
; #@! TF.CreationDate,2020-11-05T12:41:28-06:00
; #@! TF.GenerationSoftware,Kicad,Pcbnew,(5.1.6)-1
; #@! TF.FileFunction,Plated,1,2,PTH
FMAT,2
INCH
T1C0.0157
T2C0.0276
T3C0.0300
T4C0.0315
T5C0.0394
T6C0.0598
%
G90
G05
T1
X8.55Y-3.5
X8.65Y-3.55
X9.05Y-3.75
X9.05Y-5.2997
X9.1218Y-5.3282
X9.15Y-5.0
X9.15Y-5.05
X9.25Y-3.4
X9.345Y-3.38
X9.35Y-3.2
X9.7Y-3.4
X9.775Y-3.75
X9.8Y-3.4
X10.0Y-3.675
X10.05Y-4.6
X10.05Y-4.7
X10.1Y-4.75
X10.15Y-4.85
X10.2Y-3.75
T2
X9.8Y-1.95
X10.1Y-1.95
X7.75Y-4.0
X7.75Y-4.3
X8.0Y-4.0
X8.0Y-4.3
T3
X10.7561Y-2.95
X10.7561Y-3.05
X10.7561Y-3.15
X10.7561Y-3.25
X7.1439Y-2.95
X7.1439Y-3.05
X7.1439Y-3.15
X7.1439Y-3.25
X8.05Y-5.25
X8.15Y-5.25
X8.25Y-5.25
X8.35Y-5.25
X10.05Y-5.25
X10.15Y-5.25
X10.25Y-5.25
X10.35Y-5.25
X7.75Y-3.85
X7.85Y-3.85
X7.95Y-3.85
X7.75Y-1.95
X7.75Y-2.05
X7.75Y-2.15
X7.75Y-2.25
X7.75Y-2.35
X7.75Y-2.45
X7.75Y-2.55
X7.75Y-2.65
X7.75Y-2.75
X7.75Y-2.85
X7.75Y-2.95
X7.75Y-3.05
X7.75Y-3.15
X7.75Y-3.25
X7.75Y-3.35
X7.75Y-3.45
X7.85Y-1.95
X7.85Y-2.05
X7.85Y-2.15
X7.85Y-2.25
X7.85Y-2.35
X7.85Y-2.45
X7.85Y-2.55
X7.85Y-2.65
X7.85Y-2.75
X7.85Y-2.85
X7.85Y-2.95
X7.85Y-3.05
X7.85Y-3.15
X7.85Y-3.25
X7.85Y-3.35
X7.85Y-3.45
X7.95Y-1.95
X7.95Y-2.05
X7.95Y-2.15
X7.95Y-2.25
X7.95Y-2.35
X7.95Y-2.45
X7.95Y-2.55
X7.95Y-2.65
X7.95Y-2.75
X7.95Y-2.85
X7.95Y-2.95
X7.95Y-3.05
X7.95Y-3.15
X7.95Y-3.25
X7.95Y-3.35
X7.95Y-3.45
X8.05Y-1.95
X8.05Y-2.05
X8.05Y-2.15
X8.05Y-2.25
X8.05Y-2.35
X8.05Y-2.45
X8.05Y-2.55
X8.05Y-2.65
X8.05Y-2.75
X8.05Y-2.85
X8.05Y-2.95
X8.05Y-3.05
X8.05Y-3.15
X8.05Y-3.25
X8.05Y-3.35
X8.05Y-3.45
X8.15Y-1.95
X8.15Y-2.05
X8.15Y-2.15
X8.15Y-2.25
X8.15Y-2.35
X8.15Y-2.45
X8.15Y-2.55
X8.15Y-2.65
X8.15Y-2.75
X8.15Y-2.85
X8.15Y-2.95
X8.15Y-3.05
X8.15Y-3.15
X8.15Y-3.25
X8.15Y-3.35
X8.15Y-3.45
X8.25Y-1.95
X8.25Y-2.05
X8.25Y-2.15
X8.25Y-2.25
X8.25Y-2.35
X8.25Y-2.45
X8.25Y-2.55
X8.25Y-2.65
X8.25Y-2.75
X8.25Y-2.85
X8.25Y-2.95
X8.25Y-3.05
X8.25Y-3.15
X8.25Y-3.25
X8.25Y-3.35
X8.25Y-3.45
X8.35Y-1.95
X8.35Y-2.05
X8.35Y-2.15
X8.35Y-2.25
X8.35Y-2.35
X8.35Y-2.45
X8.35Y-2.55
X8.35Y-2.65
X8.35Y-2.75
X8.35Y-2.85
X8.35Y-2.95
X8.35Y-3.05
X8.35Y-3.15
X8.35Y-3.25
X8.35Y-3.35
X8.35Y-3.45
X8.9Y-3.85
X8.9Y-4.45
X9.0Y-3.85
X9.0Y-4.45
X9.1Y-3.85
X9.1Y-4.45
X9.2Y-3.85
X9.2Y-4.45
X9.3Y-3.85
X9.3Y-4.45
X9.4Y-3.85
X9.4Y-4.45
X9.5Y-3.85
X9.5Y-4.45
X9.6Y-3.85
X9.6Y-4.45
X9.7Y-3.85
X9.7Y-4.45
X9.8Y-3.85
X9.8Y-4.45
X9.9Y-3.85
X9.9Y-4.45
X10.0Y-3.85
X10.0Y-4.45
X7.55Y-5.25
X7.65Y-5.25
X7.75Y-5.25
X7.85Y-5.25
X10.7561Y-3.6
X10.7561Y-3.7
X10.7561Y-3.8
X10.7561Y-3.9
X7.1439Y-3.6
X7.1439Y-3.7
X7.1439Y-3.8
X7.1439Y-3.9
X9.55Y-5.25
X9.65Y-5.25
X9.75Y-5.25
X9.85Y-5.25
T4
X8.2766Y-4.1108
X8.2766Y-4.3077
X8.2766Y-3.79
X8.2766Y-3.9868
T5
X8.8Y-2.7
X8.8Y-3.3
X8.9Y-2.7
X8.9Y-3.3
X9.0Y-2.7
X9.0Y-3.3
X9.1Y-2.7
X9.1Y-3.3
X9.2Y-2.7
X9.2Y-3.3
X9.3Y-2.7
X9.3Y-3.3
X9.4Y-2.7
X9.4Y-3.3
X9.5Y-2.7
X9.5Y-3.3
X9.6Y-2.7
X9.6Y-3.3
X9.7Y-2.7
X9.7Y-3.3
X9.8Y-2.7
X9.8Y-3.3
X9.9Y-2.7
X9.9Y-3.3
X10.0Y-2.7
X10.0Y-3.3
X10.1Y-2.7
X10.1Y-3.3
X10.2Y-2.7
X10.2Y-3.3
X9.3Y-1.65
X9.4Y-1.65
X9.5Y-1.65
X9.6Y-1.65
X9.7Y-1.65
X9.8Y-1.65
X9.9Y-1.65
X10.0Y-1.65
X10.1Y-1.65
X10.2Y-1.65
X10.3Y-1.65
X10.25Y-3.8
X10.25Y-3.9
X10.25Y-4.0
X10.25Y-4.1
X7.6Y-4.8
X7.7Y-4.8
X7.8Y-4.8
X7.9Y-4.8
X8.0Y-4.8
X8.1Y-4.8
X8.2Y-4.8
X8.3Y-4.8
X8.4Y-4.8
X8.5Y-4.8
X8.6Y-4.8
X9.45Y-1.95
X9.55Y-1.95
X7.6Y-1.65
X7.7Y-1.65
X7.8Y-1.65
X7.9Y-1.65
X8.0Y-1.65
X8.1Y-1.65
X8.2Y-1.65
X8.3Y-1.65
X8.4Y-1.65
X8.5Y-1.65
X8.6Y-1.65
X8.85Y-3.5
X8.95Y-3.5
X9.05Y-3.5
X9.15Y-3.5
X9.25Y-3.5
X9.35Y-3.5
X9.45Y-3.5
X9.55Y-3.5
X9.65Y-3.5
X9.75Y-3.5
X9.85Y-3.5
X9.95Y-3.5
X10.05Y-3.5
X8.9Y-2.45
X9.0Y-2.45
X9.1Y-2.45
X9.2Y-2.45
X9.3Y-2.45
X9.4Y-2.45
X9.5Y-2.45
X9.6Y-2.45
X9.7Y-2.45
X9.8Y-2.45
X9.9Y-2.45
X10.0Y-2.45
T6
X7.25Y-1.65
X7.25Y-1.85
X7.25Y-2.55
X7.25Y-2.75
X10.65Y-2.1
X10.65Y-2.3
X10.65Y-5.05
X10.65Y-5.25
X7.25Y-4.6
X7.25Y-4.8
X10.65Y-1.65
X10.65Y-1.85
X7.25Y-4.1281
X7.25Y-4.3281
X10.65Y-4.15
X10.65Y-4.35
X10.65Y-2.55
X10.65Y-2.75
X7.25Y-2.1
X7.25Y-2.3
X7.25Y-5.05
X7.25Y-5.25
X8.85Y-1.75
X9.05Y-1.75
X10.65Y-4.6
X10.65Y-4.8
T0
M30
