  0
SECTION
  2
HEADER
  9
$ACADVER
  1
AC1015
  9
$ACADMAINTVER
 70
     6
  9
$DWGCODEPAGE
  3
ANSI_1252
  9
$INSBASE
 10
0.0
 20
0.0
 30
0.0
  9
$EXTMIN
 10
0.0
 20
-0.1875
 30
0.0
  9
$EXTMAX
 10
10.5
 20
7.1875
 30
0.0
  9
$LIMMIN
 10
0.0
 20
0.0
  9
$LIMMAX
 10
12.0
 20
9.0
  9
$ORTHOMODE
 70
     0
  9
$REGENMODE
 70
     1
  9
$FILLMODE
 70
     1
  9
$QTEXTMODE
 70
     0
  9
$MIRRTEXT
 70
     1
  9
$LTSCALE
 40
1.0
  9
$ATTMODE
 70
     1
  9
$TEXTSIZE
 40
0.1377952756
  9
$TRACEWID
 40
0.05
  9
$TEXTSTYLE
  7
Standard
  9
$CLAYER
  8
0
  9
$CELTYPE
  6
ByLayer
  9
$CECOLOR
 62
   256
  9
$CELTSCALE
 40
1.0
  9
$DISPSILH
 70
     0
  9
$DIMSCALE
 40
1.0
  9
$DIMASZ
 40
0.13
  9
$DIMEXO
 40
0.0393700787
  9
$DIMDLI
 40
0.38
  9
$DIMRND
 40
0.0
  9
$DIMDLE
 40
0.0
  9
$DIMEXE
 40
0.0393700787
  9
$DIMTP
 40
0.0
  9
$DIMTM
 40
0.0
  9
$DIMTXT
 40
0.1377952756
  9
$DIMCEN
 40
0.09
  9
$DIMTSZ
 40
0.0
  9
$DIMTOL
 70
     0
  9
$DIMLIM
 70
     0
  9
$DIMTIH
 70
     1
  9
$DIMTOH
 70
     1
  9
$DIMSE1
 70
     0
  9
$DIMSE2
 70
     0
  9
$DIMTAD
 70
     1
  9
$DIMZIN
 70
     1
  9
$DIMBLK
  1

  9
$DIMASO
 70
     1
  9
$DIMSHO
 70
     1
  9
$DIMPOST
  1

  9
$DIMAPOST
  1

  9
$DIMALT
 70
     0
  9
$DIMALTD
 70
     2
  9
$DIMALTF
 40
25.4
  9
$DIMLFAC
 40
1.0
  9
$DIMTOFL
 70
     0
  9
$DIMTVP
 40
0.0
  9
$DIMTIX
 70
     0
  9
$DIMSOXD
 70
     0
  9
$DIMSAH
 70
     0
  9
$DIMBLK1
  1

  9
$DIMBLK2
  1

  9
$DIMSTYLE
  2
Standard
  9
$DIMCLRD
 70
     0
  9
$DIMCLRE
 70
     0
  9
$DIMCLRT
 70
     0
  9
$DIMTFAC
 40
1.0
  9
$DIMGAP
 40
0.06
  9
$DIMJUST
 70
     0
  9
$DIMSD1
 70
     0
  9
$DIMSD2
 70
     0
  9
$DIMTOLJ
 70
     1
  9
$DIMTZIN
 70
     1
  9
$DIMALTZ
 70
     0
  9
$DIMALTTZ
 70
     0
  9
$DIMUPT
 70
     0
  9
$DIMDEC
 70
     2
  9
$DIMTDEC
 70
     2
  9
$DIMALTU
 70
     2
  9
$DIMALTTD
 70
     2
  9
$DIMTXSTY
  7
Standard
  9
$DIMAUNIT
 70
     0
  9
$DIMADEC
 70
     2
  9
$DIMALTRND
 40
0.0
  9
$DIMAZIN
 70
     0
  9
$DIMDSEP
 70
    46
  9
$DIMATFIT
 70
     3
  9
$DIMFRAC
 70
     0
  9
$DIMLDRBLK
  1

  9
$DIMLUNIT
 70
     2
  9
$DIMLWD
 70
    -2
  9
$DIMLWE
 70
    -2
  9
$DIMTMOVE
 70
     0
  9
$LUNITS
 70
     2
  9
$LUPREC
 70
     3
  9
$SKETCHINC
 40
0.1
  9
$FILLETRAD
 40
0.5
  9
$AUNITS
 70
     0
  9
$AUPREC
 70
     2
  9
$MENU
  1
.
  9
$ELEVATION
 40
0.0
  9
$PELEVATION
 40
0.0
  9
$THICKNESS
 40
0.0
  9
$LIMCHECK
 70
     0
  9
$CHAMFERA
 40
0.0
  9
$CHAMFERB
 40
0.0
  9
$CHAMFERC
 40
0.0
  9
$CHAMFERD
 40
0.0
  9
$SKPOLY
 70
     0
  9
$TDCREATE
 40
2458799.811640301
  9
$TDUCREATE
 40
2458800.061640301
  9
$TDUPDATE
 40
2458799.811737604
  9
$TDUUPDATE
 40
2458800.061737604
  9
$TDINDWG
 40
0.0000000116
  9
$TDUSRTIMER
 40
0.0000000116
  9
$USRTIMER
 70
     1
  9
$ANGBASE
 50
0.0
  9
$ANGDIR
 70
     0
  9
$PDMODE
 70
     0
  9
$PDSIZE
 40
-1.0
  9
$PLINEWID
 40
0.0
  9
$SPLFRAME
 70
     0
  9
$SPLINETYPE
 70
     6
  9
$SPLINESEGS
 70
     8
  9
$HANDSEED
  5
178
  9
$SURFTAB1
 70
     6
  9
$SURFTAB2
 70
     6
  9
$SURFTYPE
 70
     6
  9
$SURFU
 70
     6
  9
$SURFV
 70
     6
  9
$UCSBASE
  2

  9
$UCSNAME
  2

  9
$UCSORG
 10
0.0
 20
0.0
 30
0.0
  9
$UCSXDIR
 10
1.0
 20
0.0
 30
0.0
  9
$UCSYDIR
 10
0.0
 20
1.0
 30
0.0
  9
$UCSORTHOREF
  2

  9
$UCSORTHOVIEW
 70
     0
  9
$UCSORGTOP
 10
0.0
 20
0.0
 30
0.0
  9
$UCSORGBOTTOM
 10
0.0
 20
0.0
 30
0.0
  9
$UCSORGLEFT
 10
0.0
 20
0.0
 30
0.0
  9
$UCSORGRIGHT
 10
0.0
 20
0.0
 30
0.0
  9
$UCSORGFRONT
 10
0.0
 20
0.0
 30
0.0
  9
$UCSORGBACK
 10
0.0
 20
0.0
 30
0.0
  9
$PUCSBASE
  2

  9
$PUCSNAME
  2

  9
$PUCSORG
 10
0.0
 20
0.0
 30
0.0
  9
$PUCSXDIR
 10
1.0
 20
0.0
 30
0.0
  9
$PUCSYDIR
 10
0.0
 20
1.0
 30
0.0
  9
$PUCSORTHOREF
  2

  9
$PUCSORTHOVIEW
 70
     0
  9
$PUCSORGTOP
 10
0.0
 20
0.0
 30
0.0
  9
$PUCSORGBOTTOM
 10
0.0
 20
0.0
 30
0.0
  9
$PUCSORGLEFT
 10
0.0
 20
0.0
 30
0.0
  9
$PUCSORGRIGHT
 10
0.0
 20
0.0
 30
0.0
  9
$PUCSORGFRONT
 10
0.0
 20
0.0
 30
0.0
  9
$PUCSORGBACK
 10
0.0
 20
0.0
 30
0.0
  9
$USERI1
 70
     0
  9
$USERI2
 70
     0
  9
$USERI3
 70
     0
  9
$USERI4
 70
     0
  9
$USERI5
 70
     0
  9
$USERR1
 40
0.0
  9
$USERR2
 40
0.0
  9
$USERR3
 40
0.0
  9
$USERR4
 40
0.0
  9
$USERR5
 40
0.0
  9
$WORLDVIEW
 70
     1
  9
$SHADEDGE
 70
     3
  9
$SHADEDIF
 70
    70
  9
$TILEMODE
 70
     1
  9
$MAXACTVP
 70
    64
  9
$PINSBASE
 10
0.0
 20
0.0
 30
0.0
  9
$PLIMCHECK
 70
     0
  9
$PEXTMIN
 10
1.0000000000E+20
 20
1.0000000000E+20
 30
1.0000000000E+20
  9
$PEXTMAX
 10
-1.0000000000E+20
 20
-1.0000000000E+20
 30
-1.0000000000E+20
  9
$PLIMMIN
 10
0.0
 20
0.0
  9
$PLIMMAX
 10
12.0
 20
9.0
  9
$UNITMODE
 70
     0
  9
$VISRETAIN
 70
     1
  9
$PLINEGEN
 70
     0
  9
$PSLTSCALE
 70
     1
  9
$TREEDEPTH
 70
  3020
  9
$CMLSTYLE
  2
Standard
  9
$CMLJUST
 70
     0
  9
$CMLSCALE
 40
1.0
  9
$PROXYGRAPHICS
 70
     1
  9
$MEASUREMENT
 70
     0
  9
$CELWEIGHT
370
    -1
  9
$ENDCAPS
280
     0
  9
$JOINSTYLE
280
     0
  9
$LWDISPLAY
290
     1
  9
$INSUNITS
 70
     1
  9
$HYPERLINKBASE
  1

  9
$STYLESHEET
  1

  9
$XEDIT
290
     1
  9
$CEPSNTYPE
380
     0
  9
$PSTYLEMODE
290
     1
  9
$FINGERPRINTGUID
  2
{7b1b3733-8100-42f4-bcef-d306e5221a58}
  9
$VERSIONGUID
  2
{FAEB1C32-E019-11D5-929B-00C0DF256EC4}
  9
$EXTNAMES
290
     1
  9
$PSVPSCALE
 40
0.0
  9
$OLESTARTUP
290
     0
  0
ENDSEC
  0
SECTION
  2
CLASSES
  0
CLASS
  1
ACDBDICTIONARYWDFLT
  2
AcDbDictionaryWithDefault
  3
ObjectDBX Classes
 90
        0
280
     0
281
     0
  0
CLASS
  1
VISUALSTYLE
  2
AcDbVisualStyle
  3
ObjectDBX Classes
 90
     4095
280
     0
281
     0
  0
CLASS
  1
MATERIAL
  2
AcDbMaterial
  3
ObjectDBX Classes
 90
     1153
280
     0
281
     0
  0
CLASS
  1
SCALE
  2
AcDbScale
  3
ObjectDBX Classes
 90
     1153
280
     0
281
     0
  0
CLASS
  1
TABLESTYLE
  2
AcDbTableStyle
  3
ObjectDBX Classes
 90
     4095
280
     0
281
     0
  0
CLASS
  1
MLEADERSTYLE
  2
AcDbMLeaderStyle
  3
ACDB_MLEADERSTYLE_CLASS
 90
     4095
280
     0
281
     0
  0
CLASS
  1
SUN
  2
AcDbSun
  3
SCENEOE
 90
     1153
280
     0
281
     0
  0
CLASS
  1
ACDBPLACEHOLDER
  2
AcDbPlaceHolder
  3
ObjectDBX Classes
 90
        0
280
     0
281
     0
  0
CLASS
  1
LAYOUT
  2
AcDbLayout
  3
ObjectDBX Classes
 90
        0
280
     0
281
     0
  0
ENDSEC
  0
SECTION
  2
TABLES
  0
TABLE
  2
VPORT
  5
8
330
0
100
AcDbSymbolTable
 70
     1
  0
VPORT
  5
29
330
8
100
AcDbSymbolTableRecord
100
AcDbViewportTableRecord
  2
*Active
 70
     0
 10
0.0
 20
0.0
 11
1.0
 21
1.0
 12
5.25
 22
3.5
 13
0.0
 23
0.0
 14
0.5
 24
0.5
 15
0.5
 25
0.5
 16
0.0
 26
0.0
 36
1.0
 17
0.0
 27
0.0
 37
0.0
 40
7.5225
 41
1.4237288136
 42
50.0
 43
0.0
 44
0.0
 50
0.0
 51
0.0
 71
     0
 72
   100
 73
     1
 74
     3
 75
     0
 76
     0
 77
     0
 78
     0
281
     0
 65
     1
110
0.0
120
0.0
130
0.0
111
1.0
121
0.0
131
0.0
112
0.0
122
1.0
132
0.0
 79
     0
146
0.0
  0
ENDTAB
  0
TABLE
  2
LTYPE
  5
5
330
0
100
AcDbSymbolTable
 70
     6
  0
LTYPE
  5
14
330
5
100
AcDbSymbolTableRecord
100
AcDbLinetypeTableRecord
  2
ByBlock
 70
     0
  3

 72
    65
 73
     0
 40
0.0
  0
LTYPE
  5
15
330
5
100
AcDbSymbolTableRecord
100
AcDbLinetypeTableRecord
  2
ByLayer
 70
     0
  3

 72
    65
 73
     0
 40
0.0
  0
LTYPE
  5
16
330
5
100
AcDbSymbolTableRecord
100
AcDbLinetypeTableRecord
  2
Continuous
 70
     0
  3
Solid line
 72
    65
 73
     0
 40
0.0
  0
LTYPE
  5
6E
330
5
100
AcDbSymbolTableRecord
100
AcDbLinetypeTableRecord
  2
HIDDEN
 70
     0
  3
Hidden __ __ __ __ __ __ __ __ __ __ __ __ __ __
 72
    65
 73
     2
 40
0.075
 49
0.05
 74
     0
 49
-0.025
 74
     0
  0
LTYPE
  5
6F
330
5
100
AcDbSymbolTableRecord
100
AcDbLinetypeTableRecord
  2
PHANTOM
 70
     0
  3
Phantom ______  __  __  ______  __  __  ______
 72
    65
 73
     6
 40
0.5
 49
0.25
 74
     0
 49
-0.05
 74
     0
 49
0.05
 74
     0
 49
-0.05
 74
     0
 49
0.05
 74
     0
 49
-0.05
 74
     0
  0
LTYPE
  5
70
330
5
100
AcDbSymbolTableRecord
100
AcDbLinetypeTableRecord
  2
CENTER
 70
     0
  3
Center ____ _ ____ _ ____ _ ____ _ ____ _ ____
 72
    65
 73
     4
 40
0.4
 49
0.25
 74
     0
 49
-0.05
 74
     0
 49
0.05
 74
     0
 49
-0.05
 74
     0
  0
LTYPE
  5
71
330
5
100
AcDbSymbolTableRecord
100
AcDbLinetypeTableRecord
  2
CENTERX2
 70
     0
  3
Center (2x) ________  __  ________  __  _____
 72
    65
 73
     4
 40
0.8
 49
0.5
 74
     0
 49
-0.1
 74
     0
 49
0.1
 74
     0
 49
-0.1
 74
     0
  0
LTYPE
  5
72
330
5
100
AcDbSymbolTableRecord
100
AcDbLinetypeTableRecord
  2
DOT2
 70
     0
  3
Dot (.5x) ........................................
 72
    65
 73
     2
 40
0.025
 49
0.0
 74
     0
 49
-0.025
 74
     0
  0
ENDTAB
  0
TABLE
  2
LAYER
  5
2
330
0
100
AcDbSymbolTable
 70
     1
  0
LAYER
  5
10
330
2
100
AcDbSymbolTableRecord
100
AcDbLayerTableRecord
  2
0
 70
     0
 62
     7
  6
Continuous
370
    -3
390
F
  0
ENDTAB
  0
TABLE
  2
STYLE
  5
3
330
0
100
AcDbSymbolTable
 70
     2
  0
STYLE
  5
11
330
3
100
AcDbSymbolTableRecord
100
AcDbTextStyleTableRecord
  2
Standard
 70
     0
 40
0.0
 41
1.0
 50
0.0
 71
     0
 42
0.1377952756
  3
txt
  4

  0
STYLE
  5
175
330
3
100
AcDbSymbolTableRecord
100
AcDbTextStyleTableRecord
  2
SLDTEXTSTYLE0
 70
     0
 40
0.0
 41
0.7
 50
0.0
 71
     0
 42
0.1377952756
  3
TXT
  4

  0
ENDTAB
  0
TABLE
  2
VIEW
  5
6
330
0
100
AcDbSymbolTable
 70
     0
  0
ENDTAB
  0
TABLE
  2
UCS
  5
7
330
0
100
AcDbSymbolTable
 70
     0
  0
ENDTAB
  0
TABLE
  2
APPID
  5
9
330
0
100
AcDbSymbolTable
 70
     1
  0
APPID
  5
12
330
9
100
AcDbSymbolTableRecord
100
AcDbRegAppTableRecord
  2
ACAD
 70
     0
  0
ENDTAB
  0
TABLE
  2
DIMSTYLE
  5
A
330
0
100
AcDbSymbolTable
 70
     1
100
AcDbDimStyleTable
  0
DIMSTYLE
105
27
330
A
100
AcDbSymbolTableRecord
100
AcDbDimStyleTableRecord
  2
Standard
 70
     0
178
     0
340
11
  0
ENDTAB
  0
TABLE
  2
BLOCK_RECORD
  5
1
330
0
100
AcDbSymbolTable
 70
     1
  0
BLOCK_RECORD
  5
1F
330
1
100
AcDbSymbolTableRecord
100
AcDbBlockTableRecord
  2
*Model_Space
340
22
  0
BLOCK_RECORD
  5
1B
330
1
100
AcDbSymbolTableRecord
100
AcDbBlockTableRecord
  2
*Paper_Space
340
1E
  0
BLOCK_RECORD
  5
23
330
1
100
AcDbSymbolTableRecord
100
AcDbBlockTableRecord
  2
*Paper_Space0
340
26
  0
ENDTAB
  0
ENDSEC
  0
SECTION
  2
BLOCKS
  0
BLOCK
  5
20
330
1F
100
AcDbEntity
  8
0
100
AcDbBlockBegin
  2
*Model_Space
 70
     0
 10
0.0
 20
0.0
 30
0.0
  3
*Model_Space
  1

  0
ENDBLK
  5
21
330
1F
100
AcDbEntity
  8
0
100
AcDbBlockEnd
  0
BLOCK
  5
1C
330
1B
100
AcDbEntity
 67
     1
  8
0
100
AcDbBlockBegin
  2
*Paper_Space
 70
     0
 10
0.0
 20
0.0
 30
0.0
  3
*Paper_Space
  1

  0
ENDBLK
  5
1D
330
1B
100
AcDbEntity
 67
     1
  8
0
100
AcDbBlockEnd
  0
BLOCK
  5
24
330
23
100
AcDbEntity
  8
0
100
AcDbBlockBegin
  2
*Paper_Space0
 70
     0
 10
0.0
 20
0.0
 30
0.0
  3
*Paper_Space0
  1

  0
ENDBLK
  5
25
330
23
100
AcDbEntity
  8
0
100
AcDbBlockEnd
  0
ENDSEC
  0
SECTION
  2
ENTITIES
  0
LWPOLYLINE
  5
73
330
1F
100
AcDbEntity
  8
0
  6
Continuous
 62
     7
100
AcDbPolyline
 90
       16
 70
   128
 43
0.0
 10
4.0017643313
 20
4.0561624268
 10
4.0017666061
 20
4.0702952756
 10
4.0017666061
 20
4.0702952756
 10
4.0741974561
 20
4.0702952756
 10
4.0741974561
 20
4.0702952756
 10
4.0741974561
 20
4.0561624268
 10
4.0741974561
 20
4.0561624268
 10
4.0441651524
 20
4.0561624268
 10
4.0441651524
 20
4.0561624268
 10
4.0441651524
 20
3.9325
 10
4.0441651524
 20
3.9325
 10
4.0317989098
 20
3.9325
 10
4.0317989098
 20
3.9325
 10
4.0317989098
 20
4.0561624268
 10
4.0317989098
 20
4.0561624268
 10
4.0017666061
 20
4.0561624268
  0
LWPOLYLINE
  5
74
330
1F
100
AcDbEntity
  8
0
  6
Continuous
 62
     7
100
AcDbPolyline
 90
       59
 70
   128
 43
0.0
 10
4.0953952496
 20
4.0702952756
 10
4.1229723463
 20
4.0702952756
 10
4.1229723463
 20
4.0702952756
 10
4.1284929904
 20
4.0702676724
 10
4.1335719829
 20
4.0701848627
 10
4.1381541175
 20
4.0700192434
 10
4.1422946005
 20
4.0698260208
 10
4.1459658288
 20
4.0695499886
 10
4.1491678023
 20
4.0692463532
 10
4.1519281244
 20
4.0688599081
 10
4.1541915884
 20
4.0684182566
 10
4.1541915884
 20
4.0684182566
 10
4.1572003394
 20
4.0676177632
 10
4.1600710743
 20
4.0665964441
 10
4.1628037932
 20
4.0653819024
 10
4.1653708926
 20
4.0639741381
 10
4.167799976
 20
4.0623455482
 10
4.1700910433
 20
4.0605237356
 10
4.1722440945
 20
4.0585087005
 10
4.1742315263
 20
4.0562728397
 10
4.1760533389
 20
4.0538989627
 10
4.1776267224
 20
4.0513594665
 10
4.178951677
 20
4.0487095573
 10
4.1800282026
 20
4.0459216321
 10
4.1808839024
 20
4.0429956907
 10
4.1814911733
 20
4.0399593365
 10
4.1818500151
 20
4.036757363
 10
4.181960428
 20
4.0334449765
 10
4.181960428
 20
4.0334449765
 10
4.1816291894
 20
4.0279519357
 10
4.1806078702
 20
4.0228177367
 10
4.1788964706
 20
4.0180147764
 10
4.1765225936
 20
4.0135430547
 10
4.1735138426
 20
4.0095129846
 10
4.169925424
 20
4.0060073756
 10
4.1657297345
 20
4.0030262278
 10
4.1609819806
 20
4.0005695412
 10
4.1583320715
 20
3.999548222
 10
4.1554613366
 20
3.9986373158
 10
4.1523421727
 20
3.9978920288
 10
4.1489745798
 20
3.9972571548
 10
4.1453585579
 20
3.9967602968
 10
4.1415217103
 20
3.9964014549
 10
4.1374364337
 20
3.9961806292
 10
4.1331027281
 20
3.9960978195
 10
4.1331027281
 20
3.9960978195
 10
4.1837270341
 20
3.9325
 10
4.1837270341
 20
3.9325
 10
4.1684348501
 20
3.9325
 10
4.1684348501
 20
3.9325
 10
4.1178105441
 20
3.9960978195
 10
4.1178105441
 20
3.9960978195
 10
4.1077629719
 20
3.9960978195
 10
4.1077629719
 20
3.9960978195
 10
4.1077629719
 20
3.9325
 10
4.1077629719
 20
3.9325
 10
4.0953967293
 20
3.9325
 10
4.0953967293
 20
3.9325
 10
4.0953967293
 20
4.0702952756
  0
LWPOLYLINE
  5
75
330
1F
100
AcDbEntity
  8
0
  6
Continuous
 62
     7
100
AcDbPolyline
 90
       40
 70
   128
 43
0.0
 10
4.1077620401
 20
4.0561624268
 10
4.1077629719
 20
4.0102306683
 10
4.1077629719
 20
4.0102306683
 10
4.1329923153
 20
4.0100374457
 10
4.1329923153
 20
4.0100374457
 10
4.1365255275
 20
4.010065049
 10
4.1398379139
 20
4.0102030651
 10
4.1429018713
 20
4.0103962876
 10
4.145745003
 20
4.0106723198
 10
4.1483397057
 20
4.0110311617
 10
4.1506859795
 20
4.0114728132
 10
4.1528114274
 20
4.0119972744
 10
4.1546884464
 20
4.0126045452
 10
4.1580008328
 20
4.0140951191
 10
4.1609543774
 20
4.0159445349
 10
4.1634938737
 20
4.0182079989
 10
4.1656469248
 20
4.0208303049
 10
4.1673859277
 20
4.0237562462
 10
4.1686004694
 20
4.0268202037
 10
4.1693457564
 20
4.0300773837
 10
4.1695941853
 20
4.0334725797
 10
4.1695941853
 20
4.0334725797
 10
4.1693457564
 20
4.0367849662
 10
4.1686004694
 20
4.0399593365
 10
4.1673307213
 20
4.0429680875
 10
4.1655917184
 20
4.0458112192
 10
4.1634386672
 20
4.0484059219
 10
4.1609819806
 20
4.0505865763
 10
4.1582216586
 20
4.0523807856
 10
4.1551300979
 20
4.0537609466
 10
4.1533634918
 20
4.0543130111
 10
4.1513484567
 20
4.054809869
 10
4.1490573895
 20
4.0552239173
 10
4.1465178932
 20
4.055555156
 10
4.1436747615
 20
4.0558311882
 10
4.1405832008
 20
4.0560244107
 10
4.137215608
 20
4.0561348236
 10
4.1335995861
 20
4.0561624268
 10
4.1335995861
 20
4.0561624268
 10
4.1077629719
 20
4.0561624268
  0
LWPOLYLINE
  5
76
330
1F
100
AcDbEntity
  8
0
  6
Continuous
 62
     7
100
AcDbPolyline
 90
       24
 70
   128
 43
0.0
 10
4.2119927294
 20
4.0702952756
 10
4.2897234
 20
4.0702952756
 10
4.2897234
 20
4.0702952756
 10
4.2897234
 20
4.0561624268
 10
4.2897234
 20
4.0561624268
 10
4.2243589744
 20
4.0561624268
 10
4.2243589744
 20
4.0561624268
 10
4.2243589744
 20
4.0137638805
 10
4.2243589744
 20
4.0137638805
 10
4.2897234
 20
4.0137638805
 10
4.2897234
 20
4.0137638805
 10
4.2897234
 20
3.9996310317
 10
4.2897234
 20
3.9996310317
 10
4.2243589744
 20
3.9996310317
 10
4.2243589744
 20
3.9996310317
 10
4.2243589744
 20
3.9466328488
 10
4.2243589744
 20
3.9466328488
 10
4.2897234
 20
3.9466328488
 10
4.2897234
 20
3.9466328488
 10
4.2897234
 20
3.9325
 10
4.2897234
 20
3.9325
 10
4.2119927317
 20
3.9325
 10
4.2119927317
 20
3.9325
 10
4.2119927317
 20
4.0702952756
  0
LWPOLYLINE
  5
77
330
1F
100
AcDbEntity
  8
0
  6
Continuous
 62
     7
100
AcDbPolyline
 90
       18
 70
   128
 43
0.0
 10
4.3038542815
 20
4.0702952756
 10
4.3180167007
 20
4.0702952756
 10
4.3180167007
 20
4.0702952756
 10
4.3542321257
 20
4.0110863681
 10
4.3542321257
 20
4.0110863681
 10
4.3903923443
 20
4.0702952756
 10
4.3903923443
 20
4.0702952756
 10
4.4045527963
 20
4.0702952756
 10
4.4045527963
 20
4.0702952756
 10
4.3603876439
 20
3.9980024417
 10
4.3603876439
 20
3.9980024417
 10
4.3603876439
 20
3.9325
 10
4.3603876439
 20
3.9325
 10
4.3480214012
 20
3.9325
 10
4.3480214012
 20
3.9325
 10
4.3480214012
 20
3.9980024417
 10
4.3480214012
 20
3.9980024417
 10
4.3038562487
 20
4.0702952756
  0
LWPOLYLINE
  5
78
330
1F
100
AcDbEntity
  8
0
  6
Continuous
 62
     7
100
AcDbPolyline
 90
       26
 70
   128
 43
0.0
 10
4.4752152886
 20
3.9325
 10
4.4934075623
 20
4.0702952756
 10
4.4934075623
 20
4.0702952756
 10
4.4951741684
 20
4.0702952756
 10
4.4951741684
 20
4.0702952756
 10
4.5520644054
 20
3.9572324854
 10
4.5520644054
 20
3.9572324854
 10
4.6088166263
 20
4.0702952756
 10
4.6088166263
 20
4.0702952756
 10
4.6106108356
 20
4.0702952756
 10
4.6106108356
 20
4.0702952756
 10
4.6289117706
 20
3.9325
 10
4.6289117706
 20
3.9325
 10
4.6164903215
 20
3.9325
 10
4.6164903215
 20
3.9325
 10
4.6032959822
 20
4.0316507672
 10
4.6032959822
 20
4.0316507672
 10
4.5535549793
 20
3.9325
 10
4.5535549793
 20
3.9325
 10
4.5507670541
 20
3.9325
 10
4.5507670541
 20
3.9325
 10
4.5008328286
 20
4.031871593
 10
4.5008328286
 20
4.031871593
 10
4.4876660925
 20
3.9325
 10
4.4876660925
 20
3.9325
 10
4.4752170402
 20
3.9325
  0
LWPOLYLINE
  5
79
330
1F
100
AcDbEntity
  8
0
  6
Continuous
 62
     7
100
AcDbPolyline
 90
       16
 70
   128
 43
0.0
 10
4.7137066135
 20
4.0702952756
 10
4.7773066828
 20
3.9325
 10
4.7773066828
 20
3.9325
 10
4.7638639145
 20
3.9325
 10
4.7638639145
 20
3.9325
 10
4.743492738
 20
3.9766651524
 10
4.743492738
 20
3.9766651524
 10
4.6810266505
 20
3.9766651524
 10
4.6810266505
 20
3.9766651524
 10
4.6600758063
 20
3.9325
 10
4.6600758063
 20
3.9325
 10
4.6465778316
 20
3.9325
 10
4.6465778316
 20
3.9325
 10
4.7119422572
 20
4.0702952756
 10
4.7119422572
 20
4.0702952756
 10
4.7137088633
 20
4.0702952756
  0
LWPOLYLINE
  5
7A
330
1F
100
AcDbEntity
  8
0
  6
Continuous
 62
     7
100
AcDbPolyline
 90
        6
 70
   128
 43
0.0
 10
4.7126858253
 20
4.0434373423
 10
4.687734233
 20
3.9907980012
 10
4.687734233
 20
3.9907980012
 10
4.736978378
 20
3.9907980012
 10
4.736978378
 20
3.9907980012
 10
4.7126875442
 20
4.0434373423
  0
LWPOLYLINE
  5
7B
330
1F
100
AcDbEntity
  8
0
  6
Continuous
 62
     7
100
AcDbPolyline
 90
       57
 70
   128
 43
0.0
 10
4.8020388198
 20
3.9325
 10
4.8020391682
 20
4.0702952756
 10
4.8020391682
 20
4.0702952756
 10
4.8298632142
 20
4.0702952756
 10
4.8298632142
 20
4.0702952756
 10
4.8371228611
 20
4.0702124659
 10
4.8438856501
 20
4.0699916402
 10
4.8501239779
 20
4.0696051951
 10
4.8558654477
 20
4.0690531307
 10
4.8610548531
 20
4.0683630502
 10
4.8657474006
 20
4.0675073503
 10
4.8699154868
 20
4.0664860312
 10
4.8735867151
 20
4.0653266959
 10
4.8735867151
 20
4.0653266959
 10
4.878334469
 20
4.0634220737
 10
4.8828061907
 20
4.0611862129
 10
4.8870294834
 20
4.0586191134
 10
4.8909767439
 20
4.0557483785
 10
4.8946479722
 20
4.0525188017
 10
4.8980707715
 20
4.0490131928
 10
4.9012175386
 20
4.0451487419
 10
4.9040882735
 20
4.0409806557
 10
4.9066829762
 20
4.0365365372
 10
4.9089188371
 20
4.0318991962
 10
4.910795856
 20
4.0270410294
 10
4.9123416364
 20
4.0219896401
 10
4.9135561781
 20
4.016717425
 10
4.9144118779
 20
4.0112243842
 10
4.9149363391
 20
4.0055381208
 10
4.9151019584
 20
3.9996586349
 10
4.9151019584
 20
3.9996586349
 10
4.9149639423
 20
3.9945520392
 10
4.914549894
 20
3.9896110627
 10
4.9138874167
 20
3.9848357056
 10
4.912921304
 20
3.9801983646
 10
4.9117067623
 20
3.9757266429
 10
4.9101885852
 20
3.9713929374
 10
4.9084219791
 20
3.9672248511
 10
4.9063793408
 20
3.9632223842
 10
4.9041158767
 20
3.9594131398
 10
4.9017143966
 20
3.9558799276
 10
4.8991196939
 20
3.9525675411
 10
4.8963869751
 20
3.9495587901
 10
4.8934610337
 20
3.9467708649
 10
4.8903970763
 20
3.9442589718
 10
4.8871398963
 20
3.9419955078
 10
4.8837447002
 20
3.9399804727
 10
4.8801010751
 20
3.9382138666
 10
4.8760986082
 20
3.9366956895
 10
4.8717372994
 20
3.9354259413
 10
4.8670447519
 20
3.934377019
 10
4.8619933626
 20
3.9335489224
 10
4.8565831314
 20
3.9329692547
 10
4.8508416616
 20
3.9326104129
 10
4.8447413499
 20
3.9325
 10
4.8447413499
 20
3.9325
 10
4.8020391682
 20
3.9325
  0
LWPOLYLINE
  5
7C
330
1F
100
AcDbEntity
  8
0
  6
Continuous
 62
     7
100
AcDbPolyline
 90
       58
 70
   128
 43
0.0
 10
4.8144032636
 20
3.9466328488
 10
4.8302220561
 20
3.9466328488
 10
4.8302220561
 20
3.9466328488
 10
4.8370400515
 20
3.9466880552
 10
4.8433335857
 20
3.9468536745
 10
4.8490750555
 20
3.9471297067
 10
4.8542644609
 20
3.9475161518
 10
4.8589294052
 20
3.9480130098
 10
4.863042285
 20
3.9485926774
 10
4.8666031004
 20
3.9493103611
 10
4.8696118514
 20
3.9501384578
 10
4.8696118514
 20
3.9501384578
 10
4.8733658894
 20
3.9515186188
 10
4.8769267048
 20
3.9531196055
 10
4.8802666944
 20
3.9549966245
 10
4.8833858583
 20
3.9570944693
 10
4.8863117997
 20
3.9594683462
 10
4.8890445185
 20
3.9620906521
 10
4.8915564115
 20
3.9649337838
 10
4.893875082
 20
3.9680529477
 10
4.8959453235
 20
3.9713929374
 10
4.8977395329
 20
3.9748985463
 10
4.8992853132
 20
3.9785697746
 10
4.9005274581
 20
3.9824342255
 10
4.9014935708
 20
3.9864918988
 10
4.9021836513
 20
3.9907151916
 10
4.9025976996
 20
3.9951041036
 10
4.9027357157
 20
3.9996862381
 10
4.9027357157
 20
3.9996862381
 10
4.9025976996
 20
4.0045168017
 10
4.9021284449
 20
4.0091541427
 10
4.9013831579
 20
4.0135982612
 10
4.9003342356
 20
4.0178767603
 10
4.8989816778
 20
4.0219896401
 10
4.8973254846
 20
4.0259092974
 10
4.8953932591
 20
4.0296633354
 10
4.8931297951
 20
4.0332241508
 10
4.890617902
 20
4.0365641404
 10
4.88785758
 20
4.0396280979
 10
4.8848764322
 20
4.0424160231
 10
4.8816744587
 20
4.0449555194
 10
4.8782240561
 20
4.0471913802
 10
4.8745252246
 20
4.0491788121
 10
4.8706055673
 20
4.0508626085
 10
4.8664374811
 20
4.052297976
 10
4.8664374811
 20
4.052297976
 10
4.8629594753
 20
4.0532088822
 10
4.8589846116
 20
4.0539817724
 10
4.8544576835
 20
4.0546442497
 10
4.8494338974
 20
4.0551963141
 10
4.8438856501
 20
4.0556103624
 10
4.8378129417
 20
4.0559139978
 10
4.831215772
 20
4.0561072204
 10
4.8240941412
 20
4.0561624268
 10
4.8240941412
 20
4.0561624268
 10
4.8144054109
 20
4.0561624268
 10
4.8144054109
 20
4.0561624268
 10
4.8144054109
 20
3.9466328488
  0
LWPOLYLINE
  5
7D
330
1F
100
AcDbEntity
  8
0
  6
Continuous
 62
     7
100
AcDbPolyline
 90
       24
 70
   128
 43
0.0
 10
4.9433651872
 20
4.0702952756
 10
5.0210983242
 20
4.0702952756
 10
5.0210983242
 20
4.0702952756
 10
5.0210983242
 20
4.0561624268
 10
5.0210983242
 20
4.0561624268
 10
4.9557338986
 20
4.0561624268
 10
4.9557338986
 20
4.0561624268
 10
4.9557338986
 20
4.0137638805
 10
4.9557338986
 20
4.0137638805
 10
5.0210983242
 20
4.0137638805
 10
5.0210983242
 20
4.0137638805
 10
5.0210983242
 20
3.9996310317
 10
5.0210983242
 20
3.9996310317
 10
4.9557338986
 20
3.9996310317
 10
4.9557338986
 20
3.9996310317
 10
4.9557338986
 20
3.9466328488
 10
4.9557338986
 20
3.9466328488
 10
5.0210983242
 20
3.9466328488
 10
5.0210983242
 20
3.9466328488
 10
5.0210983242
 20
3.9325
 10
5.0210983242
 20
3.9325
 10
4.943367656
 20
3.9325
 10
4.943367656
 20
3.9325
 10
4.943367656
 20
4.0702952756
  0
LWPOLYLINE
  5
7E
330
1F
100
AcDbEntity
  8
0
  6
Continuous
 62
     7
100
AcDbPolyline
 90
       16
 70
   128
 43
0.0
 10
5.0829292282
 20
4.0561624268
 10
5.0829295377
 20
4.0702952756
 10
5.0829295377
 20
4.0702952756
 10
5.1553603876
 20
4.0702952756
 10
5.1553603876
 20
4.0702952756
 10
5.1553603876
 20
4.0561624268
 10
5.1553603876
 20
4.0561624268
 10
5.125328084
 20
4.0561624268
 10
5.125328084
 20
4.0561624268
 10
5.125328084
 20
3.9325
 10
5.125328084
 20
3.9325
 10
5.1129618413
 20
3.9325
 10
5.1129618413
 20
3.9325
 10
5.1129618413
 20
4.0561624268
 10
5.1129618413
 20
4.0561624268
 10
5.0829295377
 20
4.0561624268
  0
LWPOLYLINE
  5
7F
330
1F
100
AcDbEntity
  8
0
  6
Continuous
 62
     7
100
AcDbPolyline
 90
       24
 70
   128
 43
0.0
 10
5.1765554533
 20
4.0702952756
 10
5.1889259035
 20
4.0702952756
 10
5.1889259035
 20
4.0702952756
 10
5.1889259035
 20
4.0137638805
 10
5.1889259035
 20
4.0137638805
 10
5.2595901474
 20
4.0137638805
 10
5.2595901474
 20
4.0137638805
 10
5.2595901474
 20
4.0702952756
 10
5.2595901474
 20
4.0702952756
 10
5.2719563901
 20
4.0702952756
 10
5.2719563901
 20
4.0702952756
 10
5.2719563901
 20
3.9325
 10
5.2719563901
 20
3.9325
 10
5.2595901474
 20
3.9325
 10
5.2595901474
 20
3.9325
 10
5.2595901474
 20
3.9996310317
 10
5.2595901474
 20
3.9996310317
 10
5.1889259035
 20
3.9996310317
 10
5.1889259035
 20
3.9996310317
 10
5.1889259035
 20
3.9325
 10
5.1889259035
 20
3.9325
 10
5.1765596608
 20
3.9325
 10
5.1765596608
 20
3.9325
 10
5.1765596608
 20
4.0702952756
  0
LWPOLYLINE
  5
80
330
1F
100
AcDbEntity
  8
0
  6
Continuous
 62
     7
100
AcDbPolyline
 90
        8
 70
   128
 43
0.0
 10
5.3072867431
 20
4.0702952756
 10
5.3196547547
 20
4.0702952756
 10
5.3196547547
 20
4.0702952756
 10
5.3196547547
 20
3.9325
 10
5.3196547547
 20
3.9325
 10
5.307288512
 20
3.9325
 10
5.307288512
 20
3.9325
 10
5.307288512
 20
4.0702952756
  0
LWPOLYLINE
  5
81
330
1F
100
AcDbEntity
  8
0
  6
Continuous
 62
     7
100
AcDbPolyline
 90
      171
 70
   128
 43
0.0
 10
5.3408530753
 20
3.9590819011
 10
5.3525025868
 20
3.9660655158
 10
5.3525025868
 20
3.9660655158
 10
5.3558425765
 20
3.9606828879
 10
5.359292979
 20
3.9560179437
 10
5.3628813976
 20
3.9520706832
 10
5.3666078324
 20
3.9488411064
 10
5.37044468
 20
3.9463292134
 10
5.3744195437
 20
3.944535004
 10
5.3785324235
 20
3.9434584784
 10
5.3827557162
 20
3.9430996366
 10
5.3827557162
 20
3.9430996366
 10
5.3863717381
 20
3.9432928591
 10
5.3898773471
 20
3.94390013
 10
5.3932725432
 20
3.9448938459
 10
5.3965573264
 20
3.9463016101
 10
5.3995936806
 20
3.948040613
 10
5.4022435897
 20
3.9500832513
 10
5.4045070538
 20
3.9523743186
 10
5.4063840728
 20
3.9549414181
 10
5.4078470435
 20
3.9577017401
 10
5.408923569
 20
3.9605448718
 10
5.4095308399
 20
3.9634432099
 10
5.4097516657
 20
3.9664519609
 10
5.4097516657
 20
3.9664519609
 10
5.4094480302
 20
3.9698747602
 10
5.4085095207
 20
3.9732975596
 10
5.4069637404
 20
3.9766375492
 10
5.4048106892
 20
3.9799775389
 10
5.4048106892
 20
3.9799775389
 10
5.4029336703
 20
3.9823238126
 10
5.4007254126
 20
3.9847804992
 10
5.3981307099
 20
3.9873475987
 10
5.3952047686
 20
3.9900527143
 10
5.3919199854
 20
3.9928406395
 10
5.3883039635
 20
3.9957665809
 10
5.3843014966
 20
3.9988029351
 10
5.379967791
 20
4.0019497022
 10
5.379967791
 20
4.0019497022
 10
5.3756340854
 20
4.0050688661
 10
5.3717420313
 20
4.0079948074
 10
5.3682916288
 20
4.0106723198
 10
5.3652552746
 20
4.0131290064
 10
5.3626329687
 20
4.0153648673
 10
5.3604523143
 20
4.0173522991
 10
5.3587133114
 20
4.0191465084
 10
5.3573883568
 20
4.0206922888
 10
5.3573883568
 20
4.0206922888
 10
5.3555941475
 20
4.0231489754
 10
5.3540207639
 20
4.0256332652
 10
5.3526958094
 20
4.0281727615
 10
5.3516192838
 20
4.0307950674
 10
5.3507635839
 20
4.0334173733
 10
5.3501563131
 20
4.0361224889
 10
5.3497974712
 20
4.0388828109
 10
5.3496870583
 20
4.0416707362
 10
5.3496870583
 20
4.0416707362
 10
5.3499630906
 20
4.046032045
 10
5.3507911872
 20
4.0502277345
 10
5.352143745
 20
4.0542025982
 10
5.3540483672
 20
4.0579842393
 10
5.3564774505
 20
4.0614622451
 10
5.3593205822
 20
4.064581409
 10
5.3626329687
 20
4.0672589214
 10
5.3663594034
 20
4.0695775919
 10
5.3704170768
 20
4.0714270076
 10
5.3746679727
 20
4.0727795654
 10
5.3790568847
 20
4.0735524556
 10
5.3836390193
 20
4.0738284878
 10
5.3836390193
 20
4.0738284878
 10
5.388497186
 20
4.0735248524
 10
5.3932173367
 20
4.0725863429
 10
5.3977442648
 20
4.0710129593
 10
5.4021331769
 20
4.0688323049
 10
5.4043138313
 20
4.0674521439
 10
5.4064944857
 20
4.0658235539
 10
5.4087303465
 20
4.0639189317
 10
5.4109938106
 20
4.0617658805
 10
5.4132848779
 20
4.0593367971
 10
5.4156035484
 20
4.0566592848
 10
5.4179774253
 20
4.0537057402
 10
5.4203513022
 20
4.0505037667
 10
5.4203513022
 20
4.0505037667
 10
5.409171998
 20
4.042029578
 10
5.409171998
 20
4.042029578
 10
5.4071293597
 20
4.0446242807
 10
5.4051695311
 20
4.0469705545
 10
5.4032925121
 20
4.0490960024
 10
5.4014706996
 20
4.0509730214
 10
5.3997592999
 20
4.0526292146
 10
5.3981031067
 20
4.0540645821
 10
5.3965021199
 20
4.0552791238
 10
5.395011546
 20
4.0562452365
 10
5.3920303982
 20
4.0577634136
 10
5.3889112344
 20
4.0588399392
 10
5.3856540544
 20
4.0594748132
 10
5.3822588583
 20
4.059695639
 10
5.3822588583
 20
4.059695639
 10
5.3780079623
 20
4.0593920036
 10
5.3741711147
 20
4.0584258909
 10
5.3707483154
 20
4.0568525073
 10
5.3677119612
 20
4.0546442497
 10
5.3652276714
 20
4.0519943406
 10
5.3634610653
 20
4.049040796
 10
5.3624121429
 20
4.045783616
 10
5.362053301
 20
4.0422504038
 10
5.362053301
 20
4.0422504038
 10
5.3621637139
 20
4.0400421462
 10
5.362550159
 20
4.0378614918
 10
5.3631298266
 20
4.0357084406
 10
5.3639855264
 20
4.0335829926
 10
5.3651724649
 20
4.0314299414
 10
5.3667458485
 20
4.0291940806
 10
5.3687332803
 20
4.0268754101
 10
5.3711347605
 20
4.0244463267
 10
5.3711347605
 20
4.0244463267
 10
5.3720456668
 20
4.0236458333
 10
5.3733430181
 20
4.022596911
 10
5.3750544178
 20
4.0212995596
 10
5.3771798657
 20
4.0196985728
 10
5.3796917588
 20
4.0178491571
 10
5.3826177001
 20
4.0157513123
 10
5.3859300866
 20
4.0133774354
 10
5.3896565213
 20
4.0107275262
 10
5.3896565213
 20
4.0107275262
 10
5.394128243
 20
4.007442743
 10
5.3982411228
 20
4.0042683727
 10
5.4019675575
 20
4.001176812
 10
5.4053351504
 20
3.998168061
 10
5.4083439014
 20
3.9952697229
 10
5.4109938106
 20
3.9924541944
 10
5.4132848779
 20
3.9897214756
 10
5.4151895001
 20
3.9870715665
 10
5.4182258543
 20
3.9818821611
 10
5.4203789055
 20
3.9766927557
 10
5.4216762568
 20
3.971475747
 10
5.4221179083
 20
3.9662587384
 10
5.4221179083
 20
3.9662587384
 10
5.421952289
 20
3.9625599069
 10
5.4214002246
 20
3.9589714882
 10
5.4205169216
 20
3.9555210857
 10
5.4192471734
 20
3.9521810961
 10
5.4176461867
 20
3.9489515193
 10
5.4156587548
 20
3.9458599586
 10
5.4133400843
 20
3.942906414
 10
5.4106349687
 20
3.9400632824
 10
5.4076814241
 20
3.9374685796
 10
5.4045898635
 20
3.9352051156
 10
5.4013326835
 20
3.9333004934
 10
5.3979374874
 20
3.9317547131
 10
5.394376672
 20
3.9305401714
 10
5.3906502372
 20
3.9296568683
 10
5.3867857864
 20
3.9291324071
 10
5.3827557162
 20
3.9289667878
 10
5.3827557162
 20
3.9289667878
 10
5.3796365523
 20
3.9290772007
 10
5.3765725949
 20
3.9294084393
 10
5.3735914471
 20
3.9299329005
 10
5.370693109
 20
3.9307057907
 10
5.3678775805
 20
3.9316719034
 10
5.3651172585
 20
3.9328588419
 10
5.3624397461
 20
3.9342666061
 10
5.3598174402
 20
3.9358951961
 10
5.3572779439
 20
3.9377722151
 10
5.3547936541
 20
3.9399528695
 10
5.3523369675
 20
3.9424095561
 10
5.3499354873
 20
3.9451698781
 10
5.3475892136
 20
3.9482062323
 10
5.3452981463
 20
3.951546222
 10
5.3430622855
 20
3.9551622438
 10
5.3408540279
 20
3.9590819011
  0
LWPOLYLINE
  5
82
330
1F
100
AcDbEntity
  8
0
  6
Continuous
 62
     7
100
AcDbPolyline
 90
      145
 70
   128
 43
0.0
 10
5.6305738885
 20
4.0450107258
 10
5.6197569655
 20
4.0367297597
 10
5.6197569655
 20
4.0367297597
 10
5.6174106918
 20
4.0394624785
 10
5.6149540051
 20
4.042029578
 10
5.6123869057
 20
4.0444310582
 10
5.6097093933
 20
4.046666919
 10
5.6068938648
 20
4.0487095573
 10
5.6039955267
 20
4.0505865763
 10
5.6009591725
 20
4.052297976
 10
5.5978124054
 20
4.0538437563
 10
5.5912428389
 20
4.0564108558
 10
5.5843696371
 20
4.0582326683
 10
5.5771927998
 20
4.0593367971
 10
5.5696847239
 20
4.059695639
 10
5.5696847239
 20
4.059695639
 10
5.5655442409
 20
4.0595852261
 10
5.5614589643
 20
4.059198781
 10
5.5574564973
 20
4.0585915102
 10
5.5535644433
 20
4.0577358104
 10
5.5496999924
 20
4.0566316816
 10
5.5459459545
 20
4.055306727
 10
5.5422747262
 20
4.0537057402
 10
5.5386587043
 20
4.0518839277
 10
5.5351806986
 20
4.0498412894
 10
5.5319235186
 20
4.0476330317
 10
5.5288595611
 20
4.0452591548
 10
5.5259888262
 20
4.0427196585
 10
5.5233113139
 20
4.040014543
 10
5.5208546272
 20
4.037143808
 10
5.5185911632
 20
4.0340798506
 10
5.5165209217
 20
4.030877877
 10
5.5146715059
 20
4.0275378874
 10
5.5130981224
 20
4.0240874849
 10
5.5117455646
 20
4.0205542727
 10
5.5106414357
 20
4.0168830444
 10
5.5097857359
 20
4.0131290064
 10
5.5091784651
 20
4.0092921588
 10
5.50879202
 20
4.0053172951
 10
5.5086816071
 20
4.0012596217
 10
5.5086816071
 20
4.0012596217
 10
5.5089576393
 20
3.99515931
 10
5.5097857359
 20
3.9893350305
 10
5.5111382937
 20
3.98375918
 10
5.5130705191
 20
3.9784593618
 10
5.5155272057
 20
3.9733803692
 10
5.51856356
 20
3.9685774089
 10
5.5221243754
 20
3.9640228775
 10
5.5262372552
 20
3.9597443784
 10
5.5307641833
 20
3.9558523243
 10
5.5355947469
 20
3.9524571283
 10
5.5407013426
 20
3.9496139966
 10
5.5460839706
 20
3.9472677228
 10
5.5517702339
 20
3.9454459103
 10
5.5577325295
 20
3.944148559
 10
5.5639984605
 20
3.9433480656
 10
5.5705404237
 20
3.9430996366
 10
5.5705404237
 20
3.9430996366
 10
5.5777448642
 20
3.9434584784
 10
5.5846456693
 20
3.944535004
 10
5.5912428389
 20
3.9463292134
 10
5.5975639764
 20
3.9488411064
 10
5.6035538752
 20
3.9520706832
 10
5.6092677418
 20
3.9560179437
 10
5.6146503697
 20
3.9606828879
 10
5.6197569655
 20
3.9660655158
 10
5.6197569655
 20
3.9660655158
 10
5.6305774278
 20
3.9578673594
 10
5.6305774278
 20
3.9578673594
 10
5.6279275187
 20
3.9545273698
 10
5.6251119902
 20
3.9513529994
 10
5.6221584456
 20
3.9483994549
 10
5.6190392817
 20
3.9456391328
 10
5.6157544985
 20
3.9430444301
 10
5.612304096
 20
3.9406705532
 10
5.6086880741
 20
3.9384898988
 10
5.6049340362
 20
3.9365024669
 10
5.6010419821
 20
3.9347358608
 10
5.5970395152
 20
3.9332176837
 10
5.5929266354
 20
3.9319203324
 10
5.5886757395
 20
3.9308438068
 10
5.5843420339
 20
3.9300157102
 10
5.5798703122
 20
3.9294360425
 10
5.5753157808
 20
3.9290772007
 10
5.5706232334
 20
3.9289667878
 10
5.5706232334
 20
3.9289667878
 10
5.5661791149
 20
3.9290495975
 10
5.5618454093
 20
3.9293532329
 10
5.5576497199
 20
3.9298224876
 10
5.5535644433
 20
3.9304849649
 10
5.5495895795
 20
3.9313130615
 10
5.5457527319
 20
3.9323619839
 10
5.5420262972
 20
3.9335765256
 10
5.5384102753
 20
3.9349842898
 10
5.5349046664
 20
3.9365852766
 10
5.5315370735
 20
3.9383794859
 10
5.5282798935
 20
3.9403669178
 10
5.5251331264
 20
3.942519969
 10
5.5221243754
 20
3.9448662427
 10
5.5192260373
 20
3.9474057389
 10
5.516438112
 20
3.9501384578
 10
5.5137882029
 20
3.9530643991
 10
5.5137882029
 20
3.9530643991
 10
5.5097029263
 20
3.9582814077
 10
5.5061421108
 20
3.9637744486
 10
5.5031333598
 20
3.9695159184
 10
5.5006766732
 20
3.9755334204
 10
5.498772051
 20
3.9817993514
 10
5.4974194932
 20
3.9883413146
 10
5.4965913966
 20
3.9951317068
 10
5.4963153644
 20
4.0021981312
 10
5.4963153644
 20
4.0021981312
 10
5.4966466031
 20
4.0096233974
 10
5.497640319
 20
4.0167450283
 10
5.4992965122
 20
4.0235630237
 10
5.5016151827
 20
4.0300773837
 10
5.5045687273
 20
4.0362881082
 10
5.5082123524
 20
4.0422228006
 10
5.5124908515
 20
4.0478262543
 10
5.5174594312
 20
4.0531536758
 10
5.5229248688
 20
4.0580118426
 10
5.5286939418
 20
4.0622075321
 10
5.5348218567
 20
4.0657407442
 10
5.5412810102
 20
4.0686666856
 10
5.5480714024
 20
4.0709301497
 10
5.5551930333
 20
4.0725311364
 10
5.562673506
 20
4.0734972491
 10
5.5704576141
 20
4.0738284878
 10
5.5704576141
 20
4.0738284878
 10
5.575205368
 20
4.0737180749
 10
5.579842709
 20
4.073359233
 10
5.5843420339
 20
4.0727519622
 10
5.5887309459
 20
4.0719238656
 10
5.593009445
 20
4.0708749432
 10
5.5971775313
 20
4.0695499886
 10
5.6012352047
 20
4.0680042083
 10
5.605154862
 20
4.0662376022
 10
5.6089365031
 20
4.0642501704
 10
5.612552525
 20
4.0620695159
 10
5.6160029275
 20
4.059695639
 10
5.6192601075
 20
4.0571561427
 10
5.6223516682
 20
4.0543958207
 10
5.6252776095
 20
4.0514698794
 10
5.6280103283
 20
4.0483231123
 10
5.6305774278
 20
4.0450107258
  0
LWPOLYLINE
  5
83
330
1F
100
AcDbEntity
  8
0
  6
Continuous
 62
     7
100
AcDbPolyline
 90
       24
 70
   128
 43
0.0
 10
5.6588415086
 20
4.0702952756
 10
5.6712093681
 20
4.0702952756
 10
5.6712093681
 20
4.0702952756
 10
5.6712093681
 20
4.0137638805
 10
5.6712093681
 20
4.0137638805
 10
5.741873612
 20
4.0137638805
 10
5.741873612
 20
4.0137638805
 10
5.741873612
 20
4.0702952756
 10
5.741873612
 20
4.0702952756
 10
5.7542398546
 20
4.0702952756
 10
5.7542398546
 20
4.0702952756
 10
5.7542398546
 20
3.9325
 10
5.7542398546
 20
3.9325
 10
5.741873612
 20
3.9325
 10
5.741873612
 20
3.9325
 10
5.741873612
 20
3.9996310317
 10
5.741873612
 20
3.9996310317
 10
5.6712093681
 20
3.9996310317
 10
5.6712093681
 20
3.9996310317
 10
5.6712093681
 20
3.9325
 10
5.6712093681
 20
3.9325
 10
5.6588431254
 20
3.9325
 10
5.6588431254
 20
3.9325
 10
5.6588431254
 20
4.0702952756
  0
LWPOLYLINE
  5
84
330
1F
100
AcDbEntity
  8
0
  6
Continuous
 62
     7
100
AcDbPolyline
 90
       16
 70
   128
 43
0.0
 10
5.8461033453
 20
4.0702952756
 10
5.9097011912
 20
3.9325
 10
5.9097011912
 20
3.9325
 10
5.8962584229
 20
3.9325
 10
5.8962584229
 20
3.9325
 10
5.8758872464
 20
3.9766651524
 10
5.8758872464
 20
3.9766651524
 10
5.8134211589
 20
3.9766651524
 10
5.8134211589
 20
3.9766651524
 10
5.7924703147
 20
3.9325
 10
5.7924703147
 20
3.9325
 10
5.77897234
 20
3.9325
 10
5.77897234
 20
3.9325
 10
5.8443367656
 20
4.0702952756
 10
5.8443367656
 20
4.0702952756
 10
5.8461033717
 20
4.0702952756
  0
LWPOLYLINE
  5
85
330
1F
100
AcDbEntity
  8
0
  6
Continuous
 62
     7
100
AcDbPolyline
 90
        6
 70
   128
 43
0.0
 10
5.8450802105
 20
4.0434373423
 10
5.8201287414
 20
3.9907980012
 10
5.8201287414
 20
3.9907980012
 10
5.8693728864
 20
3.9907980012
 10
5.8693728864
 20
3.9907980012
 10
5.8450820525
 20
4.0434373423
  0
LWPOLYLINE
  5
86
330
1F
100
AcDbEntity
  8
0
  6
Continuous
 62
     7
100
AcDbPolyline
 90
      171
 70
   128
 43
0.0
 10
5.9202993949
 20
3.9590819011
 10
5.9319493867
 20
3.9660655158
 10
5.9319493867
 20
3.9660655158
 10
5.9352893764
 20
3.9606828879
 10
5.9387397789
 20
3.9560179437
 10
5.9423281976
 20
3.9520706832
 10
5.9460546323
 20
3.9488411064
 10
5.9498914799
 20
3.9463292134
 10
5.9538663436
 20
3.944535004
 10
5.9579792235
 20
3.9434584784
 10
5.9622025162
 20
3.9430996366
 10
5.9622025162
 20
3.9430996366
 10
5.965818538
 20
3.9432928591
 10
5.969324147
 20
3.94390013
 10
5.9727193431
 20
3.9448938459
 10
5.9760041263
 20
3.9463016101
 10
5.9790404805
 20
3.948040613
 10
5.9816903897
 20
3.9500832513
 10
5.9839538537
 20
3.9523743186
 10
5.9858308727
 20
3.9549414181
 10
5.9872938434
 20
3.9577017401
 10
5.988370369
 20
3.9605448718
 10
5.9889776398
 20
3.9634432099
 10
5.9891984656
 20
3.9664519609
 10
5.9891984656
 20
3.9664519609
 10
5.9888948302
 20
3.9698747602
 10
5.9879563207
 20
3.9732975596
 10
5.9864105403
 20
3.9766375492
 10
5.9842574891
 20
3.9799775389
 10
5.9842574891
 20
3.9799775389
 10
5.9823804702
 20
3.9823238126
 10
5.9801722125
 20
3.9847804992
 10
5.9775775098
 20
3.9873475987
 10
5.9746515685
 20
3.9900527143
 10
5.9713667853
 20
3.9928406395
 10
5.9677507634
 20
3.9957665809
 10
5.9637482965
 20
3.9988029351
 10
5.9594145909
 20
4.0019497022
 10
5.9594145909
 20
4.0019497022
 10
5.9550808853
 20
4.0050688661
 10
5.9511888313
 20
4.0079948074
 10
5.9477384287
 20
4.0106723198
 10
5.9447020745
 20
4.0131290064
 10
5.9420797686
 20
4.0153648673
 10
5.9398991142
 20
4.0173522991
 10
5.9381601113
 20
4.0191465084
 10
5.9368351567
 20
4.0206922888
 10
5.9368351567
 20
4.0206922888
 10
5.9350409474
 20
4.0231489754
 10
5.9334675639
 20
4.0256332652
 10
5.9321426093
 20
4.0281727615
 10
5.9310660837
 20
4.0307950674
 10
5.9302103839
 20
4.0334173733
 10
5.929603113
 20
4.0361224889
 10
5.9292442711
 20
4.0388828109
 10
5.9291338583
 20
4.0416707362
 10
5.9291338583
 20
4.0416707362
 10
5.9294098905
 20
4.046032045
 10
5.9302379871
 20
4.0502277345
 10
5.9315905449
 20
4.0542025982
 10
5.9334951671
 20
4.0579842393
 10
5.9359242505
 20
4.0614622451
 10
5.9387673821
 20
4.064581409
 10
5.9420797686
 20
4.0672589214
 10
5.9458062033
 20
4.0695775919
 10
5.9498638767
 20
4.0714270076
 10
5.9541147726
 20
4.0727795654
 10
5.9585036846
 20
4.0735524556
 10
5.9630858192
 20
4.0738284878
 10
5.9630858192
 20
4.0738284878
 10
5.967943986
 20
4.0735248524
 10
5.9726641366
 20
4.0725863429
 10
5.9771910648
 20
4.0710129593
 10
5.9815799768
 20
4.0688323049
 10
5.9837606312
 20
4.0674521439
 10
5.9859412856
 20
4.0658235539
 10
5.9881771464
 20
4.0639189317
 10
5.9904406105
 20
4.0617658805
 10
5.9927316778
 20
4.0593367971
 10
5.9950503483
 20
4.0566592848
 10
5.9974242252
 20
4.0537057402
 10
5.9997981022
 20
4.0505037667
 10
5.9997981022
 20
4.0505037667
 10
5.988618798
 20
4.042029578
 10
5.988618798
 20
4.042029578
 10
5.9865761597
 20
4.0446242807
 10
5.984616331
 20
4.0469705545
 10
5.982739312
 20
4.0490960024
 10
5.9809174995
 20
4.0509730214
 10
5.9792060998
 20
4.0526292146
 10
5.9775499066
 20
4.0540645821
 10
5.9759489198
 20
4.0552791238
 10
5.974458346
 20
4.0562452365
 10
5.9714771982
 20
4.0577634136
 10
5.9683580343
 20
4.0588399392
 10
5.9651008543
 20
4.0594748132
 10
5.9617056582
 20
4.059695639
 10
5.9617056582
 20
4.059695639
 10
5.9574547623
 20
4.0593920036
 10
5.9536179146
 20
4.0584258909
 10
5.9501951153
 20
4.0568525073
 10
5.9471587611
 20
4.0546442497
 10
5.9446744713
 20
4.0519943406
 10
5.9429078652
 20
4.049040796
 10
5.9418589428
 20
4.045783616
 10
5.9415001009
 20
4.0422504038
 10
5.9415001009
 20
4.0422504038
 10
5.9416105138
 20
4.0400421462
 10
5.9419969589
 20
4.0378614918
 10
5.9425766265
 20
4.0357084406
 10
5.9434323264
 20
4.0335829926
 10
5.9446192648
 20
4.0314299414
 10
5.9461926484
 20
4.0291940806
 10
5.9481800803
 20
4.0268754101
 10
5.9505815604
 20
4.0244463267
 10
5.9505815604
 20
4.0244463267
 10
5.9514924667
 20
4.0236458333
 10
5.952789818
 20
4.022596911
 10
5.9545012177
 20
4.0212995596
 10
5.9566266657
 20
4.0196985728
 10
5.9591385587
 20
4.0178491571
 10
5.9620645001
 20
4.0157513123
 10
5.9653768865
 20
4.0133774354
 10
5.9691033212
 20
4.0107275262
 10
5.9691033212
 20
4.0107275262
 10
5.9735750429
 20
4.007442743
 10
5.9776879227
 20
4.0042683727
 10
5.9814143575
 20
4.001176812
 10
5.9847819503
 20
3.998168061
 10
5.9877907013
 20
3.9952697229
 10
5.9904406105
 20
3.9924541944
 10
5.9927316778
 20
3.9897214756
 10
5.9946363
 20
3.9870715665
 10
5.9976726542
 20
3.9818821611
 10
5.9998257054
 20
3.9766927557
 10
6.0011230567
 20
3.971475747
 10
6.0015647083
 20
3.9662587384
 10
6.0015647083
 20
3.9662587384
 10
6.0013990889
 20
3.9625599069
 10
6.0008470245
 20
3.9589714882
 10
5.9999637215
 20
3.9555210857
 10
5.9986939733
 20
3.9521810961
 10
5.9970929866
 20
3.9489515193
 10
5.9951055547
 20
3.9458599586
 10
5.9927868842
 20
3.942906414
 10
5.9900817686
 20
3.9400632824
 10
5.9871282241
 20
3.9374685796
 10
5.9840366634
 20
3.9352051156
 10
5.9807794834
 20
3.9333004934
 10
5.9773842873
 20
3.9317547131
 10
5.9738234719
 20
3.9305401714
 10
5.9700970371
 20
3.9296568683
 10
5.9662325863
 20
3.9291324071
 10
5.9622025162
 20
3.9289667878
 10
5.9622025162
 20
3.9289667878
 10
5.9590833523
 20
3.9290772007
 10
5.9560193948
 20
3.9294084393
 10
5.953038247
 20
3.9299329005
 10
5.9501399089
 20
3.9307057907
 10
5.9473243804
 20
3.9316719034
 10
5.9445640584
 20
3.9328588419
 10
5.941886546
 20
3.9342666061
 10
5.9392642401
 20
3.9358951961
 10
5.9367247438
 20
3.9377722151
 10
5.934240454
 20
3.9399528695
 10
5.9317837674
 20
3.9424095561
 10
5.9293822873
 20
3.9451698781
 10
5.9270360135
 20
3.9482062323
 10
5.9247449462
 20
3.951546222
 10
5.9225090854
 20
3.9551622438
 10
5.9203008278
 20
3.9590819011
  0
LWPOLYLINE
  5
87
330
1F
100
AcDbEntity
  8
0
  6
Continuous
 62
     7
100
AcDbPolyline
 90
      171
 70
   128
 43
0.0
 10
6.0156949862
 20
3.9590819011
 10
6.027346116
 20
3.9660655158
 10
6.027346116
 20
3.9660655158
 10
6.0306861056
 20
3.9606828879
 10
6.0341365082
 20
3.9560179437
 10
6.0377249268
 20
3.9520706832
 10
6.0414513615
 20
3.9488411064
 10
6.0452882092
 20
3.9463292134
 10
6.0492630729
 20
3.944535004
 10
6.0533759527
 20
3.9434584784
 10
6.0575992454
 20
3.9430996366
 10
6.0575992454
 20
3.9430996366
 10
6.0612152673
 20
3.9432928591
 10
6.0647208762
 20
3.94390013
 10
6.0681160723
 20
3.9448938459
 10
6.0714008555
 20
3.9463016101
 10
6.0744372098
 20
3.948040613
 10
6.0770871189
 20
3.9500832513
 10
6.079350583
 20
3.9523743186
 10
6.081227602
 20
3.9549414181
 10
6.0826905726
 20
3.9577017401
 10
6.0837670982
 20
3.9605448718
 10
6.0843743691
 20
3.9634432099
 10
6.0845951948
 20
3.9664519609
 10
6.0845951948
 20
3.9664519609
 10
6.0842915594
 20
3.9698747602
 10
6.0833530499
 20
3.9732975596
 10
6.0818072696
 20
3.9766375492
 10
6.0796542184
 20
3.9799775389
 10
6.0796542184
 20
3.9799775389
 10
6.0777771994
 20
3.9823238126
 10
6.0755689418
 20
3.9847804992
 10
6.0729742391
 20
3.9873475987
 10
6.0700482977
 20
3.9900527143
 10
6.0667635145
 20
3.9928406395
 10
6.0631474927
 20
3.9957665809
 10
6.0591450257
 20
3.9988029351
 10
6.0548113202
 20
4.0019497022
 10
6.0548113202
 20
4.0019497022
 10
6.0504776146
 20
4.0050688661
 10
6.0465855605
 20
4.0079948074
 10
6.043135158
 20
4.0106723198
 10
6.0400988038
 20
4.0131290064
 10
6.0374764978
 20
4.0153648673
 10
6.0352958434
 20
4.0173522991
 10
6.0335568406
 20
4.0191465084
 10
6.032231886
 20
4.0206922888
 10
6.032231886
 20
4.0206922888
 10
6.0304376767
 20
4.0231489754
 10
6.0288642931
 20
4.0256332652
 10
6.0275393385
 20
4.0281727615
 10
6.0264628129
 20
4.0307950674
 10
6.0256071131
 20
4.0334173733
 10
6.0249998423
 20
4.0361224889
 10
6.0246410004
 20
4.0388828109
 10
6.0245305875
 20
4.0416707362
 10
6.0245305875
 20
4.0416707362
 10
6.0248066197
 20
4.046032045
 10
6.0256347163
 20
4.0502277345
 10
6.0269872741
 20
4.0542025982
 10
6.0288918963
 20
4.0579842393
 10
6.0313209797
 20
4.0614622451
 10
6.0341641114
 20
4.064581409
 10
6.0374764978
 20
4.0672589214
 10
6.0412029326
 20
4.0695775919
 10
6.0452606059
 20
4.0714270076
 10
6.0495115019
 20
4.0727795654
 10
6.0539004139
 20
4.0735524556
 10
6.0584825485
 20
4.0738284878
 10
6.0584825485
 20
4.0738284878
 10
6.0633407152
 20
4.0735248524
 10
6.0680608659
 20
4.0725863429
 10
6.072587794
 20
4.0710129593
 10
6.076976706
 20
4.0688323049
 10
6.0791573604
 20
4.0674521439
 10
6.0813380148
 20
4.0658235539
 10
6.0835738757
 20
4.0639189317
 10
6.0858373397
 20
4.0617658805
 10
6.088128407
 20
4.0593367971
 10
6.0904470775
 20
4.0566592848
 10
6.0928209545
 20
4.0537057402
 10
6.0951948314
 20
4.0505037667
 10
6.0951948314
 20
4.0505037667
 10
6.0840155272
 20
4.042029578
 10
6.0840155272
 20
4.042029578
 10
6.0819728889
 20
4.0446242807
 10
6.0800130603
 20
4.0469705545
 10
6.0781360413
 20
4.0490960024
 10
6.0763142288
 20
4.0509730214
 10
6.0746028291
 20
4.0526292146
 10
6.0729466359
 20
4.0540645821
 10
6.0713456491
 20
4.0552791238
 10
6.0698550752
 20
4.0562452365
 10
6.0668739274
 20
4.0577634136
 10
6.0637547635
 20
4.0588399392
 10
6.0604975835
 20
4.0594748132
 10
6.0571023874
 20
4.059695639
 10
6.0571023874
 20
4.059695639
 10
6.0528514915
 20
4.0593920036
 10
6.0490146439
 20
4.0584258909
 10
6.0455918446
 20
4.0568525073
 10
6.0425554904
 20
4.0546442497
 10
6.0400712005
 20
4.0519943406
 10
6.0383045944
 20
4.049040796
 10
6.0372556721
 20
4.045783616
 10
6.0368968302
 20
4.0422504038
 10
6.0368968302
 20
4.0422504038
 10
6.0370072431
 20
4.0400421462
 10
6.0373936882
 20
4.0378614918
 10
6.0379733558
 20
4.0357084406
 10
6.0388290556
 20
4.0335829926
 10
6.0400159941
 20
4.0314299414
 10
6.0415893776
 20
4.0291940806
 10
6.0435768095
 20
4.0268754101
 10
6.0459782897
 20
4.0244463267
 10
6.0459782897
 20
4.0244463267
 10
6.0468891959
 20
4.0236458333
 10
6.0481865473
 20
4.022596911
 10
6.049897947
 20
4.0212995596
 10
6.0520233949
 20
4.0196985728
 10
6.054535288
 20
4.0178491571
 10
6.0574612293
 20
4.0157513123
 10
6.0607736157
 20
4.0133774354
 10
6.0645000505
 20
4.0107275262
 10
6.0645000505
 20
4.0107275262
 10
6.0689717722
 20
4.007442743
 10
6.073084652
 20
4.0042683727
 10
6.0768110867
 20
4.001176812
 10
6.0801786796
 20
3.998168061
 10
6.0831874306
 20
3.9952697229
 10
6.0858373397
 20
3.9924541944
 10
6.088128407
 20
3.9897214756
 10
6.0900330292
 20
3.9870715665
 10
6.0930693835
 20
3.9818821611
 10
6.0952224346
 20
3.9766927557
 10
6.096519786
 20
3.971475747
 10
6.0969614375
 20
3.9662587384
 10
6.0969614375
 20
3.9662587384
 10
6.0967958182
 20
3.9625599069
 10
6.0962437538
 20
3.9589714882
 10
6.0953604507
 20
3.9555210857
 10
6.0940907026
 20
3.9521810961
 10
6.0924897158
 20
3.9489515193
 10
6.090502284
 20
3.9458599586
 10
6.0881836135
 20
3.942906414
 10
6.0854784979
 20
3.9400632824
 10
6.0825249533
 20
3.9374685796
 10
6.0794333926
 20
3.9352051156
 10
6.0761762126
 20
3.9333004934
 10
6.0727810166
 20
3.9317547131
 10
6.0692202011
 20
3.9305401714
 10
6.0654937664
 20
3.9296568683
 10
6.0616293156
 20
3.9291324071
 10
6.0575992454
 20
3.9289667878
 10
6.0575992454
 20
3.9289667878
 10
6.0544800815
 20
3.9290772007
 10
6.0514161241
 20
3.9294084393
 10
6.0484349763
 20
3.9299329005
 10
6.0455366381
 20
3.9307057907
 10
6.0427211097
 20
3.9316719034
 10
6.0399607877
 20
3.9328588419
 10
6.0372832753
 20
3.9342666061
 10
6.0346609694
 20
3.9358951961
 10
6.0321214731
 20
3.9377722151
 10
6.0296371833
 20
3.9399528695
 10
6.0271804967
 20
3.9424095561
 10
6.0247790165
 20
3.9451698781
 10
6.0224327428
 20
3.9482062323
 10
6.0201416755
 20
3.951546222
 10
6.0179058147
 20
3.9551622438
 10
6.015697557
 20
3.9590819011
  0
LWPOLYLINE
  5
88
330
1F
100
AcDbEntity
  8
0
  6
Continuous
 62
     7
100
AcDbPolyline
 90
        8
 70
   128
 43
0.0
 10
6.1252267342
 20
4.0702952756
 10
6.1375933778
 20
4.0702952756
 10
6.1375933778
 20
4.0702952756
 10
6.1375933778
 20
3.9325
 10
6.1375933778
 20
3.9325
 10
6.1252271351
 20
3.9325
 10
6.1252271351
 20
3.9325
 10
6.1252271351
 20
4.0702952756
  0
LWPOLYLINE
  5
89
330
1F
100
AcDbEntity
  8
0
  6
Continuous
 62
     7
100
AcDbPolyline
 90
      171
 70
   128
 43
0.0
 10
6.1587883732
 20
3.9590819011
 10
6.1704412099
 20
3.9660655158
 10
6.1704412099
 20
3.9660655158
 10
6.1737811995
 20
3.9606828879
 10
6.1772316021
 20
3.9560179437
 10
6.1808200207
 20
3.9520706832
 10
6.1845464554
 20
3.9488411064
 10
6.188383303
 20
3.9463292134
 10
6.1923581668
 20
3.944535004
 10
6.1964710466
 20
3.9434584784
 10
6.2006943393
 20
3.9430996366
 10
6.2006943393
 20
3.9430996366
 10
6.2043103611
 20
3.9432928591
 10
6.2078159701
 20
3.94390013
 10
6.2112111662
 20
3.9448938459
 10
6.2144959494
 20
3.9463016101
 10
6.2175323037
 20
3.948040613
 10
6.2201822128
 20
3.9500832513
 10
6.2224456769
 20
3.9523743186
 10
6.2243226958
 20
3.9549414181
 10
6.2257856665
 20
3.9577017401
 10
6.2268621921
 20
3.9605448718
 10
6.227469463
 20
3.9634432099
 10
6.2276902887
 20
3.9664519609
 10
6.2276902887
 20
3.9664519609
 10
6.2273866533
 20
3.9698747602
 10
6.2264481438
 20
3.9732975596
 10
6.2249023635
 20
3.9766375492
 10
6.2227493123
 20
3.9799775389
 10
6.2227493123
 20
3.9799775389
 10
6.2208722933
 20
3.9823238126
 10
6.2186640357
 20
3.9847804992
 10
6.216069333
 20
3.9873475987
 10
6.2131433916
 20
3.9900527143
 10
6.2098586084
 20
3.9928406395
 10
6.2062425866
 20
3.9957665809
 10
6.2022401196
 20
3.9988029351
 10
6.197906414
 20
4.0019497022
 10
6.197906414
 20
4.0019497022
 10
6.1935727085
 20
4.0050688661
 10
6.1896806544
 20
4.0079948074
 10
6.1862302519
 20
4.0106723198
 10
6.1831938976
 20
4.0131290064
 10
6.1805715917
 20
4.0153648673
 10
6.1783909373
 20
4.0173522991
 10
6.1766519344
 20
4.0191465084
 10
6.1753269799
 20
4.0206922888
 10
6.1753269799
 20
4.0206922888
 10
6.1735327705
 20
4.0231489754
 10
6.171959387
 20
4.0256332652
 10
6.1706344324
 20
4.0281727615
 10
6.1695579068
 20
4.0307950674
 10
6.168702207
 20
4.0334173733
 10
6.1680949361
 20
4.0361224889
 10
6.1677360943
 20
4.0388828109
 10
6.1676256814
 20
4.0416707362
 10
6.1676256814
 20
4.0416707362
 10
6.1679017136
 20
4.046032045
 10
6.1687298102
 20
4.0502277345
 10
6.170082368
 20
4.0542025982
 10
6.1719869902
 20
4.0579842393
 10
6.1744160736
 20
4.0614622451
 10
6.1772592053
 20
4.064581409
 10
6.1805715917
 20
4.0672589214
 10
6.1842980264
 20
4.0695775919
 10
6.1883556998
 20
4.0714270076
 10
6.1926065958
 20
4.0727795654
 10
6.1969955078
 20
4.0735524556
 10
6.2015776423
 20
4.0738284878
 10
6.2015776423
 20
4.0738284878
 10
6.2064358091
 20
4.0735248524
 10
6.2111559598
 20
4.0725863429
 10
6.2156828879
 20
4.0710129593
 10
6.2200717999
 20
4.0688323049
 10
6.2222524543
 20
4.0674521439
 10
6.2244331087
 20
4.0658235539
 10
6.2266689696
 20
4.0639189317
 10
6.2289324336
 20
4.0617658805
 10
6.2312235009
 20
4.0593367971
 10
6.2335421714
 20
4.0566592848
 10
6.2359160484
 20
4.0537057402
 10
6.2382899253
 20
4.0505037667
 10
6.2382899253
 20
4.0505037667
 10
6.2271106211
 20
4.042029578
 10
6.2271106211
 20
4.042029578
 10
6.2250679828
 20
4.0446242807
 10
6.2231081541
 20
4.0469705545
 10
6.2212311352
 20
4.0490960024
 10
6.2194093226
 20
4.0509730214
 10
6.217697923
 20
4.0526292146
 10
6.2160417298
 20
4.0540645821
 10
6.214440743
 20
4.0552791238
 10
6.2129501691
 20
4.0562452365
 10
6.2099690213
 20
4.0577634136
 10
6.2068498574
 20
4.0588399392
 10
6.2035926774
 20
4.0594748132
 10
6.2001974813
 20
4.059695639
 10
6.2001974813
 20
4.059695639
 10
6.1959465854
 20
4.0593920036
 10
6.1921097378
 20
4.0584258909
 10
6.1886869385
 20
4.0568525073
 10
6.1856505842
 20
4.0546442497
 10
6.1831662944
 20
4.0519943406
 10
6.1813996883
 20
4.049040796
 10
6.1803507659
 20
4.045783616
 10
6.1799919241
 20
4.0422504038
 10
6.1799919241
 20
4.0422504038
 10
6.180102337
 20
4.0400421462
 10
6.1804887821
 20
4.0378614918
 10
6.1810684497
 20
4.0357084406
 10
6.1819241495
 20
4.0335829926
 10
6.183111088
 20
4.0314299414
 10
6.1846844715
 20
4.0291940806
 10
6.1866719034
 20
4.0268754101
 10
6.1890733836
 20
4.0244463267
 10
6.1890733836
 20
4.0244463267
 10
6.1899842898
 20
4.0236458333
 10
6.1912816412
 20
4.022596911
 10
6.1929930408
 20
4.0212995596
 10
6.1951184888
 20
4.0196985728
 10
6.1976303818
 20
4.0178491571
 10
6.2005563232
 20
4.0157513123
 10
6.2038687096
 20
4.0133774354
 10
6.2075951444
 20
4.0107275262
 10
6.2075951444
 20
4.0107275262
 10
6.212066866
 20
4.007442743
 10
6.2161797459
 20
4.0042683727
 10
6.2199061806
 20
4.001176812
 10
6.2232737735
 20
3.998168061
 10
6.2262825245
 20
3.9952697229
 10
6.2289324336
 20
3.9924541944
 10
6.2312235009
 20
3.9897214756
 10
6.2331281231
 20
3.9870715665
 10
6.2361644773
 20
3.9818821611
 10
6.2383175285
 20
3.9766927557
 10
6.2396148799
 20
3.971475747
 10
6.2400565314
 20
3.9662587384
 10
6.2400565314
 20
3.9662587384
 10
6.2398909121
 20
3.9625599069
 10
6.2393388477
 20
3.9589714882
 10
6.2384555446
 20
3.9555210857
 10
6.2371857965
 20
3.9521810961
 10
6.2355848097
 20
3.9489515193
 10
6.2335973779
 20
3.9458599586
 10
6.2312787073
 20
3.942906414
 10
6.2285735918
 20
3.9400632824
 10
6.2256200472
 20
3.9374685796
 10
6.2225284865
 20
3.9352051156
 10
6.2192713065
 20
3.9333004934
 10
6.2158761104
 20
3.9317547131
 10
6.212315295
 20
3.9305401714
 10
6.2085888603
 20
3.9296568683
 10
6.2047244094
 20
3.9291324071
 10
6.2006943393
 20
3.9289667878
 10
6.2006943393
 20
3.9289667878
 10
6.1975751754
 20
3.9290772007
 10
6.1945112179
 20
3.9294084393
 10
6.1915300702
 20
3.9299329005
 10
6.188631732
 20
3.9307057907
 10
6.1858162036
 20
3.9316719034
 10
6.1830558815
 20
3.9328588419
 10
6.1803783692
 20
3.9342666061
 10
6.1777560632
 20
3.9358951961
 10
6.175216567
 20
3.9377722151
 10
6.1727322772
 20
3.9399528695
 10
6.1702755906
 20
3.9424095561
 10
6.1678741104
 20
3.9451698781
 10
6.1655278367
 20
3.9482062323
 10
6.1632367694
 20
3.951546222
 10
6.1610009085
 20
3.9551622438
 10
6.1587926509
 20
3.9590819011
  0
LWPOLYLINE
  5
8A
330
1F
100
AcDbEntity
  8
0
  6
Continuous
 62
     7
100
AcDbPolyline
 90
       24
 70
   128
 43
0.0
 10
4.0794967666
 20
3.8047996164
 10
4.0918635171
 20
3.8047996164
 10
4.0918635171
 20
3.8047996164
 10
4.0918635171
 20
3.7641676762
 10
4.0918635171
 20
3.7641676762
 10
4.109529578
 20
3.7641676762
 10
4.109529578
 20
3.7641676762
 10
4.109529578
 20
3.7518014335
 10
4.109529578
 20
3.7518014335
 10
4.0918635171
 20
3.7518014335
 10
4.0918635171
 20
3.7518014335
 10
4.0918635171
 20
3.6634711286
 10
4.0918635171
 20
3.6634711286
 10
4.0794972744
 20
3.6634711286
 10
4.0794972744
 20
3.6634711286
 10
4.0794972744
 20
3.7518014335
 10
4.0794972744
 20
3.7518014335
 10
4.0618312134
 20
3.7518014335
 10
4.0618312134
 20
3.7518014335
 10
4.0618312134
 20
3.7641676762
 10
4.0618312134
 20
3.7641676762
 10
4.0794972744
 20
3.7641676762
 10
4.0794972744
 20
3.7641676762
 10
4.0794972744
 20
3.8047996164
  0
LWPOLYLINE
  5
8B
330
1F
100
AcDbEntity
  8
0
  6
Continuous
 62
     7
100
AcDbPolyline
 90
       86
 70
   128
 43
0.0
 10
4.1307286015
 20
3.8047996164
 10
4.1430950939
 20
3.8047996164
 10
4.1430950939
 20
3.8047996164
 10
4.1430950939
 20
3.7451490574
 10
4.1430950939
 20
3.7451490574
 10
4.1471803705
 20
3.7500348274
 10
4.1514864728
 20
3.7542581201
 10
4.1559581945
 20
3.7578465387
 10
4.160650742
 20
3.7607448768
 10
4.165536512
 20
3.7630083409
 10
4.1706431077
 20
3.7646369309
 10
4.1759153228
 20
3.7656030436
 10
4.1814083636
 20
3.7659342823
 10
4.1814083636
 20
3.7659342823
 10
4.1869842141
 20
3.7655754404
 10
4.192228826
 20
3.764526518
 10
4.1971421992
 20
3.7627323087
 10
4.2017243337
 20
3.7602480189
 10
4.2058648168
 20
3.7571564582
 10
4.2094532354
 20
3.7535956428
 10
4.2124343832
 20
3.7495103662
 10
4.2148358634
 20
3.7449558348
 10
4.2158295793
 20
3.7423887354
 10
4.2166852791
 20
3.739462794
 10
4.2174029629
 20
3.7362332172
 10
4.2180102337
 20
3.7326447986
 10
4.2184518852
 20
3.7286975381
 10
4.2187831239
 20
3.7244466422
 10
4.2190039496
 20
3.7198369044
 10
4.2190591561
 20
3.714895928
 10
4.2190591561
 20
3.714895928
 10
4.2190591561
 20
3.6634711286
 10
4.2190591561
 20
3.6634711286
 10
4.2066929134
 20
3.6634711286
 10
4.2066929134
 20
3.6634711286
 10
4.2066929134
 20
3.7108382546
 10
4.2066929134
 20
3.7108382546
 10
4.2066653102
 20
3.7149511344
 10
4.2066101037
 20
3.7187051724
 10
4.2064996908
 20
3.7221003685
 10
4.2063340715
 20
3.7251643259
 10
4.206140849
 20
3.7278418383
 10
4.20589242
 20
3.7301605088
 10
4.2055887846
 20
3.7321479406
 10
4.2052575459
 20
3.7337489274
 10
4.2052575459
 20
3.7337489274
 10
4.203766972
 20
3.7383862684
 10
4.2017795402
 20
3.7424163386
 10
4.1992952504
 20
3.7458115347
 10
4.1962864993
 20
3.7485994599
 10
4.1927808904
 20
3.7507801143
 10
4.1887784234
 20
3.7523258947
 10
4.1842514953
 20
3.7532644041
 10
4.1792277092
 20
3.7535680396
 10
4.1792277092
 20
3.7535680396
 10
4.1762465614
 20
3.7534576267
 10
4.1733482233
 20
3.7530987848
 10
4.1705050916
 20
3.752491514
 10
4.1677723728
 20
3.7516634174
 10
4.1650948604
 20
3.7505592886
 10
4.162527761
 20
3.7492619372
 10
4.1600158679
 20
3.7476885537
 10
4.1575867845
 20
3.7458943443
 10
4.1552957172
 20
3.7439069125
 10
4.1532254757
 20
3.741836671
 10
4.1513484567
 20
3.7396284133
 10
4.1496646603
 20
3.7373097428
 10
4.1482016896
 20
3.7348806594
 10
4.1469319415
 20
3.7323411632
 10
4.1458554159
 20
3.7296636508
 10
4.1449997161
 20
3.7269033288
 10
4.1449997161
 20
3.7269033288
 10
4.1445580646
 20
3.7248882937
 10
4.1441716195
 20
3.7224868135
 10
4.1438403808
 20
3.7196988883
 10
4.1435643486
 20
3.7164969147
 10
4.1433711261
 20
3.7129360993
 10
4.1432055068
 20
3.7089612356
 10
4.1431226971
 20
3.70462753
 10
4.1430950939
 20
3.6998797761
 10
4.1430950939
 20
3.6998797761
 10
4.1430950939
 20
3.6634711286
 10
4.1430950939
 20
3.6634711286
 10
4.1307288512
 20
3.6634711286
 10
4.1307288512
 20
3.6634711286
 10
4.1307288512
 20
3.8047996164
  0
LWPOLYLINE
  5
8C
330
1F
100
AcDbEntity
  8
0
  6
Continuous
 62
     7
100
AcDbPolyline
 90
      100
 70
   128
 43
0.0
 10
4.3299676865
 20
3.6952700384
 10
4.3409549768
 20
3.6895009653
 10
4.3409549768
 20
3.6895009653
 10
4.3382498612
 20
3.6848912275
 10
4.3353515231
 20
3.6807507445
 10
4.3322599624
 20
3.677051913
 10
4.328947576
 20
3.6738499394
 10
4.325441967
 20
3.6710620142
 10
4.3217431355
 20
3.6686329308
 10
4.317795875
 20
3.6665350861
 10
4.3136553919
 20
3.6647960832
 10
4.3092664799
 20
3.6634435254
 10
4.3046015357
 20
3.6624774127
 10
4.2996605593
 20
3.6618977451
 10
4.2944435506
 20
3.6617045225
 10
4.2944435506
 20
3.6617045225
 10
4.2886468744
 20
3.6619529515
 10
4.2831814368
 20
3.6626982384
 10
4.2780472378
 20
3.6639403834
 10
4.2732166742
 20
3.6656793862
 10
4.2687449526
 20
3.6679152471
 10
4.2645768663
 20
3.6706479659
 10
4.2607124155
 20
3.6738775427
 10
4.2572068065
 20
3.6776039774
 10
4.2540600394
 20
3.6816340475
 10
4.2513273206
 20
3.6858021338
 10
4.2490362533
 20
3.6901082362
 10
4.2471592343
 20
3.6945523546
 10
4.2456686604
 20
3.699106886
 10
4.244619738
 20
3.7037718302
 10
4.2440124672
 20
3.7086023938
 10
4.2437916414
 20
3.7135433702
 10
4.2437916414
 20
3.7135433702
 10
4.243984864
 20
3.7181807112
 10
4.2445093252
 20
3.7227076393
 10
4.2454202314
 20
3.7270965513
 10
4.2466899796
 20
3.7313750505
 10
4.2483185696
 20
3.7355155335
 10
4.2503060014
 20
3.7395180005
 10
4.2526798784
 20
3.7434100545
 10
4.2553849939
 20
3.7471640925
 10
4.2553849939
 20
3.7471640925
 10
4.2592218416
 20
3.7515530045
 10
4.2633623246
 20
3.7553898521
 10
4.2678064431
 20
3.7585918257
 10
4.2725818002
 20
3.7612417348
 10
4.2776607927
 20
3.7632843731
 10
4.2830434207
 20
3.764774947
 10
4.288729684
 20
3.7656306468
 10
4.294747186
 20
3.7659342823
 10
4.294747186
 20
3.7659342823
 10
4.3009303074
 20
3.7656306468
 10
4.3068097933
 20
3.7646921373
 10
4.3123580406
 20
3.763146357
 10
4.3175750492
 20
3.7609933058
 10
4.3224884224
 20
3.7582053806
 10
4.327070557
 20
3.7547825813
 10
4.3313490561
 20
3.7507525111
 10
4.3352963166
 20
3.7461151701
 10
4.3352963166
 20
3.7461151701
 10
4.3378358129
 20
3.7424991482
 10
4.3400164673
 20
3.7386899038
 10
4.3418934863
 20
3.7346322305
 10
4.3434116634
 20
3.7303813345
 10
4.3446262051
 20
3.7259096129
 10
4.3455095081
 20
3.7212170654
 10
4.3460339693
 20
3.7163036922
 10
4.3462547951
 20
3.7111694932
 10
4.3462547951
 20
3.7111694932
 10
4.2561578841
 20
3.7111694932
 10
4.2561578841
 20
3.7111694932
 10
4.2564063131
 20
3.7071946295
 10
4.2569583775
 20
3.7033853851
 10
4.2578416805
 20
3.6997693633
 10
4.2590562222
 20
3.696346564
 10
4.2605467961
 20
3.6931169872
 10
4.2623686087
 20
3.6900530297
 10
4.2645216599
 20
3.6871822948
 10
4.2669783465
 20
3.6844771792
 10
4.269683462
 20
3.6820480959
 10
4.2725265937
 20
3.6799226479
 10
4.2755353447
 20
3.6781284386
 10
4.2787097151
 20
3.6766654679
 10
4.2820221015
 20
3.6755337359
 10
4.2855001073
 20
3.6747332425
 10
4.2891161291
 20
3.6742363845
 10
4.2928977703
 20
3.6740707652
 10
4.2928977703
 20
3.6740707652
 10
4.2965966018
 20
3.6742087813
 10
4.3002126237
 20
3.6746504328
 10
4.3038010423
 20
3.6753957198
 10
4.3073342545
 20
3.6764170389
 10
4.3107294506
 20
3.677686787
 10
4.3138486145
 20
3.6791773609
 10
4.3166917462
 20
3.6808335542
 10
4.3192864489
 20
3.6826829699
 10
4.3217983419
 20
3.6849188308
 10
4.3244206478
 20
3.6877895657
 10
4.3271533666
 20
3.691212365
 10
4.3299688951
 20
3.6952700384
  0
LWPOLYLINE
  5
8D
330
1F
100
AcDbEntity
  8
0
  6
Continuous
 62
     7
100
AcDbPolyline
 90
       33
 70
   128
 43
0.0
 10
4.3338865746
 20
3.7235357359
 10
4.3324255817
 20
3.7284215059
 10
4.3306313724
 20
3.7327828147
 10
4.3285611309
 20
3.7366196623
 10
4.3261872539
 20
3.7399320488
 10
4.3234821384
 20
3.7428579901
 10
4.3203353712
 20
3.745480296
 10
4.316802159
 20
3.7477989665
 10
4.3128548985
 20
3.7498140016
 10
4.3086592091
 20
3.7514701948
 10
4.3043255035
 20
3.7526295301
 10
4.2999089882
 20
3.7533472138
 10
4.2953820601
 20
3.7535680396
 10
4.2953820601
 20
3.7535680396
 10
4.2916832286
 20
3.7534300235
 10
4.28809481
 20
3.7529883719
 10
4.2846444074
 20
3.752243085
 10
4.2813596242
 20
3.7512217658
 10
4.2781576507
 20
3.7498692081
 10
4.2751212964
 20
3.7482682213
 10
4.2722229583
 20
3.7463359959
 10
4.2694350331
 20
3.7441277382
 10
4.2694350331
 20
3.7441277382
 10
4.2675028076
 20
3.7423059257
 10
4.2657085983
 20
3.7402632874
 10
4.2640248019
 20
3.7380274266
 10
4.2624790216
 20
3.73557074
 10
4.2610436541
 20
3.7328656244
 10
4.2597186995
 20
3.7299672862
 10
4.2585317611
 20
3.7268757256
 10
4.2574552355
 20
3.7235357359
 10
4.2574552355
 20
3.7235357359
 10
4.3338885524
 20
3.7235357359
  0
LWPOLYLINE
  5
8E
330
1F
100
AcDbEntity
  8
0
  6
Continuous
 62
     7
100
AcDbPolyline
 90
       53
 70
   128
 43
0.0
 10
4.4204517612
 20
3.7641676762
 10
4.4328184938
 20
3.7641676762
 10
4.4328184938
 20
3.7641676762
 10
4.4328184938
 20
3.7493447469
 10
4.4328184938
 20
3.7493447469
 10
4.4356340223
 20
3.7534300235
 10
4.4385323604
 20
3.7569080292
 10
4.441485905
 20
3.7597511609
 10
4.4445222592
 20
3.762014625
 10
4.4476414231
 20
3.7637260246
 10
4.4508433967
 20
3.7649681695
 10
4.4540729735
 20
3.7656858533
 10
4.4573853599
 20
3.7659342823
 10
4.4573853599
 20
3.7659342823
 10
4.4599524594
 20
3.7657134565
 10
4.4626023685
 20
3.7650785824
 10
4.4653350873
 20
3.7640020568
 10
4.4681506158
 20
3.7624838797
 10
4.4681506158
 20
3.7624838797
 10
4.4613602236
 20
3.7517738303
 10
4.4613602236
 20
3.7517738303
 10
4.4595660143
 20
3.7525467204
 10
4.4579098211
 20
3.753126388
 10
4.456391644
 20
3.7534576267
 10
4.4550390862
 20
3.7535680396
 10
4.4550390862
 20
3.7535680396
 10
4.4520855416
 20
3.7532368009
 10
4.4491596002
 20
3.752243085
 10
4.4463164686
 20
3.7505868918
 10
4.4435009401
 20
3.7482682213
 10
4.4421483823
 20
3.746860457
 10
4.4408786342
 20
3.7452594703
 10
4.4397192989
 20
3.7434928642
 10
4.4386151701
 20
3.7415330355
 10
4.4375938509
 20
3.7393799844
 10
4.4366553415
 20
3.7370613139
 10
4.4357996416
 20
3.7345494208
 10
4.4350267515
 20
3.7318719084
 10
4.4350267515
 20
3.7318719084
 10
4.4345022903
 20
3.7294704283
 10
4.4340606388
 20
3.7265168837
 10
4.4336741937
 20
3.7230112747
 10
4.4333705582
 20
3.7189536014
 10
4.4331221293
 20
3.7143714668
 10
4.4329565099
 20
3.7092372678
 10
4.4328460971
 20
3.7035510044
 10
4.4328184938
 20
3.6973126767
 10
4.4328184938
 20
3.6973126767
 10
4.4328184938
 20
3.6634711286
 10
4.4328184938
 20
3.6634711286
 10
4.4204522512
 20
3.6634711286
 10
4.4204522512
 20
3.6634711286
 10
4.4204522512
 20
3.7641676762
  0
LINE
  5
8F
330
1F
100
AcDbEntity
  8
0
  6
Continuous
 62
     7
100
AcDbLine
 10
4.5291537326
 20
3.7659342823
 30
0.0
 11
4.5291527988
 21
3.7659342823
 31
0.0
  0
ARC
  5
90
330
1F
100
AcDbEntity
  8
0
  6
Continuous
 62
     7
100
AcDbCircle
 10
4.5290975028
 20
3.7138272059
 30
0.0
 40
0.0397408336889409
100
AcDbArc
 50
90.0014753758
 51
89.9985246405
  0
LWPOLYLINE
  5
91
330
1F
100
AcDbEntity
  8
0
  6
Continuous
 62
     7
100
AcDbPolyline
 90
       62
 70
   128
 43
0.0
 10
4.6059442317
 20
3.6634711286
 10
4.6059458914
 20
3.8047996164
 10
4.6059458914
 20
3.8047996164
 10
4.6183121341
 20
3.8047996164
 10
4.6183121341
 20
3.8047996164
 10
4.6183121341
 20
3.7458943443
 10
4.6183121341
 20
3.7458943443
 10
4.6225906332
 20
3.750614495
 10
4.6270899581
 20
3.7546721684
 10
4.6318653152
 20
3.7581225709
 10
4.6368614981
 20
3.7609380994
 10
4.6421337132
 20
3.7631187538
 10
4.647626754
 20
3.7646921373
 10
4.653395827
 20
3.7656306468
 10
4.6593857258
 20
3.7659342823
 10
4.6593857258
 20
3.7659342823
 10
4.6647131473
 20
3.7656858533
 10
4.6698749495
 20
3.7649681695
 10
4.674815926
 20
3.7637812311
 10
4.6795636798
 20
3.7621250379
 10
4.684090608
 20
3.7599719867
 10
4.6884519168
 20
3.7573496807
 10
4.6925923998
 20
3.7542581201
 10
4.6965396603
 20
3.7506697014
 10
4.7001556822
 20
3.7467500442
 10
4.7032748461
 20
3.7426371643
 10
4.7059247552
 20
3.7383034588
 10
4.7081054096
 20
3.7337765306
 10
4.709789206
 20
3.72905638
 10
4.7109761445
 20
3.7241154035
 10
4.7116938282
 20
3.7189812046
 10
4.7119422572
 20
3.7136261798
 10
4.7119422572
 20
3.7136261798
 10
4.7116938282
 20
3.7083539648
 10
4.7109761445
 20
3.7032749722
 10
4.7097616028
 20
3.6983892023
 10
4.7080502032
 20
3.6936966548
 10
4.7058695488
 20
3.6891973299
 10
4.7031920364
 20
3.6849188308
 10
4.7000452693
 20
3.6808059509
 10
4.6964016442
 20
3.6769138969
 10
4.6924267805
 20
3.6733530815
 10
4.688231091
 20
3.6702615208
 10
4.6838697822
 20
3.6676392149
 10
4.6792876476
 20
3.6655137669
 10
4.6745122905
 20
3.6638299705
 10
4.6695437109
 20
3.662643032
 10
4.6643543055
 20
3.6619529515
 10
4.6589992807
 20
3.6617045225
 10
4.6589992807
 20
3.6617045225
 10
4.6528713658
 20
3.6620081579
 10
4.6470470864
 20
3.6629190642
 10
4.6415264423
 20
3.6644648445
 10
4.6362818305
 20
3.6665902925
 10
4.631340854
 20
3.669405821
 10
4.626703513
 20
3.6729114299
 10
4.6223698074
 20
3.6771623259
 10
4.6183121341
 20
3.6821033023
 10
4.6183121341
 20
3.6821033023
 10
4.6183121341
 20
3.6634711286
 10
4.6183121341
 20
3.6634711286
 10
4.6059458914
 20
3.6634711286
  0
LWPOLYLINE
  5
92
330
1F
100
AcDbEntity
  8
0
  6
Continuous
 62
     7
100
AcDbPolyline
 90
       56
 70
   128
 43
0.0
 10
4.6588867668
 20
3.6740707652
 10
4.664299099
 20
3.6744020038
 10
4.6694885044
 20
3.6753681165
 10
4.6744570841
 20
3.6769967065
 10
4.6792324412
 20
3.6792601706
 10
4.6836489564
 20
3.6821033023
 10
4.6875962169
 20
3.6854984984
 10
4.6910742227
 20
3.6893905524
 10
4.6940553705
 20
3.6938070677
 10
4.6964844539
 20
3.6985548216
 10
4.6981958535
 20
3.7034681948
 10
4.6992447759
 20
3.7084643776
 10
4.6995760145
 20
3.7136261798
 10
4.6995760145
 20
3.7136261798
 10
4.6992171727
 20
3.718787982
 10
4.6981958535
 20
3.7238393713
 10
4.6964292474
 20
3.7287527445
 10
4.694000164
 20
3.7335557049
 10
4.690991413
 20
3.7380274266
 10
4.6875134073
 20
3.7419746871
 10
4.6835385436
 20
3.7453974864
 10
4.6790944251
 20
3.7482958245
 10
4.6743466712
 20
3.750614495
 10
4.6694056948
 20
3.752243085
 10
4.6643267023
 20
3.7532368009
 10
4.6590820904
 20
3.7535680396
 10
4.6590820904
 20
3.7535680396
 10
4.6537270657
 20
3.7532368009
 10
4.6485376603
 20
3.752243085
 10
4.6434586677
 20
3.750614495
 10
4.6385176913
 20
3.7482958245
 10
4.6339355567
 20
3.7454250896
 10
4.6299054866
 20
3.7421127032
 10
4.6264274808
 20
3.738331062
 10
4.6235291427
 20
3.7340801661
 10
4.6212380754
 20
3.7294704283
 10
4.6196094854
 20
3.7246122615
 10
4.6186433727
 20
3.7194504593
 10
4.6183121341
 20
3.7140126249
 10
4.6183121341
 20
3.7140126249
 10
4.6185053566
 20
3.7098445387
 10
4.619057421
 20
3.7058420717
 10
4.6199683273
 20
3.7020052241
 10
4.6212380754
 20
3.698361599
 10
4.6228942686
 20
3.6948835933
 10
4.6249093037
 20
3.6915712068
 10
4.6272831806
 20
3.688452043
 10
4.6300158995
 20
3.6854984984
 10
4.6330246505
 20
3.682820986
 10
4.636226624
 20
3.6805023155
 10
4.6395666137
 20
3.6785424869
 10
4.6430998259
 20
3.6769415001
 10
4.6467986574
 20
3.675671752
 10
4.6506631082
 20
3.6747884489
 10
4.6546931784
 20
3.6742363845
 10
4.6588888679
 20
3.6740707652
  0
LINE
  5
93
330
1F
100
AcDbEntity
  8
0
  6
Continuous
 62
     7
100
AcDbLine
 10
4.7853116167
 20
3.7659342823
 30
0.0
 11
4.7853096264
 21
3.7659342823
 31
0.0
  0
ARC
  5
94
330
1F
100
AcDbEntity
  8
0
  6
Continuous
 62
     7
100
AcDbCircle
 10
4.785256032
 20
3.713827231
 30
0.0
 40
0.039740808547485
100
AcDbArc
 50
90.0005454346
 51
89.9994546098
  0
LWPOLYLINE
  5
95
330
1F
100
AcDbEntity
  8
0
  6
Continuous
 62
     7
100
AcDbPolyline
 90
       24
 70
   128
 43
0.0
 10
4.8744678497
 20
3.8047996164
 10
4.8868362609
 20
3.8047996164
 10
4.8868362609
 20
3.8047996164
 10
4.8868362609
 20
3.7641676762
 10
4.8868362609
 20
3.7641676762
 10
4.9045023218
 20
3.7641676762
 10
4.9045023218
 20
3.7641676762
 10
4.9045023218
 20
3.7518014335
 10
4.9045023218
 20
3.7518014335
 10
4.8868362609
 20
3.7518014335
 10
4.8868362609
 20
3.7518014335
 10
4.8868362609
 20
3.6634711286
 10
4.8868362609
 20
3.6634711286
 10
4.8744700182
 20
3.6634711286
 10
4.8744700182
 20
3.6634711286
 10
4.8744700182
 20
3.7518014335
 10
4.8744700182
 20
3.7518014335
 10
4.8568039572
 20
3.7518014335
 10
4.8568039572
 20
3.7518014335
 10
4.8568039572
 20
3.7641676762
 10
4.8568039572
 20
3.7641676762
 10
4.8744700182
 20
3.7641676762
 10
4.8744700182
 20
3.7641676762
 10
4.8744700182
 20
3.8047996164
  0
LWPOLYLINE
  5
96
330
1F
100
AcDbEntity
  8
0
  6
Continuous
 62
     7
100
AcDbPolyline
 90
       26
 70
   128
 43
0.0
 10
4.9645647289
 20
3.7641676762
 10
4.9778440781
 20
3.7641676762
 10
4.9778440781
 20
3.7641676762
 10
5.0078487785
 20
3.6917368262
 10
5.0078487785
 20
3.6917368262
 10
5.0407242139
 20
3.7641676762
 10
5.0407242139
 20
3.7641676762
 10
5.0428220586
 20
3.7641676762
 10
5.0428220586
 20
3.7641676762
 10
5.0749798102
 20
3.6917368262
 10
5.0749798102
 20
3.6917368262
 10
5.1052605429
 20
3.7641676762
 10
5.1052605429
 20
3.7641676762
 10
5.1182616596
 20
3.7641676762
 10
5.1182616596
 20
3.7641676762
 10
5.0761667487
 20
3.6634711286
 10
5.0761667487
 20
3.6634711286
 10
5.0735996492
 20
3.6634711286
 10
5.0735996492
 20
3.6634711286
 10
5.0414142944
 20
3.7359019786
 10
5.0414142944
 20
3.7359019786
 10
5.0085664622
 20
3.6634711286
 10
5.0085664622
 20
3.6634711286
 10
5.006275395
 20
3.6634711286
 10
5.006275395
 20
3.6634711286
 10
4.9645669291
 20
3.7641676762
  0
LWPOLYLINE
  5
97
330
1F
100
AcDbEntity
  8
0
  6
Continuous
 62
     7
100
AcDbPolyline
 90
       36
 70
   128
 43
0.0
 10
5.1385211194
 20
3.8065662225
 10
5.1408134906
 20
3.8063729999
 10
5.1429389385
 20
3.8057933323
 10
5.1448987672
 20
3.8047996164
 10
5.1466653733
 20
3.8034470586
 10
5.1481559472
 20
3.8018184686
 10
5.1492048695
 20
3.7999966561
 10
5.1498397436
 20
3.7980368274
 10
5.1500605694
 20
3.7959113795
 10
5.1500605694
 20
3.7959113795
 10
5.1498397436
 20
3.7938411379
 10
5.1492048695
 20
3.7919089125
 10
5.1481559472
 20
3.7901147032
 10
5.1466653733
 20
3.7884861132
 10
5.1448987672
 20
3.7871335554
 10
5.1429389385
 20
3.7861398395
 10
5.1408134906
 20
3.7855601719
 10
5.1385224233
 20
3.7853669493
 10
5.1385224233
 20
3.7853669493
 10
5.1362589592
 20
3.7855601719
 10
5.1341887177
 20
3.7861398395
 10
5.1322288891
 20
3.7871335554
 10
5.130462283
 20
3.7884861132
 10
5.1289993123
 20
3.7901147032
 10
5.1279503899
 20
3.7919089125
 10
5.1273155158
 20
3.7938411379
 10
5.1270946901
 20
3.7959113795
 10
5.1270946901
 20
3.7959113795
 10
5.1273155158
 20
3.7980368274
 10
5.1279503899
 20
3.7999966561
 10
5.1289993123
 20
3.8018184686
 10
5.130462283
 20
3.8034470586
 10
5.1322288891
 20
3.8047996164
 10
5.1341887177
 20
3.8057933323
 10
5.1362589592
 20
3.8063729999
 10
5.1385224233
 20
3.8065662225
  0
LWPOLYLINE
  5
98
330
1F
100
AcDbEntity
  8
0
  6
Continuous
 62
     7
100
AcDbPolyline
 90
        8
 70
   128
 43
0.0
 10
5.1323916968
 20
3.7641676762
 10
5.1447607511
 20
3.7641676762
 10
5.1447607511
 20
3.7641676762
 10
5.1447607511
 20
3.6634711286
 10
5.1447607511
 20
3.6634711286
 10
5.1323945084
 20
3.6634711286
 10
5.1323945084
 20
3.6634711286
 10
5.1323945084
 20
3.7641676762
  0
LWPOLYLINE
  5
99
330
1F
100
AcDbEntity
  8
0
  6
Continuous
 62
     7
100
AcDbPolyline
 90
        8
 70
   128
 43
0.0
 10
5.1730261074
 20
3.8047996164
 10
5.1853926913
 20
3.8047996164
 10
5.1853926913
 20
3.8047996164
 10
5.1853926913
 20
3.6634711286
 10
5.1853926913
 20
3.6634711286
 10
5.1730264486
 20
3.6634711286
 10
5.1730264486
 20
3.6634711286
 10
5.1730264486
 20
3.8047996164
  0
LWPOLYLINE
  5
9A
330
1F
100
AcDbEntity
  8
0
  6
Continuous
 62
     7
100
AcDbPolyline
 90
        8
 70
   128
 43
0.0
 10
5.2118911518
 20
3.8047996164
 10
5.2242580254
 20
3.8047996164
 10
5.2242580254
 20
3.8047996164
 10
5.2242580254
 20
3.6634711286
 10
5.2242580254
 20
3.6634711286
 10
5.2118917828
 20
3.6634711286
 10
5.2118917828
 20
3.6634711286
 10
5.2118917828
 20
3.8047996164
  0
LWPOLYLINE
  5
9B
330
1F
100
AcDbEntity
  8
0
  6
Continuous
 62
     7
100
AcDbPolyline
 90
       62
 70
   128
 43
0.0
 10
5.3055173769
 20
3.6634711286
 10
5.3055219059
 20
3.8047996164
 10
5.3055219059
 20
3.8047996164
 10
5.3178881486
 20
3.8047996164
 10
5.3178881486
 20
3.8047996164
 10
5.3178881486
 20
3.7458943443
 10
5.3178881486
 20
3.7458943443
 10
5.3221666477
 20
3.750614495
 10
5.3266659726
 20
3.7546721684
 10
5.3314413297
 20
3.7581225709
 10
5.3364375126
 20
3.7609380994
 10
5.3417097277
 20
3.7631187538
 10
5.3472027685
 20
3.7646921373
 10
5.3529718416
 20
3.7656306468
 10
5.3589617404
 20
3.7659342823
 10
5.3589617404
 20
3.7659342823
 10
5.3642891619
 20
3.7656858533
 10
5.3694509641
 20
3.7649681695
 10
5.3743919405
 20
3.7637812311
 10
5.3791396944
 20
3.7621250379
 10
5.3836666225
 20
3.7599719867
 10
5.3880279313
 20
3.7573496807
 10
5.3921684143
 20
3.7542581201
 10
5.3961156748
 20
3.7506697014
 10
5.3997316967
 20
3.7467500442
 10
5.4028508606
 20
3.7426371643
 10
5.4055007697
 20
3.7383034588
 10
5.4076814241
 20
3.7337765306
 10
5.4093652206
 20
3.72905638
 10
5.410552159
 20
3.7241154035
 10
5.4112698428
 20
3.7189812046
 10
5.4115182718
 20
3.7136261798
 10
5.4115182718
 20
3.7136261798
 10
5.4112698428
 20
3.7083539648
 10
5.410552159
 20
3.7032749722
 10
5.4093376174
 20
3.6983892023
 10
5.4076262177
 20
3.6936966548
 10
5.4054455633
 20
3.6891973299
 10
5.4027680509
 20
3.6849188308
 10
5.3996212838
 20
3.6808059509
 10
5.3959776587
 20
3.6769138969
 10
5.392002795
 20
3.6733530815
 10
5.3878071055
 20
3.6702615208
 10
5.3834457967
 20
3.6676392149
 10
5.3788636622
 20
3.6655137669
 10
5.3740883051
 20
3.6638299705
 10
5.3691197254
 20
3.662643032
 10
5.36393032
 20
3.6619529515
 10
5.3585752953
 20
3.6617045225
 10
5.3585752953
 20
3.6617045225
 10
5.3524473804
 20
3.6620081579
 10
5.3466231009
 20
3.6629190642
 10
5.3411024568
 20
3.6644648445
 10
5.335857845
 20
3.6665902925
 10
5.3309168686
 20
3.669405821
 10
5.3262795276
 20
3.6729114299
 10
5.321945822
 20
3.6771623259
 10
5.3178881486
 20
3.6821033023
 10
5.3178881486
 20
3.6821033023
 10
5.3178881486
 20
3.6634711286
 10
5.3178881486
 20
3.6634711286
 10
5.3055219059
 20
3.6634711286
  0
LWPOLYLINE
  5
9C
330
1F
100
AcDbEntity
  8
0
  6
Continuous
 62
     7
100
AcDbPolyline
 90
       56
 70
   128
 43
0.0
 10
5.3584622586
 20
3.6740707652
 10
5.3638751136
 20
3.6744020038
 10
5.369064519
 20
3.6753681165
 10
5.3740330986
 20
3.6769967065
 10
5.3788084557
 20
3.6792601706
 10
5.383224971
 20
3.6821033023
 10
5.3871722315
 20
3.6854984984
 10
5.3906502372
 20
3.6893905524
 10
5.393631385
 20
3.6938070677
 10
5.3960604684
 20
3.6985548216
 10
5.3977718681
 20
3.7034681948
 10
5.3988207904
 20
3.7084643776
 10
5.3991520291
 20
3.7136261798
 10
5.3991520291
 20
3.7136261798
 10
5.3987931872
 20
3.718787982
 10
5.3977718681
 20
3.7238393713
 10
5.396005262
 20
3.7287527445
 10
5.3935761786
 20
3.7335557049
 10
5.3905674276
 20
3.7380274266
 10
5.3870894218
 20
3.7419746871
 10
5.3831145581
 20
3.7453974864
 10
5.3786704396
 20
3.7482958245
 10
5.3739226857
 20
3.750614495
 10
5.3689817093
 20
3.752243085
 10
5.3639027168
 20
3.7532368009
 10
5.3586581049
 20
3.7535680396
 10
5.3586581049
 20
3.7535680396
 10
5.3533030802
 20
3.7532368009
 10
5.3481136748
 20
3.752243085
 10
5.3430346823
 20
3.750614495
 10
5.3380937058
 20
3.7482958245
 10
5.3335115713
 20
3.7454250896
 10
5.3294815011
 20
3.7421127032
 10
5.3260034954
 20
3.738331062
 10
5.3231051572
 20
3.7340801661
 10
5.3208140899
 20
3.7294704283
 10
5.3191854999
 20
3.7246122615
 10
5.3182193872
 20
3.7194504593
 10
5.3178881486
 20
3.7140126249
 10
5.3178881486
 20
3.7140126249
 10
5.3180813711
 20
3.7098445387
 10
5.3186334355
 20
3.7058420717
 10
5.3195443418
 20
3.7020052241
 10
5.3208140899
 20
3.698361599
 10
5.3224702832
 20
3.6948835933
 10
5.3244853182
 20
3.6915712068
 10
5.3268591952
 20
3.688452043
 10
5.329591914
 20
3.6854984984
 10
5.332600665
 20
3.682820986
 10
5.3358026386
 20
3.6805023155
 10
5.3391426282
 20
3.6785424869
 10
5.3426758404
 20
3.6769415001
 10
5.3463746719
 20
3.675671752
 10
5.3502391228
 20
3.6747884489
 10
5.3542691929
 20
3.6742363845
 10
5.3584648824
 20
3.6740707652
  0
LWPOLYLINE
  5
9D
330
1F
100
AcDbEntity
  8
0
  6
Continuous
 62
     7
100
AcDbPolyline
 90
      100
 70
   128
 43
0.0
 10
5.5188926186
 20
3.6952700384
 10
5.5298808803
 20
3.6895009653
 10
5.5298808803
 20
3.6895009653
 10
5.5271757647
 20
3.6848912275
 10
5.5242774266
 20
3.6807507445
 10
5.5211858659
 20
3.677051913
 10
5.5178734795
 20
3.6738499394
 10
5.5143678705
 20
3.6710620142
 10
5.510669039
 20
3.6686329308
 10
5.5067217785
 20
3.6665350861
 10
5.5025812954
 20
3.6647960832
 10
5.4981923834
 20
3.6634435254
 10
5.4935274392
 20
3.6624774127
 10
5.4885864627
 20
3.6618977451
 10
5.4833694541
 20
3.6617045225
 10
5.4833694541
 20
3.6617045225
 10
5.4775727779
 20
3.6619529515
 10
5.4721073402
 20
3.6626982384
 10
5.4669731413
 20
3.6639403834
 10
5.4621425777
 20
3.6656793862
 10
5.457670856
 20
3.6679152471
 10
5.4535027698
 20
3.6706479659
 10
5.4496383189
 20
3.6738775427
 10
5.44613271
 20
3.6776039774
 10
5.4429859429
 20
3.6816340475
 10
5.4402532241
 20
3.6858021338
 10
5.4379621568
 20
3.6901082362
 10
5.4360851378
 20
3.6945523546
 10
5.4345945639
 20
3.699106886
 10
5.4335456415
 20
3.7037718302
 10
5.4329383707
 20
3.7086023938
 10
5.4327175449
 20
3.7135433702
 10
5.4327175449
 20
3.7135433702
 10
5.4329107675
 20
3.7181807112
 10
5.4334352286
 20
3.7227076393
 10
5.4343461349
 20
3.7270965513
 10
5.4356158831
 20
3.7313750505
 10
5.437244473
 20
3.7355155335
 10
5.4392319049
 20
3.7395180005
 10
5.4416057818
 20
3.7434100545
 10
5.4443108974
 20
3.7471640925
 10
5.4443108974
 20
3.7471640925
 10
5.4481477451
 20
3.7515530045
 10
5.4522882281
 20
3.7553898521
 10
5.4567323466
 20
3.7585918257
 10
5.4615077037
 20
3.7612417348
 10
5.4665866962
 20
3.7632843731
 10
5.4719693241
 20
3.764774947
 10
5.4776555875
 20
3.7656306468
 10
5.4836730895
 20
3.7659342823
 10
5.4836730895
 20
3.7659342823
 10
5.4898562109
 20
3.7656306468
 10
5.4957356968
 20
3.7646921373
 10
5.5012839441
 20
3.763146357
 10
5.5065009527
 20
3.7609933058
 10
5.5114143259
 20
3.7582053806
 10
5.5159964605
 20
3.7547825813
 10
5.5202749596
 20
3.7507525111
 10
5.5242222201
 20
3.7461151701
 10
5.5242222201
 20
3.7461151701
 10
5.5267617164
 20
3.7424991482
 10
5.5289423708
 20
3.7386899038
 10
5.5308193898
 20
3.7346322305
 10
5.5323375669
 20
3.7303813345
 10
5.5335521086
 20
3.7259096129
 10
5.5344354116
 20
3.7212170654
 10
5.5349598728
 20
3.7163036922
 10
5.5351806986
 20
3.7111694932
 10
5.5351806986
 20
3.7111694932
 10
5.4450837876
 20
3.7111694932
 10
5.4450837876
 20
3.7111694932
 10
5.4453322166
 20
3.7071946295
 10
5.445884281
 20
3.7033853851
 10
5.446767584
 20
3.6997693633
 10
5.4479821257
 20
3.696346564
 10
5.4494726996
 20
3.6931169872
 10
5.4512945122
 20
3.6900530297
 10
5.4534475633
 20
3.6871822948
 10
5.4559042499
 20
3.6844771792
 10
5.4586093655
 20
3.6820480959
 10
5.4614524972
 20
3.6799226479
 10
5.4644612482
 20
3.6781284386
 10
5.4676356186
 20
3.6766654679
 10
5.470948005
 20
3.6755337359
 10
5.4744260108
 20
3.6747332425
 10
5.4780420326
 20
3.6742363845
 10
5.4818236738
 20
3.6740707652
 10
5.4818236738
 20
3.6740707652
 10
5.4855225053
 20
3.6742087813
 10
5.4891385272
 20
3.6746504328
 10
5.4927269458
 20
3.6753957198
 10
5.496260158
 20
3.6764170389
 10
5.4996553541
 20
3.677686787
 10
5.502774518
 20
3.6791773609
 10
5.5056176497
 20
3.6808335542
 10
5.5082123524
 20
3.6826829699
 10
5.5107242454
 20
3.6849188308
 10
5.5133465513
 20
3.6877895657
 10
5.5160792701
 20
3.691212365
 10
5.5188947986
 20
3.6952700384
  0
LWPOLYLINE
  5
9E
330
1F
100
AcDbEntity
  8
0
  6
Continuous
 62
     7
100
AcDbPolyline
 90
       33
 70
   128
 43
0.0
 10
5.5228115067
 20
3.7235357359
 10
5.5213514852
 20
3.7284215059
 10
5.5195572759
 20
3.7327828147
 10
5.5174870344
 20
3.7366196623
 10
5.5151131574
 20
3.7399320488
 10
5.5124080418
 20
3.7428579901
 10
5.5092612747
 20
3.745480296
 10
5.5057280625
 20
3.7477989665
 10
5.501780802
 20
3.7498140016
 10
5.4975851126
 20
3.7514701948
 10
5.493251407
 20
3.7526295301
 10
5.4888348917
 20
3.7533472138
 10
5.4843079636
 20
3.7535680396
 10
5.4843079636
 20
3.7535680396
 10
5.4806091321
 20
3.7534300235
 10
5.4770207135
 20
3.7529883719
 10
5.4735703109
 20
3.752243085
 10
5.4702855277
 20
3.7512217658
 10
5.4670835542
 20
3.7498692081
 10
5.4640471999
 20
3.7482682213
 10
5.4611488618
 20
3.7463359959
 10
5.4583609366
 20
3.7441277382
 10
5.4583609366
 20
3.7441277382
 10
5.4564287111
 20
3.7423059257
 10
5.4546345018
 20
3.7402632874
 10
5.4529507054
 20
3.7380274266
 10
5.451404925
 20
3.73557074
 10
5.4499695576
 20
3.7328656244
 10
5.448644603
 20
3.7299672862
 10
5.4474576645
 20
3.7268757256
 10
5.446381139
 20
3.7235357359
 10
5.446381139
 20
3.7235357359
 10
5.5228144559
 20
3.7235357359
  0
LINE
  5
9F
330
1F
100
AcDbEntity
  8
0
  6
Continuous
 62
     7
100
AcDbLine
 10
5.661548241
 20
3.7659342823
 30
0.0
 11
5.6615448374
 21
3.7659342823
 31
0.0
  0
ARC
  5
A0
330
1F
100
AcDbEntity
  8
0
  6
Continuous
 62
     7
100
AcDbCircle
 10
5.6614907763
 20
3.7138271578
 30
0.0
 40
0.0397408818551096
100
AcDbArc
 50
90.0032558086
 51
89.996744184
  0
LWPOLYLINE
  5
A1
330
1F
100
AcDbEntity
  8
0
  6
Continuous
 62
     7
100
AcDbPolyline
 90
       86
 70
   128
 43
0.0
 10
5.7383362702
 20
3.7641676762
 10
5.7507066424
 20
3.7641676762
 10
5.7507066424
 20
3.7641676762
 10
5.7507066424
 20
3.7460047572
 10
5.7507066424
 20
3.7460047572
 10
5.7547643158
 20
3.750862924
 10
5.7590152117
 20
3.7550310102
 10
5.7634869334
 20
3.7584538096
 10
5.7681794809
 20
3.7611865284
 10
5.7730652509
 20
3.7632567699
 10
5.7781718466
 20
3.7647473438
 10
5.7834992681
 20
3.7656306468
 10
5.7890199122
 20
3.7659342823
 10
5.7890199122
 20
3.7659342823
 10
5.7945957627
 20
3.7655754404
 10
5.7998403745
 20
3.764526518
 10
5.8047537477
 20
3.7627323087
 10
5.8093358823
 20
3.7602480189
 10
5.8134763653
 20
3.7571564582
 10
5.817064784
 20
3.7535680396
 10
5.8200459318
 20
3.749482763
 10
5.8224474119
 20
3.7449006284
 10
5.8234411279
 20
3.7423335289
 10
5.8242968277
 20
3.7394075876
 10
5.8250145114
 20
3.7361780108
 10
5.8256217823
 20
3.7325895922
 10
5.8260634338
 20
3.7286699349
 10
5.8263946724
 20
3.724419039
 10
5.8266154982
 20
3.7198093012
 10
5.8266707046
 20
3.714895928
 10
5.8266707046
 20
3.714895928
 10
5.8266707046
 20
3.6634711286
 10
5.8266707046
 20
3.6634711286
 10
5.8143044619
 20
3.6634711286
 10
5.8143044619
 20
3.6634711286
 10
5.8143044619
 20
3.7108382546
 10
5.8143044619
 20
3.7108382546
 10
5.8142768587
 20
3.7149511344
 10
5.8142216523
 20
3.7187051724
 10
5.8141112394
 20
3.7221003685
 10
5.8139456201
 20
3.7251643259
 10
5.8137247943
 20
3.7278418383
 10
5.8134763653
 20
3.7301605088
 10
5.8131727299
 20
3.7321479406
 10
5.8128414913
 20
3.7337489274
 10
5.8128414913
 20
3.7337489274
 10
5.811433727
 20
3.7383862684
 10
5.8094738984
 20
3.7424163386
 10
5.8069896086
 20
3.7458115347
 10
5.8039808576
 20
3.7485994599
 10
5.8004476454
 20
3.7507801143
 10
5.7964175752
 20
3.7523258947
 10
5.7918906471
 20
3.7532644041
 10
5.786866861
 20
3.7535680396
 10
5.786866861
 20
3.7535680396
 10
5.7838857132
 20
3.7534576267
 10
5.7809873751
 20
3.7530987848
 10
5.7781442434
 20
3.752491514
 10
5.7754115246
 20
3.7516634174
 10
5.7727340122
 20
3.7505592886
 10
5.7701393095
 20
3.7492619372
 10
5.7676274165
 20
3.7476885537
 10
5.7651983331
 20
3.7458943443
 10
5.7629072658
 20
3.7439069125
 10
5.7608370243
 20
3.741836671
 10
5.7589600053
 20
3.7396284133
 10
5.7572762089
 20
3.7373097428
 10
5.7558132382
 20
3.7348806594
 10
5.7545434901
 20
3.7323411632
 10
5.7534669645
 20
3.7296636508
 10
5.7526112646
 20
3.7269033288
 10
5.7526112646
 20
3.7269033288
 10
5.7521696131
 20
3.7248606905
 10
5.751783168
 20
3.7224316071
 10
5.7514519294
 20
3.7196436819
 10
5.7511758972
 20
3.7164417083
 10
5.7509826746
 20
3.7128808929
 10
5.7508170553
 20
3.7089336324
 10
5.7507342457
 20
3.7045999268
 10
5.7507066424
 20
3.6998797761
 10
5.7507066424
 20
3.6998797761
 10
5.7507066424
 20
3.6634711286
 10
5.7507066424
 20
3.6634711286
 10
5.7383403998
 20
3.6634711286
 10
5.7383403998
 20
3.6634711286
 10
5.7383403998
 20
3.7641676762
  0
LWPOLYLINE
  5
A2
330
1F
100
AcDbEntity
  8
0
  6
Continuous
 62
     7
100
AcDbPolyline
 90
       24
 70
   128
 43
0.0
 10
5.9202993949
 20
3.8047996164
 10
5.9326670705
 20
3.8047996164
 10
5.9326670705
 20
3.8047996164
 10
5.9326670705
 20
3.7641676762
 10
5.9326670705
 20
3.7641676762
 10
5.9503331314
 20
3.7641676762
 10
5.9503331314
 20
3.7641676762
 10
5.9503331314
 20
3.7518014335
 10
5.9503331314
 20
3.7518014335
 10
5.9326670705
 20
3.7518014335
 10
5.9326670705
 20
3.7518014335
 10
5.9326670705
 20
3.6634711286
 10
5.9326670705
 20
3.6634711286
 10
5.9203008278
 20
3.6634711286
 10
5.9203008278
 20
3.6634711286
 10
5.9203008278
 20
3.7518014335
 10
5.9203008278
 20
3.7518014335
 10
5.9026347668
 20
3.7518014335
 10
5.9026347668
 20
3.7518014335
 10
5.9026347668
 20
3.7641676762
 10
5.9026347668
 20
3.7641676762
 10
5.9203008278
 20
3.7641676762
 10
5.9203008278
 20
3.7641676762
 10
5.9203008278
 20
3.8047996164
  0
LWPOLYLINE
  5
A3
330
1F
100
AcDbEntity
  8
0
  6
Continuous
 62
     7
100
AcDbPolyline
 90
       86
 70
   128
 43
0.0
 10
5.9715312297
 20
3.8047996164
 10
5.9838986473
 20
3.8047996164
 10
5.9838986473
 20
3.8047996164
 10
5.9838986473
 20
3.7451490574
 10
5.9838986473
 20
3.7451490574
 10
5.9879839239
 20
3.7500348274
 10
5.9922900262
 20
3.7542581201
 10
5.9967617479
 20
3.7578465387
 10
6.0014542954
 20
3.7607448768
 10
6.0063400654
 20
3.7630083409
 10
6.0114466611
 20
3.7646369309
 10
6.0167188762
 20
3.7656030436
 10
6.022211917
 20
3.7659342823
 10
6.022211917
 20
3.7659342823
 10
6.0277877675
 20
3.7655754404
 10
6.0330323794
 20
3.764526518
 10
6.0379457526
 20
3.7627323087
 10
6.0425278871
 20
3.7602480189
 10
6.0466683702
 20
3.7571564582
 10
6.0502567888
 20
3.7535956428
 10
6.0532379366
 20
3.7495103662
 10
6.0556394168
 20
3.7449558348
 10
6.0566331327
 20
3.7423887354
 10
6.0574888325
 20
3.739462794
 10
6.0582065163
 20
3.7362332172
 10
6.0588137871
 20
3.7326447986
 10
6.0592554386
 20
3.7286975381
 10
6.0595866773
 20
3.7244466422
 10
6.059807503
 20
3.7198369044
 10
6.0598627095
 20
3.714895928
 10
6.0598627095
 20
3.714895928
 10
6.0598627095
 20
3.6634711286
 10
6.0598627095
 20
3.6634711286
 10
6.0474964668
 20
3.6634711286
 10
6.0474964668
 20
3.6634711286
 10
6.0474964668
 20
3.7108382546
 10
6.0474964668
 20
3.7108382546
 10
6.0474688636
 20
3.7149511344
 10
6.0474136571
 20
3.7187051724
 10
6.0473032442
 20
3.7221003685
 10
6.0471376249
 20
3.7251643259
 10
6.0469444024
 20
3.7278418383
 10
6.0466959734
 20
3.7301605088
 10
6.046392338
 20
3.7321479406
 10
6.0460610993
 20
3.7337489274
 10
6.0460610993
 20
3.7337489274
 10
6.0445705254
 20
3.7383862684
 10
6.0425830936
 20
3.7424163386
 10
6.0400988038
 20
3.7458115347
 10
6.0370900527
 20
3.7485994599
 10
6.0335844438
 20
3.7507801143
 10
6.0295819768
 20
3.7523258947
 10
6.0250550487
 20
3.7532644041
 10
6.0200312626
 20
3.7535680396
 10
6.0200312626
 20
3.7535680396
 10
6.0170501148
 20
3.7534576267
 10
6.0141517767
 20
3.7530987848
 10
6.011308645
 20
3.752491514
 10
6.0085759262
 20
3.7516634174
 10
6.0058984138
 20
3.7505592886
 10
6.0033313144
 20
3.7492619372
 10
6.0008194213
 20
3.7476885537
 10
5.9983903379
 20
3.7458943443
 10
5.9960992706
 20
3.7439069125
 10
5.9940290291
 20
3.741836671
 10
5.9921520101
 20
3.7396284133
 10
5.9904682137
 20
3.7373097428
 10
5.989005243
 20
3.7348806594
 10
5.9877354949
 20
3.7323411632
 10
5.9866589693
 20
3.7296636508
 10
5.9858032695
 20
3.7269033288
 10
5.9858032695
 20
3.7269033288
 10
5.985361618
 20
3.7248882937
 10
5.9849751729
 20
3.7224868135
 10
5.9846439342
 20
3.7196988883
 10
5.984367902
 20
3.7164969147
 10
5.9841746795
 20
3.7129360993
 10
5.9840090602
 20
3.7089612356
 10
5.9839262505
 20
3.70462753
 10
5.9838986473
 20
3.6998797761
 10
5.9838986473
 20
3.6998797761
 10
5.9838986473
 20
3.6634711286
 10
5.9838986473
 20
3.6634711286
 10
5.9715324046
 20
3.6634711286
 10
5.9715324046
 20
3.6634711286
 10
5.9715324046
 20
3.8047996164
  0
LWPOLYLINE
  5
A4
330
1F
100
AcDbEntity
  8
0
  6
Continuous
 62
     7
100
AcDbPolyline
 90
       36
 70
   128
 43
0.0
 10
6.0924864191
 20
3.8065662225
 10
6.0947807831
 20
3.8063729999
 10
6.0969062311
 20
3.8057933323
 10
6.0988660597
 20
3.8047996164
 10
6.1006326658
 20
3.8034470586
 10
6.1021232397
 20
3.8018184686
 10
6.1031721621
 20
3.7999966561
 10
6.1038070361
 20
3.7980368274
 10
6.1040278619
 20
3.7959113795
 10
6.1040278619
 20
3.7959113795
 10
6.1038070361
 20
3.7938411379
 10
6.1031721621
 20
3.7919089125
 10
6.1021232397
 20
3.7901147032
 10
6.1006326658
 20
3.7884861132
 10
6.0988660597
 20
3.7871335554
 10
6.0969062311
 20
3.7861398395
 10
6.0947807831
 20
3.7855601719
 10
6.0924897158
 20
3.7853669493
 10
6.0924897158
 20
3.7853669493
 10
6.0902262518
 20
3.7855601719
 10
6.0881560102
 20
3.7861398395
 10
6.0861961816
 20
3.7871335554
 10
6.0844295755
 20
3.7884861132
 10
6.0829666048
 20
3.7901147032
 10
6.0819176825
 20
3.7919089125
 10
6.0812828084
 20
3.7938411379
 10
6.0810619826
 20
3.7959113795
 10
6.0810619826
 20
3.7959113795
 10
6.0812828084
 20
3.7980368274
 10
6.0819176825
 20
3.7999966561
 10
6.0829666048
 20
3.8018184686
 10
6.0844295755
 20
3.8034470586
 10
6.0861961816
 20
3.8047996164
 10
6.0881560102
 20
3.8057933323
 10
6.0902262518
 20
3.8063729999
 10
6.0924897158
 20
3.8065662225
  0
LWPOLYLINE
  5
A5
330
1F
100
AcDbEntity
  8
0
  6
Continuous
 62
     7
100
AcDbPolyline
 90
        8
 70
   128
 43
0.0
 10
6.0863616898
 20
3.7641676762
 10
6.0987280436
 20
3.7641676762
 10
6.0987280436
 20
3.7641676762
 10
6.0987280436
 20
3.6634711286
 10
6.0987280436
 20
3.6634711286
 10
6.0863618009
 20
3.6634711286
 10
6.0863618009
 20
3.6634711286
 10
6.0863618009
 20
3.7641676762
  0
LWPOLYLINE
  5
A6
330
1F
100
AcDbEntity
  8
0
  6
Continuous
 62
     7
100
AcDbPolyline
 90
      148
 70
   128
 43
0.0
 10
6.176458569
 20
3.7516082109
 10
6.1680673329
 20
3.742968403
 10
6.1680673329
 20
3.742968403
 10
6.1658590753
 20
3.7454526928
 10
6.1636508177
 20
3.747605744
 10
6.1614425601
 20
3.7494275565
 10
6.1592895089
 20
3.7509181304
 10
6.1571088545
 20
3.7520774657
 10
6.1549558033
 20
3.7529055623
 10
6.1528027521
 20
3.7534024203
 10
6.1506773042
 20
3.7535680396
 10
6.1506773042
 20
3.7535680396
 10
6.1480826015
 20
3.7533196106
 10
6.1456811213
 20
3.7525467204
 10
6.1434452604
 20
3.7512769723
 10
6.1414302254
 20
3.749482763
 10
6.1397464289
 20
3.747357315
 10
6.1385594905
 20
3.7450938509
 10
6.1378418067
 20
3.7426371643
 10
6.1375933778
 20
3.7400148584
 10
6.1375933778
 20
3.7400148584
 10
6.1378142035
 20
3.7376409815
 10
6.1384490776
 20
3.7353499142
 10
6.1395256032
 20
3.7330864501
 10
6.1410161771
 20
3.7308781925
 10
6.1410161771
 20
3.7308781925
 10
6.1419822898
 20
3.7297464605
 10
6.1431968315
 20
3.7285871252
 10
6.1446321989
 20
3.7273449803
 10
6.1463159954
 20
3.7260752322
 10
6.1482482208
 20
3.7247502776
 10
6.150401272
 20
3.7233977198
 10
6.1527751489
 20
3.7219623524
 10
6.1553974548
 20
3.7204993817
 10
6.1553974548
 20
3.7204993817
 10
6.1585994284
 20
3.7186775692
 10
6.1615253697
 20
3.7168833598
 10
6.1642028821
 20
3.7150891505
 10
6.1666043623
 20
3.7133225444
 10
6.1687298102
 20
3.7115559383
 10
6.1706068292
 20
3.7098169354
 10
6.172207816
 20
3.7080779326
 10
6.1735327705
 20
3.7063665329
 10
6.1735327705
 20
3.7063665329
 10
6.1755754088
 20
3.7028057175
 10
6.1770659827
 20
3.6990240763
 10
6.1779216826
 20
3.6950216094
 10
6.178225318
 20
3.6907983167
 10
6.178225318
 20
3.6907983167
 10
6.1780873019
 20
3.6878171689
 10
6.1777008568
 20
3.684946434
 10
6.1770383795
 20
3.682186112
 10
6.1761274732
 20
3.679563806
 10
6.1749129316
 20
3.6770243098
 10
6.1734775641
 20
3.6746228296
 10
6.1717661644
 20
3.6723317623
 10
6.1697787326
 20
3.6701511079
 10
6.1675980782
 20
3.6681636761
 10
6.1653070109
 20
3.6664522764
 10
6.1628779275
 20
3.6650169089
 10
6.160310828
 20
3.6638299705
 10
6.1576057124
 20
3.662891461
 10
6.1547625808
 20
3.6622289837
 10
6.1518090362
 20
3.6618425386
 10
6.1487174755
 20
3.6617045225
 10
6.1487174755
 20
3.6617045225
 10
6.1445493893
 20
3.6619253483
 10
6.1404917159
 20
3.6626154288
 10
6.1365168522
 20
3.6637471608
 10
6.1326247981
 20
3.6653205444
 10
6.1289535698
 20
3.6673079762
 10
6.1256135802
 20
3.6696542499
 10
6.1226048291
 20
3.6723317623
 10
6.1199273168
 20
3.6753405133
 10
6.1199273168
 20
3.6753405133
 10
6.1281254732
 20
3.6846704018
 10
6.1281254732
 20
3.6846704018
 10
6.1304993501
 20
3.682186112
 10
6.1329008303
 20
3.6800330608
 10
6.1353575169
 20
3.6782112482
 10
6.1378142035
 20
3.6767206743
 10
6.1403260966
 20
3.6755613391
 10
6.142893196
 20
3.6747332425
 10
6.1454602955
 20
3.6742363845
 10
6.1480826015
 20
3.6740707652
 10
6.1480826015
 20
3.6740707652
 10
6.1516434169
 20
3.6743744006
 10
6.1549282001
 20
3.6752853069
 10
6.1579369511
 20
3.6767758808
 10
6.1606696699
 20
3.6789013287
 10
6.162933134
 20
3.6814132218
 10
6.164561724
 20
3.6841735438
 10
6.1655278367
 20
3.6870994852
 10
6.1658590753
 20
3.6902738555
 10
6.1658590753
 20
3.6902738555
 10
6.1656382495
 20
3.6928961614
 10
6.1650033755
 20
3.6953804512
 10
6.1639544531
 20
3.6976991217
 10
6.1624638792
 20
3.6998797761
 10
6.1624638792
 20
3.6998797761
 10
6.1614977665
 20
3.7009286985
 10
6.1602556216
 20
3.7020604305
 10
6.1587374445
 20
3.7032749722
 10
6.1569708384
 20
3.7045447204
 10
6.1549282001
 20
3.7058696749
 10
6.1526095296
 20
3.707249836
 10
6.1500424301
 20
3.7087128066
 10
6.1471992984
 20
3.710258587
 10
6.1471992984
 20
3.710258587
 10
6.144135341
 20
3.7119975898
 10
6.1413198125
 20
3.7137365927
 10
6.1387803162
 20
3.7154755956
 10
6.1364616457
 20
3.7171869953
 10
6.1344190074
 20
3.7188983949
 10
6.1326524013
 20
3.7206097946
 10
6.131106621
 20
3.7223211942
 10
6.1298368729
 20
3.7240049907
 10
6.1298368729
 20
3.7240049907
 10
6.1278218378
 20
3.7275105996
 10
6.1263864703
 20
3.7312922408
 10
6.1255031673
 20
3.7352671045
 10
6.1252271351
 20
3.7395180005
 10
6.1252271351
 20
3.7395180005
 10
6.125337548
 20
3.7423059257
 10
6.1256687866
 20
3.7449558348
 10
6.1262484542
 20
3.7474953311
 10
6.1270213444
 20
3.7499244145
 10
6.1280426635
 20
3.7522154818
 10
6.1292848084
 20
3.7543961362
 10
6.1307477791
 20
3.7564663777
 10
6.1324315756
 20
3.7583986031
 10
6.1343085945
 20
3.7601652092
 10
6.1362960264
 20
3.7616833863
 10
6.1383938711
 20
3.7629807377
 10
6.1406021288
 20
3.7640572633
 10
6.1429484025
 20
3.7648853599
 10
6.1454050891
 20
3.7654650275
 10
6.1479721886
 20
3.7658238694
 10
6.1506773042
 20
3.7659342823
 10
6.1506773042
 20
3.7659342823
 10
6.1538792777
 20
3.7657134565
 10
6.1570812513
 20
3.7650509792
 10
6.160310828
 20
3.7639192472
 10
6.1635404048
 20
3.7623458636
 10
6.1667423784
 20
3.7603308285
 10
6.1699719551
 20
3.7578741419
 10
6.1732291351
 20
3.7549758038
 10
6.1764587119
 20
3.7516082109
  0
LWPOLYLINE
  5
A7
330
1F
100
AcDbEntity
  8
0
  6
Continuous
 62
     7
100
AcDbPolyline
 90
        8
 70
   128
 43
0.0
 10
4.343714301
 20
3.4545068645
 10
4.3967134817
 20
3.4545068645
 10
4.3967134817
 20
3.4545068645
 10
4.3919105214
 20
3.4403740157
 10
4.3919105214
 20
3.4403740157
 10
4.3389123385
 20
3.4403740157
 10
4.3389123385
 20
3.4403740157
 10
4.3437152988
 20
3.4545068645
  0
LWPOLYLINE
  5
A8
330
1F
100
AcDbEntity
  8
0
  6
Continuous
 62
     7
100
AcDbPolyline
 90
        8
 70
   128
 43
0.0
 10
4.4680392648
 20
3.4933721987
 10
4.4594556014
 20
3.4933721987
 10
4.4594556014
 20
3.4933721987
 10
4.4720150666
 20
3.535770745
 10
4.4720150666
 20
3.535770745
 10
4.4843813093
 20
3.535770745
 10
4.4843813093
 20
3.535770745
 10
4.4680402029
 20
3.4933721987
  0
LWPOLYLINE
  5
A9
330
1F
100
AcDbEntity
  8
0
  6
Continuous
 62
     7
100
AcDbPolyline
 90
        8
 70
   128
 43
0.0
 10
4.4310233724
 20
3.4933721987
 10
4.4223568734
 20
3.4933721987
 10
4.4223568734
 20
3.4933721987
 10
4.4349163386
 20
3.535770745
 10
4.4349163386
 20
3.535770745
 10
4.4472825813
 20
3.535770745
 10
4.4472825813
 20
3.535770745
 10
4.4310242845
 20
3.4933721987
  0
LWPOLYLINE
  5
AA
330
1F
100
AcDbEntity
  8
0
  6
Continuous
 62
     7
100
AcDbPolyline
 90
       57
 70
   128
 43
0.0
 10
4.457549786
 20
3.3944422572
 10
4.504393644
 20
3.5322375328
 10
4.504393644
 20
3.5322375328
 10
4.53221769
 20
3.5322375328
 10
4.53221769
 20
3.5322375328
 10
4.5394497337
 20
3.5321547231
 10
4.5461297131
 20
3.5319338974
 10
4.5522300247
 20
3.5315474523
 10
4.557778272
 20
3.5309953879
 10
4.5627468517
 20
3.5303053074
 10
4.5671357637
 20
3.5294496076
 10
4.5709726113
 20
3.5284282884
 10
4.5742297913
 20
3.5272689532
 10
4.5742297913
 20
3.5272689532
 10
4.5783150679
 20
3.525364331
 10
4.5820415026
 20
3.5231284701
 10
4.5853814923
 20
3.5205613706
 10
4.5883626401
 20
3.5176906357
 10
4.5909573428
 20
3.514461059
 10
4.5931656004
 20
3.51095545
 10
4.5950150162
 20
3.5070909991
 10
4.5964779868
 20
3.5029229129
 10
4.5975545124
 20
3.4984787944
 10
4.5982169897
 20
3.4938414534
 10
4.5984378155
 20
3.4889832866
 10
4.5982721961
 20
3.4839318973
 10
4.5976925285
 20
3.4786596823
 10
4.5966988126
 20
3.4731666414
 10
4.5952634451
 20
3.4674803781
 10
4.5934416326
 20
3.4616008921
 10
4.5934416326
 20
3.4616008921
 10
4.5915646136
 20
3.4564942964
 10
4.5894943721
 20
3.45155332
 10
4.5871757016
 20
3.4467779629
 10
4.5846638086
 20
3.4421406218
 10
4.5819034865
 20
3.4376689002
 10
4.578949942
 20
3.4333351946
 10
4.5757479684
 20
3.4291671083
 10
4.5723527723
 20
3.4251646414
 10
4.5687919569
 20
3.421355397
 10
4.565175935
 20
3.4178221848
 10
4.5614771035
 20
3.4145097984
 10
4.5576954623
 20
3.4115010473
 10
4.5538310115
 20
3.4087131221
 10
4.5499113542
 20
3.4062012291
 10
4.5459088873
 20
3.403937765
 10
4.5418236107
 20
3.4019227299
 10
4.5375727148
 20
3.4001561238
 10
4.5330457866
 20
3.3986379467
 10
4.5282428263
 20
3.3973681986
 10
4.523191437
 20
3.3963192762
 10
4.5178640155
 20
3.3954911796
 10
4.5122605618
 20
3.394911512
 10
4.5063810759
 20
3.3945526701
 10
4.500253161
 20
3.3944422572
 10
4.500253161
 20
3.3944422572
 10
4.4575509792
 20
3.3944422572
  0
LWPOLYLINE
  5
AB
330
1F
100
AcDbEntity
  8
0
  6
Continuous
 62
     7
100
AcDbPolyline
 90
       58
 70
   128
 43
0.0
 10
4.4747201477
 20
3.408575106
 10
4.4905368274
 20
3.408575106
 10
4.4905368274
 20
3.408575106
 10
4.4973824261
 20
3.4086303124
 10
4.5037311667
 20
3.4087959318
 10
4.5095554462
 20
3.409071964
 10
4.5148828677
 20
3.409458409
 10
4.5197134313
 20
3.409955267
 10
4.5240195336
 20
3.4105349346
 10
4.527828778
 20
3.4112526184
 10
4.5311135612
 20
3.412080715
 10
4.5311135612
 20
3.412080715
 10
4.5353368539
 20
3.413460876
 10
4.5394221305
 20
3.4150618628
 10
4.5433969942
 20
3.4169388817
 10
4.5472614451
 20
3.4190367265
 10
4.5509878798
 20
3.4214106034
 10
4.5546039017
 20
3.4240329093
 10
4.5581095107
 20
3.426876041
 10
4.5614771035
 20
3.4299952049
 10
4.5646790771
 20
3.4333351946
 10
4.5676602249
 20
3.4368408036
 10
4.5704481501
 20
3.4405120318
 10
4.5730152496
 20
3.4443764827
 10
4.5753339201
 20
3.4484341561
 10
4.5774593681
 20
3.4526574488
 10
4.5793915935
 20
3.4570463608
 10
4.5810753899
 20
3.4616284954
 10
4.5810753899
 20
3.4616284954
 10
4.5825659638
 20
3.4664590589
 10
4.5836976958
 20
3.4710963999
 10
4.584470586
 20
3.4755405184
 10
4.5848570311
 20
3.4798190175
 10
4.5849122375
 20
3.4839318973
 10
4.5845809989
 20
3.4878515546
 10
4.5839185216
 20
3.4916055926
 10
4.5828695992
 20
3.495166408
 10
4.5814894382
 20
3.4985063976
 10
4.5797780386
 20
3.5015703551
 10
4.5777630035
 20
3.5043582803
 10
4.5753891265
 20
3.5068977766
 10
4.5727116142
 20
3.5091336374
 10
4.5696752599
 20
3.5111210693
 10
4.5663352703
 20
3.5128048657
 10
4.562664042
 20
3.5142402332
 10
4.562664042
 20
3.5142402332
 10
4.5595172749
 20
3.5151511395
 10
4.5557908401
 20
3.5159240296
 10
4.551512341
 20
3.5165865069
 10
4.5466541742
 20
3.5171385713
 10
4.5412439431
 20
3.5175526196
 10
4.5352816475
 20
3.517856255
 10
4.5287396843
 20
3.5180494776
 10
4.5216456567
 20
3.518104684
 10
4.5216456567
 20
3.518104684
 10
4.5119569264
 20
3.518104684
 10
4.5119569264
 20
3.518104684
 10
4.4747201822
 20
3.408575106
  0
LWPOLYLINE
  5
AC
330
1F
100
AcDbEntity
  8
0
  6
Continuous
 62
     7
100
AcDbPolyline
 90
       66
 70
   128
 43
0.0
 10
4.7320362151
 20
3.4951388048
 10
4.6978094084
 20
3.3944422572
 10
4.6978094084
 20
3.3944422572
 10
4.6854431658
 20
3.3944422572
 10
4.6854431658
 20
3.3944422572
 10
4.6913502549
 20
3.4118598892
 10
4.6913502549
 20
3.4118598892
 10
4.6854983722
 20
3.4072225482
 10
4.6796464895
 20
3.4032476845
 10
4.6737394004
 20
3.3999352981
 10
4.667804708
 20
3.3972853889
 10
4.6618424124
 20
3.3952703538
 10
4.6558525136
 20
3.3938349864
 10
4.6498074084
 20
3.3929516833
 10
4.6437070967
 20
3.3926756511
 10
4.6437070967
 20
3.3926756511
 10
4.6384624849
 20
3.3929240801
 10
4.6335767149
 20
3.3936417638
 10
4.6290221835
 20
3.3948287023
 10
4.6248540973
 20
3.3964848955
 10
4.6210448529
 20
3.3986379467
 10
4.6175944503
 20
3.4012602526
 10
4.6145028897
 20
3.4043518133
 10
4.6117701709
 20
3.4079402319
 10
4.6095067068
 20
3.4118598892
 10
4.6077677039
 20
3.415972769
 10
4.6066083687
 20
3.4203064746
 10
4.6060010978
 20
3.424861006
 10
4.6059182882
 20
3.4296087598
 10
4.6063875429
 20
3.4345497363
 10
4.6074364653
 20
3.4397115385
 10
4.6090098488
 20
3.4450665632
 10
4.6090098488
 20
3.4450665632
 10
4.6110524871
 20
3.450311175
 10
4.6134815705
 20
3.4553901676
 10
4.6163523054
 20
3.4602483343
 10
4.6196646919
 20
3.4649408818
 10
4.6233635234
 20
3.4694126035
 10
4.6274764032
 20
3.4736911026
 10
4.6320309345
 20
3.4778039824
 10
4.6369995142
 20
3.4816960365
 10
4.6421889196
 20
3.4852568519
 10
4.6474335314
 20
3.4883484126
 10
4.6526781433
 20
3.4909707185
 10
4.6579779616
 20
3.4930961665
 10
4.6633329863
 20
3.4947799629
 10
4.6686880111
 20
3.4959669014
 10
4.6740982422
 20
3.4966569819
 10
4.6795360766
 20
3.4969054109
 10
4.6795360766
 20
3.4969054109
 10
4.6855811819
 20
3.4966017754
 10
4.6911294291
 20
3.4956908692
 10
4.6961532152
 20
3.4941450888
 10
4.7006801433
 20
3.4920196409
 10
4.7027503849
 20
3.4907222895
 10
4.7046826103
 20
3.4892317156
 10
4.7064492164
 20
3.4875479192
 10
4.7081054096
 20
3.4856985034
 10
4.7096235867
 20
3.4836834684
 10
4.7110037477
 20
3.4814752107
 10
4.7122182894
 20
3.4790737306
 10
4.7133224182
 20
3.4765066311
 10
4.7133224182
 20
3.4765066311
 10
4.7196711589
 20
3.4951388048
 10
4.7196711589
 20
3.4951388048
 10
4.7320374016
 20
3.4951388048
  0
LWPOLYLINE
  5
AD
330
1F
100
AcDbEntity
  8
0
  6
Continuous
 62
     7
100
AcDbPolyline
 90
       60
 70
   128
 43
0.0
 10
4.6754775085
 20
3.4845391682
 10
4.6699577592
 20
3.4842079295
 10
4.6644371151
 20
3.4832418168
 10
4.6589164711
 20
3.4816132268
 10
4.6533682238
 20
3.4793497628
 10
4.6479579926
 20
3.4765066311
 10
4.6428790001
 20
3.473111435
 10
4.6380760398
 20
3.4692193809
 10
4.6335767149
 20
3.4647752625
 10
4.6295466447
 20
3.4600275086
 10
4.6261790518
 20
3.4551141354
 10
4.623446333
 20
3.4500903493
 10
4.6213484883
 20
3.4449285471
 10
4.6213484883
 20
3.4449285471
 10
4.6199407241
 20
3.4397943481
 10
4.6192782468
 20
3.434770562
 10
4.6193334532
 20
3.4298571888
 10
4.6201339466
 20
3.4250542285
 10
4.6207964239
 20
3.4227631612
 10
4.6216245205
 20
3.4205825068
 10
4.6226182364
 20
3.4185398685
 10
4.6237775717
 20
3.4166352463
 10
4.6251025262
 20
3.4148686402
 10
4.6265931001
 20
3.413212447
 10
4.6282216901
 20
3.4116942699
 10
4.6300435027
 20
3.4103141089
 10
4.6340459696
 20
3.4079954384
 10
4.6384348816
 20
3.4063668484
 10
4.6432102387
 20
3.4053731324
 10
4.6483720409
 20
3.4050418938
 10
4.6483720409
 20
3.4050418938
 10
4.6538374785
 20
3.4053731324
 10
4.6593857258
 20
3.4063392452
 10
4.6649891795
 20
3.4079678352
 10
4.6706754429
 20
3.4102589024
 10
4.676196087
 20
3.4131020341
 10
4.6813302859
 20
3.4164144206
 10
4.6860504366
 20
3.4201960617
 10
4.6903841422
 20
3.4244193544
 10
4.694248593
 20
3.4290290922
 10
4.6975609795
 20
3.4339424654
 10
4.7002936983
 20
3.4391042676
 10
4.7024743527
 20
3.4445697052
 10
4.7024743527
 20
3.4445697052
 10
4.7037164976
 20
3.4487377915
 10
4.704516991
 20
3.4527402584
 10
4.704903436
 20
3.456577106
 10
4.7048758328
 20
3.4602207311
 10
4.7044065781
 20
3.4636987369
 10
4.7034956718
 20
3.4670111233
 10
4.7021707172
 20
3.4701302872
 10
4.7004317144
 20
3.4730838318
 10
4.6983338696
 20
3.4757613441
 10
4.6959323895
 20
3.4781076179
 10
4.6932548771
 20
3.4800674465
 10
4.6903013325
 20
3.4816684333
 10
4.6870165493
 20
3.4829381814
 10
4.6834557339
 20
3.4838214845
 10
4.6796188863
 20
3.4843735489
 10
4.6754784032
 20
3.4845391682
  0
LWPOLYLINE
  5
AE
330
1F
100
AcDbEntity
  8
0
  6
Continuous
 62
     7
100
AcDbPolyline
 90
      102
 70
   128
 43
0.0
 10
4.7603014886
 20
3.4951388048
 10
4.7726693418
 20
3.4951388048
 10
4.7726693418
 20
3.4951388048
 10
4.7664862205
 20
3.4769758858
 10
4.7664862205
 20
3.4769758858
 10
4.7722000871
 20
3.4818340526
 10
4.7778863504
 20
3.4860021389
 10
4.7835174074
 20
3.4894249382
 10
4.7891208611
 20
3.492157657
 10
4.7947243148
 20
3.4942278985
 10
4.8003553717
 20
3.4957184724
 10
4.8059588255
 20
3.4966017754
 10
4.8115898824
 20
3.4969054109
 10
4.8115898824
 20
3.4969054109
 10
4.8143778076
 20
3.4968226012
 10
4.8170277168
 20
3.496546569
 10
4.8195396098
 20
3.4961049175
 10
4.8219134868
 20
3.4954976466
 10
4.8241493476
 20
3.4946971532
 10
4.8262195891
 20
3.4937034373
 10
4.8281794178
 20
3.4925441021
 10
4.8299736271
 20
3.4912191475
 10
4.8316022171
 20
3.4897285736
 10
4.8330651878
 20
3.4881275868
 10
4.8343349359
 20
3.4863885839
 10
4.8354114615
 20
3.4845391682
 10
4.8362947645
 20
3.4825517363
 10
4.836984845
 20
3.4804538916
 10
4.8375093062
 20
3.4782180307
 10
4.8378405449
 20
3.475871757
 10
4.8379509578
 20
3.4733046575
 10
4.8378405449
 20
3.4703787162
 10
4.8374540998
 20
3.4671491394
 10
4.8368468289
 20
3.4635607208
 10
4.8359635259
 20
3.4596410635
 10
4.8348593971
 20
3.4553901676
 10
4.8334792361
 20
3.4507804298
 10
4.8318782493
 20
3.4458670566
 10
4.8318782493
 20
3.4458670566
 10
4.8144054109
 20
3.3944422572
 10
4.8144054109
 20
3.3944422572
 10
4.8020391682
 20
3.3944422572
 10
4.8020391682
 20
3.3944422572
 10
4.8181318456
 20
3.4418093832
 10
4.8181318456
 20
3.4418093832
 10
4.8195120066
 20
3.445922263
 10
4.8207265483
 20
3.449676301
 10
4.8217754707
 20
3.4530714971
 10
4.8226311705
 20
3.4561354545
 10
4.8233488542
 20
3.4588129669
 10
4.8238733154
 20
3.4611316374
 10
4.8242597605
 20
3.4631190693
 10
4.824452983
 20
3.464720056
 10
4.824452983
 20
3.464720056
 10
4.8246186024
 20
3.4671215362
 10
4.8246186024
 20
3.469357397
 10
4.8244253798
 20
3.4714276386
 10
4.8240389347
 20
3.4733874672
 10
4.8234592671
 20
3.4751540733
 10
4.8227139802
 20
3.4767826633
 10
4.8217754707
 20
3.478245634
 10
4.8206437386
 20
3.4795705885
 10
4.8193463873
 20
3.4807299238
 10
4.8178558134
 20
3.4817512429
 10
4.816172017
 20
3.4826069428
 10
4.8143502044
 20
3.4832970233
 10
4.8123351693
 20
3.4838490877
 10
4.8101269117
 20
3.4842355328
 10
4.8077530348
 20
3.4844563585
 10
4.8052135385
 20
3.4845391682
 10
4.8052135385
 20
3.4845391682
 10
4.8021771843
 20
3.4844287553
 10
4.7991684333
 20
3.4840699134
 10
4.796132079
 20
3.4834626426
 10
4.7930957248
 20
3.482634546
 10
4.7900593706
 20
3.4815304172
 10
4.7870230164
 20
3.4802330658
 10
4.7839866621
 20
3.4786596823
 10
4.7809503079
 20
3.4768654729
 10
4.7779967633
 20
3.4748780411
 10
4.7752088381
 20
3.4728077996
 10
4.7725589289
 20
3.4705995419
 10
4.7701022423
 20
3.4682808714
 10
4.767811175
 20
3.4658517881
 10
4.7656857271
 20
3.4633122918
 10
4.7636982952
 20
3.4606347794
 10
4.7619040859
 20
3.4578744574
 10
4.7619040859
 20
3.4578744574
 10
4.7607723539
 20
3.4558318191
 10
4.7595578122
 20
3.4534027357
 10
4.7582604608
 20
3.4506148105
 10
4.7569355063
 20
3.4474128369
 10
4.7555001388
 20
3.4438520215
 10
4.7540095649
 20
3.439904761
 10
4.7524361814
 20
3.4355710554
 10
4.7508075914
 20
3.4308509048
 10
4.7508075914
 20
3.4308509048
 10
4.7384413487
 20
3.3944422572
 10
4.7384413487
 20
3.3944422572
 10
4.726075106
 20
3.3944422572
 10
4.726075106
 20
3.3944422572
 10
4.7603030991
 20
3.4951388048
  0
LWPOLYLINE
  5
AF
330
1F
100
AcDbEntity
  8
0
  6
Continuous
 62
     7
100
AcDbPolyline
 90
      102
 70
   128
 43
0.0
 10
4.8768989683
 20
3.4951388048
 10
4.8892653442
 20
3.4951388048
 10
4.8892653442
 20
3.4951388048
 10
4.8830822229
 20
3.4769758858
 10
4.8830822229
 20
3.4769758858
 10
4.8887960895
 20
3.4818340526
 10
4.8944823529
 20
3.4860021389
 10
4.9001134098
 20
3.4894249382
 10
4.9057168635
 20
3.492157657
 10
4.9113203172
 20
3.4942278985
 10
4.9169513742
 20
3.4957184724
 10
4.9225548279
 20
3.4966017754
 10
4.9281858848
 20
3.4969054109
 10
4.9281858848
 20
3.4969054109
 10
4.9309738101
 20
3.4968226012
 10
4.9336237192
 20
3.496546569
 10
4.9361356123
 20
3.4961049175
 10
4.9385094892
 20
3.4954976466
 10
4.94074535
 20
3.4946971532
 10
4.9428155916
 20
3.4937034373
 10
4.9447754202
 20
3.4925441021
 10
4.9465696295
 20
3.4912191475
 10
4.9481982195
 20
3.4897285736
 10
4.9496611902
 20
3.4881275868
 10
4.9509309383
 20
3.4863885839
 10
4.9520074639
 20
3.4845391682
 10
4.952890767
 20
3.4825517363
 10
4.9535808475
 20
3.4804538916
 10
4.9541053087
 20
3.4782180307
 10
4.9544365473
 20
3.475871757
 10
4.9545469602
 20
3.4733046575
 10
4.9544365473
 20
3.4703787162
 10
4.9540501022
 20
3.4671491394
 10
4.9534428314
 20
3.4635607208
 10
4.9525595283
 20
3.4596410635
 10
4.9514553995
 20
3.4553901676
 10
4.9500752385
 20
3.4507804298
 10
4.9484742517
 20
3.4458670566
 10
4.9484742517
 20
3.4458670566
 10
4.9310014133
 20
3.3944422572
 10
4.9310014133
 20
3.3944422572
 10
4.9186351706
 20
3.3944422572
 10
4.9186351706
 20
3.3944422572
 10
4.934727848
 20
3.4418093832
 10
4.934727848
 20
3.4418093832
 10
4.936108009
 20
3.445922263
 10
4.9373225507
 20
3.449676301
 10
4.9383714731
 20
3.4530714971
 10
4.9392271729
 20
3.4561354545
 10
4.9399448567
 20
3.4588129669
 10
4.9404693178
 20
3.4611316374
 10
4.9408557629
 20
3.4631190693
 10
4.9410489855
 20
3.464720056
 10
4.9410489855
 20
3.464720056
 10
4.9412146048
 20
3.4671215362
 10
4.9412146048
 20
3.469357397
 10
4.9410213822
 20
3.4714276386
 10
4.9406349372
 20
3.4733874672
 10
4.9400552695
 20
3.4751540733
 10
4.9393099826
 20
3.4767826633
 10
4.9383714731
 20
3.478245634
 10
4.9372397411
 20
3.4795705885
 10
4.9359423897
 20
3.4807299238
 10
4.9344518158
 20
3.4817512429
 10
4.9327680194
 20
3.4826069428
 10
4.9309462068
 20
3.4832970233
 10
4.9289311718
 20
3.4838490877
 10
4.9267229141
 20
3.4842355328
 10
4.9243490372
 20
3.4844563585
 10
4.9218095409
 20
3.4845391682
 10
4.9218095409
 20
3.4845391682
 10
4.9187731867
 20
3.4844287553
 10
4.9157644357
 20
3.4840699134
 10
4.9127280815
 20
3.4834626426
 10
4.9096917272
 20
3.482634546
 10
4.906655373
 20
3.4815304172
 10
4.9036190188
 20
3.4802330658
 10
4.9005826645
 20
3.4786596823
 10
4.8975463103
 20
3.4768654729
 10
4.8945927657
 20
3.4748780411
 10
4.8918048405
 20
3.4728077996
 10
4.8891549314
 20
3.4705995419
 10
4.8866982448
 20
3.4682808714
 10
4.8844071775
 20
3.4658517881
 10
4.8822817295
 20
3.4633122918
 10
4.8802942976
 20
3.4606347794
 10
4.8785000883
 20
3.4578744574
 10
4.8785000883
 20
3.4578744574
 10
4.8773683563
 20
3.4558318191
 10
4.8761538146
 20
3.4534027357
 10
4.8748564633
 20
3.4506148105
 10
4.8735315087
 20
3.4474128369
 10
4.8720961412
 20
3.4438520215
 10
4.8706055673
 20
3.439904761
 10
4.8690321838
 20
3.4355710554
 10
4.8674035938
 20
3.4308509048
 10
4.8674035938
 20
3.4308509048
 10
4.8550373511
 20
3.3944422572
 10
4.8550373511
 20
3.3944422572
 10
4.8426711084
 20
3.3944422572
 10
4.8426711084
 20
3.3944422572
 10
4.8768991016
 20
3.4951388048
  0
LWPOLYLINE
  5
B0
330
1F
100
AcDbEntity
  8
0
  6
Continuous
 62
     7
100
AcDbPolyline
 90
       16
 70
   128
 43
0.0
 10
4.9828919839
 20
3.4951388048
 10
4.9962278228
 20
3.4951388048
 10
4.9962278228
 20
3.4951388048
 10
5.0040947406
 20
3.4180154073
 10
5.0040947406
 20
3.4180154073
 10
5.064932238
 20
3.4951388048
 10
5.064932238
 20
3.4951388048
 10
5.0782921966
 20
3.4951388048
 10
5.0782921966
 20
3.4951388048
 10
4.9696183184
 20
3.3573435292
 10
4.9696183184
 20
3.3573435292
 10
4.9562583598
 20
3.3573435292
 10
4.9562583598
 20
3.3573435292
 10
4.9923081655
 20
3.4030268587
 10
4.9923081655
 20
3.4030268587
 10
4.9828954674
 20
3.4951388048
  0
LWPOLYLINE
  5
B1
330
1F
100
AcDbEntity
  8
0
  6
Continuous
 62
     7
100
AcDbPolyline
 90
       57
 70
   128
 43
0.0
 10
5.1164908672
 20
3.3944422572
 10
5.1633377183
 20
3.5322375328
 10
5.1633377183
 20
3.5322375328
 10
5.1911617643
 20
3.5322375328
 10
5.1911617643
 20
3.5322375328
 10
5.198393808
 20
3.5321547231
 10
5.2050737874
 20
3.5319338974
 10
5.211174099
 20
3.5315474523
 10
5.2167223463
 20
3.5309953879
 10
5.221690926
 20
3.5303053074
 10
5.226079838
 20
3.5294496076
 10
5.2299166856
 20
3.5284282884
 10
5.2331738656
 20
3.5272689532
 10
5.2331738656
 20
3.5272689532
 10
5.2372591422
 20
3.525364331
 10
5.2409855769
 20
3.5231284701
 10
5.2443255666
 20
3.5205613706
 10
5.2473067144
 20
3.5176906357
 10
5.2499014171
 20
3.514461059
 10
5.2521096747
 20
3.51095545
 10
5.2539590905
 20
3.5070909991
 10
5.2554220611
 20
3.5029229129
 10
5.2564985867
 20
3.4984787944
 10
5.257161064
 20
3.4938414534
 10
5.2573818898
 20
3.4889832866
 10
5.2572162704
 20
3.4839318973
 10
5.2566366028
 20
3.4786596823
 10
5.2556428869
 20
3.4731666414
 10
5.2542075194
 20
3.4674803781
 10
5.2523857069
 20
3.4616008921
 10
5.2523857069
 20
3.4616008921
 10
5.2505086879
 20
3.4564942964
 10
5.2484384464
 20
3.45155332
 10
5.2461197759
 20
3.4467779629
 10
5.2436078828
 20
3.4421406218
 10
5.2408475608
 20
3.4376689002
 10
5.2378940163
 20
3.4333351946
 10
5.2346920427
 20
3.4291671083
 10
5.2312968466
 20
3.4251646414
 10
5.2277360312
 20
3.421355397
 10
5.2241200093
 20
3.4178221848
 10
5.2204211778
 20
3.4145097984
 10
5.2166395366
 20
3.4115010473
 10
5.2127750858
 20
3.4087131221
 10
5.2088554285
 20
3.4062012291
 10
5.2048529616
 20
3.403937765
 10
5.200767685
 20
3.4019227299
 10
5.1965167891
 20
3.4001561238
 10
5.1919898609
 20
3.3986379467
 10
5.1871869006
 20
3.3973681986
 10
5.1821355113
 20
3.3963192762
 10
5.1768080898
 20
3.3954911796
 10
5.1712046361
 20
3.394911512
 10
5.1653251502
 20
3.3945526701
 10
5.1591972353
 20
3.3944422572
 10
5.1591972353
 20
3.3944422572
 10
5.1164950535
 20
3.3944422572
  0
LWPOLYLINE
  5
B2
330
1F
100
AcDbEntity
  8
0
  6
Continuous
 62
     7
100
AcDbPolyline
 90
       58
 70
   128
 43
0.0
 10
5.1336635755
 20
3.408575106
 10
5.1494809017
 20
3.408575106
 10
5.1494809017
 20
3.408575106
 10
5.1563265004
 20
3.4086303124
 10
5.162675241
 20
3.4087959318
 10
5.1684995205
 20
3.409071964
 10
5.173826942
 20
3.409458409
 10
5.1786575056
 20
3.409955267
 10
5.1829636079
 20
3.4105349346
 10
5.1867728523
 20
3.4112526184
 10
5.1900576355
 20
3.412080715
 10
5.1900576355
 20
3.412080715
 10
5.1942809282
 20
3.413460876
 10
5.1983662048
 20
3.4150618628
 10
5.2023410685
 20
3.4169388817
 10
5.2062055194
 20
3.4190367265
 10
5.2099319541
 20
3.4214106034
 10
5.213547976
 20
3.4240329093
 10
5.2170535849
 20
3.426876041
 10
5.2204211778
 20
3.4299952049
 10
5.2236231514
 20
3.4333351946
 10
5.2266042992
 20
3.4368408036
 10
5.2293922244
 20
3.4405120318
 10
5.2319593239
 20
3.4443764827
 10
5.2342779944
 20
3.4484341561
 10
5.2364034424
 20
3.4526574488
 10
5.2383356678
 20
3.4570463608
 10
5.2400194642
 20
3.4616284954
 10
5.2400194642
 20
3.4616284954
 10
5.2415100381
 20
3.4664590589
 10
5.2426417701
 20
3.4710963999
 10
5.2434146603
 20
3.4755405184
 10
5.2438011054
 20
3.4798190175
 10
5.2438563118
 20
3.4839318973
 10
5.2435250732
 20
3.4878515546
 10
5.2428625959
 20
3.4916055926
 10
5.2418136735
 20
3.495166408
 10
5.2404335125
 20
3.4985063976
 10
5.2387221129
 20
3.5015703551
 10
5.2367070778
 20
3.5043582803
 10
5.2343332008
 20
3.5068977766
 10
5.2316556885
 20
3.5091336374
 10
5.2286193342
 20
3.5111210693
 10
5.2252793446
 20
3.5128048657
 10
5.2216081163
 20
3.5142402332
 10
5.2216081163
 20
3.5142402332
 10
5.2184613492
 20
3.5151511395
 10
5.2147349144
 20
3.5159240296
 10
5.2104564153
 20
3.5165865069
 10
5.2055982485
 20
3.5171385713
 10
5.2001880174
 20
3.5175526196
 10
5.1942257218
 20
3.517856255
 10
5.1876837586
 20
3.5180494776
 10
5.180589731
 20
3.518104684
 10
5.180589731
 20
3.518104684
 10
5.1709010007
 20
3.518104684
 10
5.1709010007
 20
3.518104684
 10
5.1336642565
 20
3.408575106
  0
LWPOLYLINE
  5
B3
330
1F
100
AcDbEntity
  8
0
  6
Continuous
 62
     7
100
AcDbPolyline
 90
      100
 70
   128
 43
0.0
 10
5.3477521956
 20
3.426241167
 10
5.3567534827
 20
3.4204720939
 10
5.3567534827
 20
3.4204720939
 10
5.3525025868
 20
3.4158623561
 10
5.3481964845
 20
3.4117218731
 10
5.3438351757
 20
3.4080230416
 10
5.3394462636
 20
3.404821068
 10
5.3350021452
 20
3.4020331428
 10
5.3304476138
 20
3.3996040594
 10
5.3258102728
 20
3.3975062147
 10
5.3210625189
 20
3.3957672118
 10
5.3162043522
 20
3.394414654
 10
5.3112357725
 20
3.3934485413
 10
5.3060739703
 20
3.3928688737
 10
5.3008017552
 20
3.3926756511
 10
5.3008017552
 20
3.3926756511
 10
5.2950878887
 20
3.3929240801
 10
5.28987088
 20
3.3936693671
 10
5.2851507294
 20
3.394911512
 10
5.2809274367
 20
3.3966505148
 10
5.2772010019
 20
3.3988863757
 10
5.2739714251
 20
3.4016190945
 10
5.2712111031
 20
3.4048486713
 10
5.2689752423
 20
3.408575106
 10
5.2672086362
 20
3.4126051762
 10
5.2659112848
 20
3.4167732624
 10
5.265055585
 20
3.4210793648
 10
5.2646691399
 20
3.4255234832
 10
5.2647519496
 20
3.4300780146
 10
5.265304014
 20
3.4347429588
 10
5.2662977299
 20
3.4395735224
 10
5.2677607006
 20
3.4445144988
 10
5.2677607006
 20
3.4445144988
 10
5.2695273067
 20
3.4491518398
 10
5.2716251514
 20
3.4536787679
 10
5.2740266316
 20
3.4580676799
 10
5.2767317472
 20
3.4623461791
 10
5.2797681014
 20
3.4664866621
 10
5.2831356943
 20
3.4704891291
 10
5.2868069226
 20
3.4743811831
 10
5.2907817863
 20
3.4781352211
 10
5.2907817863
 20
3.4781352211
 10
5.2961092078
 20
3.4825241331
 10
5.3015746454
 20
3.4863609807
 10
5.3071228927
 20
3.4895629543
 10
5.3127815528
 20
3.4922128634
 10
5.3185506259
 20
3.4942555017
 10
5.324457715
 20
3.4957460756
 10
5.3304476138
 20
3.4966017754
 10
5.3365479255
 20
3.4969054109
 10
5.3365479255
 20
3.4969054109
 10
5.342620634
 20
3.4966017754
 10
5.3481964845
 20
3.4956632659
 10
5.3531926673
 20
3.4941174856
 10
5.3576919922
 20
3.4919644344
 10
5.3616392527
 20
3.4891765092
 10
5.3650896553
 20
3.4857537099
 10
5.3679603902
 20
3.4817236397
 10
5.3703342671
 20
3.4770862987
 10
5.3703342671
 20
3.4770862987
 10
5.3716316185
 20
3.4734702769
 10
5.3725425247
 20
3.4696610325
 10
5.3730393827
 20
3.4656033591
 10
5.3731221924
 20
3.4613524632
 10
5.3727909537
 20
3.4568807415
 10
5.37207327
 20
3.452188194
 10
5.370941538
 20
3.4472748208
 10
5.3694233608
 20
3.4421406218
 10
5.3694233608
 20
3.4421406218
 10
5.2793264499
 20
3.4421406218
 10
5.2793264499
 20
3.4421406218
 10
5.2782223211
 20
3.4381657581
 10
5.2775046373
 20
3.4343565137
 10
5.2771457955
 20
3.4307404919
 10
5.2772010019
 20
3.4273176926
 10
5.277587447
 20
3.4240881158
 10
5.2783879404
 20
3.4210241583
 10
5.2795472756
 20
3.4181534234
 10
5.281093056
 20
3.4154483078
 10
5.282970075
 20
3.4130192245
 10
5.2850955229
 20
3.4108937765
 10
5.2874970031
 20
3.4090995672
 10
5.2901745154
 20
3.4076365965
 10
5.2931004568
 20
3.4065048645
 10
5.2963024303
 20
3.4057043711
 10
5.2997528329
 20
3.4052075131
 10
5.3034792676
 20
3.4050418938
 10
5.3034792676
 20
3.4050418938
 10
5.3072057024
 20
3.4051799099
 10
5.3110149467
 20
3.4056215614
 10
5.3148241911
 20
3.4063668484
 10
5.3187162452
 20
3.4073881675
 10
5.3225254896
 20
3.4086579157
 10
5.3261691147
 20
3.4101484896
 10
5.3295643108
 20
3.4118046828
 10
5.3327938875
 20
3.4136540985
 10
5.3360786708
 20
3.4158899594
 10
5.3396670894
 20
3.4187606943
 10
5.3435591434
 20
3.4221834936
 10
5.3477548329
 20
3.426241167
  0
LWPOLYLINE
  5
B4
330
1F
100
AcDbEntity
  8
0
  6
Continuous
 62
     7
100
AcDbPolyline
 90
       33
 70
   128
 43
0.0
 10
5.3612782261
 20
3.4545068645
 10
5.3614460302
 20
3.4593926345
 10
5.361169998
 20
3.4637539433
 10
5.3603971078
 20
3.4675907909
 10
5.3591549629
 20
3.4709031774
 10
5.35741596
 20
3.4738291187
 10
5.3551800992
 20
3.4764514246
 10
5.3524197772
 20
3.4787700951
 10
5.3491625972
 20
3.4807851302
 10
5.3455189721
 20
3.4824413234
 10
5.3415993148
 20
3.4836006587
 10
5.3374036253
 20
3.4843183424
 10
5.3329595069
 20
3.4845391682
 10
5.3329595069
 20
3.4845391682
 10
5.3292054689
 20
3.4844011521
 10
5.3254790342
 20
3.4839595006
 10
5.3217802027
 20
3.4832142136
 10
5.3181365776
 20
3.4821928945
 10
5.3144929525
 20
3.4808403367
 10
5.3109045339
 20
3.4792393499
 10
5.3073437185
 20
3.4773071245
 10
5.3038105063
 20
3.4750988668
 10
5.3038105063
 20
3.4750988668
 10
5.30127101
 20
3.4732770543
 10
5.2987867202
 20
3.471234416
 10
5.2963300336
 20
3.4689985552
 10
5.2939561566
 20
3.4665418686
 10
5.2916098829
 20
3.463836753
 10
5.2892912124
 20
3.4609384148
 10
5.2870553516
 20
3.4578468542
 10
5.2848470939
 20
3.4545068645
 10
5.2848470939
 20
3.4545068645
 10
5.3612804109
 20
3.4545068645
  0
LWPOLYLINE
  5
B5
330
1F
100
AcDbEntity
  8
0
  6
Continuous
 62
     7
100
AcDbPolyline
 90
       14
 70
   128
 43
0.0
 10
5.4015794138
 20
3.4951388048
 10
5.4149686743
 20
3.4951388048
 10
5.4149686743
 20
3.4951388048
 10
5.4234704661
 20
3.4218246517
 10
5.4234704661
 20
3.4218246517
 10
5.4818236738
 20
3.4951388048
 10
5.4818236738
 20
3.4951388048
 10
5.4952112356
 20
3.4951388048
 10
5.4952112356
 20
3.4951388048
 10
5.4150514839
 20
3.3944422572
 10
5.4150514839
 20
3.3944422572
 10
5.4132848779
 20
3.3944422572
 10
5.4132848779
 20
3.3944422572
 10
5.4015811125
 20
3.4951388048
  0
LWPOLYLINE
  5
B6
330
1F
100
AcDbEntity
  8
0
  6
Continuous
 62
     7
100
AcDbPolyline
 90
       36
 70
   128
 43
0.0
 10
5.5351782971
 20
3.5375373511
 10
5.5374165594
 20
3.5373441286
 10
5.5393487848
 20
3.5367644609
 10
5.5409497716
 20
3.535770745
 10
5.5422747262
 20
3.5344181872
 10
5.5431856324
 20
3.5327895972
 10
5.5436548872
 20
3.5309677847
 10
5.5435996807
 20
3.529007956
 10
5.5431028228
 20
3.5268825081
 10
5.5431028228
 20
3.5268825081
 10
5.5421919165
 20
3.5248122666
 10
5.5408945652
 20
3.5228800411
 10
5.5392383719
 20
3.5210858318
 10
5.5371957336
 20
3.5194572418
 10
5.5349598728
 20
3.518104684
 10
5.5326688055
 20
3.5171109681
 10
5.530350135
 20
3.5165313005
 10
5.5279762581
 20
3.5163380779
 10
5.5279762581
 20
3.5163380779
 10
5.5257956037
 20
3.5165313005
 10
5.5238909815
 20
3.5171109681
 10
5.5222899947
 20
3.518104684
 10
5.5209926433
 20
3.5194572418
 10
5.5200817371
 20
3.5210858318
 10
5.5196124823
 20
3.5228800411
 10
5.5196400856
 20
3.5248122666
 10
5.5201369435
 20
3.5268825081
 10
5.5201369435
 20
3.5268825081
 10
5.521075453
 20
3.529007956
 10
5.5223728044
 20
3.5309677847
 10
5.5240289976
 20
3.5327895972
 10
5.5260716359
 20
3.5344181872
 10
5.5283074967
 20
3.535770745
 10
5.5305709608
 20
3.5367644609
 10
5.5328620281
 20
3.5373441286
 10
5.5351806986
 20
3.5375373511
  0
LWPOLYLINE
  5
B7
330
1F
100
AcDbEntity
  8
0
  6
Continuous
 62
     7
100
AcDbPolyline
 90
        8
 70
   128
 43
0.0
 10
5.5146405077
 20
3.4951388048
 10
5.5270101454
 20
3.4951388048
 10
5.5270101454
 20
3.4951388048
 10
5.4927821522
 20
3.3944422572
 10
5.4927821522
 20
3.3944422572
 10
5.4804159095
 20
3.3944422572
 10
5.4804159095
 20
3.3944422572
 10
5.5146439027
 20
3.4951388048
  0
LWPOLYLINE
  5
B8
330
1F
100
AcDbEntity
  8
0
  6
Continuous
 62
     7
100
AcDbPolyline
 90
       24
 70
   128
 43
0.0
 10
5.5832093156
 20
3.535770745
 10
5.5955765445
 20
3.535770745
 10
5.5955765445
 20
3.535770745
 10
5.5817749344
 20
3.4951388048
 10
5.5817749344
 20
3.4951388048
 10
5.5994409954
 20
3.4951388048
 10
5.5994409954
 20
3.4951388048
 10
5.5952453059
 20
3.4827725621
 10
5.5952453059
 20
3.4827725621
 10
5.5775792449
 20
3.4827725621
 10
5.5775792449
 20
3.4827725621
 10
5.5475469412
 20
3.3944422572
 10
5.5475469412
 20
3.3944422572
 10
5.5351806986
 20
3.3944422572
 10
5.5351806986
 20
3.3944422572
 10
5.5652130022
 20
3.4827725621
 10
5.5652130022
 20
3.4827725621
 10
5.5475469412
 20
3.4827725621
 10
5.5475469412
 20
3.4827725621
 10
5.5517426307
 20
3.4951388048
 10
5.5517426307
 20
3.4951388048
 10
5.5694086917
 20
3.4951388048
 10
5.5694086917
 20
3.4951388048
 10
5.5832103018
 20
3.535770745
  0
LWPOLYLINE
  5
B9
330
1F
100
AcDbEntity
  8
0
  6
Continuous
 62
     7
100
AcDbPolyline
 90
       70
 70
   128
 43
0.0
 10
5.6698801011
 20
3.4969054109
 10
5.6754326608
 20
3.4966569819
 10
5.6805668597
 20
3.4958564885
 10
5.6852870104
 20
3.4945591371
 10
5.6895655095
 20
3.4927649278
 10
5.6934299604
 20
3.4904186541
 10
5.6968803629
 20
3.4875755224
 10
5.6998891139
 20
3.4842079295
 10
5.7024838166
 20
3.4803158755
 10
5.7024838166
 20
3.4803158755
 10
5.704416042
 20
3.4764514246
 10
5.7058238063
 20
3.4723937513
 10
5.7067623158
 20
3.4681980618
 10
5.7072315705
 20
3.4638091498
 10
5.7071763641
 20
3.4592270152
 10
5.7066519029
 20
3.4545068645
 10
5.7056305837
 20
3.4495934913
 10
5.7041124066
 20
3.4445144988
 10
5.7041124066
 20
3.4445144988
 10
5.702152578
 20
3.439407903
 10
5.699778701
 20
3.4344669266
 10
5.697018379
 20
3.4296915695
 10
5.6938716119
 20
3.4250542285
 10
5.6903107965
 20
3.42061011
 10
5.6863359328
 20
3.4163040077
 10
5.681974624
 20
3.4121911279
 10
5.6771992669
 20
3.4082162641
 10
5.672203084
 20
3.4045726391
 10
5.6670964882
 20
3.4014258719
 10
5.6618794796
 20
3.3987483596
 10
5.6565796613
 20
3.3965677052
 10
5.6511970334
 20
3.3948563055
 10
5.6457039925
 20
3.3936417638
 10
5.640128142
 20
3.3929240801
 10
5.6344418787
 20
3.3926756511
 10
5.6344418787
 20
3.3926756511
 10
5.6288936314
 20
3.3929240801
 10
5.6237870356
 20
3.3936417638
 10
5.6190944882
 20
3.3948563055
 10
5.6148435923
 20
3.3965677052
 10
5.6110343479
 20
3.3987483596
 10
5.6076391518
 20
3.4014258719
 10
5.604658004
 20
3.4045726391
 10
5.6021185077
 20
3.4082162641
 10
5.6000482662
 20
3.4121911279
 10
5.5985024859
 20
3.4163040077
 10
5.5974535635
 20
3.42061011
 10
5.5969291023
 20
3.4250542285
 10
5.5969014991
 20
3.4296915695
 10
5.5973707538
 20
3.4344669266
 10
5.5983644698
 20
3.439407903
 10
5.5998826469
 20
3.4445144988
 10
5.5998826469
 20
3.4445144988
 10
5.6018148723
 20
3.4495658881
 10
5.6041335428
 20
3.4544792613
 10
5.6068110552
 20
3.459199412
 10
5.6098750126
 20
3.4637539433
 10
5.6132978119
 20
3.4681152521
 10
5.6171070563
 20
3.4723385448
 10
5.6212751426
 20
3.476368615
 10
5.6258296739
 20
3.4802330658
 10
5.6258296739
 20
3.4802330658
 10
5.6310742858
 20
3.4841527231
 10
5.6364017073
 20
3.487520316
 10
5.6418119385
 20
3.4903910509
 10
5.6472773761
 20
3.4927373246
 10
5.6528256234
 20
3.4945591371
 10
5.6584290771
 20
3.4958564885
 10
5.6641153405
 20
3.4966569819
 10
5.6698844135
 20
3.4969054109
  0
LWPOLYLINE
  5
BA
330
1F
100
AcDbEntity
  8
0
  6
Continuous
 62
     7
100
AcDbPolyline
 90
       64
 70
   128
 43
0.0
 10
5.6656045238
 20
3.4845391682
 10
5.661548241
 20
3.4843459456
 10
5.6574905676
 20
3.4837938812
 10
5.6534604974
 20
3.482882975
 10
5.6494580305
 20
3.4816132268
 10
5.6454555635
 20
3.4799570336
 10
5.6414806998
 20
3.4779419985
 10
5.6375334393
 20
3.4755681216
 10
5.6335861788
 20
3.4728077996
 10
5.6298045377
 20
3.4697990486
 10
5.6263541351
 20
3.4666246782
 10
5.623207368
 20
3.4633122918
 10
5.6203918395
 20
3.4598618893
 10
5.6178799465
 20
3.4562182642
 10
5.6156716889
 20
3.452436623
 10
5.6137946699
 20
3.4485169657
 10
5.6122212863
 20
3.4444316891
 10
5.6122212863
 20
3.4444316891
 10
5.6107583157
 20
3.4391594741
 10
5.6100406319
 20
3.4340528783
 10
5.6100406319
 20
3.4291395051
 10
5.6107583157
 20
3.4244193544
 10
5.6113931897
 20
3.4221558904
 10
5.6121936831
 20
3.4200580456
 10
5.6131321926
 20
3.4180706138
 10
5.6142639246
 20
3.4161935948
 10
5.6155336728
 20
3.4144821951
 10
5.6169690402
 20
3.4128812084
 10
5.618570027
 20
3.4114182377
 10
5.6203366331
 20
3.4100932831
 10
5.6242562904
 20
3.4078850255
 10
5.6286175992
 20
3.4063116419
 10
5.6333929563
 20
3.4053455292
 10
5.6386099649
 20
3.4050418938
 10
5.6386099649
 20
3.4050418938
 10
5.6440477993
 20
3.4053455292
 10
5.6494580305
 20
3.4063116419
 10
5.6548682617
 20
3.4078850255
 10
5.6602784928
 20
3.4100932831
 10
5.6655507079
 20
3.4128812084
 10
5.6705192876
 20
3.4161935948
 10
5.6751842318
 20
3.4200580456
 10
5.6795731438
 20
3.4244193544
 10
5.6835204043
 20
3.4291395051
 10
5.686860394
 20
3.4340528783
 10
5.6895931128
 20
3.4391594741
 10
5.6917185607
 20
3.4444316891
 10
5.6917185607
 20
3.4444316891
 10
5.6929331024
 20
3.4485169657
 10
5.6937059926
 20
3.452436623
 10
5.6940648344
 20
3.4562182642
 10
5.694009628
 20
3.4598618893
 10
5.6935403733
 20
3.4633122918
 10
5.6926570702
 20
3.4666246782
 10
5.6913321156
 20
3.4697990486
 10
5.6895931128
 20
3.4728077996
 10
5.6875228712
 20
3.4755681216
 10
5.6851765975
 20
3.4779419985
 10
5.6825818948
 20
3.4799570336
 10
5.6797111599
 20
3.4816132268
 10
5.676591996
 20
3.482882975
 10
5.6731967999
 20
3.4837938812
 10
5.6695255716
 20
3.4843459456
 10
5.6656059143
 20
3.4845391682
  0
LWPOLYLINE
  5
BB
330
1F
100
AcDbEntity
  8
0
  6
Continuous
 62
     7
100
AcDbPolyline
 90
        8
 70
   128
 43
0.0
 10
5.7841614475
 20
3.4933721987
 10
5.7755771439
 20
3.4933721987
 10
5.7755771439
 20
3.4933721987
 10
5.7881366091
 20
3.535770745
 10
5.7881366091
 20
3.535770745
 10
5.8005028518
 20
3.535770745
 10
5.8005028518
 20
3.535770745
 10
5.7841617454
 20
3.4933721987
  0
LWPOLYLINE
  5
BC
330
1F
100
AcDbEntity
  8
0
  6
Continuous
 62
     7
100
AcDbPolyline
 90
        8
 70
   128
 43
0.0
 10
5.7471455552
 20
3.4933721987
 10
5.7384784159
 20
3.4933721987
 10
5.7384784159
 20
3.4933721987
 10
5.7510378811
 20
3.535770745
 10
5.7510378811
 20
3.535770745
 10
5.7634041238
 20
3.535770745
 10
5.7634041238
 20
3.535770745
 10
5.747145827
 20
3.4933721987
  0
CIRCLE
  5
BD
330
1F
100
AcDbEntity
  8
0
  6
Continuous
 62
     7
370
    25
100
AcDbCircle
 10
1.25
 20
6.594980315
 30
0.0
 40
0.059055118110237
  0
CIRCLE
  5
BE
330
1F
100
AcDbEntity
  8
0
  6
Continuous
 62
     7
370
    25
100
AcDbCircle
 10
1.25
 20
1.4109251969
 30
0.0
 40
0.0590551181102366
  0
CIRCLE
  5
BF
330
1F
100
AcDbEntity
  8
0
  6
Continuous
 62
     7
370
    25
100
AcDbCircle
 10
8.25
 20
0.405019685
 30
0.0
 40
0.0590551181102359
  0
CIRCLE
  5
C0
330
1F
100
AcDbEntity
  8
0
  6
Continuous
 62
     7
370
    25
100
AcDbCircle
 10
8.25
 20
1.4109251969
 30
0.0
 40
0.0590551181102361
  0
CIRCLE
  5
C1
330
1F
100
AcDbEntity
  8
0
  6
Continuous
 62
     7
370
    25
100
AcDbCircle
 10
9.4830708661
 20
1.4109251969
 30
0.0
 40
0.0590551181102359
  0
CIRCLE
  5
C2
330
1F
100
AcDbEntity
  8
0
  6
Continuous
 62
     7
370
    25
100
AcDbCircle
 10
2.4830708661
 20
1.4109251969
 30
0.0
 40
0.0590551181102354
  0
CIRCLE
  5
C3
330
1F
100
AcDbEntity
  8
0
  6
Continuous
 62
     7
370
    25
100
AcDbCircle
 10
2.4830708661
 20
0.405019685
 30
0.0
 40
0.0590551181102355
  0
CIRCLE
  5
C4
330
1F
100
AcDbEntity
  8
0
  6
Continuous
 62
     7
370
    25
100
AcDbCircle
 10
1.25
 20
0.405019685
 30
0.0
 40
0.0590551181102364
  0
CIRCLE
  5
C5
330
1F
100
AcDbEntity
  8
0
  6
Continuous
 62
     7
370
    25
100
AcDbCircle
 10
8.25
 20
6.594980315
 30
0.0
 40
0.0590551181102352
  0
CIRCLE
  5
C6
330
1F
100
AcDbEntity
  8
0
  6
Continuous
 62
     7
370
    25
100
AcDbCircle
 10
2.4830708661
 20
6.594980315
 30
0.0
 40
0.059055118110237
  0
CIRCLE
  5
C7
330
1F
100
AcDbEntity
  8
0
  6
Continuous
 62
     7
370
    25
100
AcDbCircle
 10
2.4830708661
 20
5.5890748031
 30
0.0
 40
0.0590551181102352
  0
CIRCLE
  5
C8
330
1F
100
AcDbEntity
  8
0
  6
Continuous
 62
     7
370
    25
100
AcDbCircle
 10
1.25
 20
5.5890748031
 30
0.0
 40
0.0590551181102352
  0
CIRCLE
  5
C9
330
1F
100
AcDbEntity
  8
0
  6
Continuous
 62
     7
370
    25
100
AcDbCircle
 10
9.4830708661
 20
0.405019685
 30
0.0
 40
0.0590551181102359
  0
CIRCLE
  5
CA
330
1F
100
AcDbEntity
  8
0
  6
Continuous
 62
     7
370
    25
100
AcDbCircle
 10
8.25
 20
5.5890748031
 30
0.0
 40
0.0590551181102352
  0
CIRCLE
  5
CB
330
1F
100
AcDbEntity
  8
0
  6
Continuous
 62
     7
370
    25
100
AcDbCircle
 10
9.4830708661
 20
5.5890748031
 30
0.0
 40
0.0590551181102352
  0
CIRCLE
  5
CC
330
1F
100
AcDbEntity
  8
0
  6
Continuous
 62
     7
370
    25
100
AcDbCircle
 10
9.4830708661
 20
6.594980315
 30
0.0
 40
0.059055118110237
  0
LINE
  5
121
330
1F
100
AcDbEntity
  8
0
  6
Continuous
 62
     7
370
    25
100
AcDbLine
 10
10.0
 20
-0.1875
 30
0.0
 11
10.5
 21
-0.1875
 31
0.0
  0
LINE
  5
122
330
1F
100
AcDbEntity
  8
0
  6
Continuous
 62
     7
370
    25
100
AcDbLine
 10
10.0
 20
0.0
 30
0.0
 11
10.0
 21
-0.1875
 31
0.0
  0
LINE
  5
123
330
1F
100
AcDbEntity
  8
0
  6
Continuous
 62
     7
370
    25
100
AcDbLine
 10
9.5
 20
0.0
 30
0.0
 11
10.0
 21
0.0
 31
0.0
  0
LINE
  5
124
330
1F
100
AcDbEntity
  8
0
  6
Continuous
 62
     7
370
    25
100
AcDbLine
 10
9.5
 20
0.0
 30
0.0
 11
9.5
 21
-0.1875
 31
0.0
  0
LINE
  5
125
330
1F
100
AcDbEntity
  8
0
  6
Continuous
 62
     7
370
    25
100
AcDbLine
 10
9.0
 20
-0.1875
 30
0.0
 11
9.5
 21
-0.1875
 31
0.0
  0
LINE
  5
126
330
1F
100
AcDbEntity
  8
0
  6
Continuous
 62
     7
370
    25
100
AcDbLine
 10
9.0
 20
0.0
 30
0.0
 11
9.0
 21
-0.1875
 31
0.0
  0
LINE
  5
127
330
1F
100
AcDbEntity
  8
0
  6
Continuous
 62
     7
370
    25
100
AcDbLine
 10
8.5
 20
0.0
 30
0.0
 11
9.0
 21
0.0
 31
0.0
  0
LINE
  5
128
330
1F
100
AcDbEntity
  8
0
  6
Continuous
 62
     7
370
    25
100
AcDbLine
 10
8.5
 20
0.0
 30
0.0
 11
8.5
 21
-0.1875
 31
0.0
  0
LINE
  5
129
330
1F
100
AcDbEntity
  8
0
  6
Continuous
 62
     7
370
    25
100
AcDbLine
 10
8.0
 20
-0.1875
 30
0.0
 11
8.5
 21
-0.1875
 31
0.0
  0
LINE
  5
12A
330
1F
100
AcDbEntity
  8
0
  6
Continuous
 62
     7
370
    25
100
AcDbLine
 10
8.0
 20
0.0
 30
0.0
 11
8.0
 21
-0.1875
 31
0.0
  0
LINE
  5
12B
330
1F
100
AcDbEntity
  8
0
  6
Continuous
 62
     7
370
    25
100
AcDbLine
 10
7.5
 20
0.0
 30
0.0
 11
8.0
 21
0.0
 31
0.0
  0
LINE
  5
12C
330
1F
100
AcDbEntity
  8
0
  6
Continuous
 62
     7
370
    25
100
AcDbLine
 10
7.5
 20
0.0
 30
0.0
 11
7.5
 21
-0.1875
 31
0.0
  0
LINE
  5
12D
330
1F
100
AcDbEntity
  8
0
  6
Continuous
 62
     7
370
    25
100
AcDbLine
 10
7.0
 20
-0.1875
 30
0.0
 11
7.5
 21
-0.1875
 31
0.0
  0
LINE
  5
12E
330
1F
100
AcDbEntity
  8
0
  6
Continuous
 62
     7
370
    25
100
AcDbLine
 10
7.0
 20
0.0
 30
0.0
 11
7.0
 21
-0.1875
 31
0.0
  0
LINE
  5
12F
330
1F
100
AcDbEntity
  8
0
  6
Continuous
 62
     7
370
    25
100
AcDbLine
 10
6.5
 20
0.0
 30
0.0
 11
7.0
 21
0.0
 31
0.0
  0
LINE
  5
130
330
1F
100
AcDbEntity
  8
0
  6
Continuous
 62
     7
370
    25
100
AcDbLine
 10
6.5
 20
0.0
 30
0.0
 11
6.5
 21
-0.1875
 31
0.0
  0
LINE
  5
131
330
1F
100
AcDbEntity
  8
0
  6
Continuous
 62
     7
370
    25
100
AcDbLine
 10
6.0
 20
-0.1875
 30
0.0
 11
6.5
 21
-0.1875
 31
0.0
  0
LINE
  5
132
330
1F
100
AcDbEntity
  8
0
  6
Continuous
 62
     7
370
    25
100
AcDbLine
 10
6.0
 20
0.0
 30
0.0
 11
6.0
 21
-0.1875
 31
0.0
  0
LINE
  5
133
330
1F
100
AcDbEntity
  8
0
  6
Continuous
 62
     7
370
    25
100
AcDbLine
 10
5.5
 20
0.0
 30
0.0
 11
6.0
 21
0.0
 31
0.0
  0
LINE
  5
134
330
1F
100
AcDbEntity
  8
0
  6
Continuous
 62
     7
370
    25
100
AcDbLine
 10
5.5
 20
0.0
 30
0.0
 11
5.5
 21
-0.1875
 31
0.0
  0
LINE
  5
135
330
1F
100
AcDbEntity
  8
0
  6
Continuous
 62
     7
370
    25
100
AcDbLine
 10
5.0
 20
-0.1875
 30
0.0
 11
5.5
 21
-0.1875
 31
0.0
  0
LINE
  5
136
330
1F
100
AcDbEntity
  8
0
  6
Continuous
 62
     7
370
    25
100
AcDbLine
 10
5.0
 20
0.0
 30
0.0
 11
5.0
 21
-0.1875
 31
0.0
  0
LINE
  5
137
330
1F
100
AcDbEntity
  8
0
  6
Continuous
 62
     7
370
    25
100
AcDbLine
 10
4.5
 20
0.0
 30
0.0
 11
5.0
 21
0.0
 31
0.0
  0
LINE
  5
138
330
1F
100
AcDbEntity
  8
0
  6
Continuous
 62
     7
370
    25
100
AcDbLine
 10
4.5
 20
0.0
 30
0.0
 11
4.5
 21
-0.1875
 31
0.0
  0
LINE
  5
139
330
1F
100
AcDbEntity
  8
0
  6
Continuous
 62
     7
370
    25
100
AcDbLine
 10
4.0
 20
-0.1875
 30
0.0
 11
4.5
 21
-0.1875
 31
0.0
  0
LINE
  5
13A
330
1F
100
AcDbEntity
  8
0
  6
Continuous
 62
     7
370
    25
100
AcDbLine
 10
4.0
 20
0.0
 30
0.0
 11
4.0
 21
-0.1875
 31
0.0
  0
LINE
  5
13B
330
1F
100
AcDbEntity
  8
0
  6
Continuous
 62
     7
370
    25
100
AcDbLine
 10
3.5
 20
0.0
 30
0.0
 11
4.0
 21
0.0
 31
0.0
  0
LINE
  5
13C
330
1F
100
AcDbEntity
  8
0
  6
Continuous
 62
     7
370
    25
100
AcDbLine
 10
3.5
 20
0.0
 30
0.0
 11
3.5
 21
-0.1875
 31
0.0
  0
LINE
  5
13D
330
1F
100
AcDbEntity
  8
0
  6
Continuous
 62
     7
370
    25
100
AcDbLine
 10
3.0
 20
-0.1875
 30
0.0
 11
3.5
 21
-0.1875
 31
0.0
  0
LINE
  5
13E
330
1F
100
AcDbEntity
  8
0
  6
Continuous
 62
     7
370
    25
100
AcDbLine
 10
3.0
 20
0.0
 30
0.0
 11
3.0
 21
-0.1875
 31
0.0
  0
LINE
  5
13F
330
1F
100
AcDbEntity
  8
0
  6
Continuous
 62
     7
370
    25
100
AcDbLine
 10
2.5
 20
0.0
 30
0.0
 11
3.0
 21
0.0
 31
0.0
  0
LINE
  5
140
330
1F
100
AcDbEntity
  8
0
  6
Continuous
 62
     7
370
    25
100
AcDbLine
 10
2.5
 20
0.0
 30
0.0
 11
2.5
 21
-0.1875
 31
0.0
  0
LINE
  5
141
330
1F
100
AcDbEntity
  8
0
  6
Continuous
 62
     7
370
    25
100
AcDbLine
 10
2.0
 20
-0.1875
 30
0.0
 11
2.5
 21
-0.1875
 31
0.0
  0
LINE
  5
142
330
1F
100
AcDbEntity
  8
0
  6
Continuous
 62
     7
370
    25
100
AcDbLine
 10
2.0
 20
0.0
 30
0.0
 11
2.0
 21
-0.1875
 31
0.0
  0
LINE
  5
143
330
1F
100
AcDbEntity
  8
0
  6
Continuous
 62
     7
370
    25
100
AcDbLine
 10
1.5
 20
0.0
 30
0.0
 11
2.0
 21
0.0
 31
0.0
  0
LINE
  5
144
330
1F
100
AcDbEntity
  8
0
  6
Continuous
 62
     7
370
    25
100
AcDbLine
 10
1.5
 20
0.0
 30
0.0
 11
1.5
 21
-0.1875
 31
0.0
  0
LINE
  5
145
330
1F
100
AcDbEntity
  8
0
  6
Continuous
 62
     7
370
    25
100
AcDbLine
 10
1.0
 20
-0.1875
 30
0.0
 11
1.5
 21
-0.1875
 31
0.0
  0
LINE
  5
146
330
1F
100
AcDbEntity
  8
0
  6
Continuous
 62
     7
370
    25
100
AcDbLine
 10
1.0
 20
0.0
 30
0.0
 11
1.0
 21
-0.1875
 31
0.0
  0
LINE
  5
147
330
1F
100
AcDbEntity
  8
0
  6
Continuous
 62
     7
370
    25
100
AcDbLine
 10
0.5
 20
0.0
 30
0.0
 11
1.0
 21
0.0
 31
0.0
  0
LINE
  5
148
330
1F
100
AcDbEntity
  8
0
  6
Continuous
 62
     7
370
    25
100
AcDbLine
 10
0.5
 20
0.0
 30
0.0
 11
0.5
 21
-0.1875
 31
0.0
  0
LINE
  5
149
330
1F
100
AcDbEntity
  8
0
  6
Continuous
 62
     7
370
    25
100
AcDbLine
 10
0.0
 20
-0.1875
 30
0.0
 11
0.5
 21
-0.1875
 31
0.0
  0
LINE
  5
14A
330
1F
100
AcDbEntity
  8
0
  6
Continuous
 62
     7
370
    25
100
AcDbLine
 10
0.0
 20
-0.1875
 30
0.0
 11
0.0
 21
7.1875
 31
0.0
  0
LINE
  5
14B
330
1F
100
AcDbEntity
  8
0
  6
Continuous
 62
     7
370
    25
100
AcDbLine
 10
0.0
 20
7.1875
 30
0.0
 11
0.5
 21
7.1875
 31
0.0
  0
LINE
  5
14C
330
1F
100
AcDbEntity
  8
0
  6
Continuous
 62
     7
370
    25
100
AcDbLine
 10
0.5
 20
7.0
 30
0.0
 11
0.5
 21
7.1875
 31
0.0
  0
LINE
  5
14D
330
1F
100
AcDbEntity
  8
0
  6
Continuous
 62
     7
370
    25
100
AcDbLine
 10
0.5
 20
7.0
 30
0.0
 11
1.0
 21
7.0
 31
0.0
  0
LINE
  5
14E
330
1F
100
AcDbEntity
  8
0
  6
Continuous
 62
     7
370
    25
100
AcDbLine
 10
1.0
 20
7.0
 30
0.0
 11
1.0
 21
7.1875
 31
0.0
  0
LINE
  5
14F
330
1F
100
AcDbEntity
  8
0
  6
Continuous
 62
     7
370
    25
100
AcDbLine
 10
1.0
 20
7.1875
 30
0.0
 11
1.5
 21
7.1875
 31
0.0
  0
LINE
  5
150
330
1F
100
AcDbEntity
  8
0
  6
Continuous
 62
     7
370
    25
100
AcDbLine
 10
1.5
 20
7.0
 30
0.0
 11
1.5
 21
7.1875
 31
0.0
  0
LINE
  5
151
330
1F
100
AcDbEntity
  8
0
  6
Continuous
 62
     7
370
    25
100
AcDbLine
 10
1.5
 20
7.0
 30
0.0
 11
2.0
 21
7.0
 31
0.0
  0
LINE
  5
152
330
1F
100
AcDbEntity
  8
0
  6
Continuous
 62
     7
370
    25
100
AcDbLine
 10
2.0
 20
7.0
 30
0.0
 11
2.0
 21
7.1875
 31
0.0
  0
LINE
  5
153
330
1F
100
AcDbEntity
  8
0
  6
Continuous
 62
     7
370
    25
100
AcDbLine
 10
2.0
 20
7.1875
 30
0.0
 11
2.5
 21
7.1875
 31
0.0
  0
LINE
  5
154
330
1F
100
AcDbEntity
  8
0
  6
Continuous
 62
     7
370
    25
100
AcDbLine
 10
2.5
 20
7.0
 30
0.0
 11
2.5
 21
7.1875
 31
0.0
  0
LINE
  5
155
330
1F
100
AcDbEntity
  8
0
  6
Continuous
 62
     7
370
    25
100
AcDbLine
 10
2.5
 20
7.0
 30
0.0
 11
3.0
 21
7.0
 31
0.0
  0
LINE
  5
156
330
1F
100
AcDbEntity
  8
0
  6
Continuous
 62
     7
370
    25
100
AcDbLine
 10
3.0
 20
7.0
 30
0.0
 11
3.0
 21
7.1875
 31
0.0
  0
LINE
  5
157
330
1F
100
AcDbEntity
  8
0
  6
Continuous
 62
     7
370
    25
100
AcDbLine
 10
3.0
 20
7.1875
 30
0.0
 11
3.5
 21
7.1875
 31
0.0
  0
LINE
  5
158
330
1F
100
AcDbEntity
  8
0
  6
Continuous
 62
     7
370
    25
100
AcDbLine
 10
3.5
 20
7.0
 30
0.0
 11
3.5
 21
7.1875
 31
0.0
  0
LINE
  5
159
330
1F
100
AcDbEntity
  8
0
  6
Continuous
 62
     7
370
    25
100
AcDbLine
 10
3.5
 20
7.0
 30
0.0
 11
4.0
 21
7.0
 31
0.0
  0
LINE
  5
15A
330
1F
100
AcDbEntity
  8
0
  6
Continuous
 62
     7
370
    25
100
AcDbLine
 10
4.0
 20
7.0
 30
0.0
 11
4.0
 21
7.1875
 31
0.0
  0
LINE
  5
15B
330
1F
100
AcDbEntity
  8
0
  6
Continuous
 62
     7
370
    25
100
AcDbLine
 10
4.0
 20
7.1875
 30
0.0
 11
4.5
 21
7.1875
 31
0.0
  0
LINE
  5
15C
330
1F
100
AcDbEntity
  8
0
  6
Continuous
 62
     7
370
    25
100
AcDbLine
 10
4.5
 20
7.0
 30
0.0
 11
4.5
 21
7.1875
 31
0.0
  0
LINE
  5
15D
330
1F
100
AcDbEntity
  8
0
  6
Continuous
 62
     7
370
    25
100
AcDbLine
 10
4.5
 20
7.0
 30
0.0
 11
5.0
 21
7.0
 31
0.0
  0
LINE
  5
15E
330
1F
100
AcDbEntity
  8
0
  6
Continuous
 62
     7
370
    25
100
AcDbLine
 10
5.0
 20
7.0
 30
0.0
 11
5.0
 21
7.1875
 31
0.0
  0
LINE
  5
15F
330
1F
100
AcDbEntity
  8
0
  6
Continuous
 62
     7
370
    25
100
AcDbLine
 10
5.0
 20
7.1875
 30
0.0
 11
5.5
 21
7.1875
 31
0.0
  0
LINE
  5
160
330
1F
100
AcDbEntity
  8
0
  6
Continuous
 62
     7
370
    25
100
AcDbLine
 10
5.5
 20
7.0
 30
0.0
 11
5.5
 21
7.1875
 31
0.0
  0
LINE
  5
161
330
1F
100
AcDbEntity
  8
0
  6
Continuous
 62
     7
370
    25
100
AcDbLine
 10
5.5
 20
7.0
 30
0.0
 11
6.0
 21
7.0
 31
0.0
  0
LINE
  5
162
330
1F
100
AcDbEntity
  8
0
  6
Continuous
 62
     7
370
    25
100
AcDbLine
 10
6.0
 20
7.0
 30
0.0
 11
6.0
 21
7.1875
 31
0.0
  0
LINE
  5
163
330
1F
100
AcDbEntity
  8
0
  6
Continuous
 62
     7
370
    25
100
AcDbLine
 10
6.0
 20
7.1875
 30
0.0
 11
6.5
 21
7.1875
 31
0.0
  0
LINE
  5
164
330
1F
100
AcDbEntity
  8
0
  6
Continuous
 62
     7
370
    25
100
AcDbLine
 10
6.5
 20
7.0
 30
0.0
 11
6.5
 21
7.1875
 31
0.0
  0
LINE
  5
165
330
1F
100
AcDbEntity
  8
0
  6
Continuous
 62
     7
370
    25
100
AcDbLine
 10
6.5
 20
7.0
 30
0.0
 11
7.0
 21
7.0
 31
0.0
  0
LINE
  5
166
330
1F
100
AcDbEntity
  8
0
  6
Continuous
 62
     7
370
    25
100
AcDbLine
 10
7.0
 20
7.0
 30
0.0
 11
7.0
 21
7.1875
 31
0.0
  0
LINE
  5
167
330
1F
100
AcDbEntity
  8
0
  6
Continuous
 62
     7
370
    25
100
AcDbLine
 10
7.0
 20
7.1875
 30
0.0
 11
7.5
 21
7.1875
 31
0.0
  0
LINE
  5
168
330
1F
100
AcDbEntity
  8
0
  6
Continuous
 62
     7
370
    25
100
AcDbLine
 10
7.5
 20
7.0
 30
0.0
 11
7.5
 21
7.1875
 31
0.0
  0
LINE
  5
169
330
1F
100
AcDbEntity
  8
0
  6
Continuous
 62
     7
370
    25
100
AcDbLine
 10
7.5
 20
7.0
 30
0.0
 11
8.0
 21
7.0
 31
0.0
  0
LINE
  5
16A
330
1F
100
AcDbEntity
  8
0
  6
Continuous
 62
     7
370
    25
100
AcDbLine
 10
8.0
 20
7.0
 30
0.0
 11
8.0
 21
7.1875
 31
0.0
  0
LINE
  5
16B
330
1F
100
AcDbEntity
  8
0
  6
Continuous
 62
     7
370
    25
100
AcDbLine
 10
8.0
 20
7.1875
 30
0.0
 11
8.5
 21
7.1875
 31
0.0
  0
LINE
  5
16C
330
1F
100
AcDbEntity
  8
0
  6
Continuous
 62
     7
370
    25
100
AcDbLine
 10
8.5
 20
7.0
 30
0.0
 11
8.5
 21
7.1875
 31
0.0
  0
LINE
  5
16D
330
1F
100
AcDbEntity
  8
0
  6
Continuous
 62
     7
370
    25
100
AcDbLine
 10
8.5
 20
7.0
 30
0.0
 11
9.0
 21
7.0
 31
0.0
  0
LINE
  5
16E
330
1F
100
AcDbEntity
  8
0
  6
Continuous
 62
     7
370
    25
100
AcDbLine
 10
9.0
 20
7.0
 30
0.0
 11
9.0
 21
7.1875
 31
0.0
  0
LINE
  5
16F
330
1F
100
AcDbEntity
  8
0
  6
Continuous
 62
     7
370
    25
100
AcDbLine
 10
9.0
 20
7.1875
 30
0.0
 11
9.5
 21
7.1875
 31
0.0
  0
LINE
  5
170
330
1F
100
AcDbEntity
  8
0
  6
Continuous
 62
     7
370
    25
100
AcDbLine
 10
9.5
 20
7.0
 30
0.0
 11
9.5
 21
7.1875
 31
0.0
  0
LINE
  5
171
330
1F
100
AcDbEntity
  8
0
  6
Continuous
 62
     7
370
    25
100
AcDbLine
 10
9.5
 20
7.0
 30
0.0
 11
10.0
 21
7.0
 31
0.0
  0
LINE
  5
172
330
1F
100
AcDbEntity
  8
0
  6
Continuous
 62
     7
370
    25
100
AcDbLine
 10
10.0
 20
7.0
 30
0.0
 11
10.0
 21
7.1875
 31
0.0
  0
LINE
  5
173
330
1F
100
AcDbEntity
  8
0
  6
Continuous
 62
     7
370
    25
100
AcDbLine
 10
10.0
 20
7.1875
 30
0.0
 11
10.5
 21
7.1875
 31
0.0
  0
LINE
  5
174
330
1F
100
AcDbEntity
  8
0
  6
Continuous
 62
     7
370
    25
100
AcDbLine
 10
10.5
 20
7.1875
 30
0.0
 11
10.5
 21
-0.1875
 31
0.0
  0
MTEXT
  5
176
330
1F
100
AcDbEntity
  8
0
  6
Continuous
 62
     7
100
AcDbMText
 10
0.0
 20
-0.2276404091
 30
0.0
 40
0.1903
 41
0.0
 71
     1
 72
     1
  1
SOLIDWORKS Educational Product.
  7
SLDTEXTSTYLE0
 73
     1
 44
1.0
  0
MTEXT
  5
177
330
1F
100
AcDbEntity
  8
0
  6
Continuous
 62
     7
100
AcDbMText
 10
0.0
 20
-0.5130904091
 30
0.0
 40
0.1903
 41
0.0
 71
     1
 72
     1
  1
For Instructional Use Only.
  7
SLDTEXTSTYLE0
 73
     1
 44
1.0
  0
ENDSEC
  0
SECTION
  2
OBJECTS
  0
DICTIONARY
  5
C
330
0
100
AcDbDictionary
281
     1
  3
ACAD_GROUP
350
D
  3
ACAD_LAYOUT
350
1A
  3
ACAD_MLINESTYLE
350
17
  3
ACAD_PLOTSETTINGS
350
19
  3
ACAD_PLOTSTYLENAME
350
E
  3
ACAD_SCALELIST
350
47
  0
DICTIONARY
  5
D
102
{ACAD_REACTORS
330
C
102
}
330
C
100
AcDbDictionary
281
     1
  0
DICTIONARY
  5
1A
102
{ACAD_REACTORS
330
C
102
}
330
C
100
AcDbDictionary
281
     1
  3
Layout1
350
1E
  3
Layout2
350
26
  3
Model
350
22
  0
DICTIONARY
  5
17
102
{ACAD_REACTORS
330
C
102
}
330
C
100
AcDbDictionary
281
     1
  3
Standard
350
18
  0
DICTIONARY
  5
19
102
{ACAD_REACTORS
330
C
102
}
330
C
100
AcDbDictionary
281
     1
  0
ACDBDICTIONARYWDFLT
  5
E
102
{ACAD_REACTORS
330
C
102
}
330
C
100
AcDbDictionary
281
     1
  3
Normal
350
F
100
AcDbDictionaryWithDefault
340
F
  0
DICTIONARY
  5
47
102
{ACAD_REACTORS
330
C
102
}
330
C
100
AcDbDictionary
281
     1
  3
A0
350
48
  3
A1
350
49
  3
A2
350
4A
  3
A3
350
4B
  3
A4
350
4C
  3
A5
350
4D
  3
A6
350
4E
  3
A7
350
4F
  3
A8
350
50
  3
A9
350
51
  3
B0
350
52
  3
B1
350
53
  3
B2
350
54
  3
B3
350
55
  3
B4
350
56
  3
B5
350
57
  3
B6
350
58
  3
B7
350
59
  3
B8
350
5A
  3
B9
350
5B
  3
C0
350
5C
  3
C1
350
5D
  3
C2
350
5E
  3
C3
350
5F
  3
C4
350
60
  3
C5
350
61
  3
C6
350
62
  3
C7
350
63
  3
C8
350
64
  3
C9
350
65
  3
D0
350
66
  3
D1
350
67
  3
D2
350
68
  0
LAYOUT
  5
1E
102
{ACAD_REACTORS
330
1A
102
}
330
1A
100
AcDbPlotSettings
  1

  2
none_device
  4

  6

 40
0.0
 41
0.0
 42
0.0
 43
0.0
 44
0.0
 45
0.0
 46
0.0
 47
0.0
 48
0.0
 49
0.0
140
0.0
141
0.0
142
1.0
143
1.0
 70
   688
 72
     0
 73
     0
 74
     5
  7

 75
    16
147
1.0
148
0.0
149
0.0
100
AcDbLayout
  1
Layout1
 70
     1
 71
     1
 10
0.0
 20
0.0
 11
12.0
 21
9.0
 12
0.0
 22
0.0
 32
0.0
 14
1.0000000000E+20
 24
1.0000000000E+20
 34
1.0000000000E+20
 15
-1.0000000000E+20
 25
-1.0000000000E+20
 35
-1.0000000000E+20
146
0.0
 13
0.0
 23
0.0
 33
0.0
 16
1.0
 26
0.0
 36
0.0
 17
0.0
 27
1.0
 37
0.0
 76
     0
330
1B
  0
LAYOUT
  5
26
102
{ACAD_REACTORS
330
1A
102
}
330
1A
100
AcDbPlotSettings
  1

  2
none_device
  4

  6

 40
0.0
 41
0.0
 42
0.0
 43
0.0
 44
0.0
 45
0.0
 46
0.0
 47
0.0
 48
0.0
 49
0.0
140
0.0
141
0.0
142
1.0
143
1.0
 70
   688
 72
     0
 73
     0
 74
     5
  7

 75
    16
147
1.0
148
0.0
149
0.0
100
AcDbLayout
  1
Layout2
 70
     1
 71
     2
 10
0.0
 20
0.0
 11
0.0
 21
0.0
 12
0.0
 22
0.0
 32
0.0
 14
0.0
 24
0.0
 34
0.0
 15
0.0
 25
0.0
 35
0.0
146
0.0
 13
0.0
 23
0.0
 33
0.0
 16
1.0
 26
0.0
 36
0.0
 17
0.0
 27
1.0
 37
0.0
 76
     0
330
23
  0
LAYOUT
  5
22
102
{ACAD_REACTORS
330
1A
102
}
330
1A
100
AcDbPlotSettings
  1

  2
none_device
  4
ANSI_A_(11.00_x_8.50_Inches)
  6

 40
6.35
 41
19.05
 42
6.35000508
 43
19.05000254
 44
279.4
 45
215.9
 46
-4.95300254
 47
-3.30200127
 48
0.0
 49
0.0
140
0.0
141
0.0
142
1.0371428571
143
1.0
 70
  1696
 72
     0
 73
     0
 74
     0
  7

 75
     0
147
0.5913241897
148
-39.4088153714
149
0.0
100
AcDbLayout
  1
Model
 70
     1
 71
     0
 10
0.0
 20
0.0
 11
12.0
 21
9.0
 12
0.0
 22
0.0
 32
0.0
 14
0.0
 24
-0.1875
 34
0.0
 15
10.5
 25
7.1875
 35
0.0
146
0.0
 13
0.0
 23
0.0
 33
0.0
 16
1.0
 26
0.0
 36
0.0
 17
0.0
 27
1.0
 37
0.0
 76
     0
330
1F
331
29
  0
MLINESTYLE
  5
18
102
{ACAD_REACTORS
330
17
102
}
330
17
100
AcDbMlineStyle
  2
Standard
 70
     0
  3

 62
   256
 51
90.0
 52
90.0
 71
     2
 49
0.5
 62
   256
  6
BYLAYER
 49
-0.5
 62
   256
  6
BYLAYER
  0
ACDBPLACEHOLDER
  5
F
102
{ACAD_REACTORS
330
E
102
}
330
E
  0
SCALE
  5
48
102
{ACAD_REACTORS
330
47
102
}
330
47
100
AcDbScale
 70
     0
300
1:1
140
1.0
141
1.0
290
     1
  0
SCALE
  5
49
102
{ACAD_REACTORS
330
47
102
}
330
47
100
AcDbScale
 70
     0
300
1:2
140
1.0
141
2.0
290
     0
  0
SCALE
  5
4A
102
{ACAD_REACTORS
330
47
102
}
330
47
100
AcDbScale
 70
     0
300
1:4
140
1.0
141
4.0
290
     0
  0
SCALE
  5
4B
102
{ACAD_REACTORS
330
47
102
}
330
47
100
AcDbScale
 70
     0
300
1:5
140
1.0
141
5.0
290
     0
  0
SCALE
  5
4C
102
{ACAD_REACTORS
330
47
102
}
330
47
100
AcDbScale
 70
     0
300
1:8
140
1.0
141
8.0
290
     0
  0
SCALE
  5
4D
102
{ACAD_REACTORS
330
47
102
}
330
47
100
AcDbScale
 70
     0
300
1:10
140
1.0
141
10.0
290
     0
  0
SCALE
  5
4E
102
{ACAD_REACTORS
330
47
102
}
330
47
100
AcDbScale
 70
     0
300
1:16
140
1.0
141
16.0
290
     0
  0
SCALE
  5
4F
102
{ACAD_REACTORS
330
47
102
}
330
47
100
AcDbScale
 70
     0
300
1:20
140
1.0
141
20.0
290
     0
  0
SCALE
  5
50
102
{ACAD_REACTORS
330
47
102
}
330
47
100
AcDbScale
 70
     0
300
1:30
140
1.0
141
30.0
290
     0
  0
SCALE
  5
51
102
{ACAD_REACTORS
330
47
102
}
330
47
100
AcDbScale
 70
     0
300
1:40
140
1.0
141
40.0
290
     0
  0
SCALE
  5
52
102
{ACAD_REACTORS
330
47
102
}
330
47
100
AcDbScale
 70
     0
300
1:50
140
1.0
141
50.0
290
     0
  0
SCALE
  5
53
102
{ACAD_REACTORS
330
47
102
}
330
47
100
AcDbScale
 70
     0
300
1:100
140
1.0
141
100.0
290
     0
  0
SCALE
  5
54
102
{ACAD_REACTORS
330
47
102
}
330
47
100
AcDbScale
 70
     0
300
2:1
140
2.0
141
1.0
290
     0
  0
SCALE
  5
55
102
{ACAD_REACTORS
330
47
102
}
330
47
100
AcDbScale
 70
     0
300
4:1
140
4.0
141
1.0
290
     0
  0
SCALE
  5
56
102
{ACAD_REACTORS
330
47
102
}
330
47
100
AcDbScale
 70
     0
300
8:1
140
8.0
141
1.0
290
     0
  0
SCALE
  5
57
102
{ACAD_REACTORS
330
47
102
}
330
47
100
AcDbScale
 70
     0
300
10:1
140
10.0
141
1.0
290
     0
  0
SCALE
  5
58
102
{ACAD_REACTORS
330
47
102
}
330
47
100
AcDbScale
 70
     0
300
100:1
140
100.0
141
1.0
290
     0
  0
SCALE
  5
59
102
{ACAD_REACTORS
330
47
102
}
330
47
100
AcDbScale
 70
     0
300
1/128" = 1'-0"
140
0.0078125
141
12.0
290
     0
  0
SCALE
  5
5A
102
{ACAD_REACTORS
330
47
102
}
330
47
100
AcDbScale
 70
     0
300
1/64" = 1'-0"
140
0.015625
141
12.0
290
     0
  0
SCALE
  5
5B
102
{ACAD_REACTORS
330
47
102
}
330
47
100
AcDbScale
 70
     0
300
1/32" = 1'-0"
140
0.03125
141
12.0
290
     0
  0
SCALE
  5
5C
102
{ACAD_REACTORS
330
47
102
}
330
47
100
AcDbScale
 70
     0
300
1/16" = 1'-0"
140
0.0625
141
12.0
290
     0
  0
SCALE
  5
5D
102
{ACAD_REACTORS
330
47
102
}
330
47
100
AcDbScale
 70
     0
300
3/32" = 1'-0"
140
0.09375
141
12.0
290
     0
  0
SCALE
  5
5E
102
{ACAD_REACTORS
330
47
102
}
330
47
100
AcDbScale
 70
     0
300
1/8" = 1'-0"
140
0.125
141
12.0
290
     0
  0
SCALE
  5
5F
102
{ACAD_REACTORS
330
47
102
}
330
47
100
AcDbScale
 70
     0
300
3/16" = 1'-0"
140
0.1875
141
12.0
290
     0
  0
SCALE
  5
60
102
{ACAD_REACTORS
330
47
102
}
330
47
100
AcDbScale
 70
     0
300
1/4" = 1'-0"
140
0.25
141
12.0
290
     0
  0
SCALE
  5
61
102
{ACAD_REACTORS
330
47
102
}
330
47
100
AcDbScale
 70
     0
300
3/8" = 1'-0"
140
0.375
141
12.0
290
     0
  0
SCALE
  5
62
102
{ACAD_REACTORS
330
47
102
}
330
47
100
AcDbScale
 70
     0
300
1/2" = 1'-0"
140
0.5
141
12.0
290
     0
  0
SCALE
  5
63
102
{ACAD_REACTORS
330
47
102
}
330
47
100
AcDbScale
 70
     0
300
3/4" = 1'-0"
140
0.75
141
12.0
290
     0
  0
SCALE
  5
64
102
{ACAD_REACTORS
330
47
102
}
330
47
100
AcDbScale
 70
     0
300
1" = 1'-0"
140
1.0
141
12.0
290
     0
  0
SCALE
  5
65
102
{ACAD_REACTORS
330
47
102
}
330
47
100
AcDbScale
 70
     0
300
1-1/2" = 1'-0"
140
1.5
141
12.0
290
     0
  0
SCALE
  5
66
102
{ACAD_REACTORS
330
47
102
}
330
47
100
AcDbScale
 70
     0
300
3" = 1'-0"
140
3.0
141
12.0
290
     0
  0
SCALE
  5
67
102
{ACAD_REACTORS
330
47
102
}
330
47
100
AcDbScale
 70
     0
300
6" = 1'-0"
140
6.0
141
12.0
290
     0
  0
SCALE
  5
68
102
{ACAD_REACTORS
330
47
102
}
330
47
100
AcDbScale
 70
     0
300
1'-0" = 1'-0"
140
12.0
141
12.0
290
     0
  0
ENDSEC
  0
EOF
